<svg width="21" height="20" viewBox="0 0 21 20" fill="none" xmlns="http://www.w3.org/2000/svg">
<path d="M17.8086 6.14073C17.8086 6.14073 17.8086 6.14073 17.8086 6.07406L17.7586 5.94906C17.7412 5.92254 17.7217 5.89746 17.7003 5.87406C17.678 5.83879 17.6529 5.80535 17.6253 5.77406L17.5503 5.71573L17.4169 5.64906L11.1669 1.79073C11.0345 1.70795 10.8815 1.66406 10.7253 1.66406C10.5691 1.66406 10.4161 1.70795 10.2836 1.79073L4.08362 5.64906L4.00862 5.71573L3.93362 5.77406C3.90599 5.80535 3.88091 5.83879 3.85862 5.87406C3.83719 5.89746 3.81769 5.92254 3.80028 5.94906L3.75028 6.07406C3.75028 6.07406 3.75028 6.07406 3.75028 6.14073C3.74209 6.21272 3.74209 6.28541 3.75028 6.3574V13.6407C3.75 13.7824 3.78581 13.9217 3.85434 14.0456C3.92287 14.1696 4.02186 14.274 4.14195 14.3491L10.3919 18.2074C10.4304 18.2312 10.4727 18.2481 10.5169 18.2574C10.5169 18.2574 10.5586 18.2574 10.5836 18.2574C10.7246 18.3021 10.876 18.3021 11.0169 18.2574C11.0169 18.2574 11.0586 18.2574 11.0836 18.2574C11.1279 18.2481 11.1701 18.2312 11.2086 18.2074L17.4169 14.3491C17.537 14.274 17.636 14.1696 17.7046 14.0456C17.7731 13.9217 17.8089 13.7824 17.8086 13.6407V6.3574C17.8168 6.28541 17.8168 6.21272 17.8086 6.14073ZM9.91695 16.0074L5.33362 13.1741V7.8574L9.91695 10.6824V16.0074ZM10.7503 9.24073L6.08362 6.3574L10.7503 3.4824L15.4169 6.3574L10.7503 9.24073ZM16.1669 13.1741L11.5836 16.0074V10.6824L16.1669 7.8574V13.1741Z" fill="white"/>
</svg>
