<svg width="21" height="20" viewBox="0 0 21 20" fill="none" xmlns="http://www.w3.org/2000/svg">
<path fill-rule="evenodd" clip-rule="evenodd" d="M5.45768 10.8346C8.84852 10.8346 8.99935 11.9846 8.99935 14.3763C8.99935 15.5746 8.99935 16.4271 8.49602 17.0513C7.91685 17.7705 6.86268 17.918 5.45768 17.918C4.05268 17.918 2.99852 17.7705 2.41935 17.0513C1.91602 16.4271 1.91602 15.5755 1.91602 14.3971L2.54102 14.3763H1.91602C1.91602 11.9846 2.06685 10.8346 5.45768 10.8346ZM14.6243 10.8346C18.0152 10.8346 18.166 11.9846 18.166 14.3763C18.166 15.5746 18.166 16.4271 17.6627 17.0513C17.0835 17.7705 16.0293 17.918 14.6243 17.918C13.2193 17.918 12.1652 17.7705 11.586 17.0513C11.0827 16.4271 11.0827 15.5755 11.0827 14.3971L11.7077 14.3763H11.0827C11.0827 11.9846 11.2335 10.8346 14.6243 10.8346ZM5.62948 12.085L5.45768 12.0846C3.28354 12.0846 3.17204 12.2406 3.16632 14.0655L3.16667 14.7765C3.17062 15.5023 3.19828 16.0265 3.39185 16.268C3.61268 16.5413 4.26852 16.668 5.45768 16.668C6.64685 16.668 7.30268 16.5405 7.52352 16.2671C7.74935 15.9863 7.74935 15.3196 7.74935 14.3963C7.74935 12.3128 7.74935 12.0948 5.62948 12.085ZM14.7961 12.085L14.6243 12.0846C12.4502 12.0846 12.3387 12.2406 12.333 14.0655L12.3333 14.7765C12.3373 15.5023 12.3649 16.0265 12.5585 16.268C12.7793 16.5413 13.4352 16.668 14.6243 16.668C15.8135 16.668 16.4693 16.5405 16.6902 16.2671C16.916 15.9863 16.916 15.3196 16.916 14.3963C16.916 12.3128 16.916 12.0948 14.7961 12.085ZM5.45768 1.66797C8.84852 1.66797 8.99935 2.81797 8.99935 5.20964C8.99935 6.40797 8.99935 7.26047 8.49602 7.88464C7.91685 8.6038 6.86268 8.7513 5.45768 8.7513C4.05268 8.7513 2.99852 8.6038 2.41935 7.88464C1.91602 7.26047 1.91602 6.4088 1.91602 5.23047L2.54102 5.20964H1.91602C1.91602 2.81797 2.06685 1.66797 5.45768 1.66797ZM14.6243 1.66797C18.0152 1.66797 18.166 2.81797 18.166 5.20964C18.166 6.40797 18.166 7.26047 17.6627 7.88464C17.0835 8.6038 16.0293 8.7513 14.6243 8.7513C13.2193 8.7513 12.1652 8.6038 11.586 7.88464C11.0827 7.26047 11.0827 6.4088 11.0827 5.23047L11.7077 5.20964H11.0827C11.0827 2.81797 11.2335 1.66797 14.6243 1.66797ZM5.62948 2.91834L5.45768 2.91797C3.28354 2.91797 3.17204 3.07398 3.16632 4.89884L3.16667 5.60979C3.17062 6.33559 3.19828 6.85987 3.39185 7.1013C3.61268 7.37464 4.26852 7.5013 5.45768 7.5013C6.64685 7.5013 7.30268 7.3738 7.52352 7.10047C7.74935 6.81964 7.74935 6.15297 7.74935 5.22964C7.74935 3.14613 7.74935 2.92815 5.62948 2.91834ZM14.7961 2.91834L14.6243 2.91797C12.4502 2.91797 12.3387 3.07398 12.333 4.89884L12.3333 5.60979C12.3373 6.33559 12.3649 6.85987 12.5585 7.1013C12.7793 7.37464 13.4352 7.5013 14.6243 7.5013C15.8135 7.5013 16.4693 7.3738 16.6902 7.10047C16.916 6.81964 16.916 6.15297 16.916 5.22964C16.916 3.14613 16.916 2.92815 14.7961 2.91834Z" fill="white" stroke="white" stroke-width="0.5"/>
</svg>
