<svg width="21" height="20" viewBox="0 0 21 20" fill="none" xmlns="http://www.w3.org/2000/svg">
<path d="M6.43244 12.9506C6.27723 13.1068 6.19011 13.318 6.19011 13.5381C6.19011 13.7583 6.27723 13.9695 6.43244 14.1256C6.5099 14.2038 6.60207 14.2657 6.70362 14.3081C6.80517 14.3504 6.91409 14.3721 7.0241 14.3721C7.13411 14.3721 7.24303 14.3504 7.34458 14.3081C7.44613 14.2657 7.5383 14.2038 7.61577 14.1256C7.77098 13.9695 7.8581 13.7583 7.8581 13.5381C7.8581 13.318 7.77098 13.1068 7.61577 12.9506C7.5383 12.8725 7.44613 12.8105 7.34458 12.7682C7.24303 12.7259 7.13411 12.7041 7.0241 12.7041C6.91409 12.7041 6.80517 12.7259 6.70362 12.7682C6.60207 12.8105 6.5099 12.8725 6.43244 12.9506ZM6.43244 5.87564C6.27723 6.03178 6.19011 6.24299 6.19011 6.46314C6.19011 6.6833 6.27723 6.89451 6.43244 7.05064C6.5099 7.12875 6.60207 7.19075 6.70362 7.23305C6.80517 7.27536 6.91409 7.29714 7.0241 7.29714C7.13411 7.29714 7.24303 7.27536 7.34458 7.23305C7.44613 7.19075 7.5383 7.12875 7.61577 7.05064C7.77098 6.89451 7.8581 6.6833 7.8581 6.46314C7.8581 6.24299 7.77098 6.03178 7.61577 5.87564C7.5383 5.79754 7.44613 5.73554 7.34458 5.69323C7.24303 5.65093 7.13411 5.62915 7.0241 5.62915C6.91409 5.62915 6.80517 5.65093 6.70362 5.69323C6.60207 5.73554 6.5099 5.79754 6.43244 5.87564ZM10.5574 14.209C10.3926 14.209 10.2315 14.2579 10.0945 14.3494C9.95742 14.441 9.85061 14.5711 9.78753 14.7234C9.72446 14.8757 9.70796 15.0432 9.74011 15.2049C9.77227 15.3665 9.85163 15.515 9.96818 15.6316C10.0847 15.7481 10.2332 15.8275 10.3949 15.8596C10.5565 15.8918 10.7241 15.8753 10.8763 15.8122C11.0286 15.7491 11.1588 15.6423 11.2503 15.5053C11.3419 15.3682 11.3908 15.2071 11.3908 15.0423C11.3964 14.9294 11.379 14.8166 11.3397 14.7106C11.3004 14.6046 11.2399 14.5078 11.1619 14.4259C11.084 14.3441 10.9902 14.2789 10.8863 14.2345C10.7823 14.19 10.6705 14.1672 10.5574 14.1673V14.209ZM5.55743 9.20898C5.39262 9.20898 5.2315 9.25785 5.09446 9.34942C4.95742 9.44099 4.85061 9.57114 4.78753 9.72341C4.72446 9.87568 4.70796 10.0432 4.74011 10.2049C4.77227 10.3665 4.85164 10.515 4.96818 10.6316C5.08472 10.7481 5.23321 10.8275 5.39486 10.8596C5.55651 10.8918 5.72407 10.8753 5.87634 10.8122C6.02861 10.7491 6.15876 10.6423 6.25033 10.5053C6.34189 10.3682 6.39077 10.2071 6.39077 10.0423C6.39642 9.92942 6.37905 9.81656 6.33971 9.7106C6.30036 9.60463 6.23988 9.50778 6.16193 9.42593C6.08397 9.34408 5.99018 9.27894 5.88626 9.23448C5.78234 9.19002 5.67047 9.16717 5.55743 9.16731V9.20898ZM10.5574 4.20898C10.3926 4.20898 10.2315 4.25785 10.0945 4.34942C9.95742 4.44099 9.85061 4.57114 9.78753 4.72341C9.72446 4.87568 9.70796 5.04324 9.74011 5.20489C9.77227 5.36654 9.85163 5.51502 9.96818 5.63157C10.0847 5.74811 10.2332 5.82748 10.3949 5.85963C10.5565 5.89179 10.7241 5.87528 10.8763 5.81221C11.0286 5.74914 11.1588 5.64233 11.2503 5.50529C11.3419 5.36825 11.3908 5.20713 11.3908 5.04231C11.3964 4.92942 11.379 4.81656 11.3397 4.7106C11.3004 4.60463 11.2399 4.50778 11.1619 4.42593C11.084 4.34408 10.9902 4.27894 10.8863 4.23448C10.7823 4.19002 10.6705 4.16717 10.5574 4.16731V4.20898ZM13.5074 5.91731C13.3904 6.03366 13.3105 6.18213 13.278 6.34392C13.2454 6.5057 13.2616 6.67351 13.3246 6.82608C13.3875 6.97864 13.4943 7.10908 13.6314 7.20086C13.7686 7.29265 13.9299 7.34165 14.0949 7.34165C14.26 7.34165 14.4213 7.29265 14.5584 7.20086C14.6956 7.10908 14.8024 6.97864 14.8653 6.82608C14.9282 6.67351 14.9444 6.5057 14.9119 6.34392C14.8793 6.18213 14.7995 6.03366 14.6824 5.91731C14.5319 5.75644 14.3237 5.66174 14.1035 5.65394C13.8833 5.64613 13.669 5.72584 13.5074 5.87564V5.91731ZM18.7574 5.91731C17.9956 4.39423 16.8244 3.11349 15.3754 2.21873C13.9264 1.32396 12.2568 0.850546 10.5538 0.851564C8.85076 0.852582 7.1817 1.32799 5.73375 2.22449C4.28581 3.12099 3.11623 4.40312 2.35617 5.92711C1.59611 7.45111 1.27562 9.1567 1.43064 10.8526C1.58566 12.5486 2.21006 14.1678 3.23382 15.5288C4.25759 16.8897 5.64023 17.9385 7.22672 18.5577C8.8132 19.1768 10.5408 19.3417 12.2158 19.034C12.637 18.9547 13.0382 18.7923 13.3959 18.5562C13.7536 18.3201 14.0606 18.0151 14.2991 17.659C14.5561 17.2718 14.7333 16.8373 14.8206 16.3809C14.9079 15.9245 14.9034 15.4553 14.8074 15.0006C14.755 14.7259 14.7271 14.447 14.7241 14.1673C14.7278 13.3598 14.966 12.5707 15.4098 11.8961C15.8537 11.2214 16.484 10.6903 17.2241 10.3673C17.6232 10.1886 17.9814 9.93008 18.2766 9.60759C18.5719 9.28511 18.7979 8.90554 18.9408 8.49231C19.0853 8.07005 19.1435 7.62307 19.112 7.17788C19.0805 6.73269 18.9599 6.29836 18.7574 5.90064V5.91731ZM17.3408 7.95064C17.2697 8.15008 17.1593 8.33322 17.0161 8.48924C16.873 8.64526 16.7 8.77098 16.5074 8.85898C15.4824 9.31781 14.6116 10.0628 13.9996 11.0044C13.3877 11.946 13.0605 13.0443 13.0574 14.1673C13.0587 14.559 13.0977 14.9498 13.1741 15.334C13.225 15.5688 13.2284 15.8115 13.184 16.0476C13.1396 16.2838 13.0484 16.5086 12.9158 16.709C12.8035 16.8843 12.6558 17.0342 12.4822 17.149C12.3085 17.2638 12.1127 17.341 11.9074 17.3756C11.4623 17.4593 11.0103 17.5011 10.5574 17.5006C9.55257 17.5011 8.55786 17.2997 7.63237 16.9083C6.70688 16.5168 5.86948 15.9434 5.1699 15.2221C4.47033 14.5008 3.92284 13.6462 3.55995 12.7091C3.19706 11.7721 3.02617 10.7717 3.05743 9.76731C3.12211 7.89464 3.88161 6.11311 5.18796 4.76978C6.49431 3.42645 8.25396 2.61755 10.1241 2.50064H10.5491C11.9456 2.50099 13.3142 2.89122 14.5009 3.62737C15.6875 4.36351 16.6451 5.41635 17.2658 6.66731C17.4568 7.06313 17.4838 7.51838 17.3408 7.93398V7.95064ZM10.5574 9.16731C10.3926 9.16731 10.2315 9.21618 10.0945 9.30775C9.95742 9.39932 9.85061 9.52947 9.78753 9.68174C9.72446 9.83401 9.70796 10.0016 9.74011 10.1632C9.77227 10.3249 9.85163 10.4734 9.96818 10.5899C10.0847 10.7064 10.2332 10.7858 10.3949 10.818C10.5565 10.8501 10.7241 10.8336 10.8763 10.7705C11.0286 10.7075 11.1588 10.6007 11.2503 10.4636C11.3419 10.3266 11.3908 10.1655 11.3908 10.0006C11.3908 9.77963 11.303 9.56767 11.1467 9.41139C10.9904 9.25511 10.7784 9.16731 10.5574 9.16731Z" fill="#080134"/>
</svg>
