<svg width="25" height="25" viewBox="0 0 25 25" fill="none" xmlns="http://www.w3.org/2000/svg">
<path d="M5.76855 10.2499C5.76731 9.36045 5.94213 8.47951 6.28294 7.6579C6.62375 6.83628 7.12381 6.09025 7.75429 5.4628C8.38476 4.83535 9.1332 4.33889 9.95644 4.00204C10.7797 3.66519 11.6615 3.49461 12.5509 3.50013C16.2625 3.52772 19.2312 6.61275 19.2312 10.3347V10.9999C19.2312 14.3577 19.9337 16.3061 20.5524 17.371C20.6191 17.4848 20.6546 17.6142 20.6553 17.746C20.656 17.8779 20.6219 18.0076 20.5565 18.1221C20.491 18.2366 20.3966 18.3318 20.2826 18.3982C20.1686 18.4645 20.0392 18.4996 19.9073 18.4999H5.09173C4.95985 18.4996 4.83038 18.4645 4.7164 18.3981C4.60242 18.3318 4.50795 18.2366 4.44252 18.122C4.3771 18.0075 4.34303 17.8778 4.34376 17.7459C4.34449 17.614 4.37999 17.4846 4.44667 17.3709C5.06573 16.3059 5.76855 14.3575 5.76855 10.9999L5.76855 10.2499Z" stroke="#080134" stroke-width="2" stroke-linecap="round" stroke-linejoin="round"/>
<path d="M9.5 18.5V19.25C9.5 20.0456 9.81607 20.8087 10.3787 21.3713C10.9413 21.9339 11.7044 22.25 12.5 22.25C13.2956 22.25 14.0587 21.9339 14.6213 21.3713C15.1839 20.8087 15.5 20.0456 15.5 19.25V18.5" stroke="#080134" stroke-width="2" stroke-linecap="round" stroke-linejoin="round"/>
</svg>
