<svg width="32" height="32" viewBox="0 0 32 32" fill="none" xmlns="http://www.w3.org/2000/svg">
<rect x="1.5" y="1.5" width="29" height="29" rx="14.5" fill="#003F3B"/>
<g clip-path="url(#clip0_3378:36941)">
<path d="M16.9959 18.0084L18.9976 20.0101L23.6682 15.3395L21.6665 13.3378L20.9993 14.005L17.6632 10.6689L18.3304 10.0017L16.3287 8L11.6581 12.6706L13.6598 14.6723L14.3271 14.0051L14.9943 14.6723L8.32202 21.3445L10.3237 23.3462L16.9959 16.674L17.6631 17.3412L16.9959 18.0084ZM12.9926 12.6706L16.3287 9.33447L16.9959 10.0017L13.6598 13.3378L12.9926 12.6706ZM18.9976 18.6756L18.3304 18.0084L21.6665 14.6723L22.3337 15.3395L18.9976 18.6756ZM10.3237 22.0117L9.65646 21.3445L15.6615 15.3395L16.3287 16.0067L10.3237 22.0117ZM14.9943 13.3378L16.996 11.3361L20.332 14.6722L18.3304 16.6739C17.8398 16.1833 15.4829 13.8265 14.9943 13.3378Z" fill="#01C5BA"/>
<path d="M22.7343 23.0552V21.168H18.0164V23.0552H17.0728V23.9988H23.6779V23.0552H22.7343ZM18.96 23.0552V22.1116H21.7907V23.0552H18.96Z" fill="#01C5BA"/>
</g>
<rect x="1.5" y="1.5" width="29" height="29" rx="14.5" stroke="#080134" stroke-width="3"/>
<defs>
<clipPath id="clip0_3378:36941">
<rect width="16" height="16" fill="white" transform="translate(8 8)"/>
</clipPath>
</defs>
</svg>
