<svg width="16" height="16" viewBox="0 0 16 16" fill="none" xmlns="http://www.w3.org/2000/svg">
    <g clip-path="url(#clip0_3500_35003)">
    <path d="M8.99592 10.0084L10.9976 12.0101L15.6682 7.33947L13.6665 5.33778L12.9993 6.005L9.66317 2.6689L10.3304 2.00172L8.3287 0L3.65814 4.67059L5.65983 6.67228L6.32705 6.00506L6.99427 6.67228L0.322021 13.3445L2.32368 15.3462L8.99592 8.67397L9.66314 9.34118L8.99592 10.0084ZM4.99258 4.67059L8.3287 1.33447L8.99592 2.00172L5.6598 5.33781L4.99258 4.67059ZM10.9976 10.6756L10.3304 10.0084L13.6665 6.67228L14.3337 7.3395L10.9976 10.6756ZM2.32368 14.0117L1.65646 13.3445L7.66149 7.3395L8.3287 8.00671L2.32368 14.0117ZM6.99427 5.33781L8.99595 3.33612L12.332 6.67225L10.3304 8.67393C9.83978 8.18332 7.48293 5.82647 6.99427 5.33781Z" fill="#018DF0"/>
    <path d="M14.7344 15.0552V13.168H10.0164V15.0552H9.07281V15.9988H15.678V15.0552H14.7344ZM10.96 15.0552V14.1116H13.7908V15.0552H10.96Z" fill="#018DF0"/>
    </g>
    <defs>
    <clipPath id="clip0_3500_35003">
    <rect width="16" height="16" fill="white"/>
    </clipPath>
    </defs>
    </svg>
    