<svg width="32" height="32" viewBox="0 0 32 32" fill="none" xmlns="http://www.w3.org/2000/svg">
<rect x="1.5" y="1.5" width="29" height="29" rx="14.5" fill="#561857"/>
<path fill-rule="evenodd" clip-rule="evenodd" d="M19.3146 16.5901C19.6784 16.6469 19.9272 16.9878 19.8705 17.3516C19.7423 18.1723 19.3568 18.931 18.7695 19.5183C18.1822 20.1056 17.4235 20.4911 16.6029 20.6192C16.2391 20.676 15.8981 20.4272 15.8413 20.0634C15.7845 19.6996 16.0334 19.3587 16.3972 19.3019C16.9386 19.2173 17.4392 18.963 17.8267 18.5755C18.2142 18.188 18.4685 17.6874 18.5531 17.146C18.6099 16.7822 18.9508 16.5333 19.3146 16.5901Z" fill="#FF72D2"/>
<path fill-rule="evenodd" clip-rule="evenodd" d="M16.7219 8.6907C16.9844 8.44603 17.3935 8.45306 17.6474 8.70659C19.4596 10.5158 21.9166 13.1939 21.9166 16.7489C21.9166 18.3181 21.2932 19.823 20.1836 20.9326C19.074 22.0422 17.5691 22.6656 15.9999 22.6656C14.4307 22.6656 12.9258 22.0422 11.8162 20.9326C10.7066 19.823 10.0833 18.3181 10.0833 16.7489C10.0833 14.9985 10.9615 13.2003 11.9466 11.7152C12.1457 11.4151 12.5472 11.3274 12.8533 11.5171L12.8534 11.5171C12.8597 11.521 12.8659 11.525 12.872 11.5291L14.7291 12.7671L16.5744 8.89181C16.6105 8.81612 16.6605 8.74791 16.7218 8.69075L16.7219 8.6907ZM17.3676 10.3274L15.6018 14.0355C15.5187 14.2102 15.3637 14.3401 15.1772 14.3916C14.9907 14.443 14.7911 14.4109 14.6301 14.3036L12.7 13.0169C11.9424 14.2731 11.4166 15.5779 11.4166 16.7489C11.4166 17.9645 11.8995 19.1303 12.759 19.9898C13.6186 20.8494 14.7843 21.3323 15.9999 21.3323C17.2155 21.3323 18.3813 20.8494 19.2408 19.9898C20.1004 19.1303 20.5833 17.9645 20.5833 16.7489C20.5833 14.1555 18.9989 12.0453 17.3676 10.3274Z" fill="#FF72D2"/>
<rect x="1.5" y="1.5" width="29" height="29" rx="14.5" stroke="#080134" stroke-width="3"/>
</svg>
