<svg width="16" height="16" viewBox="0 0 16 16" fill="none" xmlns="http://www.w3.org/2000/svg">
<path fill-rule="evenodd" clip-rule="evenodd" d="M11.3153 8.59206C11.6791 8.64885 11.928 8.9898 11.8712 9.35358C11.7431 10.1742 11.3575 10.9329 10.7702 11.5202C10.1829 12.1075 9.42422 12.4931 8.60359 12.6212C8.23981 12.678 7.89886 12.4291 7.84206 12.0654C7.78526 11.7016 8.03412 11.3606 8.39791 11.3038C8.93934 11.2193 9.43993 10.9649 9.82742 10.5774C10.2149 10.1899 10.4693 9.68935 10.5538 9.14791C10.6106 8.78413 10.9516 8.53526 11.3153 8.59206Z" fill="#C379F6"/>
<path fill-rule="evenodd" clip-rule="evenodd" d="M8.72259 0.692649C8.9851 0.447982 9.39419 0.455008 9.64814 0.708547C11.4603 2.51776 13.9173 5.19586 13.9173 8.75087C13.9173 10.3201 13.294 11.825 12.1844 12.9346C11.0748 14.0442 9.56985 14.6675 8.00065 14.6675C6.43145 14.6675 4.92653 14.0442 3.81694 12.9346C2.70735 11.825 2.08398 10.3201 2.08398 8.75087C2.08398 7.00047 2.96226 5.20221 3.94735 3.71718C4.14644 3.41704 4.54793 3.3293 4.85407 3.51903L4.85414 3.51907C4.86041 3.52296 4.86662 3.52695 4.87276 3.53104L6.72979 4.76906L8.57516 0.893767C8.61121 0.818075 8.66121 0.74986 8.72254 0.6927L8.72259 0.692649ZM9.36833 2.32938L7.60256 6.03749C7.51938 6.21216 7.36444 6.34208 7.17795 6.39353C6.99146 6.44498 6.79182 6.41288 6.63085 6.30557L4.70075 5.01884C3.94314 6.27507 3.41732 7.57982 3.41732 8.75087C3.41732 9.96645 3.9002 11.1322 4.75974 11.9918C5.61929 12.8513 6.78508 13.3342 8.00065 13.3342C9.21623 13.3342 10.382 12.8513 11.2416 11.9918C12.1011 11.1322 12.584 9.96645 12.584 8.75087C12.584 6.15745 10.9997 4.04725 9.36833 2.32938Z" fill="#C379F6"/>
</svg>
