<svg width="16" height="16" viewBox="0 0 16 16" fill="none" xmlns="http://www.w3.org/2000/svg">
    <path fill-rule="evenodd" clip-rule="evenodd" d="M11.3145 8.59011C11.6783 8.6469 11.9272 8.98785 11.8704 9.35163C11.7423 10.1723 11.3567 10.931 10.7694 11.5183C10.1821 12.1056 9.42343 12.4911 8.60279 12.6192C8.23901 12.676 7.89806 12.4272 7.84127 12.0634C7.78447 11.6996 8.03333 11.3587 8.39711 11.3019C8.93855 11.2173 9.43913 10.963 9.82663 10.5755C10.2141 10.188 10.4685 9.6874 10.553 9.14596C10.6098 8.78217 10.9508 8.53331 11.3145 8.59011Z" fill="#FF72D2"/>
    <path fill-rule="evenodd" clip-rule="evenodd" d="M8.72192 0.690696C8.98443 0.446028 9.39351 0.453055 9.64747 0.706594C11.4597 2.5158 13.9166 5.19391 13.9166 8.74892C13.9166 10.3181 13.2933 11.823 12.1837 12.9326C11.0741 14.0422 9.56918 14.6656 7.99998 14.6656C6.43078 14.6656 4.92585 14.0422 3.81626 12.9326C2.70667 11.823 2.08331 10.3181 2.08331 8.74892C2.08331 6.99852 2.96159 5.20026 3.94667 3.71523C4.14577 3.41509 4.54726 3.32735 4.8534 3.51708L4.85347 3.51712C4.85974 3.52101 4.86595 3.525 4.87209 3.52909L6.72911 4.76711L8.57449 0.891814C8.61054 0.816122 8.66053 0.747907 8.72186 0.690746L8.72192 0.690696ZM9.36765 2.32743L7.60189 6.03554C7.51871 6.2102 7.36377 6.34013 7.17728 6.39157C6.99079 6.44302 6.79115 6.41093 6.63018 6.30362L4.70008 5.01688C3.94247 6.27312 3.41665 7.57787 3.41665 8.74892C3.41665 9.96449 3.89953 11.1303 4.75907 11.9898C5.61862 12.8494 6.7844 13.3323 7.99998 13.3323C9.21556 13.3323 10.3813 12.8494 11.2409 11.9898C12.1004 11.1303 12.5833 9.96449 12.5833 8.74892C12.5833 6.1555 10.999 4.04529 9.36765 2.32743Z" fill="#FF72D2"/>
    </svg>
    