<svg width="21" height="20" viewBox="0 0 21 20" fill="none" xmlns="http://www.w3.org/2000/svg">
<path fill-rule="evenodd" clip-rule="evenodd" d="M7.55552 2.66405C7.71007 2.43222 7.97026 2.29297 8.24889 2.29297H13.2489C13.5275 2.29297 13.7877 2.43222 13.9423 2.66405L14.9449 4.16797H16.9993C17.5519 4.16797 18.0818 4.38746 18.4725 4.77816C18.8632 5.16886 19.0827 5.69877 19.0827 6.2513V15.0013C19.0827 15.5538 18.8632 16.0837 18.4725 16.4744C18.0818 16.8651 17.5519 17.0846 16.9993 17.0846H4.49935C3.94681 17.0846 3.41691 16.8651 3.02621 16.4744C2.63551 16.0837 2.41602 15.5538 2.41602 15.0013V6.2513C2.41602 5.69877 2.63551 5.16886 3.02621 4.77816C3.41691 4.38746 3.94681 4.16797 4.49935 4.16797H6.5529L7.55552 2.66405ZM8.69488 3.95964L7.69227 5.46355C7.53771 5.69538 7.27752 5.83464 6.99889 5.83464H4.49935C4.38884 5.83464 4.28286 5.87853 4.20472 5.95667C4.12658 6.03482 4.08268 6.1408 4.08268 6.2513V15.0013C4.08268 15.1118 4.12658 15.2178 4.20472 15.2959C4.28286 15.3741 4.38884 15.418 4.49935 15.418H16.9993C17.1099 15.418 17.2158 15.3741 17.294 15.2959C17.3721 15.2178 17.416 15.1118 17.416 15.0013V6.2513C17.416 6.1408 17.3721 6.03482 17.294 5.95667C17.2158 5.87853 17.1099 5.83464 16.9993 5.83464H14.4989C14.2203 5.83464 13.9601 5.69538 13.8055 5.46355L12.8029 3.95964H8.69488Z" fill="white"/>
<path fill-rule="evenodd" clip-rule="evenodd" d="M10.7493 8.33464C9.65629 8.33464 8.77018 9.22074 8.77018 10.3138C8.77018 11.4069 9.65629 12.293 10.7493 12.293C11.8424 12.293 12.7285 11.4069 12.7285 10.3138C12.7285 9.22074 11.8424 8.33464 10.7493 8.33464ZM7.10352 10.3138C7.10352 8.30026 8.73581 6.66797 10.7493 6.66797C12.7629 6.66797 14.3952 8.30026 14.3952 10.3138C14.3952 12.3273 12.7629 13.9596 10.7493 13.9596C8.73581 13.9596 7.10352 12.3273 7.10352 10.3138Z" fill="white"/>
</svg>
