<svg width="12" height="12" viewBox="0 0 12 12" fill="none" xmlns="http://www.w3.org/2000/svg">
<path d="M7.17593 5.9995L10.7593 2.4245C10.9162 2.26758 11.0043 2.05475 11.0043 1.83284C11.0043 1.61092 10.9162 1.39809 10.7593 1.24117C10.6023 1.08425 10.3895 0.996094 10.1676 0.996094C9.94567 0.996094 9.73285 1.08425 9.57593 1.24117L6.00093 4.8245L2.42593 1.24117C2.26901 1.08425 2.05618 0.996094 1.83426 0.996094C1.61234 0.996094 1.39951 1.08425 1.24259 1.24117C1.08567 1.39809 0.997516 1.61092 0.997516 1.83284C0.997516 2.05475 1.08567 2.26758 1.24259 2.4245L4.82593 5.9995L1.24259 9.5745C1.16449 9.65197 1.10249 9.74414 1.06018 9.84569C1.01788 9.94724 0.996094 10.0562 0.996094 10.1662C0.996094 10.2762 1.01788 10.3851 1.06018 10.4867C1.10249 10.5882 1.16449 10.6804 1.24259 10.7578C1.32006 10.8359 1.41223 10.8979 1.51378 10.9402C1.61533 10.9826 1.72425 11.0043 1.83426 11.0043C1.94427 11.0043 2.05319 10.9826 2.15474 10.9402C2.25629 10.8979 2.34846 10.8359 2.42593 10.7578L6.00093 7.1745L9.57593 10.7578C9.6534 10.8359 9.74556 10.8979 9.84711 10.9402C9.94866 10.9826 10.0576 11.0043 10.1676 11.0043C10.2776 11.0043 10.3865 10.9826 10.4881 10.9402C10.5896 10.8979 10.6818 10.8359 10.7593 10.7578C10.8374 10.6804 10.8994 10.5882 10.9417 10.4867C10.984 10.3851 11.0058 10.2762 11.0058 10.1662C11.0058 10.0562 10.984 9.94724 10.9417 9.84569C10.8994 9.74414 10.8374 9.65197 10.7593 9.5745L7.17593 5.9995Z" fill="white"/>
</svg>
