<svg width="32" height="32" viewBox="0 0 32 32" fill="none" xmlns="http://www.w3.org/2000/svg">
<rect x="1.5" y="1.5" width="29" height="29" rx="14.5" fill="#433340"/>
<path fill-rule="evenodd" clip-rule="evenodd" d="M15.9245 17.6106L15.9998 17.6107L16.1682 17.6112C17.4552 17.6197 20.3965 17.7497 20.3965 19.7433C20.3965 21.7238 17.5577 21.853 16.1882 21.8614L15.6808 21.8614C14.3937 21.8529 11.4518 21.7231 11.4518 19.732C11.4518 17.749 14.3937 17.6197 15.6808 17.6112L15.8492 17.6107C15.8753 17.6106 15.9004 17.6106 15.9245 17.6106ZM15.9245 18.6106C14.3405 18.6106 12.4518 18.8053 12.4518 19.732C12.4518 20.6377 14.2278 20.8494 15.7797 20.8614L15.9245 20.862C17.5085 20.862 19.3965 20.668 19.3965 19.7433C19.3965 18.8073 17.5085 18.6106 15.9245 18.6106ZM21.2269 17.3401C22.8422 17.5821 23.1816 18.3408 23.1816 18.9348C23.1816 19.2974 23.0389 19.9594 22.0856 20.3228C22.0269 20.3448 21.9669 20.3554 21.9075 20.3554C21.7062 20.3554 21.5162 20.2328 21.4402 20.0334C21.3415 19.7754 21.4715 19.4861 21.7295 19.3881C22.1816 19.2161 22.1816 19.0261 22.1816 18.9348C22.1816 18.6428 21.8102 18.4388 21.0782 18.3294C20.8055 18.2881 20.6169 18.0341 20.6575 17.7601C20.6982 17.4868 20.9515 17.3048 21.2269 17.3401ZM11.1907 17.7601C11.2314 18.0341 11.0427 18.2881 10.7701 18.3294C10.0381 18.4388 9.66675 18.6428 9.66675 18.9348C9.66675 19.0261 9.66675 19.2154 10.1194 19.3881C10.3774 19.4861 10.5074 19.7754 10.4087 20.0334C10.3327 20.2328 10.1427 20.3554 9.94141 20.3554C9.88208 20.3554 9.82208 20.3448 9.76341 20.3228C8.80941 19.9588 8.66675 19.2968 8.66675 18.9348C8.66675 18.3414 9.00608 17.5821 10.6221 17.3401C10.8974 17.3054 11.1494 17.4868 11.1907 17.7601ZM15.9245 10.668C17.6045 10.668 18.9705 12.0346 18.9705 13.714C18.9705 15.3933 17.6045 16.76 15.9245 16.76H15.9065C15.0931 16.7573 14.3311 16.4386 13.7605 15.8626C13.1885 15.2873 12.8758 14.5233 12.8791 13.712C12.8791 12.0346 14.2451 10.668 15.9245 10.668ZM15.9245 11.668C14.7965 11.668 13.8791 12.586 13.8791 13.714C13.8771 14.2606 14.0865 14.772 14.4698 15.158C14.8531 15.544 15.3638 15.758 15.9078 15.76L15.9245 16.26V15.76C17.0525 15.76 17.9705 14.8426 17.9705 13.714C17.9705 12.586 17.0525 11.668 15.9245 11.668ZM20.0505 11.321C21.2225 11.5136 22.0738 12.5163 22.0738 13.705C22.0712 14.9016 21.1771 15.9283 19.9938 16.0943C19.9705 16.0976 19.9471 16.099 19.9245 16.099C19.6791 16.099 19.4651 15.9183 19.4298 15.6683C19.3918 15.3943 19.5818 15.1416 19.8558 15.1036C20.5492 15.0063 21.0725 14.405 21.0738 13.7036C21.0738 13.0083 20.5751 12.4203 19.8878 12.3076C19.6158 12.263 19.4311 12.0056 19.4758 11.733C19.5211 11.4603 19.7765 11.2776 20.0505 11.321ZM12.3731 11.733C12.4178 12.0056 12.2331 12.263 11.9611 12.3076C11.2738 12.4203 10.7751 13.0083 10.7751 13.705C10.7765 14.405 11.2998 15.007 11.9925 15.1036C12.2665 15.1416 12.4565 15.3943 12.4185 15.6683C12.3831 15.9183 12.1691 16.099 11.9238 16.099C11.9011 16.099 11.8778 16.0976 11.8545 16.0943C10.6711 15.9283 9.77781 14.9016 9.77515 13.7063C9.77515 12.5163 10.6265 11.5136 11.7985 11.321C12.0791 11.277 12.3278 11.4616 12.3731 11.733Z" fill="#FFD166"/>
<rect x="1.5" y="1.5" width="29" height="29" rx="14.5" stroke="#080134" stroke-width="3"/>
</svg>
