<svg width="16" height="16" viewBox="0 0 16 16" fill="none" xmlns="http://www.w3.org/2000/svg">
    <path fill-rule="evenodd" clip-rule="evenodd" d="M7.92448 9.61064L7.99976 9.61066L8.16815 9.61123C9.45521 9.61971 12.3965 9.74972 12.3965 11.7433C12.3965 13.7238 9.55774 13.853 8.18821 13.8614L7.68081 13.8614C6.39367 13.8529 3.45181 13.7231 3.45181 11.732C3.45181 9.74898 6.39367 9.61966 7.68081 9.61122L7.8492 9.61066C7.87533 9.61064 7.90044 9.61064 7.92448 9.61064ZM7.92448 10.6106C6.34048 10.6106 4.45182 10.8053 4.45182 11.732C4.45182 12.6377 6.22775 12.8494 7.7797 12.8614L7.92448 12.862C9.50848 12.862 11.3965 12.668 11.3965 11.7433C11.3965 10.8073 9.50848 10.6106 7.92448 10.6106ZM13.2269 9.3401C14.8422 9.5821 15.1816 10.3408 15.1816 10.9348C15.1816 11.2974 15.0389 11.9594 14.0856 12.3228C14.0269 12.3448 13.9669 12.3554 13.9075 12.3554C13.7062 12.3554 13.5162 12.2328 13.4402 12.0334C13.3415 11.7754 13.4715 11.4861 13.7295 11.3881C14.1816 11.2161 14.1816 11.0261 14.1816 10.9348C14.1816 10.6428 13.8102 10.4388 13.0782 10.3294C12.8055 10.2881 12.6169 10.0341 12.6575 9.7601C12.6982 9.48677 12.9515 9.30477 13.2269 9.3401ZM3.19075 9.7601C3.23142 10.0341 3.04275 10.2881 2.77008 10.3294C2.03808 10.4388 1.66675 10.6428 1.66675 10.9348C1.66675 11.0261 1.66675 11.2154 2.11941 11.3881C2.37742 11.4861 2.50742 11.7754 2.40875 12.0334C2.33275 12.2328 2.14275 12.3554 1.94141 12.3554C1.88208 12.3554 1.82208 12.3448 1.76341 12.3228C0.809415 11.9588 0.666748 11.2968 0.666748 10.9348C0.666748 10.3414 1.00608 9.5821 2.62208 9.3401C2.89741 9.30544 3.14942 9.48677 3.19075 9.7601ZM7.92448 2.66797C9.60448 2.66797 10.9705 4.03464 10.9705 5.71397C10.9705 7.3933 9.60448 8.75997 7.92448 8.75997H7.90648C7.09315 8.7573 6.33115 8.43864 5.76048 7.86264C5.18848 7.2873 4.87581 6.5233 4.87912 5.71197C4.87912 4.03464 6.24515 2.66797 7.92448 2.66797ZM7.92448 3.66797C6.79648 3.66797 5.87913 4.58597 5.87913 5.71397C5.87715 6.26064 6.08648 6.77197 6.46982 7.15797C6.85315 7.54397 7.36382 7.75797 7.90782 7.75997L7.92448 8.25997V7.75997C9.05248 7.75997 9.97048 6.84264 9.97048 5.71397C9.97048 4.58597 9.05248 3.66797 7.92448 3.66797ZM12.0505 3.32097C13.2225 3.51364 14.0738 4.5163 14.0738 5.70497C14.0712 6.90164 13.1771 7.9283 11.9938 8.0943C11.9705 8.09764 11.9471 8.09897 11.9245 8.09897C11.6791 8.09897 11.4651 7.9183 11.4298 7.6683C11.3918 7.3943 11.5818 7.14164 11.8558 7.10364C12.5492 7.0063 13.0725 6.40497 13.0738 5.70364C13.0738 5.0083 12.5751 4.4203 11.8878 4.30764C11.6158 4.26297 11.4311 4.00564 11.4758 3.73297C11.5211 3.4603 11.7765 3.27764 12.0505 3.32097ZM4.37315 3.73297C4.41781 4.00564 4.23315 4.26297 3.96115 4.30764C3.27381 4.4203 2.77515 5.0083 2.77515 5.70497C2.77648 6.40497 3.29981 7.00697 3.99248 7.10364C4.26648 7.14164 4.45648 7.3943 4.41848 7.6683C4.38315 7.9183 4.16915 8.09897 3.92382 8.09897C3.90115 8.09897 3.87782 8.09764 3.85448 8.0943C2.67115 7.9283 1.77781 6.90164 1.77515 5.7063C1.77515 4.5163 2.62648 3.51364 3.79848 3.32097C4.07915 3.27697 4.32782 3.46164 4.37315 3.73297Z" fill="#018DF0"/>
    </svg>
    