<svg width="14" height="9" viewBox="0 0 14 9" fill="none" xmlns="http://www.w3.org/2000/svg">
<path d="M13.6139 0.413333C13.5463 0.250434 13.4168 0.120983 13.2539 0.0533333C13.1738 0.0191726 13.0877 0.00105332 13.0006 0H9.66728C9.49047 0 9.3209 0.070238 9.19587 0.195262C9.07085 0.320287 9.00061 0.489856 9.00061 0.666667C9.00061 0.843478 9.07085 1.01305 9.19587 1.13807C9.3209 1.2631 9.49047 1.33333 9.66728 1.33333H11.3939L7.66728 5.06L5.47394 2.86C5.41197 2.79751 5.33823 2.74792 5.257 2.71407C5.17576 2.68023 5.08862 2.6628 5.00061 2.6628C4.9126 2.6628 4.82547 2.68023 4.74423 2.71407C4.66299 2.74792 4.58925 2.79751 4.52728 2.86L0.527277 6.86C0.464791 6.92198 0.415195 6.99571 0.381349 7.07695C0.347504 7.15819 0.330078 7.24533 0.330078 7.33333C0.330078 7.42134 0.347504 7.50848 0.381349 7.58972C0.415195 7.67096 0.464791 7.74469 0.527277 7.80667C0.589252 7.86915 0.662986 7.91875 0.744226 7.95259C0.825466 7.98644 0.912602 8.00387 1.00061 8.00387C1.08862 8.00387 1.17576 7.98644 1.25699 7.95259C1.33823 7.91875 1.41197 7.86915 1.47394 7.80667L5.00061 4.27333L7.19394 6.47333C7.25592 6.53582 7.32965 6.58541 7.41089 6.61926C7.49213 6.65311 7.57927 6.67053 7.66728 6.67053C7.75529 6.67053 7.84242 6.65311 7.92366 6.61926C8.0049 6.58541 8.07864 6.53582 8.14061 6.47333L12.3339 2.27333V4C12.3339 4.17681 12.4042 4.34638 12.5292 4.4714C12.6542 4.59643 12.8238 4.66667 13.0006 4.66667C13.1774 4.66667 13.347 4.59643 13.472 4.4714C13.597 4.34638 13.6673 4.17681 13.6673 4V0.666667C13.6662 0.579548 13.6481 0.493481 13.6139 0.413333Z" fill="#27D1AA"/>
</svg>
