<svg width="83" height="84" viewBox="0 0 83 84" fill="none" xmlns="http://www.w3.org/2000/svg">
<path d="M83 42.3301C83 31.3236 78.6277 20.7679 70.8449 12.9851C63.0622 5.20239 52.5065 0.830079 41.5 0.830078C30.4935 0.830077 19.9378 5.20238 12.1551 12.9851C4.37231 20.7679 1.66193e-06 31.3236 0 42.3301H1.66C1.66 31.7638 5.85742 21.6304 13.3289 14.1589C20.8003 6.68749 30.9338 2.49008 41.5 2.49008C52.0662 2.49008 62.1997 6.6875 69.6711 14.1589C77.1426 21.6304 81.34 31.7639 81.34 42.3301H83Z" fill="url(#paint0_linear)"/>
<path fill-rule="evenodd" clip-rule="evenodd" d="M41.0007 28.4974C33.6369 28.4974 27.6673 34.4669 27.6673 41.8307C27.6673 49.1945 33.6369 55.1641 41.0007 55.1641C48.3644 55.1641 54.334 49.1945 54.334 41.8307C54.334 34.4669 48.3644 28.4974 41.0007 28.4974ZM24.334 41.8307C24.334 32.626 31.7959 25.1641 41.0007 25.1641C50.2054 25.1641 57.6673 32.626 57.6673 41.8307C57.6673 51.0355 50.2054 58.4974 41.0007 58.4974C31.7959 58.4974 24.334 51.0355 24.334 41.8307Z" fill="url(#paint1_linear)"/>
<path fill-rule="evenodd" clip-rule="evenodd" d="M40.3414 41.2718C40.8919 40.9647 41.5271 40.8443 42.1518 40.9285L41.9461 42.4549L42.1518 40.9285L45.7172 41.4091L45.4946 43.0608L45.7172 41.4091C46.1209 41.4635 46.5087 41.6019 46.8556 41.8153C46.8556 41.8153 46.8556 41.8153 46.8556 41.8153L55.3378 47.0322C56.1219 47.5144 56.3666 48.5409 55.8843 49.325C55.4021 50.109 54.3756 50.3537 53.5916 49.8715L45.1845 44.7008L42.0157 44.2736L40.1141 48.5407L42.8652 51.5163C43.1759 51.8524 43.4032 52.2569 43.5286 52.6971C43.654 53.1373 43.6741 53.6008 43.5871 54.0502L42.9888 57.1434C42.814 58.0471 41.9397 58.638 41.0359 58.4632C40.1322 58.2884 39.5413 57.4141 39.7161 56.5104L40.2744 53.6243L37.4801 50.6019L38.6511 49.5193L37.4801 50.6019C37.0928 50.1829 36.8368 49.6595 36.744 49.0966C36.6511 48.5336 36.7254 47.9558 36.9577 47.4346C36.9577 47.4346 36.9577 47.4346 36.9577 47.4346L39.0981 42.6317L40.6204 43.3102L39.0981 42.6317C39.3547 42.056 39.7909 41.5788 40.3414 41.2718ZM40.4176 53.7792C40.4175 53.779 40.4173 53.7789 40.4172 53.7787L40.4176 53.7792Z" fill="url(#paint2_linear)"/>
<path fill-rule="evenodd" clip-rule="evenodd" d="M31.7984 28.9836C32.6462 29.3421 33.0428 30.32 32.6843 31.1678L31.3514 34.3195L33.0087 38.7426L36.1344 39.4144C36.568 39.5076 36.9745 39.6984 37.3232 39.9723C37.6719 40.2462 37.9536 40.596 38.1468 40.9952L38.1468 40.9952L38.6276 41.9885H40.4652C41.3857 41.9885 42.1319 42.7347 42.1319 43.6551C42.1319 44.5756 41.3857 45.3218 40.4652 45.3218H38.3664C37.8184 45.3218 37.2815 45.1674 36.8171 44.8763C36.3528 44.5852 35.9799 44.1692 35.7411 43.6759L37.2115 42.9642L35.7411 43.6759L35.2351 42.6306L32.0856 41.9536C31.6075 41.8509 31.163 41.6296 30.7928 41.3102C30.4227 40.9907 30.1388 40.5833 29.9672 40.1254L28.1718 35.3335C27.9098 34.6345 27.9259 33.8617 28.2167 33.1741L29.6142 29.8695C29.9727 29.0217 30.9506 28.6251 31.7984 28.9836Z" fill="url(#paint3_linear)"/>
<path fill-rule="evenodd" clip-rule="evenodd" d="M44.0088 25.868C44.8126 25.4193 45.8278 25.7071 46.2765 26.5108L47.7349 29.123C48.0566 29.6992 48.1734 30.3675 48.0662 31.0187C47.9589 31.6698 47.6341 32.2654 47.1446 32.708L42.9398 36.5108L42.9398 36.5108C42.7733 36.6614 42.5899 36.7922 42.3934 36.9008L42.3934 36.9008L40.4806 37.9571C40.0489 38.1955 39.5638 38.3205 39.0706 38.3205H36.012L34.8183 41.1544C34.461 42.0027 33.4836 42.4007 32.6353 42.0433C31.787 41.686 31.389 40.7087 31.7464 39.8604L33.0475 36.7716C33.2703 36.2427 33.6442 35.7913 34.1223 35.4739C34.6004 35.1565 35.1615 34.9872 35.7354 34.9872H38.9632L40.7397 34.0061L44.6627 30.4583L43.366 28.1357C42.9173 27.332 43.2051 26.3167 44.0088 25.868Z" fill="url(#paint4_linear)"/>
<defs>
<linearGradient id="paint0_linear" x1="1.04122" y1="61.9275" x2="83.0371" y2="61.8147" gradientUnits="userSpaceOnUse">
<stop stop-color="#016DB0"/>
<stop offset="1" stop-color="#01FFCA"/>
</linearGradient>
<linearGradient id="paint1_linear" x1="24.7521" y1="49.7012" x2="57.6822" y2="49.6559" gradientUnits="userSpaceOnUse">
<stop stop-color="#016DB0"/>
<stop offset="1" stop-color="#01FFCA"/>
</linearGradient>
<linearGradient id="paint2_linear" x1="36.9488" y1="53.8517" x2="56.1403" y2="53.8225" gradientUnits="userSpaceOnUse">
<stop stop-color="#016DB0"/>
<stop offset="1" stop-color="#01FFCA"/>
</linearGradient>
<linearGradient id="paint3_linear" x1="28.1638" y1="40.9755" x2="42.1382" y2="40.959" gradientUnits="userSpaceOnUse">
<stop stop-color="#016DB0"/>
<stop offset="1" stop-color="#01FFCA"/>
</linearGradient>
<linearGradient id="paint4_linear" x1="31.8221" y1="37.8155" x2="48.1123" y2="37.7932" gradientUnits="userSpaceOnUse">
<stop stop-color="#016DB0"/>
<stop offset="1" stop-color="#01FFCA"/>
</linearGradient>
</defs>
</svg>
