<svg width="83" height="84" viewBox="0 0 83 84" fill="none" xmlns="http://www.w3.org/2000/svg">
<path d="M83 42.3301C83 31.3236 78.6277 20.7679 70.8449 12.9851C63.0622 5.20239 52.5065 0.830079 41.5 0.830078C30.4935 0.830077 19.9378 5.20238 12.1551 12.9851C4.37231 20.7679 1.66193e-06 31.3236 0 42.3301H1.66C1.66 31.7638 5.85742 21.6304 13.3289 14.1589C20.8003 6.68749 30.9338 2.49008 41.5 2.49008C52.0662 2.49008 62.1997 6.6875 69.6711 14.1589C77.1426 21.6304 81.34 31.7639 81.34 42.3301H83Z" fill="url(#paint0_linear)"/>
<path d="M57.6673 33.8974C57.6686 33.6781 57.6266 33.4606 57.5436 33.2576C57.4607 33.0545 57.3385 32.8698 57.184 32.7141L50.1173 25.6474C49.9616 25.493 49.7769 25.3707 49.5739 25.2878C49.3708 25.2049 49.1534 25.1628 48.934 25.1641C48.7147 25.1628 48.4972 25.2049 48.2942 25.2878C48.0911 25.3707 47.9064 25.493 47.7507 25.6474L43.034 30.3641L24.8173 48.5808C24.6629 48.7365 24.5407 48.9212 24.4577 49.1242C24.3748 49.3273 24.3327 49.5447 24.334 49.7641V56.8308C24.334 57.2728 24.5096 57.6967 24.8222 58.0093C25.1347 58.3218 25.5587 58.4974 26.0007 58.4974H33.0673C33.3006 58.5101 33.5338 58.4736 33.752 58.3904C33.9703 58.3071 34.1685 58.1789 34.334 58.0141L52.4507 39.7974L57.184 35.1641C57.3361 35.0026 57.4601 34.8166 57.5507 34.6141C57.5667 34.4812 57.5667 34.3469 57.5507 34.2141C57.5585 34.1365 57.5585 34.0583 57.5507 33.9808L57.6673 33.8974ZM32.384 55.1641H27.6673V50.4474L44.2173 33.8974L48.934 38.6141L32.384 55.1641ZM51.284 36.2641L46.5673 31.5474L48.934 29.1974L53.634 33.8974L51.284 36.2641Z" fill="url(#paint1_linear)"/>
<defs>
<linearGradient id="paint0_linear" x1="1.04122" y1="61.9275" x2="83.0371" y2="61.8147" gradientUnits="userSpaceOnUse">
<stop stop-color="#016DB0"/>
<stop offset="1" stop-color="#01FFCA"/>
</linearGradient>
<linearGradient id="paint1_linear" x1="24.7521" y1="49.703" x2="57.6823" y2="49.6577" gradientUnits="userSpaceOnUse">
<stop stop-color="#016DB0"/>
<stop offset="1" stop-color="#01FFCA"/>
</linearGradient>
</defs>
</svg>
