<svg width="84" height="83" viewBox="0 0 84 83" fill="none" xmlns="http://www.w3.org/2000/svg">
<path d="M83.125 41.5C83.125 30.4935 78.7527 19.9378 70.9699 12.1551C63.1872 4.37231 52.6315 8.30967e-07 41.625 0C30.6185 -8.30966e-07 20.0628 4.37231 12.2801 12.1551C4.49731 19.9378 0.125002 30.4935 0.125 41.5L1.785 41.5C1.785 30.9338 5.98242 20.8003 13.4539 13.3289C20.9253 5.85741 31.0588 1.66 41.625 1.66C52.1912 1.66 62.3247 5.85742 69.7961 13.3289C77.2676 20.8003 81.465 30.9338 81.465 41.5H83.125Z" fill="url(#paint0_linear_3495:38703)"/>
<path fill-rule="evenodd" clip-rule="evenodd" d="M41.1256 29.166C37.6185 29.166 34.6578 31.5222 33.7474 34.7409C33.5647 35.3868 32.9752 35.8327 32.304 35.8327H31.959C28.6453 35.8327 25.959 38.519 25.959 41.8327C25.959 45.1464 28.6453 47.8327 31.959 47.8327H34.459C35.2874 47.8327 35.959 48.5043 35.959 49.3327C35.959 50.1611 35.2874 50.8327 34.459 50.8327H31.959C26.9884 50.8327 22.959 46.8032 22.959 41.8327C22.959 37.11 26.5966 33.2369 31.2229 32.8624C32.7976 28.9385 36.6362 26.166 41.1256 26.166C45.6151 26.166 49.4537 28.9385 51.0284 32.8624C55.6547 33.2369 59.2923 37.11 59.2923 41.8327C59.2923 46.8032 55.2629 50.8327 50.2923 50.8327H47.7923C46.9639 50.8327 46.2923 50.1611 46.2923 49.3327C46.2923 48.5043 46.9639 47.8327 47.7923 47.8327H50.2923C53.606 47.8327 56.2923 45.1464 56.2923 41.8327C56.2923 38.519 53.606 35.8327 50.2923 35.8327H49.9473C49.2761 35.8327 48.6866 35.3868 48.5039 34.7409C47.5935 31.5222 44.6328 29.166 41.1256 29.166Z" fill="url(#paint1_linear_3495:38703)"/>
<path fill-rule="evenodd" clip-rule="evenodd" d="M40.0637 35.7733C40.6495 35.1875 41.5992 35.1875 42.185 35.7733L48.0183 41.6067C48.6041 42.1924 48.6041 43.1422 48.0183 43.728C47.4326 44.3138 46.4828 44.3138 45.897 43.728L42.6243 40.4553V53.5006C42.6243 54.3291 41.9528 55.0006 41.1243 55.0006C40.2959 55.0006 39.6243 54.3291 39.6243 53.5006V40.4553L36.3517 43.728C35.7659 44.3138 34.8161 44.3138 34.2304 43.728C33.6446 43.1422 33.6446 42.1924 34.2304 41.6067L40.0637 35.7733Z" fill="url(#paint2_linear_3495:38703)"/>
<defs>
<linearGradient id="paint0_linear_3495:38703" x1="1.16622" y1="61.0974" x2="83.1621" y2="60.9846" gradientUnits="userSpaceOnUse">
<stop stop-color="#018DF0"/>
<stop offset="1" stop-color="#5BBBFF"/>
</linearGradient>
<linearGradient id="paint1_linear_3495:38703" x1="23.4148" y1="44.3235" x2="59.3085" y2="44.2507" gradientUnits="userSpaceOnUse">
<stop stop-color="#018DF0"/>
<stop offset="1" stop-color="#5BBBFF"/>
</linearGradient>
<linearGradient id="paint2_linear_3495:38703" x1="33.975" y1="49.8109" x2="48.4643" y2="49.796" gradientUnits="userSpaceOnUse">
<stop stop-color="#018DF0"/>
<stop offset="1" stop-color="#5BBBFF"/>
</linearGradient>
</defs>
</svg>
