<svg width="84" height="83" viewBox="0 0 84 83" fill="none" xmlns="http://www.w3.org/2000/svg">
<path d="M83.625 41.5C83.625 30.4935 79.2527 19.9378 71.4699 12.1551C63.6872 4.37231 53.1315 8.30967e-07 42.125 0C31.1185 -8.30966e-07 20.5628 4.37231 12.7801 12.1551C4.99731 19.9378 0.625002 30.4935 0.625 41.5H2.285C2.285 30.9338 6.48242 20.8003 13.9539 13.3289C21.4253 5.85741 31.5588 1.66 42.125 1.66C52.6912 1.66 62.8247 5.85742 70.2961 13.3289C77.7676 20.8003 81.965 30.9338 81.965 41.5H83.625Z" fill="url(#paint0_linear_3495:38717)"/>
<path fill-rule="evenodd" clip-rule="evenodd" d="M41.6257 27.6673C34.2619 27.6673 28.2923 33.6369 28.2923 41.0007C28.2923 48.3644 34.2619 54.334 41.6257 54.334C48.9894 54.334 54.959 48.3644 54.959 41.0007C54.959 33.6369 48.9894 27.6673 41.6257 27.6673ZM24.959 41.0007C24.959 31.7959 32.4209 24.334 41.6257 24.334C50.8304 24.334 58.2923 31.7959 58.2923 41.0007C58.2923 50.2054 50.8304 57.6673 41.6257 57.6673C32.4209 57.6673 24.959 50.2054 24.959 41.0007Z" fill="url(#paint1_linear_3495:38717)"/>
<path fill-rule="evenodd" clip-rule="evenodd" d="M40.9664 40.4417C41.5169 40.1346 42.1521 40.0142 42.7768 40.0984L42.5711 41.6248L42.7768 40.0984L46.3422 40.579L46.1196 42.2308L46.3422 40.579C46.7459 40.6334 47.1337 40.7718 47.4806 40.9852C47.4806 40.9852 47.4806 40.9852 47.4806 40.9852L55.9628 46.2021C56.7469 46.6843 56.9916 47.7109 56.5093 48.4949C56.0271 49.279 55.0006 49.5236 54.2166 49.0414L45.8095 43.8707L42.6407 43.4436L40.7391 47.7106L43.4902 50.6862C43.8009 51.0223 44.0282 51.4268 44.1536 51.867C44.279 52.3072 44.2991 52.7708 44.2121 53.2202L43.6138 56.3133C43.439 57.2171 42.5647 57.808 41.6609 57.6331C40.7572 57.4583 40.1663 56.584 40.3411 55.6803L40.8994 52.7942L38.1051 49.7718L39.2761 48.6892L38.1051 49.7718C37.7178 49.3528 37.4618 48.8295 37.369 48.2665C37.2761 47.7035 37.3504 47.1257 37.5827 46.6045C37.5827 46.6045 37.5827 46.6045 37.5827 46.6045L39.7231 41.8017L41.2454 42.4801L39.7231 41.8017C39.9797 41.2259 40.4159 40.7488 40.9664 40.4417ZM41.0426 52.9491C41.0425 52.9489 41.0423 52.9488 41.0422 52.9487L41.0426 52.9491Z" fill="url(#paint2_linear_3495:38717)"/>
<path fill-rule="evenodd" clip-rule="evenodd" d="M32.4234 28.1535C33.2712 28.5121 33.6678 29.49 33.3093 30.3378L31.9764 33.4894L33.6337 37.9125L36.7594 38.5843C37.193 38.6775 37.5995 38.8683 37.9482 39.1422C38.2969 39.4161 38.5786 39.766 38.7718 40.1651L38.7718 40.1651L39.2526 41.1584H41.0902C42.0107 41.1584 42.7569 41.9046 42.7569 42.8251C42.7569 43.7455 42.0107 44.4917 41.0902 44.4917H38.9914C38.4434 44.4917 37.9065 44.3373 37.4421 44.0462C36.9778 43.7551 36.6049 43.3391 36.3661 42.8458L37.8365 42.1341L36.3661 42.8458L35.8601 41.8005L32.7106 41.1236C32.2325 41.0208 31.788 40.7995 31.4178 40.4801C31.0477 40.1606 30.7638 39.7532 30.5922 39.2954L28.7968 34.5035C28.5348 33.8044 28.5509 33.0316 28.8417 32.3441L30.2392 29.0394C30.5977 28.1916 31.5756 27.795 32.4234 28.1535Z" fill="url(#paint3_linear_3495:38717)"/>
<path fill-rule="evenodd" clip-rule="evenodd" d="M44.6338 25.0379C45.4376 24.5892 46.4528 24.877 46.9015 25.6807L48.3599 28.2929C48.6816 28.8692 48.7984 29.5374 48.6912 30.1886C48.5839 30.8397 48.2591 31.4353 47.7696 31.8779L43.5648 35.6807L43.5648 35.6807C43.3983 35.8313 43.2149 35.9621 43.0184 36.0707L43.0184 36.0707L41.1056 37.127C40.6739 37.3654 40.1888 37.4904 39.6956 37.4904H36.637L35.4433 40.3243C35.086 41.1726 34.1086 41.5706 33.2603 41.2133C32.412 40.8559 32.014 39.8786 32.3714 39.0303L33.6725 35.9415C33.8953 35.4126 34.2692 34.9612 34.7473 34.6438C35.2254 34.3264 35.7865 34.1571 36.3604 34.1571H39.5882L41.3647 33.1761L45.2877 29.6282L43.991 27.3056C43.5423 26.5019 43.8301 25.4866 44.6338 25.0379Z" fill="url(#paint4_linear_3495:38717)"/>
<defs>
<linearGradient id="paint0_linear_3495:38717" x1="1.66622" y1="61.0974" x2="83.6621" y2="60.9846" gradientUnits="userSpaceOnUse">
<stop stop-color="#018DF0"/>
<stop offset="1" stop-color="#5BBBFF"/>
</linearGradient>
<linearGradient id="paint1_linear_3495:38717" x1="25.3771" y1="48.8711" x2="58.3072" y2="48.8258" gradientUnits="userSpaceOnUse">
<stop stop-color="#018DF0"/>
<stop offset="1" stop-color="#5BBBFF"/>
</linearGradient>
<linearGradient id="paint2_linear_3495:38717" x1="37.5738" y1="53.0216" x2="56.7653" y2="52.9925" gradientUnits="userSpaceOnUse">
<stop stop-color="#018DF0"/>
<stop offset="1" stop-color="#5BBBFF"/>
</linearGradient>
<linearGradient id="paint3_linear_3495:38717" x1="28.7888" y1="40.1454" x2="42.7632" y2="40.1289" gradientUnits="userSpaceOnUse">
<stop stop-color="#018DF0"/>
<stop offset="1" stop-color="#5BBBFF"/>
</linearGradient>
<linearGradient id="paint4_linear_3495:38717" x1="32.4471" y1="36.9855" x2="48.7373" y2="36.9631" gradientUnits="userSpaceOnUse">
<stop stop-color="#018DF0"/>
<stop offset="1" stop-color="#5BBBFF"/>
</linearGradient>
</defs>
</svg>
