<svg width="84" height="84" viewBox="0 0 84 84" fill="none" xmlns="http://www.w3.org/2000/svg">
<path d="M83.5 42.3301C83.5 31.3236 79.1277 20.7679 71.3449 12.9851C63.5622 5.20239 53.0065 0.830079 42 0.830078C30.9935 0.830077 20.4378 5.20238 12.6551 12.9851C4.87231 20.7679 0.500002 31.3236 0.5 42.3301H2.16C2.16 31.7638 6.35742 21.6304 13.8289 14.1589C21.3003 6.68749 31.4338 2.49008 42 2.49008C52.5662 2.49008 62.6997 6.6875 70.1711 14.1589C77.6426 21.6304 81.84 31.7639 81.84 42.3301H83.5Z" fill="url(#paint0_linear)"/>
<path fill-rule="evenodd" clip-rule="evenodd" d="M41.5007 29.9961C37.9935 29.9961 35.0328 32.3523 34.1224 35.571C33.9397 36.2169 33.3502 36.6628 32.679 36.6628H32.334C29.0203 36.6628 26.334 39.3491 26.334 42.6628C26.334 45.9765 29.0203 48.6628 32.334 48.6628H34.834C35.6624 48.6628 36.334 49.3343 36.334 50.1628C36.334 50.9912 35.6624 51.6628 34.834 51.6628H32.334C27.3634 51.6628 23.334 47.6333 23.334 42.6628C23.334 37.94 26.9716 34.0669 31.5979 33.6924C33.1726 29.7685 37.0112 26.9961 41.5007 26.9961C45.9901 26.9961 49.8287 29.7685 51.4034 33.6924C56.0297 34.0669 59.6673 37.94 59.6673 42.6628C59.6673 47.6333 55.6379 51.6628 50.6673 51.6628H48.1673C47.3389 51.6628 46.6673 50.9912 46.6673 50.1628C46.6673 49.3343 47.3389 48.6628 48.1673 48.6628H50.6673C53.981 48.6628 56.6673 45.9765 56.6673 42.6628C56.6673 39.3491 53.981 36.6628 50.6673 36.6628H50.3223C49.6511 36.6628 49.0616 36.2169 48.8789 35.571C47.9685 32.3523 45.0078 29.9961 41.5007 29.9961Z" fill="url(#paint1_linear)"/>
<path fill-rule="evenodd" clip-rule="evenodd" d="M40.4387 36.6034C41.0245 36.0176 41.9742 36.0176 42.56 36.6034L48.3933 42.4367C48.9791 43.0225 48.9791 43.9723 48.3933 44.5581C47.8076 45.1438 46.8578 45.1438 46.272 44.5581L42.9993 41.2854V54.3307C42.9993 55.1592 42.3278 55.8307 41.4993 55.8307C40.6709 55.8307 39.9993 55.1592 39.9993 54.3307V41.2854L36.7267 44.5581C36.1409 45.1438 35.1911 45.1438 34.6054 44.5581C34.0196 43.9723 34.0196 43.0225 34.6054 42.4367L40.4387 36.6034Z" fill="url(#paint2_linear)"/>
<defs>
<linearGradient id="paint0_linear" x1="1.54122" y1="61.9275" x2="83.5371" y2="61.8147" gradientUnits="userSpaceOnUse">
<stop stop-color="#016DB0"/>
<stop offset="1" stop-color="#01FFCA"/>
</linearGradient>
<linearGradient id="paint1_linear" x1="23.7898" y1="45.1536" x2="59.6835" y2="45.0808" gradientUnits="userSpaceOnUse">
<stop stop-color="#016DB0"/>
<stop offset="1" stop-color="#01FFCA"/>
</linearGradient>
<linearGradient id="paint2_linear" x1="34.35" y1="50.641" x2="48.8393" y2="50.6261" gradientUnits="userSpaceOnUse">
<stop stop-color="#016DB0"/>
<stop offset="1" stop-color="#01FFCA"/>
</linearGradient>
</defs>
</svg>
