<svg width="20" height="20" viewBox="0 0 20 20" fill="none" xmlns="http://www.w3.org/2000/svg">
<path fill-rule="evenodd" clip-rule="evenodd" d="M10 7.25C8.48122 7.25 7.25 8.48122 7.25 10C7.25 11.5188 8.48122 12.75 10 12.75C11.5188 12.75 12.75 11.5188 12.75 10C12.75 8.48122 11.5188 7.25 10 7.25ZM5.25 10C5.25 7.37665 7.37665 5.25 10 5.25C12.6234 5.25 14.75 7.37665 14.75 10C14.75 12.6234 12.6234 14.75 10 14.75C7.37665 14.75 5.25 12.6234 5.25 10Z" fill="white"/>
<path fill-rule="evenodd" clip-rule="evenodd" d="M5.875 2.375C3.942 2.375 2.375 3.942 2.375 5.875V14.125C2.375 16.058 3.942 17.625 5.875 17.625H14.125C16.058 17.625 17.625 16.058 17.625 14.125V5.875C17.625 3.942 16.058 2.375 14.125 2.375H5.875ZM0.375 5.875C0.375 2.83743 2.83743 0.375 5.875 0.375H14.125C17.1626 0.375 19.625 2.83743 19.625 5.875V14.125C19.625 17.1626 17.1626 19.625 14.125 19.625H5.875C2.83743 19.625 0.375 17.1626 0.375 14.125V5.875Z" fill="white"/>
<path d="M14.875 6.25C15.4963 6.25 16 5.74632 16 5.125C16 4.50368 15.4963 4 14.875 4C14.2537 4 13.75 4.50368 13.75 5.125C13.75 5.74632 14.2537 6.25 14.875 6.25Z" fill="white"/>
</svg>
