<svg width="16" height="16" viewBox="0 0 16 16" fill="none" xmlns="http://www.w3.org/2000/svg">
<path fill-rule="evenodd" clip-rule="evenodd" d="M10.3051 0.405605C10.5702 0.541685 10.7128 0.837221 10.6544 1.12947L9.76556 5.57356L13.2347 6.8745C13.4432 6.95266 13.5988 7.12968 13.6497 7.34638C13.7006 7.56308 13.6399 7.79087 13.488 7.9536L6.48803 15.4536C6.28468 15.6715 5.96142 15.7279 5.69627 15.5918C5.43111 15.4558 5.28849 15.1602 5.34694 14.868L6.23576 10.4239L2.76658 9.12294C2.55816 9.04479 2.4025 8.86777 2.35163 8.65106C2.30077 8.43436 2.36141 8.20657 2.51329 8.04384L9.51329 0.543843C9.71665 0.325965 10.0399 0.269525 10.3051 0.405605ZM4.16841 8.22463L7.23474 9.3745C7.54078 9.48927 7.71848 9.80897 7.65438 10.1295L7.11466 12.8281L11.8329 7.77282L8.76658 6.62294C8.46055 6.50818 8.28284 6.18848 8.34694 5.86798L8.88667 3.16935L4.16841 8.22463Z" fill="#FF72D2"/>
</svg>
