<svg width="16" height="16" viewBox="0 0 16 16" fill="none" xmlns="http://www.w3.org/2000/svg">
    <path fill-rule="evenodd" clip-rule="evenodd" d="M7.9998 13.2715C4.93376 11.5252 3.22373 9.78955 2.39681 8.28361C1.55047 6.74228 1.62432 5.4441 2.09395 4.52273C3.05927 2.62892 5.80433 2.02333 7.47684 4.13865L7.99976 4.80001L8.52272 4.13868C10.1955 2.02327 12.9407 2.62896 13.906 4.52273C14.3757 5.44409 14.4495 6.74226 13.6031 8.28359C12.7761 9.78954 11.066 11.5252 7.9998 13.2715ZM7.99983 2.73726C5.64702 0.501518 2.1761 1.42555 0.906037 3.91723C0.209009 5.2847 0.199488 7.05212 1.22808 8.92536C2.24755 10.782 4.28015 12.7417 7.6773 14.6194L7.99979 14.7976L8.32228 14.6194C11.7196 12.7417 13.7523 10.782 14.7718 8.92538C15.8005 7.05214 15.791 5.28472 15.0939 3.91723C13.8239 1.4255 10.3528 0.501552 7.99983 2.73726Z" fill="#2D9CDB"/>
    </svg>
    