<svg width="32" height="32" viewBox="0 0 32 32" fill="none" xmlns="http://www.w3.org/2000/svg">
<rect x="1.5" y="1.5" width="29" height="29" rx="14.5" fill="#211857"/>
<path fill-rule="evenodd" clip-rule="evenodd" d="M15.9997 21.2715C12.9337 19.5252 11.2237 17.7896 10.3968 16.2836C9.55041 14.7423 9.62425 13.4441 10.0939 12.5227C11.0592 10.6289 13.8043 10.0233 15.4768 12.1386L15.9997 12.8L16.5227 12.1387C18.1955 10.0233 20.9407 10.629 21.906 12.5227C22.3756 13.4441 22.4494 14.7423 21.603 16.2836C20.776 17.7895 19.0659 19.5252 15.9997 21.2715ZM15.9998 10.7373C13.647 8.50152 10.176 9.42555 8.90598 11.9172C8.20895 13.2847 8.19943 15.0521 9.22802 16.9254C10.2475 18.782 12.2801 20.7417 15.6772 22.6194L15.9997 22.7976L16.3222 22.6194C19.7195 20.7417 21.7522 18.782 22.7717 16.9254C23.8004 15.0521 23.7909 13.2847 23.0939 11.9172C21.8238 9.4255 18.3528 8.50155 15.9998 10.7373Z" fill="#2D9CDB"/>
<rect x="1.5" y="1.5" width="29" height="29" rx="14.5" stroke="#080134" stroke-width="3"/>
</svg>
