<svg width="32" height="32" viewBox="0 0 32 32" fill="none" xmlns="http://www.w3.org/2000/svg">
<rect x="1.5" y="1.5" width="29" height="29" rx="14.5" fill="#433340"/>
<path d="M17.5089 8H12.25C11.2161 8 10.375 8.84113 10.375 9.875V19.8839L14.4911 24H19.75C20.7839 24 21.625 23.1589 21.625 22.125V12.1161L17.5089 8ZM17.875 10.1339L19.4911 11.75H18.5C18.1554 11.75 17.875 11.4696 17.875 11.125V10.1339ZM14.125 21.8661L12.5089 20.25H13.5C13.8446 20.25 14.125 20.5304 14.125 20.875V21.8661ZM19.75 22.75H15.375V20.875C15.375 19.8411 14.5339 19 13.5 19H11.625V9.875C11.625 9.53038 11.9054 9.25 12.25 9.25H16.625V11.125C16.625 12.1589 17.4661 13 18.5 13H20.375V22.125C20.375 22.4696 20.0946 22.75 19.75 22.75Z" fill="#FFD166"/>
<path d="M12.875 14.125H15.375V15.375H12.875V14.125Z" fill="#FFD166"/>
<path d="M12.875 16.625H19.125V17.875H12.875V16.625Z" fill="#FFD166"/>
<path d="M16.625 19.125H19.125V20.375H16.625V19.125Z" fill="#FFD166"/>
<path d="M16.625 14.125H19.125V15.375H16.625V14.125Z" fill="#FFD166"/>
<path d="M12.875 11.625H15.375V12.875H12.875V11.625Z" fill="#FFD166"/>
<rect x="1.5" y="1.5" width="29" height="29" rx="14.5" stroke="#080134" stroke-width="3"/>
</svg>
