<svg width="16" height="16" viewBox="0 0 16 16" fill="none" xmlns="http://www.w3.org/2000/svg">
    <path d="M9.50887 0H4.25C3.21613 0 2.375 0.841125 2.375 1.875V11.8839L6.49113 16H11.75C12.7839 16 13.625 15.1589 13.625 14.125V4.11613L9.50887 0ZM9.875 2.13387L11.4911 3.75H10.5C10.1554 3.75 9.875 3.46962 9.875 3.125V2.13387ZM6.125 13.8661L4.50887 12.25H5.5C5.84462 12.25 6.125 12.5304 6.125 12.875V13.8661ZM11.75 14.75H7.375V12.875C7.375 11.8411 6.53387 11 5.5 11H3.625V1.875C3.625 1.53038 3.90538 1.25 4.25 1.25H8.625V3.125C8.625 4.15887 9.46613 5 10.5 5H12.375V14.125C12.375 14.4696 12.0946 14.75 11.75 14.75Z" fill="#018DF0"/>
    <path d="M4.875 6.125H7.375V7.375H4.875V6.125Z" fill="#018DF0"/>
    <path d="M4.875 8.625H11.125V9.875H4.875V8.625Z" fill="#018DF0"/>
    <path d="M8.625 11.125H11.125V12.375H8.625V11.125Z" fill="#018DF0"/>
    <path d="M8.625 6.125H11.125V7.375H8.625V6.125Z" fill="#018DF0"/>
    <path d="M4.875 3.625H7.375V4.875H4.875V3.625Z" fill="#018DF0"/>
    </svg>
    