<svg width="128" height="32" viewBox="0 0 128 32" fill="none" xmlns="http://www.w3.org/2000/svg">
<path d="M39.9432 9.74112H42.5032V21.5058H48.5079V23.7646H39.9432V9.74112ZM54.8132 23.9905C53.7842 23.9905 52.8681 23.7521 52.065 23.2752C51.2744 22.7984 50.6532 22.1521 50.2014 21.3364C49.7622 20.5207 49.5426 19.6172 49.5426 18.6258C49.5426 17.6219 49.7622 16.7184 50.2014 15.9152C50.6532 15.0995 51.2618 14.4595 52.0273 13.9952C52.8053 13.5309 53.6712 13.2988 54.625 13.2988C55.654 13.2988 56.545 13.5246 57.2979 13.9764C58.0508 14.4156 58.6218 15.018 59.0108 15.7835C59.4124 16.549 59.6132 17.3897 59.6132 18.3058C59.6132 18.7325 59.5693 19.0776 59.4814 19.3411H52.1026C52.1779 20.0941 52.4665 20.6964 52.9685 21.1482C53.4704 21.5999 54.0916 21.8258 54.832 21.8258C55.3842 21.8258 55.8548 21.7129 56.2438 21.487C56.6453 21.2486 56.9653 20.9223 57.2038 20.5082L59.1991 21.487C58.8853 22.2399 58.3332 22.8486 57.5426 23.3129C56.752 23.7646 55.8422 23.9905 54.8132 23.9905ZM56.9779 17.4588C56.9151 16.8313 56.6704 16.3231 56.2438 15.9341C55.8171 15.5325 55.2775 15.3317 54.625 15.3317C53.9975 15.3317 53.4642 15.5199 53.025 15.8964C52.5857 16.2603 52.2971 16.7811 52.1591 17.4588H56.9779ZM65.3225 23.9717C64.2934 23.9717 63.3836 23.727 62.593 23.2376C61.815 22.7482 61.2628 22.0768 60.9366 21.2235L62.7625 20.2823C63.0385 20.8345 63.4025 21.2674 63.8542 21.5811C64.3185 21.8823 64.8268 22.0329 65.3789 22.0329C65.8558 22.0329 66.226 21.9388 66.4895 21.7505C66.7656 21.5497 66.9036 21.2799 66.9036 20.9411C66.9036 20.6525 66.7907 20.4141 66.5648 20.2258C66.3389 20.025 66.044 19.8933 65.6801 19.8305L64.0048 19.5482C63.1389 19.3223 62.4675 18.9395 61.9907 18.3999C61.5264 17.8478 61.2942 17.2015 61.2942 16.4611C61.2942 15.8462 61.4574 15.3003 61.7836 14.8235C62.1099 14.3341 62.5617 13.9576 63.1389 13.6941C63.7287 13.4305 64.3938 13.2988 65.1342 13.2988C66.0754 13.2988 66.9036 13.5246 67.6189 13.9764C68.3342 14.4156 68.855 15.0305 69.1813 15.8211L67.3554 16.7623C67.1546 16.3231 66.8472 15.9717 66.433 15.7082C66.0189 15.4446 65.5609 15.3129 65.0589 15.3129C64.6448 15.3129 64.3123 15.407 64.0613 15.5952C63.8228 15.7835 63.7036 16.0282 63.7036 16.3294C63.7036 16.8815 64.1177 17.2517 64.946 17.4399L66.5836 17.7411C67.4495 17.9795 68.1209 18.3686 68.5977 18.9082C69.0746 19.4478 69.313 20.0878 69.313 20.8282C69.313 21.4431 69.1436 21.989 68.8048 22.4658C68.4785 22.9427 68.0142 23.3129 67.4119 23.5764C66.8095 23.8399 66.113 23.9717 65.3225 23.9717ZM74.9916 23.9717C73.9626 23.9717 73.0527 23.727 72.2622 23.2376C71.4841 22.7482 70.932 22.0768 70.6057 21.2235L72.4316 20.2823C72.7076 20.8345 73.0716 21.2674 73.5233 21.5811C73.9876 21.8823 74.4959 22.0329 75.048 22.0329C75.5249 22.0329 75.8951 21.9388 76.1586 21.7505C76.4347 21.5497 76.5727 21.2799 76.5727 20.9411C76.5727 20.6525 76.4598 20.4141 76.2339 20.2258C76.008 20.025 75.7131 19.8933 75.3492 19.8305L73.6739 19.5482C72.808 19.3223 72.1367 18.9395 71.6598 18.3999C71.1955 17.8478 70.9633 17.2015 70.9633 16.4611C70.9633 15.8462 71.1265 15.3003 71.4527 14.8235C71.779 14.3341 72.2308 13.9576 72.808 13.6941C73.3978 13.4305 74.0629 13.2988 74.8033 13.2988C75.7445 13.2988 76.5727 13.5246 77.288 13.9764C78.0033 14.4156 78.5241 15.0305 78.8504 15.8211L77.0245 16.7623C76.8237 16.3231 76.5163 15.9717 76.1022 15.7082C75.688 15.4446 75.23 15.3129 74.728 15.3129C74.3139 15.3129 73.9814 15.407 73.7304 15.5952C73.492 15.7835 73.3727 16.0282 73.3727 16.3294C73.3727 16.8815 73.7869 17.2517 74.6151 17.4399L76.2527 17.7411C77.1186 17.9795 77.79 18.3686 78.2669 18.9082C78.7437 19.4478 78.9822 20.0878 78.9822 20.8282C78.9822 21.4431 78.8127 21.989 78.4739 22.4658C78.1476 22.9427 77.6833 23.3129 77.081 23.5764C76.4786 23.8399 75.7822 23.9717 74.9916 23.9717Z" fill="black"/>
<path d="M81.0277 9.74112H83.023L89.7054 18.7388V9.74112H92.2654V23.7646H90.2513L83.5877 14.5976V23.7646H81.0277V9.74112ZM94.98 9.74112H104.335V11.9999H97.54V15.8776H103.488V18.1364H97.54V23.7646H94.98V9.74112ZM108.494 11.9999H104.861V9.74112H114.649V11.9999H111.073V23.7646H108.494V11.9999Z" fill="#674DF6"/>
<path d="M30.2698 0.941406L14.8496 8.74969L14.913 13.9924L30.3333 6.1841L30.2698 0.941406Z" fill="url(#paint0_linear_6105_81416)"/>
<path d="M30.2698 9.5293L14.8496 17.3376L14.913 22.5803L30.3333 14.8278L30.2698 9.5293Z" fill="url(#paint1_linear_6105_81416)"/>
<path d="M30.3327 23.418V18.1196L15.1664 25.7606L5.26699 20.741L5.33045 3.61853L0.0634577 0.941406L0 23.418L15.1664 31.0591L30.3327 23.418Z" fill="#6F45FF"/>
<defs>
<linearGradient id="paint0_linear_6105_81416" x1="14.8598" y1="7.46644" x2="30.2946" y2="7.46644" gradientUnits="userSpaceOnUse">
<stop stop-color="#6F45FF"/>
<stop offset="0.9955" stop-color="#FF6365"/>
</linearGradient>
<linearGradient id="paint1_linear_6105_81416" x1="14.8941" y1="16.0469" x2="30.329" y2="16.0469" gradientUnits="userSpaceOnUse">
<stop stop-color="#6F45FF"/>
<stop offset="0.9955" stop-color="#FF6365"/>
</linearGradient>
</defs>
</svg>
