<svg width="16" height="16" viewBox="0 0 16 16" fill="none" xmlns="http://www.w3.org/2000/svg">
    <g clip-path="url(#clip0_3500_35008)">
    <path d="M14.8604 5.98129C14.8311 5.68479 14.5965 5.45017 14.2998 5.42075C12.1541 5.20883 10.1796 5.73361 8.65565 6.88327C8.6559 6.85971 8.65627 6.83603 8.65627 6.81247C8.65627 4.18979 7.36293 1.83188 5.30262 0.141815C5.07215 -0.0472717 4.74024 -0.0472717 4.50989 0.141815C2.44922 1.83176 1.15625 4.18979 1.15625 6.81247C1.15625 9.31211 2.33289 11.5993 4.28113 13.2896V15.3749C4.28113 15.7613 4.63563 16.0655 5.02821 15.9878C5.03883 15.9856 5.0492 15.9828 5.05958 15.9801C5.17469 15.951 5.27113 15.8938 5.34815 15.8167L6.6465 14.5184C6.8556 14.5324 7.0641 14.5401 7.26942 14.5401C9.54225 14.5401 11.5716 13.682 12.9835 12.1236C14.4278 10.5298 15.0943 8.34836 14.8604 5.98129ZM5.53114 13.8659V13.2899C5.60243 13.2279 5.67249 13.1653 5.74171 13.1018C5.74342 13.2783 5.75025 13.456 5.76234 13.6349L5.53114 13.8659ZM6.05738 10.8786C6.05628 10.88 6.05543 10.8813 6.05445 10.8828C5.89356 11.107 5.71876 11.3252 5.53114 11.5366V6.81247C5.53114 6.46726 5.25135 6.18747 4.90614 6.18747C4.56104 6.18747 4.28113 6.46726 4.28113 6.81247V11.5371C3.06385 10.1664 2.40625 8.52817 2.40625 6.81247C2.40625 4.82285 3.28992 2.9371 4.90614 1.45224C6.52247 2.93723 7.40614 4.82309 7.40614 6.81247C7.40614 8.29892 6.90638 9.69419 6.05738 10.8786ZM12.0572 11.2844C11.0159 12.4336 9.55739 13.1235 7.90175 13.2633L10.7655 10.3995C11.0095 10.1555 11.0095 9.75974 10.7655 9.5156C10.5214 9.27158 10.1258 9.27158 9.88161 9.5156L7.0171 12.38C7.04213 12.0818 7.08485 11.7892 7.14564 11.5036C7.71547 10.6852 8.13039 9.80259 8.38063 8.87632C9.60915 7.35898 11.5027 6.55588 13.6514 6.62961C13.713 8.43466 13.1558 10.072 12.0572 11.2844Z" fill="#018DF0"/>
    </g>
    <defs>
    <clipPath id="clip0_3500_35008">
    <rect width="16" height="16" fill="white"/>
    </clipPath>
    </defs>
    </svg>
    