<svg width="32" height="32" viewBox="0 0 32 32" fill="none" xmlns="http://www.w3.org/2000/svg">
<rect x="1.5" y="1.5" width="29" height="29" rx="14.5" fill="#003F3B"/>
<g clip-path="url(#clip0_3378:36983)">
<path d="M22.8604 13.9813C22.8311 13.6848 22.5965 13.4502 22.2998 13.4207C20.1541 13.2088 18.1796 13.7336 16.6557 14.8833C16.6559 14.8597 16.6563 14.836 16.6563 14.8125C16.6563 12.1898 15.3629 9.83188 13.3026 8.14182C13.0722 7.95273 12.7402 7.95273 12.5099 8.14182C10.4492 9.83176 9.15625 12.1898 9.15625 14.8125C9.15625 17.3121 10.3329 19.5993 12.2811 21.2896V23.3749C12.2811 23.7613 12.6356 24.0655 13.0282 23.9878C13.0388 23.9856 13.0492 23.9828 13.0596 23.9801C13.1747 23.951 13.2711 23.8938 13.3482 23.8167L14.6465 22.5184C14.8556 22.5324 15.0641 22.5401 15.2694 22.5401C17.5423 22.5401 19.5716 21.682 20.9835 20.1236C22.4278 18.5298 23.0943 16.3484 22.8604 13.9813ZM13.5311 21.8659V21.2899C13.6024 21.2279 13.6725 21.1653 13.7417 21.1018C13.7434 21.2783 13.7503 21.456 13.7623 21.6349L13.5311 21.8659ZM14.0574 18.8786C14.0563 18.88 14.0554 18.8813 14.0545 18.8828C13.8936 19.107 13.7188 19.3252 13.5311 19.5366V14.8125C13.5311 14.4673 13.2514 14.1875 12.9061 14.1875C12.561 14.1875 12.2811 14.4673 12.2811 14.8125V19.5371C11.0638 18.1664 10.4063 16.5282 10.4063 14.8125C10.4063 12.8228 11.2899 10.9371 12.9061 9.45224C14.5225 10.9372 15.4061 12.8231 15.4061 14.8125C15.4061 16.2989 14.9064 17.6942 14.0574 18.8786ZM20.0572 19.2844C19.0159 20.4336 17.5574 21.1235 15.9017 21.2633L18.7655 18.3995C19.0095 18.1555 19.0095 17.7597 18.7655 17.5156C18.5214 17.2716 18.1258 17.2716 17.8816 17.5156L15.0171 20.38C15.0421 20.0818 15.0849 19.7892 15.1456 19.5036C15.7155 18.6852 16.1304 17.8026 16.3806 16.8763C17.6091 15.359 19.5027 14.5559 21.6514 14.6296C21.713 16.4347 21.1558 18.072 20.0572 19.2844Z" fill="#01C5BA"/>
</g>
<rect x="1.5" y="1.5" width="29" height="29" rx="14.5" stroke="#080134" stroke-width="3"/>
<defs>
<clipPath id="clip0_3378:36983">
<rect width="16" height="16" fill="white" transform="translate(8 8)"/>
</clipPath>
</defs>
</svg>
