<svg width="32" height="32" viewBox="0 0 32 32" fill="none" xmlns="http://www.w3.org/2000/svg">
<rect x="1.5" y="1.5" width="29" height="29" rx="14.5" fill="#2D1446"/>
<path fill-rule="evenodd" clip-rule="evenodd" d="M10.6666 11.6654V20.332H21.3333V11.6654H10.6666ZM9.33325 11.4987C9.33325 10.8544 9.85559 10.332 10.4999 10.332H21.4999C22.1443 10.332 22.6666 10.8544 22.6666 11.4987V20.4987C22.6666 21.143 22.1443 21.6654 21.4999 21.6654H10.4999C9.85559 21.6654 9.33325 21.143 9.33325 20.4987V11.4987Z" fill="#C379F6"/>
<path fill-rule="evenodd" clip-rule="evenodd" d="M13.4999 12.832C13.8681 12.832 14.1666 13.1305 14.1666 13.4987C14.1666 13.9849 14.3597 14.4512 14.7036 14.7951C15.0474 15.1389 15.5137 15.332 15.9999 15.332C16.4861 15.332 16.9525 15.1389 17.2963 14.7951C17.6401 14.4512 17.8333 13.9849 17.8333 13.4987C17.8333 13.1305 18.1317 12.832 18.4999 12.832C18.8681 12.832 19.1666 13.1305 19.1666 13.4987C19.1666 14.3386 18.833 15.144 18.2391 15.7379C17.6452 16.3317 16.8398 16.6654 15.9999 16.6654C15.1601 16.6654 14.3546 16.3317 13.7607 15.7379C13.1669 15.144 12.8333 14.3386 12.8333 13.4987C12.8333 13.1305 13.1317 12.832 13.4999 12.832Z" fill="#C379F6"/>
<rect x="1.5" y="1.5" width="29" height="29" rx="14.5" stroke="#080134" stroke-width="3"/>
</svg>
