<svg width="16" height="16" viewBox="0 0 16 16" fill="none" xmlns="http://www.w3.org/2000/svg">
    <g clip-path="url(#clip0_3500_34996)">
    <path d="M9.74486 6.04136C9.85671 6.15321 9.99921 6.22938 10.1544 6.26024C10.3095 6.2911 10.4703 6.27526 10.6164 6.21473C10.7626 6.15419 10.8875 6.05168 10.9754 5.92016C11.0632 5.78864 11.1101 5.63402 11.1101 5.47584C11.1101 5.31766 11.0632 5.16303 10.9754 5.03151C10.8875 4.89999 10.7626 4.79748 10.6164 4.73695C10.4703 4.67641 10.3095 4.66058 10.1544 4.69144C9.99921 4.7223 9.85671 4.79847 9.74486 4.91032C9.59487 5.0603 9.51061 5.26372 9.51061 5.47584C9.51061 5.68795 9.59487 5.89137 9.74486 6.04136ZM13.138 1.84519L7.48277 1.84519C7.37751 1.84562 7.27338 1.86682 7.17633 1.90758C7.07929 1.94834 6.99124 2.00785 6.91725 2.08271L0.696513 8.30344C0.246556 8.7534 -0.00622707 9.36367 -0.00622715 10C-0.00622722 10.6363 0.246556 11.2466 0.696513 11.6966L4.08964 15.0897C4.5396 15.5397 5.14987 15.7924 5.78621 15.7924C6.42254 15.7924 7.03281 15.5397 7.48277 15.0897L13.7035 8.86897C13.7784 8.79497 13.8379 8.70692 13.8786 8.60988C13.9194 8.51284 13.9406 8.4087 13.941 8.30344L13.941 2.64823C13.9415 2.54265 13.921 2.43803 13.8808 2.34041C13.8406 2.24278 13.7814 2.15408 13.7068 2.07943C13.6321 2.00477 13.5434 1.94564 13.4458 1.90543C13.3482 1.86523 13.2436 1.84476 13.138 1.84519ZM12.3406 7.96979L6.35173 13.9587C6.20174 14.1086 5.99832 14.1929 5.78621 14.1929C5.57409 14.1929 5.37067 14.1086 5.22068 13.9587L1.82756 10.5655C1.67757 10.4155 1.59331 10.2121 1.59331 10C1.59331 9.7879 1.67757 9.58447 1.82756 9.43449L7.81643 3.44561L12.3406 3.44561L12.3406 7.96979Z" fill="#018DF0"/>
    </g>
    <defs>
    <clipPath id="clip0_3500_34996">
    <rect width="16" height="16" fill="white"/>
    </clipPath>
    </defs>
    </svg>
    