<svg width="32" height="32" viewBox="0 0 32 32" fill="none" xmlns="http://www.w3.org/2000/svg">
<rect x="1.5" y="1.5" width="29" height="29" rx="14.5" fill="#211857"/>
<g clip-path="url(#clip0_3378:36904)">
<path d="M17.7449 14.0414C17.8568 14.1532 17.9993 14.2294 18.1544 14.2602C18.3096 14.2911 18.4704 14.2753 18.6165 14.2147C18.7626 14.1542 18.8875 14.0517 18.9754 13.9202C19.0633 13.7886 19.1102 13.634 19.1102 13.4758C19.1102 13.3177 19.0633 13.163 18.9754 13.0315C18.8875 12.9 18.7626 12.7975 18.6165 12.7369C18.4704 12.6764 18.3096 12.6606 18.1544 12.6914C17.9993 12.7223 17.8568 12.7985 17.7449 12.9103C17.5949 13.0603 17.5107 13.2637 17.5107 13.4758C17.5107 13.6879 17.5949 13.8914 17.7449 14.0414ZM21.138 9.84519L15.4828 9.84519C15.3776 9.84562 15.2734 9.86682 15.1764 9.90758C15.0794 9.94834 14.9913 10.0079 14.9173 10.0827L8.69657 16.3034C8.24662 16.7534 7.99383 17.3637 7.99383 18C7.99383 18.6363 8.24662 19.2466 8.69657 19.6966L12.0897 23.0897C12.5397 23.5397 13.1499 23.7924 13.7863 23.7924C14.4226 23.7924 15.0329 23.5397 15.4828 23.0897L21.7036 16.869C21.7784 16.795 21.8379 16.7069 21.8787 16.6099C21.9195 16.5128 21.9407 16.4087 21.9411 16.3034L21.9411 10.6482C21.9415 10.5427 21.921 10.438 21.8808 10.3404C21.8406 10.2428 21.7815 10.1541 21.7068 10.0794C21.6322 10.0048 21.5435 9.94564 21.4459 9.90543C21.3482 9.86523 21.2436 9.84476 21.138 9.84519ZM20.3407 15.9698L14.3518 21.9587C14.2018 22.1086 13.9984 22.1929 13.7863 22.1929C13.5742 22.1929 13.3707 22.1086 13.2207 21.9587L9.82762 18.5655C9.67763 18.4155 9.59337 18.2121 9.59337 18C9.59337 17.7879 9.67763 17.5845 9.82762 17.4345L15.8165 11.4456L20.3407 11.4456L20.3407 15.9698Z" fill="#018DF0"/>
</g>
<rect x="1.5" y="1.5" width="29" height="29" rx="14.5" stroke="#080134" stroke-width="3"/>
<defs>
<clipPath id="clip0_3378:36904">
<rect width="16" height="16" fill="white" transform="translate(8 8)"/>
</clipPath>
</defs>
</svg>
