<svg width="14" height="20" viewBox="0 0 14 20" fill="none" xmlns="http://www.w3.org/2000/svg">
<path d="M12.8262 17.5026H11.9928V16.1134C11.9902 15.6365 11.9058 15.1636 11.7432 14.7153C11.7341 14.6909 11.7245 14.6682 11.7133 14.6449C11.5783 14.2769 11.3919 13.9299 11.1595 13.6143L9.99292 12.0583C9.66924 11.6248 9.49388 11.0986 9.49284 10.5576V9.7161C9.49475 9.05354 9.75776 8.41844 10.2249 7.94853L10.7725 7.40084C11.4089 6.76104 11.8177 5.93008 11.9361 5.03552C11.9366 5.02393 11.9428 5.01426 11.9428 5.00256L11.9405 4.99112C11.9694 4.81369 11.9869 4.63457 11.9928 4.45488V2.5026H12.8262C13.0472 2.5026 13.2592 2.41481 13.4154 2.25853C13.5717 2.10225 13.6595 1.89028 13.6595 1.66927C13.6595 1.44826 13.5717 1.2363 13.4154 1.08002C13.2592 0.923735 13.0472 0.835938 12.8262 0.835938H1.15951C0.9385 0.835938 0.726538 0.923735 0.570258 1.08002C0.413978 1.2363 0.32618 1.44826 0.32618 1.66927C0.32618 1.89028 0.413978 2.10225 0.570258 2.25853C0.726538 2.41481 0.9385 2.5026 1.15951 2.5026H1.99285V4.45488C1.99877 4.63457 2.01627 4.81369 2.04524 4.99112L2.04289 5.0026C2.04289 5.01427 2.04909 5.02397 2.04956 5.03556C2.16802 5.93012 2.5768 6.76108 3.21314 7.40088L3.76083 7.94857C4.22791 8.41847 4.49092 9.05356 4.49284 9.7161V10.5576C4.49175 11.0985 4.31655 11.6247 3.99316 12.0583L2.82576 13.6142C2.59347 13.93 2.40707 14.2771 2.27212 14.6452C2.26104 14.6683 2.25152 14.6907 2.24252 14.7149C2.0799 15.1634 1.99545 15.6364 1.99284 16.1134V17.5026H1.15951C0.938492 17.5026 0.72653 17.5904 0.57025 17.7467C0.413969 17.903 0.326172 18.1149 0.326172 18.3359C0.326172 18.557 0.413969 18.7689 0.57025 18.9252C0.72653 19.0815 0.938492 19.1693 1.15951 19.1693H12.8262C13.0472 19.1693 13.2591 19.0815 13.4154 18.9252C13.5717 18.7689 13.6595 18.557 13.6595 18.3359C13.6595 18.1149 13.5717 17.903 13.4154 17.7467C13.2591 17.5904 13.0472 17.5026 12.8262 17.5026ZM3.65951 4.16927V2.5026H10.3262V4.16927H3.65951ZM4.39152 6.2225C4.2741 6.10453 4.16888 5.97502 4.07745 5.83594H9.90823C9.8168 5.97502 9.71157 6.10453 9.59416 6.2225L9.04646 6.77019C8.39644 7.4164 7.97963 8.26033 7.86157 9.16927H6.12407C6.00604 8.2603 5.58924 7.41634 4.9392 6.7701L4.39152 6.2225ZM5.32658 13.0576C5.80876 12.4115 6.09468 11.6402 6.15015 10.8359H7.83553C7.89095 11.6403 8.17703 12.4116 8.6595 13.0576L9.49294 14.1693H4.49253L5.32658 13.0576ZM10.3262 17.5026H3.65951V16.1134C3.66182 16.0206 3.6694 15.9279 3.68219 15.8359H10.3035C10.3163 15.9279 10.3239 16.0206 10.3262 16.1134V17.5026Z" fill="white"/>
</svg>
