<svg width="16" height="16" viewBox="0 0 16 16" fill="none" xmlns="http://www.w3.org/2000/svg">
<path d="M10.7681 5.23459C10.8847 5.35114 11.0332 5.43051 11.1948 5.46266C11.3565 5.49481 11.524 5.47831 11.6763 5.41524C11.8286 5.35217 11.9587 5.24536 12.0503 5.10831C12.1418 4.97127 12.1907 4.81016 12.1907 4.64534C12.1907 4.48052 12.1418 4.31941 12.0503 4.18236C11.9587 4.04532 11.8286 3.93851 11.6763 3.87544C11.524 3.81237 11.3565 3.79586 11.1948 3.82802C11.0332 3.86017 10.8847 3.93954 10.7681 4.05608C10.6119 4.21236 10.5241 4.42433 10.5241 4.64534C10.5241 4.86635 10.6119 5.07831 10.7681 5.23459ZM14.3037 0.862319L8.41111 0.862319C8.30144 0.862766 8.19293 0.884856 8.09181 0.927325C7.9907 0.969795 7.89896 1.03181 7.82185 1.10981L1.34004 7.59162C0.871202 8.06046 0.607809 8.69634 0.607809 9.35938C0.607809 10.0224 0.871201 10.6583 1.34004 11.1272L4.87558 14.6627C5.34442 15.1315 5.9803 15.3949 6.64334 15.3949C7.30638 15.3949 7.94227 15.1315 8.41111 14.6627L14.8929 8.18087C14.9709 8.10377 15.0329 8.01203 15.0754 7.91091C15.1179 7.8098 15.14 7.70129 15.1404 7.59162V1.69906C15.1409 1.58905 15.1195 1.48004 15.0776 1.37832C15.0357 1.2766 14.9741 1.18418 14.8963 1.10639C14.8186 1.0286 14.7261 0.966983 14.6244 0.925092C14.5227 0.883202 14.4137 0.861867 14.3037 0.862319ZM13.4728 7.24396L7.2326 13.4842C7.07632 13.6405 6.86436 13.7283 6.64334 13.7283C6.42233 13.7283 6.21037 13.6405 6.05409 13.4842L2.51855 9.94864C2.36227 9.79236 2.27448 9.5804 2.27448 9.35938C2.27448 9.13837 2.36227 8.92641 2.51855 8.77013L8.75877 2.52991L13.4728 2.52991L13.4728 7.24396Z" fill="white"/>
</svg>
