<svg width="16" height="22" viewBox="0 0 16 22" fill="none" xmlns="http://www.w3.org/2000/svg">
<path fill-rule="evenodd" clip-rule="evenodd" d="M8.33323 1C8.43094 1.00004 8.52745 1.02155 8.61593 1.06303C8.70441 1.1045 8.78269 1.16492 8.84523 1.24L15.5119 9.24C15.6018 9.34784 15.6553 9.4813 15.6649 9.62136C15.6745 9.76142 15.6396 9.90093 15.5652 10.02L8.89856 20.6867C8.83863 20.7825 8.7553 20.8616 8.65641 20.9164C8.55751 20.9712 8.4463 21 8.33323 21C8.22016 21 8.10894 20.9712 8.01005 20.9164C7.91115 20.8616 7.82782 20.7825 7.76789 20.6867L1.10123 10.02C1.02686 9.90093 0.991977 9.76142 1.00155 9.62136C1.01113 9.4813 1.06468 9.34784 1.15456 9.24L7.82123 1.24C7.88377 1.16492 7.96204 1.1045 8.05052 1.06303C8.139 1.02155 8.23551 1.00004 8.33323 1ZM2.65456 9.98933L8.33323 7.72L14.0119 9.99067L8.33323 19.076L2.65456 9.98933ZM12.8012 8.06933L8.33323 6.28267L3.86656 8.06933L8.33323 2.70667L12.7999 8.06667L12.8012 8.06933Z" fill="#080134"/>
<path fill-rule="evenodd" clip-rule="evenodd" d="M8.33332 0.750094C8.46768 0.750144 8.60038 0.77973 8.72204 0.836756C8.84368 0.893774 8.9513 0.976831 9.03728 1.08005M9.03728 1.08005L15.7039 9.08003C15.7039 9.08003 15.7039 9.08002 15.7039 9.08003C15.8275 9.2283 15.9011 9.41183 15.9143 9.6044C15.9275 9.79698 15.8795 9.98881 15.7773 10.1525L9.11056 20.8193C9.02816 20.9511 8.91358 21.0598 8.7776 21.1352C8.64162 21.2105 8.4887 21.2501 8.33323 21.2501C8.17775 21.2501 8.02484 21.2105 7.88885 21.1352C7.75287 21.0598 7.63829 20.9511 7.55589 20.8193L0.889227 10.1526C0.78697 9.98887 0.738967 9.79698 0.752135 9.6044C0.765302 9.41183 0.838923 9.22832 0.962504 9.08005C0.96251 9.08004 0.962499 9.08005 0.962504 9.08005L7.62913 1.08009C7.71512 0.976856 7.82275 0.893783 7.94441 0.836756C7.98933 0.815699 8.03576 0.798383 8.08323 0.784914V0.75L8.33332 0.750094M8.33332 1.25009C8.27225 1.25012 8.21193 1.26356 8.15663 1.28949C8.10133 1.31541 8.05241 1.35317 8.01332 1.40009L1.34662 9.40014C1.29044 9.46754 1.25696 9.55097 1.25097 9.63851C1.24498 9.72604 1.26679 9.81324 1.31327 9.88766L7.97989 20.5543C8.01735 20.6142 8.06943 20.6636 8.13124 20.6979C8.19305 20.7321 8.26256 20.7501 8.33323 20.7501C8.40389 20.7501 8.4734 20.7321 8.53521 20.6979C8.59702 20.6636 8.6491 20.6142 8.68656 20.5543L15.3532 9.88766C15.3997 9.81324 15.4215 9.72604 15.4155 9.63851C15.4095 9.55097 15.376 9.46756 15.3199 9.40016L8.65317 1.40014C8.61408 1.35321 8.56512 1.31541 8.50982 1.28949C8.45452 1.26356 8.39439 1.25012 8.33332 1.25009L8.33323 1.00009H8.58323V1.25L8.33332 1.25009ZM8.33318 2.31619L13.0105 7.92902L13.3187 8.54559L8.33324 6.55201L3.95941 8.30155L3.67447 7.90943L8.33318 2.31619ZM8.33327 3.09733L11.978 7.47098L8.33321 6.01351L4.6908 7.47047L8.33327 3.09733ZM8.33325 7.45086L14.3824 9.86966L8.33321 19.5478L2.28404 9.86827L8.33325 7.45086ZM3.02508 10.1106L8.33324 18.6044L13.6414 10.1119L8.3332 7.98933L3.02508 10.1106Z" fill="#080134"/>
</svg>
