<svg width="32" height="32" viewBox="0 0 32 32" fill="none" xmlns="http://www.w3.org/2000/svg">
<rect x="1.5" y="1.5" width="29" height="29" rx="14.5" fill="#433340"/>
<path fill-rule="evenodd" clip-rule="evenodd" d="M16.5001 10.4947L15.0001 10.4997C14.9941 10.4997 15.0061 10.4997 15.0001 10.4997C12.5246 10.5097 10.4976 12.5227 10.4976 15.0002C10.4976 17.4837 12.5141 19.5002 14.9976 19.5002H15.0001C15.8281 19.5002 16.5001 20.1722 16.5001 21.0002C16.5001 21.0167 16.4986 20.9842 16.5001 21.0002L16.5026 22.0002C16.5026 22.5527 16.9501 23.0002 17.5026 23.0002H18.5001C19.0526 23.0002 19.5001 22.5527 19.5001 22.0002V21.0002V20.9997C19.5001 18.5167 17.4836 16.5002 15.0001 16.5002H14.9976C14.1841 16.5002 13.5226 15.8087 13.5001 15.0007C13.5011 14.9867 13.5001 15.0147 13.5001 15.0002C13.5001 14.1722 14.1721 13.5002 15.0001 13.5002C15.0071 13.5002 15.0141 13.5002 15.0211 13.4997L16.5001 13.4947V14.0002C16.5001 14.3792 16.7141 14.7252 17.0531 14.8947C17.3916 15.0642 17.7971 15.0277 18.1001 14.8002C18.8926 14.2062 20.0831 13.3127 20.7666 12.8002C21.0186 12.6112 21.1666 12.3152 21.1666 12.0002C21.1666 11.6852 21.0186 11.3892 20.7666 11.2002C20.0831 10.6877 18.8926 9.79417 18.1001 9.20017C17.7971 8.97267 17.3916 8.93617 17.0531 9.10567C16.7141 9.27517 16.5001 9.62117 16.5001 10.0002V10.4947ZM17.0001 12.5002C17.2321 12.5437 17.5001 12.7557 17.5001 13.0002V14.0002L20.1666 12.0002L17.5001 10.0002V11.0002C17.5001 11.2762 17.2761 11.5002 17.0001 11.5002C16.9716 11.5002 15.0046 11.5002 14.9976 11.5002C13.0661 11.5002 11.4976 13.0687 11.4976 15.0002C11.4976 16.9317 13.0661 18.5002 14.9976 18.5002H15.0001C16.3616 18.5002 17.4731 19.6457 17.5026 21.0002C17.5046 21.0182 17.5026 20.9817 17.5026 21.0002V22.0002H18.5001V21.0002C18.5001 19.0687 16.9316 17.5002 15.0001 17.5002H14.9976C13.6181 17.5002 12.4976 16.3802 12.4976 15.0002C12.4976 14.9817 12.4981 15.0187 12.5001 15.0007C12.5291 13.6532 13.6271 12.5117 14.9786 12.5002C14.9851 12.5002 14.9916 12.4997 14.9986 12.4997C14.9986 12.4997 16.9551 12.5002 17.0001 12.5002Z" fill="#FFD166"/>
<rect x="1.5" y="1.5" width="29" height="29" rx="14.5" stroke="#080134" stroke-width="3"/>
</svg>
