<svg width="16" height="16" viewBox="0 0 16 16" fill="none" xmlns="http://www.w3.org/2000/svg">
    <path fill-rule="evenodd" clip-rule="evenodd" d="M8.49994 2.49467L6.99994 2.49967C6.99394 2.49967 7.00594 2.49967 6.99994 2.49967C4.52444 2.50967 2.49744 4.52267 2.49744 7.00017C2.49744 9.48367 4.51394 11.5002 6.99744 11.5002H6.99994C7.82794 11.5002 8.49994 12.1722 8.49994 13.0002C8.49994 13.0167 8.49844 12.9842 8.49994 13.0002L8.50244 14.0002C8.50244 14.5527 8.94994 15.0002 9.50244 15.0002H10.4999C11.0524 15.0002 11.4999 14.5527 11.4999 14.0002V13.0002V12.9997C11.4999 10.5167 9.48344 8.50017 6.99994 8.50017H6.99744C6.18394 8.50017 5.52244 7.80867 5.49994 7.00067C5.50094 6.98667 5.49994 7.01467 5.49994 7.00017C5.49994 6.17217 6.17194 5.50017 6.99994 5.50017C7.00694 5.50017 7.01394 5.50017 7.02094 5.49967L8.49994 5.49467V6.00017C8.49994 6.37917 8.71394 6.72517 9.05294 6.89467C9.39144 7.06417 9.79694 7.02767 10.0999 6.80017C10.8924 6.20617 12.0829 5.31267 12.7664 4.80017C13.0184 4.61117 13.1664 4.31517 13.1664 4.00017C13.1664 3.68517 13.0184 3.38917 12.7664 3.20017C12.0829 2.68767 10.8924 1.79417 10.0999 1.20017C9.79694 0.972669 9.39144 0.936169 9.05294 1.10567C8.71394 1.27517 8.49994 1.62117 8.49994 2.00017V2.49467ZM8.99994 4.50017C9.23194 4.54367 9.49994 4.75567 9.49994 5.00017V6.00017L12.1664 4.00017L9.49994 2.00017V3.00017C9.49994 3.27617 9.27594 3.50017 8.99994 3.50017C8.97144 3.50017 7.00444 3.50017 6.99744 3.50017C5.06594 3.50017 3.49744 5.06867 3.49744 7.00017C3.49744 8.93167 5.06594 10.5002 6.99744 10.5002H6.99994C8.36144 10.5002 9.47294 11.6457 9.50244 13.0002C9.50444 13.0182 9.50244 12.9817 9.50244 13.0002V14.0002H10.4999V13.0002C10.4999 11.0687 8.93144 9.50017 6.99994 9.50017H6.99744C5.61794 9.50017 4.49744 8.38017 4.49744 7.00017C4.49744 6.98167 4.49794 7.01867 4.49994 7.00067C4.52894 5.65317 5.62694 4.51167 6.97844 4.50017C6.98494 4.50017 6.99144 4.49967 6.99844 4.49967C6.99844 4.49967 8.95494 4.50017 8.99994 4.50017Z" fill="#018DF0"/>
    </svg>
    