<?xml version="1.0" encoding="utf-8"?>
<!-- Generator: Adobe Illustrator 25.0.0, SVG Export Plug-In . SVG Version: 6.00 Build 0)  -->
<svg version="1.1" id="Calque_1" xmlns="http://www.w3.org/2000/svg" xmlns:xlink="http://www.w3.org/1999/xlink" x="0px" y="0px"
	 viewBox="0 0 117.3 80.4" style="enable-background:new 0 0 117.3 80.4;" xml:space="preserve">
<style type="text/css">
	.st0{fill:#FF060A;}
</style>
<g id="tron">
	<path class="st0" d="M88.2,27.5c-3-2.8-7.2-7-10.5-10l-0.2-0.1c-0.3-0.3-0.7-0.5-1.1-0.6l0,0c-8.1-1.5-46.1-8.6-46.8-8.5
		c-0.2,0-0.4,0.1-0.6,0.2l-0.2,0.1c-0.2,0.2-0.4,0.5-0.5,0.8l0,0.1v0.7v0.1c4.3,11.9,21.1,50.8,24.5,60c0.2,0.6,0.6,1.8,1.3,1.9h0.2
		c0.4,0,2-2.1,2-2.1S85.1,35,88,31.2c0.4-0.5,0.7-1,1-1.5C89.2,28.9,88.9,28.1,88.2,27.5z M63.5,31.6l12.4-10.3l7.3,6.7L63.5,31.6z
		 M58.7,30.9L37.5,13.5l34.4,6.3L58.7,30.9z M60.7,35.5L82.4,32L57.5,62L60.7,35.5z M34.6,15.2l22.4,19L53.7,62L34.6,15.2z"/>
</g>
</svg>
