<svg width="32" height="32" viewBox="0 0 32 32" fill="none" xmlns="http://www.w3.org/2000/svg">
<path d="M25.8943 32H5.93659C2.6554 32 0 29.3305 0 26.0319V5.96812C0 2.6695 2.6554 0 5.93659 0H25.8943C29.1755 0 31.8309 2.6695 31.8309 5.96812V26.0319C31.8309 29.3305 29.1755 32 25.8943 32Z" fill="#135DCD"/>
<path d="M10.2155 12.9399L23.7969 25.1142L22.7145 32.0005H24.8794L25.7927 26.1514L31.9999 25.2502V23.0908L27.5855 23.7199L31.9999 20.2853V17.5648L24.8286 23.1588L11.7884 11.4776L31.9999 15.9665V13.773L6.20703 8.04297L14.7144 32.0005H16.9808L10.2155 12.9399Z" fill="white"/>
</svg>
