<svg width="21" height="19" viewBox="0 0 21 19" fill="none" xmlns="http://www.w3.org/2000/svg">
<path d="M1.50051 15.75C1.50051 15.75 5.25051 15 6.00051 12.75C6.00051 12.75 0.000506267 10.5 1.50051 2.25C1.50051 2.25 4.50051 6 9.00051 6.75V5.25027C9.00059 4.38867 9.29731 3.55337 9.8408 2.8848C10.3843 2.21624 11.1414 1.75517 11.9848 1.57913C12.8282 1.40309 13.7065 1.5228 14.4721 1.91814C15.2376 2.31348 15.8437 2.96034 16.1885 3.74997L19.5005 3.75L16.5005 6.75C16.5005 12 12.7505 17.25 6.00051 17.25C3.00051 17.25 1.50051 15.75 1.50051 15.75Z" stroke="white" stroke-width="2" stroke-linecap="round" stroke-linejoin="round"/>
</svg>
