<svg width="20" height="17" viewBox="0 0 20 17" fill="none" xmlns="http://www.w3.org/2000/svg">
<path fill-rule="evenodd" clip-rule="evenodd" d="M2.75 2C2.61739 2 2.49021 2.05268 2.39645 2.14645C2.30268 2.24021 2.25 2.36739 2.25 2.5C2.25 2.63261 2.30268 2.75978 2.39645 2.85355C2.49022 2.94732 2.61739 3 2.75 3H17.75C18.2141 3 18.6592 3.18437 18.9874 3.51256C19.3156 3.84075 19.5 4.28587 19.5 4.75V15.25C19.5 15.7141 19.3156 16.1592 18.9874 16.4874C18.6592 16.8156 18.2141 17 17.75 17H2.75C2.08696 17 1.45107 16.7366 0.982233 16.2678C0.513392 15.7989 0.25 15.163 0.25 14.5V2.5C0.25 1.83696 0.513392 1.20107 0.982233 0.732233C1.45107 0.263392 2.08696 0 2.75 0H15.5C16.0523 0 16.5 0.447715 16.5 1C16.5 1.55228 16.0523 2 15.5 2H2.75ZM2.25 4.9495V14.5C2.25 14.6326 2.30268 14.7598 2.39645 14.8536C2.49022 14.9473 2.61739 15 2.75 15H17.5V5H2.75C2.58079 5 2.41335 4.98285 2.25 4.9495Z" fill="#080134"/>
</svg>
