<svg width="32" height="32" viewBox="0 0 32 32" fill="none" xmlns="http://www.w3.org/2000/svg">
<g clip-path="url(#clip0)">
<path d="M15.9276 7.12292L9.71328 13.243L6.09734 9.68176L15.9276 0L25.7612 9.68499L22.1453 13.2462L15.9276 7.12292Z" fill="#F0B90A"/>
<path d="M7.15961 15.757L3.54367 12.1961L-0.0722656 15.7572L3.54367 19.3185L7.15961 15.757Z" fill="#F0B90A"/>
<path d="M15.9276 24.3923L9.71328 18.2723L6.09203 21.8288L6.09709 21.8337L15.9276 31.5153L25.7612 21.8305L25.763 21.8285L22.145 18.2693L15.9276 24.3923Z" fill="#F0B90A"/>
<path d="M28.3121 19.32L31.9277 15.7587L28.3119 12.1976L24.6959 15.759L28.3121 19.32Z" fill="#F0B90A"/>
<path d="M19.5968 15.7557H19.5983L15.9291 12.1419L12.2631 15.7627L15.9291 19.3732L19.5983 15.7594L19.6001 15.7575L19.5968 15.7557Z" fill="#F0B90A"/>
</g>
<defs>
<clipPath id="clip0">
<rect width="32" height="32" fill="white"/>
</clipPath>
</defs>
</svg>
