<svg width="32" height="32" viewBox="0 0 32 32" fill="none" xmlns="http://www.w3.org/2000/svg">
<g clip-path="url(#clip0)">
<path d="M23.796 10.4942C23.2253 10.1721 22.4508 10.1721 21.7986 10.4942L17.1107 13.1914L13.9311 14.9224L9.36547 17.6599C8.79477 17.9819 8.02025 17.9819 7.36802 17.6599L3.78076 15.5262C3.21006 15.2042 2.76165 14.5198 2.76165 13.7952V9.64877C2.76165 9.00466 3.08776 8.3203 3.78076 7.91773L7.32725 5.86464C7.89795 5.54259 8.67248 5.54259 9.32471 5.86464L12.912 7.99825C13.4827 8.3203 13.9311 9.00466 13.9311 9.72928V12.4667L17.1107 10.6552V7.83722C17.1107 7.19311 16.7846 6.50875 16.0916 6.10618L9.447 2.24154C8.8763 1.91949 8.10178 1.91949 7.44955 2.24154L0.60114 6.1867C-0.0918541 6.50875 -0.417969 7.19311 -0.417969 7.83722V15.6068C-0.417969 16.2509 -0.0918541 16.9352 0.60114 17.3378L7.32725 21.2024C7.89795 21.5245 8.67248 21.5245 9.32471 21.2024L13.9311 18.5455L17.1107 16.734L21.7171 14.077C22.2878 13.755 23.0623 13.755 23.7145 14.077L27.3018 16.1301C27.8725 16.4522 28.3209 17.1365 28.3209 17.8611V21.9673C28.3209 22.6114 27.9948 23.2958 27.3018 23.6984L23.796 25.7514C23.2253 26.0735 22.4508 26.0735 21.7986 25.7514L18.2113 23.6984C17.6406 23.3763 17.1922 22.6919 17.1922 21.9673V19.3104L14.0126 21.1219V23.8594C14.0126 24.5035 14.3387 25.1879 15.0317 25.5904L21.7986 29.4551C22.3693 29.7771 23.1438 29.7771 23.796 29.4551L30.5629 25.6307C31.1336 25.3086 31.582 24.6243 31.582 23.8996V16.0898C31.582 15.4457 31.2559 14.7614 30.5629 14.3588L23.796 10.4942Z" fill="#8248E5"/>
</g>
<defs>
<clipPath id="clip0">
<rect width="32" height="32" fill="white"/>
</clipPath>
</defs>
</svg>
