<svg width="32" height="32" viewBox="0 0 32 32" fill="none" xmlns="http://www.w3.org/2000/svg">
<path d="M8.12777 11.2218C12.4754 6.96512 19.5244 6.96512 23.8721 11.2218L24.3953 11.7341C24.6127 11.947 24.6127 12.2921 24.3953 12.5049L22.6054 14.2574C22.4967 14.3638 22.3205 14.3638 22.2118 14.2574L21.4917 13.5524C18.4587 10.5828 13.5411 10.5828 10.5081 13.5524L9.73699 14.3074C9.6283 14.4138 9.45207 14.4138 9.34338 14.3074L7.55345 12.5549C7.33607 12.3421 7.33607 11.997 7.55345 11.7841L8.12777 11.2218ZM27.5738 14.8462L29.1668 16.4059C29.3842 16.6187 29.3842 16.9638 29.1668 17.1766L21.9837 24.2096C21.7663 24.4225 21.4139 24.4225 21.1965 24.2096C21.1965 24.2096 21.1965 24.2096 21.1965 24.2096L16.0983 19.2181C16.044 19.1649 15.9559 19.1649 15.9015 19.2181C15.9015 19.2181 15.9015 19.2181 15.9015 19.2181L10.8035 24.2096C10.5861 24.4225 10.2337 24.4225 10.0163 24.2096C10.0163 24.2096 10.0163 24.2096 10.0163 24.2096L2.83296 17.1766C2.61558 16.9637 2.61558 16.6186 2.83296 16.4058L4.426 14.8461C4.64339 14.6332 4.99583 14.6332 5.21322 14.8461L10.3114 19.8377C10.3658 19.8909 10.4539 19.8909 10.5082 19.8377C10.5082 19.8377 10.5082 19.8377 10.5082 19.8377L15.6062 14.8461C15.8236 14.6332 16.176 14.6332 16.3934 14.8461C16.3934 14.8461 16.3934 14.8461 16.3934 14.8461L21.4916 19.8377C21.546 19.8909 21.6341 19.8909 21.6884 19.8377L26.7866 14.8462C27.004 14.6333 27.3564 14.6333 27.5738 14.8462Z" fill="#3B99FC"/>
</svg>
