<svg width="145" height="43" viewBox="0 0 145 43" fill="none" xmlns="http://www.w3.org/2000/svg">
<path d="M35.7528 2L17.5391 12.4935L17.614 19.5391L35.8277 9.04562L35.7528 2Z" fill="url(#paint0_linear)"/>
<path d="M35.7528 13.543L17.5391 24.0365L17.614 31.0821L35.8277 20.6635L35.7528 13.543Z" fill="url(#paint1_linear)"/>
<path d="M35.8277 32.2062V25.0857L17.9139 35.3543L6.22114 28.6085L6.29609 5.59777L0.0749535 2L0 32.2062L17.9139 42.4749L35.8277 32.2062Z" fill="#6F45FF"/>
<path d="M55.363 6.913H52.697V31H55.363V6.913ZM74.161 22.661C74.161 20.305 73.51 18.414 72.208 17.019C70.937 15.624 69.17 14.911 66.907 14.911C64.613 14.911 62.753 15.655 61.296 17.112C59.839 18.569 59.126 20.584 59.126 23.095C59.126 25.606 59.839 27.621 61.296 29.109C62.753 30.566 64.644 31.31 66.969 31.31C68.767 31.31 70.317 30.845 71.588 29.915C72.859 28.954 73.665 27.776 74.006 26.319L71.34 26.164C70.813 27.931 69.232 28.985 66.907 28.985C64.086 28.985 62.102 27.125 61.947 24.118H74.161V22.661ZM66.876 17.236C69.821 17.236 71.402 19.096 71.495 21.948H61.947C62.102 18.941 64.055 17.236 66.876 17.236ZM82.7624 14.942C79.1354 14.911 76.9654 16.74 76.9654 19.561C77.1204 21.421 77.6474 22.382 79.1354 23.002C79.6624 23.219 80.1584 23.405 80.5614 23.529L82.3284 23.963C83.8784 24.335 84.9014 24.676 85.4284 25.017C85.9554 25.327 86.2344 25.854 86.2344 26.629C86.2344 28.148 84.9634 28.985 82.9794 28.985C80.7784 28.985 79.5694 28.086 79.3214 26.319L76.6554 26.505C77.0584 29.574 79.3524 31.31 82.9174 31.31C86.6064 31.31 88.9004 29.512 88.9004 26.412C88.9004 23.808 87.1644 22.754 83.4134 21.855C83.0724 21.762 82.2974 21.576 82.0184 21.545L81.4294 21.39C80.9644 21.266 80.8404 21.173 80.4684 21.018C79.9414 20.739 79.6624 20.212 79.6624 19.53C79.6624 18.073 80.7164 17.205 82.6694 17.236C84.6224 17.205 85.6764 18.073 85.8934 19.84L88.5594 19.685C88.1874 16.833 86.1414 14.911 82.7624 14.942ZM97.6322 14.942C94.0052 14.911 91.8352 16.74 91.8352 19.561C91.9902 21.421 92.5172 22.382 94.0052 23.002C94.5322 23.219 95.0282 23.405 95.4312 23.529L97.1982 23.963C98.7482 24.335 99.7712 24.676 100.298 25.017C100.825 25.327 101.104 25.854 101.104 26.629C101.104 28.148 99.8332 28.985 97.8492 28.985C95.6482 28.985 94.4392 28.086 94.1912 26.319L91.5252 26.505C91.9282 29.574 94.2222 31.31 97.7872 31.31C101.476 31.31 103.77 29.512 103.77 26.412C103.77 23.808 102.034 22.754 98.2832 21.855C97.9422 21.762 97.1672 21.576 96.8882 21.545L96.2992 21.39C95.8342 21.266 95.7102 21.173 95.3382 21.018C94.8112 20.739 94.5322 20.212 94.5322 19.53C94.5322 18.073 95.5862 17.205 97.5392 17.236C99.4922 17.205 100.546 18.073 100.763 19.84L103.429 19.685C103.057 16.833 101.011 14.911 97.6322 14.942Z" fill="#DCDCDC"/>
<path d="M115.106 14.911C112.75 14.911 111.014 16.027 110.177 17.546V15.19H107.635V31H110.301V21.762C110.301 20.553 110.704 19.499 111.479 18.662C112.285 17.825 113.308 17.391 114.548 17.391C116.935 17.391 118.547 19.127 118.547 21.731V31H121.244V21.39C121.244 19.437 120.655 17.856 119.508 16.678C118.361 15.5 116.904 14.911 115.106 14.911ZM132.281 6.789C128.84 6.789 126.67 8.959 126.67 12.555V15.19H123.601V17.515H126.67V31H129.336V17.515H133.397V15.19H129.336V12.493C129.336 10.385 130.607 9.114 132.56 9.114C132.839 9.114 133.118 9.145 133.459 9.176V6.851C132.994 6.82 132.622 6.789 132.281 6.789ZM142.33 28.799C140.47 28.799 139.54 27.776 139.54 25.73L139.602 17.515H143.849V15.19H139.602L139.633 9.734H136.936L136.905 15.19H133.96V17.515H136.905L136.874 26.257C136.843 29.605 138.734 31.217 141.741 31.217C142.454 31.217 143.167 31.155 143.88 31.031V28.644C143.26 28.737 142.733 28.799 142.33 28.799Z" fill="#6F45FF"/>
<defs>
<linearGradient id="paint0_linear" x1="17.5511" y1="10.769" x2="35.7821" y2="10.769" gradientUnits="userSpaceOnUse">
<stop stop-color="#6F45FF"/>
<stop offset="0.9955" stop-color="#FF6365"/>
</linearGradient>
<linearGradient id="paint1_linear" x1="17.5917" y1="22.3019" x2="35.8227" y2="22.3019" gradientUnits="userSpaceOnUse">
<stop stop-color="#6F45FF"/>
<stop offset="0.9955" stop-color="#FF6365"/>
</linearGradient>
</defs>
</svg>
