<svg width="31" height="42" viewBox="0 0 31 42" fill="none" xmlns="http://www.w3.org/2000/svg">
<rect x="31" width="42" height="31" rx="15.5" transform="rotate(90 31 0)" fill="url(#paint0_linear)"/>
<path d="M12.2943 22.1428L12.2943 12.4384L15.3608 15.5049C15.6445 15.779 16.0967 15.7711 16.3708 15.4873C16.6381 15.2105 16.6381 14.7717 16.3708 14.4949L12.085 10.2091C11.8061 9.93029 11.354 9.93029 11.075 10.2091L6.78921 14.4949C6.51512 14.7786 6.52296 15.2308 6.80676 15.5049C7.08359 15.7723 7.52241 15.7723 7.79925 15.5049L10.8657 12.4385L10.8657 22.1428C10.8657 22.5373 11.1855 22.8572 11.58 22.8572C11.9745 22.8572 12.2943 22.5373 12.2943 22.1428Z" fill="white"/>
<path d="M23.7995 27.3623C24.0735 27.0785 24.0657 26.6263 23.7819 26.3522C23.5051 26.0849 23.0663 26.0849 22.7894 26.3522L19.7229 29.4187L19.7229 19.7143C19.7229 19.3198 19.4031 19 19.0086 19C18.6141 19 18.2943 19.3198 18.2943 19.7143L18.2943 29.4187L15.2278 26.3522C14.9538 26.0685 14.5016 26.0607 14.2178 26.3347C13.934 26.6087 13.9262 27.0609 14.2003 27.3447C14.206 27.3507 14.2118 27.3565 14.2178 27.3623L18.5036 31.6481C18.7825 31.9269 19.2346 31.9269 19.5136 31.6481L23.7995 27.3623Z" fill="white"/>
<defs>
<linearGradient id="paint0_linear" x1="31" y1="15.5" x2="73" y2="15.5" gradientUnits="userSpaceOnUse">
<stop stop-color="#6F45FF"/>
<stop offset="1" stop-color="#FF6365"/>
</linearGradient>
</defs>
</svg>
