<svg width="84" height="83" viewBox="0 0 84 83" fill="none" xmlns="http://www.w3.org/2000/svg">
<path d="M83.625 41.5C83.625 30.4935 79.2527 19.9378 71.4699 12.1551C63.6872 4.37231 53.1315 8.30967e-07 42.125 0C31.1185 -8.30966e-07 20.5628 4.37231 12.7801 12.1551C4.99731 19.9378 0.625002 30.4935 0.625 41.5H2.285C2.285 30.9338 6.48242 20.8003 13.9539 13.3289C21.4253 5.85741 31.5588 1.66 42.125 1.66C52.6912 1.66 62.8247 5.85742 70.2961 13.3289C77.7676 20.8003 81.965 30.9338 81.965 41.5H83.625Z" fill="url(#paint0_linear_3495:38717)"/>
<path d="M31.875 32.25C32.2202 32.25 32.5 31.9702 32.5 31.625C32.5 31.2798 32.2202 31 31.875 31C31.5298 31 31.25 31.2798 31.25 31.625C31.25 31.9702 31.5298 32.25 31.875 32.25Z" fill="url(#paint1_linear_3495:38717)"/>
<path d="M36.875 32.25C37.2202 32.25 37.5 31.9702 37.5 31.625C37.5 31.2798 37.2202 31 36.875 31C36.5298 31 36.25 31.2798 36.25 31.625C36.25 31.9702 36.5298 32.25 36.875 32.25Z" fill="url(#paint2_linear_3495:38717)"/>
<path d="M35.625 32.875V31H34.375V32.875C34.3748 33.0407 34.3089 33.1996 34.1917 33.3167C34.0746 33.4339 33.9157 33.4998 33.75 33.5H33.125V34.75H33.75C34.2471 34.7494 34.7237 34.5517 35.0752 34.2002C35.4267 33.8487 35.6244 33.3721 35.625 32.875Z" fill="url(#paint3_linear_3495:38717)"/>
<path d="M31.3164 36.2798C31.5547 36.7604 31.9228 37.1646 32.3791 37.4465C32.8354 37.7285 33.3616 37.8771 33.898 37.8752H35.6254V36.6252H33.898C33.5939 36.6263 33.2956 36.5421 33.0369 36.3822C32.7782 36.2223 32.5695 35.9932 32.4344 35.7207L31.3164 36.2798Z" fill="url(#paint4_linear_3495:38717)"/>
<path d="M45.625 46.625V44.75C45.6239 43.7558 45.2284 42.8026 44.5254 42.0996C43.8224 41.3966 42.8692 41.0011 41.875 41H40V39.0601C40.5556 38.9434 41.067 38.6725 41.4758 38.2786C41.8845 37.8846 42.1741 37.3835 42.3112 36.8326L42.3756 36.5747C42.9397 36.4585 43.4466 36.1515 43.8108 35.7053C44.175 35.2591 44.3743 34.701 44.375 34.125V28.5C44.3742 27.8372 44.1106 27.2018 43.6419 26.7331C43.1733 26.2644 42.5378 26.0008 41.875 26C41.5436 25.9996 41.2259 25.8678 40.9915 25.6335C40.7572 25.3991 40.6254 25.0814 40.625 24.75C40.6242 24.0872 40.3606 23.4518 39.8919 22.9831C39.4233 22.5144 38.7878 22.2508 38.125 22.25H36.3976C35.6411 22.2476 34.9142 22.5439 34.375 23.0744C33.8358 22.5439 33.1089 22.2476 32.3524 22.25H30.625C29.9622 22.2508 29.3267 22.5144 28.8581 22.9831C28.3894 23.4518 28.1258 24.0872 28.125 24.75C28.1246 25.0814 27.9928 25.3991 27.7585 25.6335C27.5241 25.8678 27.2064 25.9996 26.875 26C26.2122 26.0008 25.5767 26.2644 25.1081 26.7331C24.6394 27.2018 24.3758 27.8372 24.375 28.5V34.125C24.3757 34.701 24.575 35.2591 24.9392 35.7053C25.3034 36.1515 25.8103 36.4585 26.3744 36.5747L26.4389 36.8326C26.576 37.3835 26.8655 37.8847 27.2743 38.2786C27.683 38.6726 28.1944 38.9434 28.75 39.0601V41H26.875C25.8808 41.0011 24.9276 41.3966 24.2246 42.0996C23.5216 42.8026 23.1261 43.7558 23.125 44.75V46.625C23.125 46.7693 23.1749 46.9091 23.2663 47.0208L28.0561 52.875H26.25C26.1471 52.875 26.0458 52.9004 25.9551 52.949C25.8644 52.9975 25.7871 53.0677 25.73 53.1533L24.48 55.0283C24.4115 55.131 24.375 55.2516 24.375 55.375V59.125C24.375 59.2908 24.4409 59.4497 24.5581 59.567C24.6753 59.6842 24.8342 59.75 25 59.75H43.75C43.9158 59.75 44.0747 59.6842 44.1919 59.567C44.3091 59.4497 44.375 59.2908 44.375 59.125V55.375C44.375 55.2516 44.3385 55.131 44.27 55.0283L43.02 53.1533C42.9629 53.0677 42.8856 52.9975 42.7949 52.949C42.7042 52.9004 42.6029 52.875 42.5 52.875H40.6939L45.4837 47.0208C45.5751 46.9091 45.625 46.7693 45.625 46.625ZM30 29.7359C30.3349 29.6973 30.6531 29.5687 30.9207 29.3636C31.1884 29.1586 31.3953 28.8848 31.5196 28.5714L31.9874 27.402L32.4858 28.2328C32.7646 28.6945 33.1576 29.0766 33.6269 29.3423C34.0963 29.6081 34.6261 29.7485 35.1655 29.75H38.75V35.375C38.75 36.5353 38.2891 37.6481 37.4686 38.4686C36.6481 39.2891 35.5353 39.75 34.375 39.75C33.2147 39.75 32.1019 39.2891 31.2814 38.4686C30.4609 37.6481 30 36.5353 30 35.375V29.7359ZM27.6516 36.5295L27.4814 35.8485C27.4476 35.7132 27.3695 35.5932 27.2597 35.5074C27.1498 35.4216 27.0144 35.375 26.875 35.375C26.5436 35.3746 26.2259 35.2428 25.9915 35.0085C25.7572 34.7741 25.6254 34.4564 25.625 34.125V28.5C25.6254 28.1686 25.7572 27.8509 25.9915 27.6165C26.2259 27.3822 26.5436 27.2504 26.875 27.25C27.5378 27.2493 28.1733 26.9856 28.6419 26.517C29.1106 26.0483 29.3742 25.4128 29.375 24.75C29.3754 24.4186 29.5072 24.1009 29.7415 23.8665C29.9759 23.6322 30.2936 23.5004 30.625 23.5H32.3524C32.6565 23.499 32.9548 23.5832 33.2135 23.7431C33.4722 23.9029 33.6809 24.1321 33.816 24.4046C33.8679 24.5084 33.9477 24.5957 34.0464 24.6567C34.1452 24.7177 34.2589 24.75 34.375 24.75C34.4911 24.75 34.6048 24.7177 34.7036 24.6567C34.8023 24.5957 34.8821 24.5084 34.934 24.4046C35.0691 24.1321 35.2778 23.9029 35.5365 23.7431C35.7952 23.5832 36.0935 23.499 36.3976 23.5H38.125C38.4564 23.5004 38.7741 23.6322 39.0085 23.8665C39.2428 24.1009 39.3746 24.4186 39.375 24.75C39.3758 25.4128 39.6394 26.0483 40.1081 26.517C40.5767 26.9856 41.2122 27.2493 41.875 27.25C42.2064 27.2504 42.5241 27.3822 42.7585 27.6165C42.9928 27.8509 43.1246 28.1686 43.125 28.5V34.125C43.1246 34.4564 42.9928 34.7741 42.7585 35.0085C42.5241 35.2428 42.2064 35.3746 41.875 35.375C41.7356 35.375 41.6002 35.4216 41.4903 35.5074C41.3805 35.5932 41.3024 35.7132 41.2686 35.8485L41.0985 36.5294C41.0289 36.8083 40.8926 37.0661 40.7012 37.2806C40.5099 37.4952 40.2692 37.6599 40 37.7607V29.75H41.25V28.5H35.1655C34.8419 28.4991 34.524 28.4149 34.2424 28.2554C33.9608 28.096 33.725 27.8667 33.5577 27.5897L32.411 25.6784C32.3511 25.5786 32.2645 25.4975 32.161 25.4442C32.0575 25.391 31.9411 25.3677 31.8251 25.377C31.7091 25.3863 31.5979 25.4278 31.5042 25.4969C31.4105 25.5659 31.3379 25.6598 31.2947 25.7679L30.359 28.1071C30.313 28.2234 30.233 28.323 30.1295 28.3931C30.0259 28.4632 29.9037 28.5004 29.7787 28.5H27.5V29.75H28.75V37.7607C28.4808 37.6599 28.2402 37.4952 28.0488 37.2807C27.8575 37.0662 27.7211 36.8084 27.6516 36.5295ZM43.125 55.5643V58.5H25.625V55.5643L26.5845 54.125H42.1655L43.125 55.5643ZM44.375 46.4019L39.0788 52.875H29.6712L24.375 46.4019V44.75C24.3758 44.0872 24.6394 43.4518 25.1081 42.9831C25.5767 42.5144 26.2122 42.2508 26.875 42.25H29.375C29.5408 42.25 29.6997 42.1842 29.8169 42.067C29.9341 41.9497 30 41.7908 30 41.625V38.9051C30.5263 39.5591 31.1925 40.0867 31.9496 40.4493C32.7068 40.8118 33.5355 41 34.375 41C35.2145 41 36.0432 40.8118 36.8004 40.4493C37.5575 40.0867 38.2237 39.5591 38.75 38.9051V41.625C38.75 41.7908 38.8159 41.9497 38.9331 42.067C39.0503 42.1842 39.2092 42.25 39.375 42.25H41.875C42.5378 42.2508 43.1733 42.5144 43.6419 42.9831C44.1106 43.4518 44.3742 44.0872 44.375 44.75V46.4019Z" fill="url(#paint5_linear_3495:38717)"/>
<path d="M36.755 44.1992C37.0981 43.4026 37.3261 42.5613 37.4323 41.7005L36.1916 41.5488C35.9991 43.1002 35.3534 44.5604 34.3355 45.7468C33.9911 45.2467 33.5303 44.8378 32.9928 44.5552C32.4553 44.2726 31.8572 44.1249 31.25 44.1247H28.75V45.3747H31.25C31.9128 45.3754 32.5483 45.639 33.0169 46.1077C33.4856 46.5764 33.7492 47.2119 33.75 47.8747V49.1247H35V47.8747C35.0008 47.2119 35.2644 46.5764 35.7331 46.1077C36.2017 45.639 36.8372 45.3754 37.5 45.3747H40V44.1247H37.5C37.2498 44.1246 37.0002 44.1496 36.755 44.1992Z" fill="url(#paint6_linear_3495:38717)"/>
<path d="M60 22.25H41.875V23.5H58.4911L56.6161 25.375H44.375V26.625H56.25V39.1605L52.8633 36.7414C52.7689 36.6739 52.6575 36.6341 52.5417 36.6264C52.4258 36.6186 52.3102 36.6433 52.2076 36.6976L47.6947 39.0868L44.7902 36.5051L43.9598 37.4394L46.5155 39.7111L44.7076 40.6682L45.2924 41.773L52.451 37.9831L56.25 40.6967V45.375H46.875V46.625H56.6161L58.4911 48.5H45.625V49.75H60C60.1658 49.75 60.3247 49.6841 60.4419 49.5669C60.5591 49.4497 60.625 49.2908 60.625 49.125V22.875C60.625 22.7092 60.5591 22.5503 60.4419 22.4331C60.3247 22.3159 60.1658 22.25 60 22.25ZM57.5 26.2589L59.375 24.3839V47.6161L57.5 45.7411V26.2589Z" fill="url(#paint7_linear_3495:38717)"/>
<path d="M51.875 32.875C51.875 32.2569 51.6917 31.6527 51.3484 31.1388C51.005 30.6249 50.5169 30.2244 49.9459 29.9879C49.3749 29.7514 48.7465 29.6895 48.1403 29.81C47.5342 29.9306 46.9773 30.2283 46.5403 30.6653C46.1033 31.1023 45.8056 31.6592 45.685 32.2653C45.5645 32.8715 45.6264 33.4999 45.8629 34.0709C46.0994 34.6419 46.4999 35.13 47.0138 35.4733C47.5278 35.8167 48.1319 36 48.75 36C49.5785 35.9991 50.3728 35.6695 50.9587 35.0837C51.5445 34.4978 51.8741 33.7035 51.875 32.875ZM46.875 32.875C46.875 32.5042 46.985 32.1416 47.191 31.8333C47.397 31.525 47.6899 31.2846 48.0325 31.1427C48.3751 31.0008 48.7521 30.9637 49.1158 31.036C49.4795 31.1084 49.8136 31.287 50.0758 31.5492C50.3381 31.8114 50.5166 32.1455 50.589 32.5092C50.6613 32.8729 50.6242 33.2499 50.4823 33.5925C50.3404 33.9351 50.1 34.228 49.7917 34.434C49.4834 34.64 49.1208 34.75 48.75 34.75C48.2529 34.7494 47.7763 34.5517 47.4248 34.2002C47.0733 33.8487 46.8756 33.3721 46.875 32.875Z" fill="url(#paint8_linear_3495:38717)"/>
<defs>
<linearGradient id="paint0_linear_3495:38717" x1="1.66622" y1="61.0974" x2="83.6621" y2="60.9846" gradientUnits="userSpaceOnUse">
<stop stop-color="#018DF0"/>
<stop offset="1" stop-color="#5BBBFF"/>
</linearGradient>
<linearGradient id="paint1_linear_3495:38717" x1="31.2657" y1="31.9201" x2="32.5006" y2="31.9184" gradientUnits="userSpaceOnUse">
<stop stop-color="#018DF0"/>
<stop offset="1" stop-color="#5BBBFF"/>
</linearGradient>
<linearGradient id="paint2_linear_3495:38717" x1="36.2657" y1="31.9201" x2="37.5006" y2="31.9184" gradientUnits="userSpaceOnUse">
<stop stop-color="#018DF0"/>
<stop offset="1" stop-color="#5BBBFF"/>
</linearGradient>
<linearGradient id="paint3_linear_3495:38717" x1="33.1564" y1="33.7604" x2="35.6261" y2="33.7582" gradientUnits="userSpaceOnUse">
<stop stop-color="#018DF0"/>
<stop offset="1" stop-color="#5BBBFF"/>
</linearGradient>
<linearGradient id="paint4_linear_3495:38717" x1="31.3705" y1="37.3067" x2="35.6273" y2="37.295" gradientUnits="userSpaceOnUse">
<stop stop-color="#018DF0"/>
<stop offset="1" stop-color="#5BBBFF"/>
</linearGradient>
<linearGradient id="paint5_linear_3495:38717" x1="23.4073" y1="49.8543" x2="45.6351" y2="49.8359" gradientUnits="userSpaceOnUse">
<stop stop-color="#018DF0"/>
<stop offset="1" stop-color="#5BBBFF"/>
</linearGradient>
<linearGradient id="paint6_linear_3495:38717" x1="28.8911" y1="47.1255" x2="40.005" y2="47.1028" gradientUnits="userSpaceOnUse">
<stop stop-color="#018DF0"/>
<stop offset="1" stop-color="#5BBBFF"/>
</linearGradient>
<linearGradient id="paint7_linear_3495:38717" x1="42.1102" y1="42.4931" x2="60.6334" y2="42.4757" gradientUnits="userSpaceOnUse">
<stop stop-color="#018DF0"/>
<stop offset="1" stop-color="#5BBBFF"/>
</linearGradient>
<linearGradient id="paint8_linear_3495:38717" x1="45.7034" y1="34.3507" x2="51.8778" y2="34.3422" gradientUnits="userSpaceOnUse">
<stop stop-color="#018DF0"/>
<stop offset="1" stop-color="#5BBBFF"/>
</linearGradient>
</defs>
</svg>
