<svg width="84" height="83" viewBox="0 0 84 83" fill="none" xmlns="http://www.w3.org/2000/svg">
<path d="M83.375 41.5C83.375 30.4935 79.0027 19.9378 71.2199 12.1551C63.4372 4.37231 52.8815 8.30967e-07 41.875 0C30.8685 -8.30966e-07 20.3128 4.37231 12.5301 12.1551C4.74731 19.9378 0.375002 30.4935 0.375 41.5L2.035 41.5C2.035 30.9338 6.23242 20.8003 13.7039 13.3289C21.1753 5.85741 31.3088 1.66 41.875 1.66C52.4412 1.66 62.5747 5.85742 70.0461 13.3289C77.5176 20.8003 81.715 30.9338 81.715 41.5H83.375Z" fill="url(#paint0_linear_3495:38710)"/>
<g clip-path="url(#clip0_3495:38710)">
<path d="M60.7578 33.7699H59.5744C59.5994 33.5065 59.4872 33.2831 59.2377 33.0996C59.2039 33.0837 58.4709 32.7418 57.2319 32.3564V28.5452C57.2319 28.2216 56.9695 27.9593 56.6459 27.9593C51.6559 27.9593 47.8684 29.4865 45.5698 30.7678C44.2755 31.4892 43.3003 32.209 42.6518 32.7448C42.553 31.6713 42.296 30.0434 41.6332 28.3187C40.118 24.3762 37.1999 21.8488 33.1942 21.0095C32.7768 20.9765 32.5415 21.1677 32.4881 21.583V24.2605C31.4583 23.8426 30.3859 23.5142 29.288 23.2841C28.8706 23.2512 28.6352 23.4423 28.5819 23.8576V31.9276C26.4245 32.4418 25.0726 33.0711 25.0123 33.0994C24.7629 33.2829 24.6506 33.5064 24.6756 33.7697H23.4922C22.7384 33.7697 22.125 34.3831 22.125 35.1369V53.0544C22.125 53.812 23.2969 53.812 23.2969 53.0544V35.1371C23.2969 35.0294 23.3845 34.9418 23.4922 34.9418H24.6756V57.9829C24.6756 58.3065 24.938 58.5689 25.2616 58.5689H58.9884C59.312 58.5689 59.5744 58.3065 59.5744 57.9829V34.9418H60.7578C60.8655 34.9418 60.9531 35.0294 60.9531 35.1371V59.63C60.9531 59.7376 60.8655 59.8253 60.7578 59.8253H43.8866C42.9367 58.8471 41.3134 58.8471 40.3634 59.8253H23.4922C23.3845 59.8253 23.2969 59.7376 23.2969 59.63V56.6222C23.2969 55.8646 22.125 55.8646 22.125 56.6222V59.63C22.125 60.3838 22.7384 60.9972 23.4922 60.9972H40.6311C40.8143 60.9972 40.987 60.9115 41.0977 60.7656C41.6074 60.0945 42.6426 60.0945 43.1523 60.7656C43.263 60.9115 43.4357 60.9972 43.6189 60.9972H60.7578C61.5116 60.9972 62.125 60.3838 62.125 59.63V35.1371C62.125 34.3832 61.5116 33.7699 60.7578 33.7699V33.7699ZM56.06 29.1385V35.1378C56.06 35.4614 56.3223 35.7237 56.6459 35.7237C56.9695 35.7237 57.2319 35.4614 57.2319 35.1378V33.5871C57.7462 33.7568 58.1448 33.9104 58.4025 34.0157V38.0284V55.353C54.0723 53.9823 50.4809 54.1182 47.8973 54.6423C50.1477 53.6565 53.0813 52.8462 56.6459 52.8462C56.9695 52.8462 57.2319 52.5839 57.2319 52.2603V38.7315C57.2319 38.4079 56.9695 38.1456 56.6459 38.1456C56.3223 38.1456 56.06 38.4079 56.06 38.7315V51.6814C51.3588 51.7946 47.7776 53.2522 45.5698 54.4828C44.3157 55.1818 43.3603 55.8798 42.7122 56.4099V34.2572C43.6041 33.402 48.2497 29.3347 56.06 29.1385V29.1385ZM33.66 22.3263C36.9215 23.2153 39.2294 25.358 40.5259 28.7046C41.5821 31.4304 41.5404 33.9745 41.5398 34.0008C41.5398 34.0053 41.5397 34.0097 41.5397 34.014V51.7968C40.0613 48.1423 37.3472 45.7445 33.66 44.8311V22.3263ZM32.4881 25.5311V45.2981C32.4881 45.5754 32.6825 45.8147 32.9539 45.8716C36.5901 46.6333 39.1377 48.8365 40.5259 52.4196C40.9021 53.3904 41.1389 54.3381 41.288 55.1572C40.8359 54.504 40.2663 53.7607 39.5673 52.9882C37.6755 50.8975 34.4566 48.2137 29.7538 47.1031V32.3892C29.7538 32.3885 29.7538 32.3879 29.7538 32.3872V24.5943C30.6933 24.8317 31.6091 25.1457 32.4881 25.5311V25.5311ZM25.8475 34.0156C26.3241 33.8207 27.2851 33.4606 28.5819 33.1347V47.5728C28.5819 47.85 28.7763 48.0894 29.0477 48.1463C33.6786 49.1165 36.8363 51.7253 38.6698 53.743C39.4175 54.5657 40.0127 55.3604 40.4655 56.0343C39.753 55.6827 38.8612 55.3115 37.799 54.9993C35.1968 54.2348 31.0559 53.7043 25.8476 55.353V38.0284V34.0156H25.8475ZM25.8475 56.5861C30.9135 54.8978 34.9191 55.385 37.41 56.1066C38.7488 56.4945 39.8027 56.9883 40.5372 57.397H25.8475V56.5861ZM43.7088 57.397C44.4303 56.9954 45.4633 56.511 46.7814 56.1237C49.283 55.3888 53.3075 54.8881 58.4025 56.5861V57.397H43.7088Z" fill="url(#paint1_linear_3495:38710)"/>
</g>
<defs>
<linearGradient id="paint0_linear_3495:38710" x1="1.41622" y1="61.0974" x2="83.4121" y2="60.9846" gradientUnits="userSpaceOnUse">
<stop stop-color="#018DF0"/>
<stop offset="1" stop-color="#5BBBFF"/>
</linearGradient>
<linearGradient id="paint1_linear_3495:38710" x1="22.6268" y1="50.444" x2="62.1429" y2="50.3896" gradientUnits="userSpaceOnUse">
<stop stop-color="#018DF0"/>
<stop offset="1" stop-color="#5BBBFF"/>
</linearGradient>
<clipPath id="clip0_3495:38710">
<rect width="40" height="40" fill="white" transform="translate(22.125 21)"/>
</clipPath>
</defs>
</svg>
