<svg width="16" height="16" viewBox="0 0 16 16" fill="none" xmlns="http://www.w3.org/2000/svg">
<path d="M11.9894 9.67211C12.0044 9.92162 12.265 10.0899 12.4767 9.95708C13.7921 9.13179 14.6667 7.6686 14.6667 6.00114C14.6667 3.42381 12.5773 1.33447 9.99998 1.33447C8.33253 1.33447 6.86933 2.20901 6.04404 3.52443C5.9112 3.73617 6.0795 3.99668 6.32901 4.01168C9.3129 4.19106 11.81 6.6908 11.9894 9.67211Z" fill="url(#paint0_linear)"/>
<path d="M10.6667 10.0011C10.6667 12.5785 8.57732 14.6678 6 14.6678C3.42267 14.6678 1.33333 12.5785 1.33333 10.0011C1.33333 7.42381 3.42267 5.33447 6 5.33447C8.57732 5.33447 10.6667 7.42381 10.6667 10.0011Z" fill="url(#paint1_linear)"/>
<defs>
<linearGradient id="paint0_linear" x1="5.99739" y1="5.6691" x2="14.6667" y2="5.6691" gradientUnits="userSpaceOnUse">
<stop stop-color="#6F45FF"/>
<stop offset="1" stop-color="#FF6365"/>
</linearGradient>
<linearGradient id="paint1_linear" x1="1.33333" y1="10.0011" x2="10.6667" y2="10.0011" gradientUnits="userSpaceOnUse">
<stop stop-color="#6F45FF"/>
<stop offset="1" stop-color="#FF6365"/>
</linearGradient>
</defs>
</svg>
