<svg width="24" height="25" viewBox="0 0 24 25" fill="none" xmlns="http://www.w3.org/2000/svg">
<path fill-rule="evenodd" clip-rule="evenodd" d="M12 22.4751C17.5228 22.4751 22 17.9979 22 12.4751C22 6.95225 17.5228 2.4751 12 2.4751C6.47715 2.4751 2 6.95225 2 12.4751C2 17.9979 6.47715 22.4751 12 22.4751ZM9.70711 8.76799C9.31658 8.37747 8.68342 8.37747 8.29289 8.76799C7.90237 9.15851 7.90237 9.79168 8.29289 10.1822L10.5858 12.4751L8.29289 14.768C7.90237 15.1585 7.90237 15.7917 8.29289 16.1822C8.68342 16.5727 9.31658 16.5727 9.70711 16.1822L12 13.8893L14.2929 16.1822C14.6834 16.5727 15.3166 16.5727 15.7071 16.1822C16.0976 15.7917 16.0976 15.1585 15.7071 14.768L13.4142 12.4751L15.7071 10.1822C16.0976 9.79168 16.0976 9.15851 15.7071 8.76799C15.3166 8.37747 14.6834 8.37747 14.2929 8.76799L12 11.0609L9.70711 8.76799Z" fill="url(#paint0_linear)"/>
<defs>
<linearGradient id="paint0_linear" x1="2" y1="12.4751" x2="22" y2="12.4751" gradientUnits="userSpaceOnUse">
<stop stop-color="#6F45FF"/>
<stop offset="1" stop-color="#FF6365"/>
</linearGradient>
</defs>
</svg>
