<svg width="24" height="25" viewBox="0 0 24 25" fill="none" xmlns="http://www.w3.org/2000/svg">
<path fill-rule="evenodd" clip-rule="evenodd" d="M3.23044 8.41781C5.05175 6.5963 7.91747 4.74951 12.0001 4.74951C16.0827 4.74951 18.9484 6.5963 20.7697 8.41781C21.6775 9.32568 22.3318 10.2318 22.7604 10.9127C22.9752 11.2539 23.1348 11.5408 23.2424 11.7462C23.2962 11.849 23.3372 11.9316 23.3656 11.9907C23.3798 12.0202 23.3909 12.0439 23.3989 12.0612L23.4087 12.0826L23.4119 12.0896L23.4135 12.0932C23.4137 12.0937 23.4139 12.0941 22.5001 12.5002C23.4139 12.9064 23.4137 12.9069 23.4135 12.9073L23.413 12.9084L23.4118 12.911L23.4087 12.918L23.3989 12.9393C23.3909 12.9567 23.3798 12.9804 23.3655 13.0099C23.3371 13.0689 23.2962 13.1515 23.2423 13.2543C23.1347 13.4597 22.9752 13.7465 22.7604 14.0877C22.3317 14.7684 21.6774 15.6743 20.7697 16.582C18.9483 18.4032 16.0826 20.2495 12.0001 20.2495C7.91754 20.2495 5.05185 18.4032 3.23052 16.582C2.32274 15.6743 1.66846 14.7684 1.23982 14.0877C1.025 13.7465 0.865426 13.4597 0.757829 13.2543C0.703993 13.1515 0.663058 13.0689 0.634624 13.0099C0.620404 12.9804 0.6093 12.9567 0.601264 12.9393L0.591499 12.918L0.588327 12.911L0.587167 12.9084L0.586693 12.9073C0.586486 12.9069 0.58629 12.9064 1.50008 12.5002C0.586257 12.0941 0.586453 12.0937 0.58666 12.0932L0.587134 12.0922L0.588294 12.0896L0.591465 12.0826L0.601229 12.0612C0.609265 12.0439 0.620368 12.0202 0.634587 11.9907C0.663019 11.9316 0.703954 11.849 0.757787 11.7462C0.865381 11.5408 1.02495 11.2539 1.23976 10.9127C1.6684 10.2318 2.32267 9.32568 3.23044 8.41781ZM1.50008 12.5002L0.58666 12.0932C0.471753 12.3518 0.471765 12.6488 0.586693 12.9073L1.50008 12.5002ZM2.62323 12.5002C2.70292 12.6442 2.80564 12.8209 2.93223 13.022C3.30046 13.6067 3.86493 14.3881 4.64465 15.1677C6.19832 16.7212 8.58263 18.2495 12.0001 18.2495C15.4175 18.2495 17.8019 16.7212 19.3555 15.1677C20.1352 14.3881 20.6997 13.6067 21.0679 13.022C21.1945 12.8209 21.2972 12.6442 21.3769 12.5002C21.2972 12.3561 21.1945 12.1793 21.0679 11.9782C20.6997 11.3933 20.1352 10.6118 19.3554 9.83195C17.8018 8.27809 15.4175 6.74951 12.0001 6.74951C8.5827 6.74951 6.19842 8.27809 4.64473 9.83195C3.865 10.6118 3.30052 11.3933 2.93228 11.9782C2.80567 12.1793 2.70293 12.3561 2.62323 12.5002ZM22.5001 12.5002L23.4135 12.9073C23.5284 12.6488 23.5284 12.3518 23.4135 12.0932L22.5001 12.5002ZM2.41298 12.9084C2.41275 12.9089 2.41284 12.9087 2.41298 12.9084V12.9084ZM2.41308 12.0923C2.41294 12.092 2.41285 12.0918 2.41308 12.0923V12.0923Z" fill="#080134"/>
<path fill-rule="evenodd" clip-rule="evenodd" d="M12 9.75C10.4812 9.75 9.25 10.9812 9.25 12.5C9.25 14.0188 10.4812 15.25 12 15.25C13.5188 15.25 14.75 14.0188 14.75 12.5C14.75 10.9812 13.5188 9.75 12 9.75ZM7.25 12.5C7.25 9.87665 9.37665 7.75 12 7.75C14.6234 7.75 16.75 9.87665 16.75 12.5C16.75 15.1234 14.6234 17.25 12 17.25C9.37665 17.25 7.25 15.1234 7.25 12.5Z" fill="#080134"/>
</svg>
