<svg width="32" height="33" viewBox="0 0 32 33" fill="none" xmlns="http://www.w3.org/2000/svg">
<path d="M4 10.4751C4 9.53229 4 9.06088 4.29289 8.76799C4.58579 8.4751 5.05719 8.4751 6 8.4751H21.5963C22.1203 8.4751 22.3822 8.4751 22.6033 8.59342C22.8244 8.71175 22.9698 8.92973 23.2604 9.3657L27.2604 15.3657C27.6189 15.9034 27.7982 16.1723 27.7982 16.4751C27.7982 16.7779 27.6189 17.0467 27.2604 17.5845L23.2604 23.5845C22.9698 24.0205 22.8244 24.2384 22.6033 24.3568C22.3822 24.4751 22.1203 24.4751 21.5963 24.4751H6C5.05719 24.4751 4.58579 24.4751 4.29289 24.1822C4 23.8893 4 23.4179 4 22.4751V10.4751Z" stroke="white" stroke-width="2"/>
<ellipse cx="19.9993" cy="16.4749" rx="1.33333" ry="1.33333" fill="white" stroke="white" stroke-width="2"/>
</svg>
