<svg width="16" height="17" viewBox="0 0 16 17" fill="none" xmlns="http://www.w3.org/2000/svg">
<g clip-path="url(#clip0)">
<path d="M14.5039 6.3431L7.99991 2.6271L1.49591 6.3431L0.503906 4.6071L7.50391 0.607098C7.81191 0.431098 8.18891 0.431098 8.49591 0.607098L15.4959 4.6071L14.5039 6.3431Z" fill="#674DF6"/>
<path d="M4 13.4751V15.4751H12V13.4751C12 13.4751 11 11.4751 8 11.4751C5 11.4751 4 13.4751 4 13.4751Z" fill="#674DF6"/>
<path d="M8 10.4751C9.10457 10.4751 10 9.57967 10 8.4751C10 7.37053 9.10457 6.4751 8 6.4751C6.89543 6.4751 6 7.37053 6 8.4751C6 9.57967 6.89543 10.4751 8 10.4751Z" fill="#674DF6"/>
</g>
<defs>
<clipPath id="clip0">
<rect width="16" height="16" fill="white" transform="translate(0 0.475098)"/>
</clipPath>
</defs>
</svg>
