<svg width="20" height="20" viewBox="0 0 20 20" fill="none" xmlns="http://www.w3.org/2000/svg">
<path d="M8.82505 9.9995L5.24172 6.4245C5.0848 6.26758 4.99664 6.05475 4.99664 5.83284C4.99664 5.61092 5.0848 5.39809 5.24172 5.24117C5.39864 5.08425 5.61147 4.99609 5.83338 4.99609C6.0553 4.99609 6.26813 5.08425 6.42505 5.24117L10.0001 8.8245L13.5751 5.24117C13.732 5.08425 13.9448 4.99609 14.1667 4.99609C14.3886 4.99609 14.6015 5.08425 14.7584 5.24117C14.9153 5.39809 15.0035 5.61092 15.0035 5.83284C15.0035 6.05475 14.9153 6.26758 14.7584 6.4245L11.1751 9.9995L14.7584 13.5745C14.8365 13.652 14.8985 13.7441 14.9408 13.8457C14.9831 13.9472 15.0049 14.0562 15.0049 14.1662C15.0049 14.2762 14.9831 14.3851 14.9408 14.4867C14.8985 14.5882 14.8365 14.6804 14.7584 14.7578C14.6809 14.8359 14.5887 14.8979 14.4872 14.9402C14.3856 14.9826 14.2767 15.0043 14.1667 15.0043C14.0567 15.0043 13.9478 14.9826 13.8462 14.9402C13.7447 14.8979 13.6525 14.8359 13.5751 14.7578L10.0001 11.1745L6.42505 14.7578C6.34758 14.8359 6.25541 14.8979 6.15386 14.9402C6.05231 14.9826 5.94339 15.0043 5.83338 15.0043C5.72337 15.0043 5.61445 14.9826 5.5129 14.9402C5.41135 14.8979 5.31919 14.8359 5.24172 14.7578C5.16361 14.6804 5.10161 14.5882 5.05931 14.4867C5.017 14.3851 4.99522 14.2762 4.99522 14.1662C4.99522 14.0562 5.017 13.9472 5.05931 13.8457C5.10161 13.7441 5.16361 13.652 5.24172 13.5745L8.82505 9.9995Z" fill="white"/>
</svg>
