<svg width="12" height="12" viewBox="0 0 12 12" fill="none" xmlns="http://www.w3.org/2000/svg">
<path d="M4.82407 5.9995L1.24074 2.4245C1.08382 2.26758 0.995664 2.05475 0.995664 1.83284C0.995664 1.61092 1.08382 1.39809 1.24074 1.24117C1.39766 1.08425 1.61049 0.996094 1.83241 0.996094C2.05433 0.996094 2.26715 1.08425 2.42407 1.24117L5.99907 4.8245L9.57407 1.24117C9.73099 1.08425 9.94382 0.996094 10.1657 0.996094C10.3877 0.996094 10.6005 1.08425 10.7574 1.24117C10.9143 1.39809 11.0025 1.61092 11.0025 1.83284C11.0025 2.05475 10.9143 2.26758 10.7574 2.4245L7.17407 5.9995L10.7574 9.5745C10.8355 9.65197 10.8975 9.74414 10.9398 9.84569C10.9821 9.94724 11.0039 10.0562 11.0039 10.1662C11.0039 10.2762 10.9821 10.3851 10.9398 10.4867C10.8975 10.5882 10.8355 10.6804 10.7574 10.7578C10.6799 10.8359 10.5878 10.8979 10.4862 10.9402C10.3847 10.9826 10.2758 11.0043 10.1657 11.0043C10.0557 11.0043 9.94681 10.9826 9.84526 10.9402C9.74371 10.8979 9.65154 10.8359 9.57407 10.7578L5.99907 7.1745L2.42407 10.7578C2.3466 10.8359 2.25444 10.8979 2.15289 10.9402C2.05134 10.9826 1.94242 11.0043 1.83241 11.0043C1.7224 11.0043 1.61348 10.9826 1.51193 10.9402C1.41038 10.8979 1.31821 10.8359 1.24074 10.7578C1.16263 10.6804 1.10064 10.5882 1.05833 10.4867C1.01602 10.3851 0.994242 10.2762 0.994242 10.1662C0.994242 10.0562 1.01602 9.94724 1.05833 9.84569C1.10064 9.74414 1.16263 9.65197 1.24074 9.5745L4.82407 5.9995Z" fill="#080134"/>
</svg>
