<svg width="16" height="17" viewBox="0 0 16 17" fill="none" xmlns="http://www.w3.org/2000/svg">
<g clip-path="url(#clip0)">
<path d="M14.504 6.3431L8 2.6271L1.496 6.3431L0.503998 4.6071L7.504 0.607098C7.812 0.431098 8.189 0.431098 8.496 0.607098L15.496 4.6071L14.504 6.3431Z" fill="url(#paint0_linear)"/>
<path d="M4 13.4751V15.4751H12V13.4751C12 13.4751 11 11.4751 8 11.4751C5 11.4751 4 13.4751 4 13.4751Z" fill="url(#paint1_linear)"/>
<path d="M8 10.4751C9.10457 10.4751 10 9.57967 10 8.4751C10 7.37053 9.10457 6.4751 8 6.4751C6.89543 6.4751 6 7.37053 6 8.4751C6 9.57967 6.89543 10.4751 8 10.4751Z" fill="url(#paint2_linear)"/>
</g>
<defs>
<linearGradient id="paint0_linear" x1="0.503998" y1="3.4091" x2="15.496" y2="3.4091" gradientUnits="userSpaceOnUse">
<stop stop-color="#6F45FF"/>
<stop offset="1" stop-color="#FF6365"/>
</linearGradient>
<linearGradient id="paint1_linear" x1="4" y1="13.4751" x2="12" y2="13.4751" gradientUnits="userSpaceOnUse">
<stop stop-color="#6F45FF"/>
<stop offset="1" stop-color="#FF6365"/>
</linearGradient>
<linearGradient id="paint2_linear" x1="6" y1="8.4751" x2="10" y2="8.4751" gradientUnits="userSpaceOnUse">
<stop stop-color="#6F45FF"/>
<stop offset="1" stop-color="#FF6365"/>
</linearGradient>
<clipPath id="clip0">
<rect width="16" height="16" fill="white" transform="translate(0 0.475098)"/>
</clipPath>
</defs>
</svg>
