<svg width="21" height="21" viewBox="0 0 21 21" fill="none" xmlns="http://www.w3.org/2000/svg">
<path fill-rule="evenodd" clip-rule="evenodd" d="M10.5003 5.05859C8.74675 5.05859 7.26639 6.23669 6.81121 7.84605C6.71987 8.16898 6.42512 8.39193 6.08952 8.39193H5.91699C4.26014 8.39193 2.91699 9.73507 2.91699 11.3919C2.91699 13.0488 4.26014 14.3919 5.91699 14.3919H7.16699C7.58121 14.3919 7.91699 14.7277 7.91699 15.1419C7.91699 15.5561 7.58121 15.8919 7.16699 15.8919H5.91699C3.43171 15.8919 1.41699 13.8772 1.41699 11.3919C1.41699 9.03057 3.2358 7.09402 5.54893 6.90676C6.3363 4.94481 8.25561 3.55859 10.5003 3.55859C12.745 3.55859 14.6643 4.94481 15.4517 6.90676C17.7649 7.09401 19.5837 9.03057 19.5837 11.3919C19.5837 13.8772 17.5689 15.8919 15.0837 15.8919H13.8337C13.4194 15.8919 13.0837 15.5561 13.0837 15.1419C13.0837 14.7277 13.4194 14.3919 13.8337 14.3919H15.0837C16.7405 14.3919 18.0837 13.0488 18.0837 11.3919C18.0837 9.73507 16.7405 8.39193 15.0837 8.39193H14.9111C14.5755 8.39193 14.2808 8.16898 14.1894 7.84605C13.7343 6.23669 12.2539 5.05859 10.5003 5.05859Z" fill="white"/>
<path fill-rule="evenodd" clip-rule="evenodd" d="M9.96934 8.3642C10.2622 8.07131 10.7371 8.07131 11.03 8.3642L13.9467 11.2809C14.2396 11.5738 14.2396 12.0486 13.9467 12.3415C13.6538 12.6344 13.1789 12.6344 12.886 12.3415L11.2497 10.7052V17.2279C11.2497 17.6421 10.9139 17.9779 10.4997 17.9779C10.0855 17.9779 9.74967 17.6421 9.74967 17.2279V10.7052L8.11334 12.3415C7.82044 12.6344 7.34557 12.6344 7.05268 12.3415C6.75978 12.0486 6.75978 11.5738 7.05268 11.2809L9.96934 8.3642Z" fill="white"/>
</svg>
