<svg width="20" height="20" viewBox="0 0 20 20" fill="none" xmlns="http://www.w3.org/2000/svg">
<circle cx="10" cy="10" r="10" fill="#D1D1D1" fill-opacity="0.4"/>
<path d="M9.16699 5.83333C9.16699 5.3731 9.54009 5 10.0003 5C10.4606 5 10.8337 5.3731 10.8337 5.83333C12.2144 5.83333 13.3337 6.95262 13.3337 8.33333C13.3337 8.79357 12.9606 9.16667 12.5003 9.16667C12.0401 9.16667 11.667 8.79357 11.667 8.33333C11.667 7.8731 11.2939 7.5 10.8337 7.5H8.95317C8.61102 7.5 8.33366 7.77737 8.33366 8.11951C8.33366 8.38617 8.50429 8.62291 8.75727 8.70724L11.7704 9.71162C12.704 10.0228 13.3337 10.8964 13.3337 11.8805C13.3337 13.1431 12.3101 14.1667 11.0475 14.1667H10.8337C10.8337 14.6269 10.4606 15 10.0003 15C9.54009 15 9.16699 14.6269 9.16699 14.1667C7.78628 14.1667 6.66699 13.0474 6.66699 11.6667C6.66699 11.2064 7.04009 10.8333 7.50033 10.8333C7.96056 10.8333 8.33366 11.2064 8.33366 11.6667C8.33366 12.1269 8.70676 12.5 9.16699 12.5H11.0475C11.3896 12.5 11.667 12.2226 11.667 11.8805C11.667 11.6138 11.4964 11.3771 11.2434 11.2928L8.23022 10.2884C7.29668 9.97719 6.66699 9.10356 6.66699 8.11951C6.66699 6.85689 7.69055 5.83333 8.95317 5.83333H9.16699Z" fill="#674DF6"/>
</svg>
