<svg width="12" height="12" viewBox="0 0 12 12" fill="none" xmlns="http://www.w3.org/2000/svg">
<path d="M1 6.16992C1 3.4085 3.23858 1.16992 6 1.16992C8.76142 1.16992 11 3.4085 11 6.16992C11 8.93135 8.76142 11.1699 6 11.1699C3.23858 11.1699 1 8.93135 1 6.16992Z" fill="#018DF0"/>
<path fill-rule="evenodd" clip-rule="evenodd" d="M9.23288 3.97873C9.43627 4.18213 9.43626 4.5119 9.23286 4.7153L5.58703 8.36097C5.38363 8.56435 5.05388 8.56436 4.85048 8.36098L3.02756 6.53822C2.82416 6.33483 2.82414 6.00506 3.02753 5.80165C3.23092 5.59825 3.56069 5.59823 3.7641 5.80162L5.21874 7.25613L8.49631 3.97871C8.69971 3.77532 9.02948 3.77533 9.23288 3.97873Z" fill="white"/>
<path d="M6 10.5449C3.58375 10.5449 1.625 8.58617 1.625 6.16992H0.375C0.375 9.27652 2.8934 11.7949 6 11.7949V10.5449ZM10.375 6.16992C10.375 8.58617 8.41625 10.5449 6 10.5449V11.7949C9.1066 11.7949 11.625 9.27652 11.625 6.16992H10.375ZM6 1.79492C8.41625 1.79492 10.375 3.75368 10.375 6.16992H11.625C11.625 3.06332 9.1066 0.544922 6 0.544922V1.79492ZM6 0.544922C2.8934 0.544922 0.375 3.06332 0.375 6.16992H1.625C1.625 3.75368 3.58375 1.79492 6 1.79492V0.544922Z" fill="white"/>
</svg>
