<svg width="12" height="12" viewBox="0 0 12 12" fill="none" xmlns="http://www.w3.org/2000/svg">
<path fill-rule="evenodd" clip-rule="evenodd" d="M6.16661 1C6.21547 1.00002 6.26373 1.01078 6.30797 1.03151C6.35221 1.05225 6.39134 1.08246 6.42261 1.12L9.75595 5.12C9.80089 5.17392 9.82766 5.24065 9.83245 5.31068C9.83724 5.38071 9.8198 5.45046 9.78261 5.51L6.44928 10.8433C6.41932 10.8913 6.37765 10.9308 6.3282 10.9582C6.27876 10.9856 6.22315 11 6.16661 11C6.11008 11 6.05447 10.9856 6.00502 10.9582C5.95558 10.9308 5.91391 10.8913 5.88395 10.8433L2.55061 5.51C2.51343 5.45046 2.49599 5.38071 2.50078 5.31068C2.50557 5.24065 2.53234 5.17392 2.57728 5.12L5.91061 1.12C5.94188 1.08246 5.98102 1.05225 6.02526 1.03151C6.0695 1.01078 6.11776 1.00002 6.16661 1ZM3.32728 5.49467L6.16661 4.36L9.00595 5.49533L6.16661 10.038L3.32728 5.49467ZM8.40061 4.53467L6.16661 3.64133L3.93328 4.53467L6.16661 1.85333L8.39995 4.53333L8.40061 4.53467Z" fill="#080134"/>
<path fill-rule="evenodd" clip-rule="evenodd" d="M6.16666 0.875047C6.23384 0.875072 6.30019 0.889865 6.36102 0.918378C6.42184 0.946887 6.47565 0.988416 6.51864 1.04002M6.51864 1.04002L9.85197 5.04001C9.85197 5.04002 9.85196 5.04001 9.85197 5.04001C9.91376 5.11415 9.95057 5.20591 9.95716 5.3022C9.96374 5.39849 9.93976 5.4944 9.88863 5.57626L6.55528 10.9096C6.51408 10.9755 6.45679 11.0299 6.3888 11.0676C6.32081 11.1053 6.24435 11.125 6.16661 11.125C6.08888 11.125 6.01242 11.1053 5.94443 11.0676C5.87644 11.0299 5.81915 10.9755 5.77795 10.9096L2.44461 5.5763C2.39349 5.49444 2.36948 5.39849 2.37607 5.3022C2.38265 5.20591 2.41946 5.11416 2.48125 5.04002C2.48125 5.04002 2.48125 5.04003 2.48125 5.04002L5.81457 1.04005C5.85756 0.988428 5.91138 0.946891 5.97221 0.918378C5.99467 0.907849 6.01788 0.899191 6.04161 0.892457V0.875L6.16666 0.875047M6.16666 1.12505C6.13612 1.12506 6.10596 1.13178 6.07831 1.14474C6.05067 1.1577 6.0262 1.17658 6.00666 1.20005L2.67331 5.20007C2.64522 5.23377 2.62848 5.27549 2.62548 5.31925C2.62249 5.36302 2.63339 5.40662 2.65663 5.44383L5.98995 10.7771C6.00867 10.8071 6.03471 10.8318 6.06562 10.8489C6.09652 10.8661 6.13128 10.875 6.16661 10.875C6.20195 10.875 6.2367 10.8661 6.26761 10.8489C6.29851 10.8318 6.32455 10.8071 6.34328 10.7771L9.67659 5.44383C9.69983 5.40662 9.71073 5.36302 9.70774 5.31925C9.70475 5.27549 9.68801 5.23378 9.65993 5.20008L6.32659 1.20007C6.30704 1.17661 6.28256 1.1577 6.25491 1.14474C6.22726 1.13178 6.1972 1.12506 6.16666 1.12505L6.16661 1.00005H6.29161V1.125L6.16666 1.12505ZM6.16659 1.6581L8.50527 4.46451L8.65934 4.7728L6.16662 3.77601L3.9797 4.65077L3.83723 4.45471L6.16659 1.6581ZM6.16664 2.04866L7.98899 4.23549L6.16661 3.50675L4.3454 4.23524L6.16664 2.04866ZM6.16663 4.22543L9.1912 5.43483L6.1666 10.2739L3.14202 5.43414L6.16663 4.22543ZM3.51254 5.55529L6.16662 9.80219L8.82069 5.55593L6.1666 4.49466L3.51254 5.55529Z" fill="#080134"/>
</svg>
