<svg width="12" height="12" viewBox="0 0 12 12" fill="none" xmlns="http://www.w3.org/2000/svg">
<path fill-rule="evenodd" clip-rule="evenodd" d="M6 0.757353C6.55228 0.757353 7 1.20507 7 1.75735L7 4.99999L10.2426 4.99999C10.7949 4.99999 11.2426 5.44771 11.2426 5.99999C11.2426 6.55228 10.7949 6.99999 10.2426 6.99999L7 6.99999V10.2426C7 10.7949 6.55228 11.2426 6 11.2426C5.44772 11.2426 5 10.7949 5 10.2426V6.99999L1.75736 6.99999C1.20507 6.99999 0.757359 6.55228 0.75736 5.99999C0.757359 5.44771 1.20507 4.99999 1.75736 4.99999L5 4.99999L5 1.75735C5 1.20507 5.44772 0.757353 6 0.757353Z" fill="#45B26B"/>
</svg>
