<svg width="24" height="24" viewBox="0 0 24 24" fill="none" xmlns="http://www.w3.org/2000/svg">
<circle cx="12" cy="12" r="11.5" stroke="#E6E6EB"/>
<path d="M9.66602 4.66797H6.33268C5.41221 4.66797 4.66602 5.41416 4.66602 6.33464V7.66797C4.66602 8.58844 5.41221 9.33464 6.33268 9.33464H9.66602C10.5865 9.33464 11.3327 8.58844 11.3327 7.66797V6.33464C11.3327 5.41416 10.5865 4.66797 9.66602 4.66797Z" fill="#27D1AA"/>
<path d="M17.666 14.668H14.3327C13.4122 14.668 12.666 15.4142 12.666 16.3346V17.668C12.666 18.5884 13.4122 19.3346 14.3327 19.3346H17.666C18.5865 19.3346 19.3327 18.5884 19.3327 17.668V16.3346C19.3327 15.4142 18.5865 14.668 17.666 14.668Z" fill="#27D1AA"/>
<path d="M9.66602 10H6.33268C5.41221 10 4.66602 10.7462 4.66602 11.6667V17.6667C4.66602 18.5871 5.41221 19.3333 6.33268 19.3333H9.66602C10.5865 19.3333 11.3327 18.5871 11.3327 17.6667V11.6667C11.3327 10.7462 10.5865 10 9.66602 10Z" fill="#018DF0"/>
<path d="M17.666 4.66797H14.3327C13.4122 4.66797 12.666 5.41416 12.666 6.33464V12.3346C12.666 13.2551 13.4122 14.0013 14.3327 14.0013H17.666C18.5865 14.0013 19.3327 13.2551 19.3327 12.3346V6.33464C19.3327 5.41416 18.5865 4.66797 17.666 4.66797Z" fill="#018DF0"/>
</svg>
