<svg width="20" height="20" viewBox="0 0 20 20" fill="none" xmlns="http://www.w3.org/2000/svg">
<circle cx="10" cy="10" r="10" fill="#262628"/>
<path d="M9.16602 5.83333C9.16602 5.3731 9.53911 5 9.99935 5C10.4596 5 10.8327 5.3731 10.8327 5.83333C12.2134 5.83333 13.3327 6.95262 13.3327 8.33333C13.3327 8.79357 12.9596 9.16667 12.4993 9.16667C12.0391 9.16667 11.666 8.79357 11.666 8.33333C11.666 7.8731 11.2929 7.5 10.8327 7.5H8.9522C8.61005 7.5 8.33268 7.77737 8.33268 8.11951C8.33268 8.38617 8.50332 8.62291 8.75629 8.70724L11.7695 9.71162C12.703 10.0228 13.3327 10.8964 13.3327 11.8805C13.3327 13.1431 12.3091 14.1667 11.0465 14.1667H10.8327C10.8327 14.6269 10.4596 15 9.99935 15C9.53911 15 9.16602 14.6269 9.16602 14.1667C7.7853 14.1667 6.66602 13.0474 6.66602 11.6667C6.66602 11.2064 7.03911 10.8333 7.49935 10.8333C7.95959 10.8333 8.33268 11.2064 8.33268 11.6667C8.33268 12.1269 8.70578 12.5 9.16602 12.5H11.0465C11.3886 12.5 11.666 12.2226 11.666 11.8805C11.666 11.6138 11.4954 11.3771 11.2424 11.2928L8.22924 10.2884C7.2957 9.97719 6.66602 9.10356 6.66602 8.11951C6.66602 6.85689 7.68957 5.83333 8.9522 5.83333H9.16602Z" fill="#674DF6"/>
</svg>
