<svg width="24" height="25" viewBox="0 0 24 25" fill="none" xmlns="http://www.w3.org/2000/svg">
<path fill-rule="evenodd" clip-rule="evenodd" d="M3 5.5C3 3.29086 4.79086 1.5 7 1.5H15.3431C16.404 1.5 17.4214 1.92143 18.1716 2.67157L19.8284 4.32843C20.5786 5.07857 21 6.09599 21 7.15685V19.5C21 21.7091 19.2091 23.5 17 23.5H7C4.79086 23.5 3 21.7091 3 19.5V5.5ZM19 8.5V19.5C19 20.6046 18.1046 21.5 17 21.5H7C5.89543 21.5 5 20.6046 5 19.5V5.5C5 4.39543 5.89543 3.5 7 3.5H14V5.5C14 7.15685 15.3431 8.5 17 8.5H19ZM18.8891 6.5C18.7909 6.2176 18.6296 5.95808 18.4142 5.74264L16.7574 4.08579C16.5419 3.87035 16.2824 3.70914 16 3.61094V5.5C16 6.05228 16.4477 6.5 17 6.5H18.8891Z" fill="#080134"/>
<path d="M11.6172 9.57588C11.4993 9.62468 11.3888 9.69702 11.2929 9.79289L8.29289 12.7929C7.90237 13.1834 7.90237 13.8166 8.29289 14.2071C8.68342 14.5976 9.31658 14.5976 9.70711 14.2071L11 12.9142V17.5C11 18.0523 11.4477 18.5 12 18.5C12.5523 18.5 13 18.0523 13 17.5V12.9142L14.2929 14.2071C14.6834 14.5976 15.3166 14.5976 15.7071 14.2071C16.0976 13.8166 16.0976 13.1834 15.7071 12.7929L12.7071 9.79289C12.4125 9.49825 11.9797 9.42591 11.6172 9.57588Z" fill="#080134"/>
</svg>
