<svg width="20" height="20" viewBox="0 0 20 20" fill="none" xmlns="http://www.w3.org/2000/svg">
<circle cx="10" cy="10" r="10" fill="#D1D1D1" fill-opacity="0.4"/>
<path fill-rule="evenodd" clip-rule="evenodd" d="M6.91107 6.91107C7.23651 6.58563 7.76414 6.58563 8.08958 6.91107L10.0003 8.82181L11.9111 6.91107C12.2365 6.58563 12.7641 6.58563 13.0896 6.91107C13.415 7.23651 13.415 7.76414 13.0896 8.08958L11.1788 10.0003L13.0896 11.9111C13.415 12.2365 13.415 12.7641 13.0896 13.0896C12.7641 13.415 12.2365 13.415 11.9111 13.0896L10.0003 11.1788L8.08958 13.0896C7.76414 13.415 7.23651 13.415 6.91107 13.0896C6.58563 12.7641 6.58563 12.2365 6.91107 11.9111L8.82181 10.0003L6.91107 8.08958C6.58563 7.76414 6.58563 7.23651 6.91107 6.91107Z" fill="#674DF6"/>
</svg>
