<svg width="20" height="20" viewBox="0 0 20 20" fill="none" xmlns="http://www.w3.org/2000/svg">
<circle cx="10" cy="10" r="10" fill="#393556"/>
<path fill-rule="evenodd" clip-rule="evenodd" d="M6.91009 6.91009C7.23553 6.58466 7.76317 6.58466 8.0886 6.91009L9.99935 8.82084L11.9101 6.91009C12.2355 6.58466 12.7632 6.58466 13.0886 6.91009C13.414 7.23553 13.414 7.76317 13.0886 8.0886L11.1779 9.99935L13.0886 11.9101C13.414 12.2355 13.414 12.7632 13.0886 13.0886C12.7632 13.414 12.2355 13.414 11.9101 13.0886L9.99935 11.1779L8.0886 13.0886C7.76317 13.414 7.23553 13.414 6.91009 13.0886C6.58466 12.7632 6.58466 12.2355 6.91009 11.9101L8.82084 9.99935L6.91009 8.0886C6.58466 7.76317 6.58466 7.23553 6.91009 6.91009Z" fill="#01C5BA"/>
</svg>
