<svg width="21" height="20" viewBox="0 0 21 20" fill="none" xmlns="http://www.w3.org/2000/svg">
<path fill-rule="evenodd" clip-rule="evenodd" d="M10.5003 4.08203C8.74675 4.08203 7.26639 5.26013 6.81121 6.86948C6.71987 7.19242 6.42512 7.41537 6.08952 7.41537H5.91699C4.26014 7.41537 2.91699 8.75851 2.91699 10.4154C2.91699 12.0722 4.26014 13.4154 5.91699 13.4154H7.16699C7.58121 13.4154 7.91699 13.7512 7.91699 14.1654C7.91699 14.5796 7.58121 14.9154 7.16699 14.9154H5.91699C3.43171 14.9154 1.41699 12.9006 1.41699 10.4154C1.41699 8.05401 3.2358 6.11745 5.54893 5.9302C6.3363 3.96825 8.25561 2.58203 10.5003 2.58203C12.745 2.58203 14.6643 3.96825 15.4517 5.9302C17.7649 6.11745 19.5837 8.054 19.5837 10.4154C19.5837 12.9006 17.5689 14.9154 15.0837 14.9154H13.8337C13.4194 14.9154 13.0837 14.5796 13.0837 14.1654C13.0837 13.7512 13.4194 13.4154 13.8337 13.4154H15.0837C16.7405 13.4154 18.0837 12.0722 18.0837 10.4154C18.0837 8.75851 16.7405 7.41537 15.0837 7.41537H14.9111C14.5755 7.41537 14.2808 7.19242 14.1894 6.86949C13.7343 5.26013 12.2539 4.08203 10.5003 4.08203Z" fill="#201C18"/>
<path fill-rule="evenodd" clip-rule="evenodd" d="M9.96934 7.38764C10.2622 7.09475 10.7371 7.09475 11.03 7.38764L13.9467 10.3043C14.2396 10.5972 14.2396 11.0721 13.9467 11.365C13.6538 11.6579 13.1789 11.6579 12.886 11.365L11.2497 9.72863V16.2513C11.2497 16.6655 10.9139 17.0013 10.4997 17.0013C10.0855 17.0013 9.74967 16.6655 9.74967 16.2513V9.72863L8.11334 11.365C7.82044 11.6579 7.34557 11.6579 7.05268 11.365C6.75978 11.0721 6.75978 10.5972 7.05268 10.3043L9.96934 7.38764Z" fill="#201C18"/>
</svg>
