<svg width="20" height="20" viewBox="0 0 20 20" fill="none" xmlns="http://www.w3.org/2000/svg">
<path d="M8.25695 3.10186C8.63044 1.1874 11.3695 1.1874 11.743 3.10186C11.9703 4.26683 13.2544 4.88524 14.3069 4.33658C16.0366 3.43494 17.7444 5.57643 16.4804 7.06208C15.7113 7.96612 16.0285 9.35567 17.1137 9.83647C18.897 10.6266 18.2875 13.297 16.338 13.2351C15.1516 13.1975 14.263 14.3118 14.5637 15.46C15.0578 17.3469 12.59 18.5354 11.4228 16.9726C10.7126 16.0216 9.28733 16.0216 8.5771 16.9726C7.40995 18.5354 4.94213 17.3469 5.43628 15.46C5.73697 14.3118 4.84832 13.1975 3.66199 13.2351C1.71242 13.297 1.10292 10.6266 2.88627 9.83647C3.97146 9.35567 4.28861 7.96612 3.5195 7.06208C2.25559 5.57643 3.96337 3.43494 5.69302 4.33658C6.74553 4.88524 8.02967 4.26683 8.25695 3.10186Z" stroke="white" stroke-width="1.8"/>
<path d="M12.5 10.0007C12.5 11.3814 11.3807 12.5007 9.99997 12.5007C8.61926 12.5007 7.49997 11.3814 7.49997 10.0007C7.49997 8.61996 8.61926 7.50067 9.99997 7.50067C11.3807 7.50067 12.5 8.61996 12.5 10.0007Z" stroke="white" stroke-width="1.8"/>
</svg>
