<svg width="20" height="20" viewBox="0 0 20 20" fill="none" xmlns="http://www.w3.org/2000/svg">
<path d="M14.6489 12.7472L15.5001 13.587V12.3913V10.3996C15.5001 10.3112 15.5352 10.2264 15.5977 10.1639C15.6602 10.1014 15.745 10.0663 15.8334 10.0663C15.9218 10.0663 16.0066 10.1014 16.0691 10.1639C16.1316 10.2264 16.1667 10.3112 16.1667 10.3996V16.233C16.1667 16.7634 15.956 17.2721 15.581 17.6472C15.2059 18.0222 14.6972 18.233 14.1667 18.233H4.16675C3.63631 18.233 3.12761 18.0222 2.75253 17.6472C2.37746 17.2721 2.16675 16.7634 2.16675 16.233V6.23295C2.16675 5.70252 2.37746 5.19381 2.75253 4.81874C3.12761 4.44367 3.63632 4.23295 4.16675 4.23295H9.16675C9.25515 4.23295 9.33994 4.26807 9.40245 4.33058C9.46496 4.3931 9.50008 4.47788 9.50008 4.56629C9.50008 4.65469 9.46496 4.73948 9.40245 4.80199C9.33994 4.8645 9.25515 4.89962 9.16675 4.89962H4.16675C3.81313 4.89962 3.47399 5.0401 3.22394 5.29014C2.97389 5.54019 2.83341 5.87933 2.83341 6.23295V10.908V12.1267L3.68935 11.2591L4.91256 10.0193C5.25278 9.68187 5.71254 9.49253 6.19175 9.49253C6.67143 9.49253 7.13164 9.68225 7.47196 10.0203C7.47216 10.0205 7.47236 10.0207 7.47256 10.0209L9.54653 12.0948L9.90008 12.4484L10.2536 12.0948L10.8332 11.5153C11.1789 11.1851 11.6386 11.0008 12.1167 11.0008C12.5955 11.0008 13.0557 11.1855 13.4015 11.5164L14.6489 12.7472ZM4.16675 17.5663L4.16914 17.5663L12.8608 17.5246L14.0598 17.5189L13.212 16.6711L9.66197 13.1211L7.02263 10.4817C6.91605 10.3726 6.78883 10.2858 6.64837 10.2264L6.45346 10.6868L6.64836 10.2264C6.50654 10.1664 6.35409 10.1354 6.20008 10.1354C6.04607 10.1354 5.89363 10.1664 5.7518 10.2264L5.9467 10.6868L5.7518 10.2264C5.61072 10.2861 5.48301 10.3734 5.37615 10.4831L2.97743 12.9152L2.83341 13.0612V13.2663V16.233C2.83341 16.5866 2.97389 16.9257 3.22394 17.1758L3.57749 16.8222L3.22394 17.1758C3.47399 17.4258 3.81313 17.5663 4.16675 17.5663ZM15.5001 16.242V16.233V14.7496V14.5415L15.3524 14.3948L12.9276 11.9867C12.9276 11.9867 12.9275 11.9866 12.9274 11.9865C12.712 11.7724 12.4205 11.6522 12.1167 11.6522C11.8133 11.6522 11.5222 11.7721 11.3068 11.9858C11.3065 11.9861 11.3062 11.9864 11.3059 11.9867L10.7241 12.5602L10.3646 12.9145L10.7223 13.2706L14.5056 17.0373L14.9351 17.4649L15.2733 16.962C15.4167 16.7488 15.4954 16.4988 15.5 16.242L15.5001 16.242ZM11.4367 5.68657L11.4368 5.68667L11.4453 5.67817L15.2609 1.86256C15.2611 1.86242 15.2612 1.86227 15.2613 1.86213C15.3238 1.80031 15.4081 1.76562 15.4959 1.76562C15.5838 1.76562 15.6681 1.80031 15.7305 1.86212C15.7306 1.86227 15.7308 1.86241 15.7309 1.86256L17.743 3.87466C17.7435 3.87511 17.7439 3.87557 17.7444 3.87603C17.7746 3.90717 17.7984 3.9439 17.8145 3.98416C17.8309 4.02502 17.839 4.06871 17.8383 4.11271C17.8377 4.15672 17.8284 4.20016 17.8109 4.24055C17.7934 4.28093 17.7681 4.31745 17.7364 4.34799L17.7363 4.34793L17.7299 4.3544L13.9146 8.16962C13.9144 8.16983 13.9142 8.17003 13.914 8.17024C13.8522 8.23125 13.769 8.26571 13.6821 8.26629H11.6667C11.5783 8.26629 11.4936 8.23117 11.431 8.16866C11.3685 8.10614 11.3334 8.02136 11.3334 7.93295V5.92053C11.3344 5.87712 11.3438 5.8343 11.3612 5.79449C11.3789 5.75385 11.4046 5.71716 11.4367 5.68657ZM13.3334 7.59962H13.5401L13.6865 7.45366L16.6865 4.462L17.041 4.10844L16.687 3.7544L15.8536 2.92107L15.5006 2.568L15.147 2.92057L12.147 5.91224L12.0001 6.05877V6.26629V7.09962V7.59962H12.5001H13.3334Z" fill="black" stroke="white"/>
</svg>
