<svg width="32" height="33" viewBox="0 0 32 33" fill="none" xmlns="http://www.w3.org/2000/svg">
<path d="M24.8 9.4751C22.88 9.4751 21.0667 10.2218 19.7667 11.5218L16 14.8551L15.9933 14.8484L13.9733 16.6284L13.9866 16.6417L10.3933 19.8284C9.54 20.6751 8.40669 21.1418 7.2 21.1418C4.70669 21.1418 2.68 19.1218 2.68 16.6418C2.68 14.1618 4.70669 12.1418 7.2 12.1418C8.40669 12.1418 9.54 12.6085 10.4533 13.5151L11.0832 14.0728C11.5876 14.5195 12.3459 14.5198 12.8506 14.0735C13.4507 13.543 13.4511 12.6069 12.8513 12.0759L12.2933 11.5818C10.9333 10.2285 9.12656 9.48179 7.19994 9.48179C3.22669 9.4751 0 12.6885 0 16.6418C0 20.5951 3.22669 23.8085 7.2 23.8085C9.12 23.8085 10.9267 23.0618 12.2333 21.7685L16 18.4285L16.0067 18.4352L18.02 16.6485L18.0133 16.6418L21.6066 13.4618C22.46 12.6085 23.5933 12.1418 24.8 12.1418C27.2933 12.1418 29.32 14.1618 29.32 16.6418C29.32 19.1218 27.2933 21.1418 24.8 21.1418C23.5933 21.1418 22.46 20.6751 21.5467 19.7751L20.9201 19.2203C20.4141 18.7722 19.6531 18.7726 19.1475 19.2212C18.548 19.7533 18.5485 20.6897 19.1486 21.221L19.7067 21.7151C21.0667 23.0684 22.8734 23.8084 24.7934 23.8084C28.7733 23.8085 32 20.5951 32 16.6418C32 12.6885 28.7733 9.4751 24.8 9.4751Z" fill="white"/>
</svg>
