<svg width="79" height="29" viewBox="0 0 79 29" fill="none" xmlns="http://www.w3.org/2000/svg">
<path d="M40.6689 2.98621V19.3779H36.8811V2.98621H40.6689ZM54.3317 12.8655C54.3317 13.1757 54.2947 13.5153 54.2209 13.8845H45.6485C45.6928 14.8148 45.929 15.4867 46.3573 15.9002C46.7856 16.2989 47.3319 16.4983 47.9965 16.4983C48.5576 16.4983 49.0228 16.358 49.392 16.0774C49.7612 15.7969 50.0048 15.4351 50.123 14.992H54.1323C53.9699 15.8633 53.6154 16.646 53.069 17.34C52.5227 18.0193 51.8286 18.5583 50.9869 18.9571C50.1451 19.341 49.2074 19.533 48.1737 19.533C46.9628 19.533 45.8847 19.2819 44.9396 18.7799C44.0093 18.263 43.2783 17.5246 42.7467 16.5648C42.2151 15.6049 41.9493 14.4826 41.9493 13.1978C41.9493 11.8983 42.2077 10.776 42.7245 9.83086C43.2562 8.87098 43.9945 8.14 44.9396 7.63791C45.8847 7.12105 46.9628 6.86263 48.1737 6.86263C49.3994 6.86263 50.4774 7.11367 51.4077 7.61576C52.3381 8.11785 53.0543 8.82668 53.5564 9.74225C54.0732 10.6431 54.3317 11.6842 54.3317 12.8655ZM50.4995 12.2896C50.5143 11.4774 50.2928 10.872 49.835 10.4732C49.392 10.0598 48.8382 9.85301 48.1737 9.85301C47.4796 9.85301 46.9037 10.0598 46.4459 10.4732C45.9881 10.8867 45.7297 11.4922 45.6706 12.2896H50.4995ZM60.1103 6.86263C61.6757 6.86263 62.9235 7.25396 63.8539 8.03663C64.799 8.8193 65.3897 9.85301 65.6259 11.1378H62.0818C61.9784 10.6357 61.7421 10.2443 61.3729 9.96376C61.0185 9.66842 60.5681 9.52074 60.0217 9.52074C59.5935 9.52074 59.2686 9.61673 59.0471 9.80871C58.8256 9.98591 58.7148 10.2443 58.7148 10.584C58.7148 10.9679 58.9142 11.2559 59.3129 11.4479C59.7264 11.6399 60.3688 11.8318 61.24 12.0238C62.1852 12.2453 62.9604 12.4742 63.5659 12.7105C64.1714 12.932 64.6956 13.3012 65.1386 13.818C65.5816 14.3349 65.8031 15.029 65.8031 15.9002C65.8031 16.6091 65.6112 17.2367 65.2272 17.7831C64.8433 18.3295 64.2895 18.7577 63.5659 19.0678C62.8423 19.3779 61.9858 19.533 60.9964 19.533C59.3277 19.533 57.9912 19.1638 56.9871 18.4254C55.9829 17.6871 55.37 16.6312 55.1485 15.2578H58.8034C58.8625 15.7895 59.084 16.1956 59.468 16.4762C59.8667 16.7567 60.3762 16.897 60.9964 16.897C61.4246 16.897 61.7495 16.801 61.971 16.6091C62.1925 16.4023 62.3033 16.1365 62.3033 15.8116C62.3033 15.3834 62.0965 15.0806 61.6831 14.9034C61.2843 14.7115 60.6272 14.5121 59.7116 14.3054C58.7961 14.1134 58.0429 13.9066 57.4522 13.6851C56.8615 13.4636 56.3521 13.1092 55.9238 12.6219C55.4956 12.1198 55.2814 11.4405 55.2814 10.584C55.2814 9.47644 55.7023 8.58302 56.544 7.90372C57.3858 7.20966 58.5745 6.86263 60.1103 6.86263ZM71.7047 6.86263C73.27 6.86263 74.5179 7.25396 75.4482 8.03663C76.3933 8.8193 76.984 9.85301 77.2203 11.1378H73.6761C73.5728 10.6357 73.3365 10.2443 72.9673 9.96376C72.6129 9.66842 72.1625 9.52074 71.6161 9.52074C71.1878 9.52074 70.863 9.61673 70.6415 9.80871C70.4199 9.98591 70.3092 10.2443 70.3092 10.584C70.3092 10.9679 70.5086 11.2559 70.9073 11.4479C71.3208 11.6399 71.9631 11.8318 72.8344 12.0238C73.7795 12.2453 74.5548 12.4742 75.1603 12.7105C75.7657 12.932 76.29 13.3012 76.733 13.818C77.176 14.3349 77.3975 15.029 77.3975 15.9002C77.3975 16.6091 77.2055 17.2367 76.8216 17.7831C76.4376 18.3295 75.8839 18.7577 75.1603 19.0678C74.4367 19.3779 73.5802 19.533 72.5907 19.533C70.922 19.533 69.5856 19.1638 68.5814 18.4254C67.5772 17.6871 66.9644 16.6312 66.7429 15.2578H70.3978C70.4569 15.7895 70.6784 16.1956 71.0623 16.4762C71.461 16.7567 71.9705 16.897 72.5907 16.897C73.019 16.897 73.3439 16.801 73.5654 16.6091C73.7869 16.4023 73.8977 16.1365 73.8977 15.8116C73.8977 15.3834 73.6909 15.0806 73.2774 14.9034C72.8787 14.7115 72.2216 14.5121 71.306 14.3054C70.3904 14.1134 69.6373 13.9066 69.0466 13.6851C68.4559 13.4636 67.9464 13.1092 67.5182 12.6219C67.0899 12.1198 66.8758 11.4405 66.8758 10.584C66.8758 9.47644 67.2967 8.58302 68.1384 7.90372C68.9801 7.20966 70.1689 6.86263 71.7047 6.86263Z" fill="white"/>
<path d="M25.008 0L12.2803 7.35691L12.3082 12.3361L25.036 4.9792L25.008 0Z" fill="#FF7143"/>
<path d="M25.0363 8.11206L12.3086 15.469L12.3366 20.4482L25.0643 13.1192L25.0363 8.11206Z" fill="#FF7143"/>
<path d="M25.0638 21.2315V16.2244L12.5319 23.4694L4.36379 18.7419L4.39176 2.51757L0.055946 0L0 21.2315L12.5319 28.4486L25.0638 21.2315Z" fill="#5454D4"/>
</svg>
