<svg width="16" height="17" viewBox="0 0 16 17" fill="none" xmlns="http://www.w3.org/2000/svg">
<g clip-path="url(#clip0)">
<path d="M15.6996 7.7752L12.9996 5.0752L11.5996 6.4752L13.5996 8.4752L11.5996 10.4752L12.9996 11.8752L15.6996 9.1752C16.0996 8.7752 16.0996 8.1752 15.6996 7.7752Z" fill="url(#paint0_linear)"/>
<path d="M3 5.0752L0.3 7.7752C-0.1 8.1752 -0.1 8.7752 0.3 9.1752L3 11.8752L4.4 10.4752L2.4 8.4752L4.4 6.4752L3 5.0752Z" fill="url(#paint1_linear)"/>
<path d="M10 1.4751H6V15.4751H10V1.4751Z" fill="url(#paint2_linear)"/>
</g>
<defs>
<linearGradient id="paint0_linear" x1="11.5996" y1="8.47519" x2="15.9996" y2="8.47519" gradientUnits="userSpaceOnUse">
<stop stop-color="#6F45FF"/>
<stop offset="1" stop-color="#FF6365"/>
</linearGradient>
<linearGradient id="paint1_linear" x1="0" y1="8.47519" x2="4.4" y2="8.47519" gradientUnits="userSpaceOnUse">
<stop stop-color="#6F45FF"/>
<stop offset="1" stop-color="#FF6365"/>
</linearGradient>
<linearGradient id="paint2_linear" x1="6" y1="8.4751" x2="10" y2="8.4751" gradientUnits="userSpaceOnUse">
<stop stop-color="#6F45FF"/>
<stop offset="1" stop-color="#FF6365"/>
</linearGradient>
<clipPath id="clip0">
<rect width="16" height="16" fill="white" transform="translate(0 0.475098)"/>
</clipPath>
</defs>
</svg>
