<svg width="84" height="83" viewBox="0 0 84 83" fill="none" xmlns="http://www.w3.org/2000/svg">
<path d="M83.875 41.5C83.875 30.4935 79.5027 19.9378 71.7199 12.1551C63.9372 4.37231 53.3815 8.30967e-07 42.375 0C31.3685 -8.30966e-07 20.8128 4.37231 13.0301 12.1551C5.24731 19.9378 0.875002 30.4935 0.875 41.5H2.535C2.535 30.9338 6.73242 20.8003 14.2039 13.3289C21.6753 5.85741 31.8088 1.66 42.375 1.66C52.9412 1.66 63.0747 5.85742 70.5461 13.3289C78.0176 20.8003 82.215 30.9338 82.215 41.5H83.875Z" fill="url(#paint0_linear_3495:38724)"/>
<g clip-path="url(#clip0_3495:38724)">
<path d="M48.25 48.2504C48.25 47.5874 47.9866 46.9515 47.5178 46.4826C47.0489 46.0138 46.413 45.7504 45.75 45.7504H37.7062L38.25 41.4504C38.2531 41.4255 38.2531 41.4003 38.25 41.3754C38.25 37.9129 35.8 37.0004 34.5 37.0004C34.3597 36.9952 34.2218 37.0374 34.1084 37.1202C33.995 37.203 33.9128 37.3215 33.875 37.4567L31.375 46.1379C30.9551 46.966 30.3037 47.6543 29.5 48.1192V47.6254C29.5 47.4597 29.4342 47.3007 29.3169 47.1835C29.1997 47.0663 29.0408 47.0004 28.875 47.0004H22.625C22.4592 47.0004 22.3003 47.0663 22.1831 47.1835C22.0658 47.3007 22 47.4597 22 47.6254V61.3754C22 61.5412 22.0658 61.7001 22.1831 61.8173C22.3003 61.9345 22.4592 62.0004 22.625 62.0004H28.875C29.0408 62.0004 29.1997 61.9345 29.3169 61.8173C29.4342 61.7001 29.5 61.5412 29.5 61.3754V60.9566L33.0812 62.0004C33.1371 62.01 33.1942 62.01 33.25 62.0004H43.875C44.3485 61.9937 44.8103 61.8527 45.2068 61.5938C45.6033 61.3348 45.918 60.9686 46.1145 60.5378C46.3109 60.1069 46.381 59.6291 46.3164 59.16C46.2519 58.6909 46.0555 58.2497 45.75 57.8879C46.0596 57.7016 46.3251 57.4503 46.5283 57.1515C46.7314 56.8527 46.8674 56.5134 46.9268 56.1569C46.9862 55.8005 46.9676 55.4355 46.8724 55.0869C46.7771 54.7383 46.6074 54.4146 46.375 54.1379C46.6846 53.9516 46.9501 53.7003 47.1533 53.4015C47.3564 53.1027 47.4924 52.7634 47.5518 52.407C47.6112 52.0505 47.5926 51.6855 47.4974 51.3369C47.4021 50.9883 47.2324 50.6646 47 50.3879C47.376 50.1708 47.689 49.8596 47.9082 49.4848C48.1274 49.11 48.2452 48.6846 48.25 48.2504ZM28.25 60.7504H23.25V48.2504H28.25V60.7504ZM43.875 60.7504H33.3375L29.5 59.6566V49.4254C31.375 48.9942 32.5062 46.7629 32.5562 46.6567C32.5735 46.6203 32.5881 46.5827 32.6 46.5442L34.9562 38.3067C35.6875 38.4692 36.9875 39.0754 37 41.3379L36.375 46.3004C36.3643 46.3877 36.3722 46.4762 36.398 46.5602C36.4239 46.6442 36.4671 46.7218 36.525 46.7879C36.5843 46.8554 36.6574 46.9093 36.7393 46.946C36.8213 46.9826 36.9102 47.0012 37 47.0004H45.75C46.0815 47.0004 46.3995 47.1321 46.6339 47.3665C46.8683 47.6009 47 47.9189 47 48.2504C47 48.5819 46.8683 48.8999 46.6339 49.1343C46.3995 49.3687 46.0815 49.5004 45.75 49.5004H42.625C42.4592 49.5004 42.3003 49.5663 42.1831 49.6835C42.0658 49.8007 42 49.9597 42 50.1254C42 50.2912 42.0658 50.4501 42.1831 50.5674C42.3003 50.6846 42.4592 50.7504 42.625 50.7504H45.125C45.4565 50.7504 45.7745 50.8821 46.0089 51.1165C46.2433 51.3509 46.375 51.6689 46.375 52.0004C46.375 52.3319 46.2433 52.6499 46.0089 52.8843C45.7745 53.1187 45.4565 53.2504 45.125 53.2504H42C41.8342 53.2504 41.6753 53.3163 41.5581 53.4335C41.4408 53.5507 41.375 53.7096 41.375 53.8754C41.375 54.0412 41.4408 54.2001 41.5581 54.3173C41.6753 54.4346 41.8342 54.5004 42 54.5004H44.5C44.8315 54.5004 45.1495 54.6321 45.3839 54.8665C45.6183 55.1009 45.75 55.4189 45.75 55.7504C45.75 56.0819 45.6183 56.3999 45.3839 56.6343C45.1495 56.8687 44.8315 57.0004 44.5 57.0004H41.375C41.2092 57.0004 41.0503 57.0662 40.9331 57.1835C40.8158 57.3007 40.75 57.4596 40.75 57.6254C40.75 57.7912 40.8158 57.9501 40.9331 58.0673C41.0503 58.1846 41.2092 58.2504 41.375 58.2504H43.875C44.2065 58.2504 44.5245 58.3821 44.7589 58.6165C44.9933 58.8509 45.125 59.1689 45.125 59.5004C45.125 59.8319 44.9933 60.1499 44.7589 60.3843C44.5245 60.6187 44.2065 60.7504 43.875 60.7504Z" fill="url(#paint1_linear_3495:38724)"/>
<path d="M30.125 31.375H30.75V32C30.75 32.1658 30.8158 32.3247 30.9331 32.4419C31.0503 32.5592 31.2092 32.625 31.375 32.625C31.5408 32.625 31.6997 32.5592 31.8169 32.4419C31.9342 32.3247 32 32.1658 32 32V31.375H32.625C32.7908 31.375 32.9497 31.3092 33.0669 31.1919C33.1842 31.0747 33.25 30.9158 33.25 30.75C33.25 30.5842 33.1842 30.4253 33.0669 30.3081C32.9497 30.1908 32.7908 30.125 32.625 30.125H32V29.5C32 29.3342 31.9342 29.1753 31.8169 29.0581C31.6997 28.9408 31.5408 28.875 31.375 28.875C31.2092 28.875 31.0503 28.9408 30.9331 29.0581C30.8158 29.1753 30.75 29.3342 30.75 29.5V30.125H30.125C29.9592 30.125 29.8003 30.1908 29.6831 30.3081C29.5658 30.4253 29.5 30.5842 29.5 30.75C29.5 30.9158 29.5658 31.0747 29.6831 31.1919C29.8003 31.3092 29.9592 31.375 30.125 31.375Z" fill="url(#paint2_linear_3495:38724)"/>
<path d="M55.75 53.25H55.125V52.625C55.125 52.4592 55.0592 52.3003 54.9419 52.1831C54.8247 52.0658 54.6658 52 54.5 52C54.3342 52 54.1753 52.0658 54.0581 52.1831C53.9408 52.3003 53.875 52.4592 53.875 52.625V53.25H53.25C53.0842 53.25 52.9253 53.3158 52.8081 53.4331C52.6908 53.5503 52.625 53.7092 52.625 53.875C52.625 54.0408 52.6908 54.1997 52.8081 54.3169C52.9253 54.4342 53.0842 54.5 53.25 54.5H53.875V55.125C53.875 55.2908 53.9408 55.4497 54.0581 55.5669C54.1753 55.6842 54.3342 55.75 54.5 55.75C54.6658 55.75 54.8247 55.6842 54.9419 55.5669C55.0592 55.4497 55.125 55.2908 55.125 55.125V54.5H55.75C55.9158 54.5 56.0747 54.4342 56.1919 54.3169C56.3092 54.1997 56.375 54.0408 56.375 53.875C56.375 53.7092 56.3092 53.5503 56.1919 53.4331C56.0747 53.3158 55.9158 53.25 55.75 53.25Z" fill="url(#paint3_linear_3495:38724)"/>
<path d="M48.25 22.0008C44.6033 22.0008 41.1059 23.4494 38.5273 26.0281C35.9487 28.6067 34.5 32.104 34.5 35.7508C34.5 35.9165 34.5658 36.0755 34.6831 36.1927C34.8003 36.3099 34.9592 36.3758 35.125 36.3758C35.2908 36.3758 35.4497 36.3099 35.5669 36.1927C35.6842 36.0755 35.75 35.9165 35.75 35.7508C35.7507 33.3806 36.4253 31.0595 37.6951 29.0581C38.9648 27.0568 40.7774 25.4577 42.9214 24.4473C45.0654 23.437 47.4525 23.057 49.8043 23.3517C52.1561 23.6464 54.3756 24.6037 56.204 26.1119C58.0324 27.6201 59.3943 29.617 60.1309 31.8698C60.8676 34.1226 60.9485 36.5384 60.3644 38.8354C59.7802 41.1325 58.5551 43.2161 56.8317 44.8433C55.1084 46.4705 52.958 47.5743 50.6312 48.0258C50.4655 48.0415 50.3128 48.1225 50.2067 48.2508C50.1006 48.3792 50.0499 48.5444 50.0656 48.7101C50.0814 48.8759 50.1623 49.0286 50.2907 49.1347C50.419 49.2408 50.5842 49.2915 50.75 49.2758H50.8687C54.2569 48.6563 57.2892 46.7877 59.3658 44.0397C61.4423 41.2917 62.4119 37.8645 62.0827 34.4359C61.7535 31.0073 60.1496 27.8271 57.5881 25.5244C55.0266 23.2217 51.6941 21.9643 48.25 22.0008Z" fill="url(#paint4_linear_3495:38724)"/>
<path d="M53.875 38.25C53.875 36.9239 53.3482 35.6521 52.4105 34.7145C51.4729 33.7768 50.2011 33.25 48.875 33.25H47.625C47.2935 33.25 46.9755 33.1183 46.7411 32.8839C46.5067 32.6495 46.375 32.3315 46.375 32C46.375 31.6685 46.5067 31.3505 46.7411 31.1161C46.9755 30.8817 47.2935 30.75 47.625 30.75H52C52.4973 30.75 52.9742 30.5525 53.3258 30.2008C53.6775 29.8492 53.875 29.3723 53.875 28.875C53.875 28.3777 53.6775 27.9008 53.3258 27.5492C52.9742 27.1975 52.4973 27 52 27H50.125V25.125C50.125 24.9592 50.0592 24.8003 49.9419 24.6831C49.8247 24.5658 49.6658 24.5 49.5 24.5H47C46.8342 24.5 46.6753 24.5658 46.5581 24.6831C46.4408 24.8003 46.375 24.9592 46.375 25.125V27.1625C45.2 27.4696 44.1769 28.1938 43.4968 29.2C42.8167 30.2062 42.5261 31.4255 42.6792 32.6303C42.8322 33.8351 43.4186 34.9429 44.3287 35.747C45.2389 36.5512 46.4105 36.9965 47.625 37H48.875C49.2065 37 49.5245 37.1317 49.7589 37.3661C49.9933 37.6005 50.125 37.9185 50.125 38.25C50.125 38.5815 49.9933 38.8995 49.7589 39.1339C49.5245 39.3683 49.2065 39.5 48.875 39.5H44.5C44.0027 39.5 43.5258 39.6975 43.1742 40.0492C42.8225 40.4008 42.625 40.8777 42.625 41.375C42.625 41.8723 42.8225 42.3492 43.1742 42.7008C43.5258 43.0525 44.0027 43.25 44.5 43.25H46.375V45.125C46.375 45.2908 46.4408 45.4497 46.5581 45.5669C46.6753 45.6842 46.8342 45.75 47 45.75H49.5C49.6658 45.75 49.8247 45.6842 49.9419 45.5669C50.0592 45.4497 50.125 45.2908 50.125 45.125V43.0875C51.1977 42.8105 52.148 42.1852 52.8267 41.3096C53.5054 40.434 53.8742 39.3578 53.875 38.25ZM49.4125 41.9562C49.2623 41.9775 49.125 42.0526 49.0261 42.1676C48.9272 42.2826 48.8735 42.4296 48.875 42.5812V44.5H47.625V42.625C47.625 42.4592 47.5592 42.3003 47.4419 42.1831C47.3247 42.0658 47.1658 42 47 42H44.5C44.3342 42 44.1753 41.9342 44.0581 41.8169C43.9408 41.6997 43.875 41.5408 43.875 41.375C43.875 41.2092 43.9408 41.0503 44.0581 40.9331C44.1753 40.8158 44.3342 40.75 44.5 40.75H48.875C49.538 40.75 50.1739 40.4866 50.6428 40.0178C51.1116 39.5489 51.375 38.913 51.375 38.25C51.375 37.587 51.1116 36.9511 50.6428 36.4822C50.1739 36.0134 49.538 35.75 48.875 35.75H47.625C46.6828 35.7418 45.7782 35.3792 45.0912 34.7343C44.4042 34.0894 43.9852 33.2096 43.9174 32.2698C43.8497 31.33 44.1382 30.3991 44.7256 29.6624C45.313 28.9256 46.1562 28.437 47.0875 28.2937C47.2377 28.2725 47.375 28.1974 47.4739 28.0824C47.5728 27.9674 47.6265 27.8204 47.625 27.6687V25.75H48.875V27.625C48.875 27.7908 48.9408 27.9497 49.0581 28.0669C49.1753 28.1842 49.3342 28.25 49.5 28.25H52C52.1658 28.25 52.3247 28.3158 52.4419 28.4331C52.5592 28.5503 52.625 28.7092 52.625 28.875C52.625 29.0408 52.5592 29.1997 52.4419 29.3169C52.3247 29.4342 52.1658 29.5 52 29.5H47.625C46.962 29.5 46.3261 29.7634 45.8572 30.2322C45.3884 30.7011 45.125 31.337 45.125 32C45.125 32.663 45.3884 33.2989 45.8572 33.7678C46.3261 34.2366 46.962 34.5 47.625 34.5H48.875C49.8172 34.5082 50.7218 34.8708 51.4088 35.5157C52.0958 36.1606 52.5148 37.0404 52.5826 37.9802C52.6503 38.92 52.3618 39.8509 51.7744 40.5876C51.187 41.3244 50.3438 41.813 49.4125 41.9562Z" fill="url(#paint5_linear_3495:38724)"/>
</g>
<defs>
<linearGradient id="paint0_linear_3495:38724" x1="1.91622" y1="61.0974" x2="83.9121" y2="60.9846" gradientUnits="userSpaceOnUse">
<stop stop-color="#018DF0"/>
<stop offset="1" stop-color="#5BBBFF"/>
</linearGradient>
<linearGradient id="paint1_linear_3495:38724" x1="22.3293" y1="55.4084" x2="48.2617" y2="55.371" gradientUnits="userSpaceOnUse">
<stop stop-color="#018DF0"/>
<stop offset="1" stop-color="#5BBBFF"/>
</linearGradient>
<linearGradient id="paint2_linear_3495:38724" x1="29.547" y1="31.6354" x2="33.2517" y2="31.6303" gradientUnits="userSpaceOnUse">
<stop stop-color="#018DF0"/>
<stop offset="1" stop-color="#5BBBFF"/>
</linearGradient>
<linearGradient id="paint3_linear_3495:38724" x1="52.672" y1="54.7604" x2="56.3767" y2="54.7553" gradientUnits="userSpaceOnUse">
<stop stop-color="#018DF0"/>
<stop offset="1" stop-color="#5BBBFF"/>
</linearGradient>
<linearGradient id="paint4_linear_3495:38724" x1="34.8468" y1="42.0801" x2="62.1581" y2="42.0421" gradientUnits="userSpaceOnUse">
<stop stop-color="#018DF0"/>
<stop offset="1" stop-color="#5BBBFF"/>
</linearGradient>
<linearGradient id="paint5_linear_3495:38724" x1="42.7661" y1="40.1424" x2="53.88" y2="40.1343" gradientUnits="userSpaceOnUse">
<stop stop-color="#018DF0"/>
<stop offset="1" stop-color="#5BBBFF"/>
</linearGradient>
<clipPath id="clip0_3495:38724">
<rect width="40" height="40" fill="white" transform="translate(22 22)"/>
</clipPath>
</defs>
</svg>
