<svg width="18" height="13" viewBox="0 0 18 13" fill="none" xmlns="http://www.w3.org/2000/svg">
<path d="M0.0407572 6.92384C0.37052 6.6793 0.692872 6.44587 1.02264 6.20132C0.678052 5.96049 0.348289 5.72706 0 5.48252C0.289006 5.24538 0.570601 5.00825 0.855901 4.77482C0.900364 4.73777 0.937416 4.70072 0.985583 4.67108C1.08192 4.60809 1.04857 4.56733 0.978173 4.50805C0.681757 4.26721 0.392751 4.01896 0.0889248 3.78553C-0.0296415 3.69661 0.0111156 3.58545 0.018526 3.48541C0.0259364 3.4039 0.129682 3.42242 0.18526 3.41501C1.17455 3.31127 2.14902 3.35203 3.0642 3.80406C3.14201 3.84111 3.16795 3.82629 3.21611 3.75589C3.4236 3.46318 3.42731 3.1223 3.48289 2.79254C3.52364 2.54429 3.5644 2.29604 3.59034 2.04409C3.60145 1.94776 3.64592 1.91441 3.72373 1.87736C4.17576 1.68469 4.62038 1.48461 5.06871 1.29194C5.15393 1.25488 5.22804 1.20672 5.29102 1.13632C5.60226 0.795439 5.92091 0.461971 6.22844 0.113682C6.32478 0.00623133 6.42111 -0.0122949 6.5545 0.0173467C6.97689 0.102566 7.39928 0.180375 7.82168 0.258185C8.08474 0.306352 8.33299 0.210017 8.58495 0.172965C8.89618 0.128503 9.20001 0.0655145 9.50754 0.00623128C9.60758 -0.0122947 9.6928 0.00993648 9.77432 0.0803353C10.2375 0.484202 10.6858 0.914005 11.1823 1.27341C11.7862 1.71062 12.2976 2.24788 12.8682 2.71844C13.0905 2.9037 13.3647 3.01115 13.6129 3.15195C13.8426 3.28533 14.0723 3.4076 14.3021 3.53729C14.3354 3.55581 14.391 3.56693 14.3947 3.58916C14.4429 3.81888 14.5763 3.68549 14.6726 3.65215C15.5026 3.35573 16.3548 3.31497 17.2181 3.41131C17.2699 3.41872 17.3737 3.39278 17.3774 3.48912C17.3774 3.58545 17.4218 3.6892 17.3107 3.77442C17.0143 4.00414 16.729 4.25239 16.4363 4.48582C16.3399 4.55992 16.3103 4.60068 16.4251 4.69331C16.7401 4.94897 17.0439 5.21945 17.3663 5.49734C17.0254 5.73817 16.6956 5.9716 16.3473 6.21615C16.6771 6.46069 16.9958 6.69412 17.3292 6.93866C16.9846 7.21284 16.6549 7.47591 16.314 7.74639C16.6215 8.02058 16.9291 8.28735 17.2292 8.55783C17.2848 8.6097 17.3959 8.65046 17.3663 8.72827C17.344 8.79496 17.2366 8.75421 17.1662 8.75791C16.3177 8.80978 15.484 8.73198 14.68 8.44297C14.5985 8.41333 14.5688 8.44297 14.5429 8.50596C14.4688 8.6764 14.491 8.85795 14.4725 9.0321C14.4466 9.30628 14.4355 9.58417 14.428 9.86206C14.4243 9.9621 14.3836 10.014 14.2984 10.0584C13.8723 10.2845 13.4499 10.5253 13.0201 10.7476C12.8682 10.8254 12.7459 10.9292 12.6384 11.0551C12.3605 11.3738 12.0715 11.6887 11.7937 12.0111C11.7158 12.1037 11.6343 12.1333 11.5232 12.1185C10.9192 12.037 10.319 11.9555 9.71503 11.8777C9.42603 11.8406 9.15925 11.9518 8.88136 11.9851C8.65164 12.0148 8.42192 12.0704 8.1959 12.1148C8.08845 12.1371 8.00323 12.1111 7.91431 12.0296C7.51785 11.648 7.11398 11.2774 6.71753 10.9032C6.66195 10.8514 6.60266 10.8143 6.53597 10.781C6.07653 10.5623 5.62079 10.34 5.16505 10.1177C5.06871 10.0696 4.96497 10.0214 4.96497 9.88429C4.96497 9.85465 4.93162 9.82131 4.90939 9.79166C4.487 9.22477 4.0646 8.65787 3.64592 8.08727C3.57922 7.99835 3.53847 7.97611 3.43472 8.04651C2.80113 8.47261 2.08232 8.63935 1.33758 8.71716C0.93371 8.75791 0.526138 8.77644 0.122272 8.72827C0.0889248 8.72456 0.0407572 8.73939 0.0222312 8.70233C1.32508e-08 8.65046 0.0481676 8.62452 0.0778092 8.59859C0.37052 8.33552 0.666936 8.07245 0.963352 7.81679C1.04116 7.7501 1.06339 7.71675 0.963352 7.64265C0.65582 7.42404 0.359404 7.1795 0.0407572 6.92384ZM11.412 11.6924C11.4935 11.7295 11.5528 11.6702 11.6121 11.6035C11.8789 11.2997 12.1531 10.9959 12.4198 10.692C12.5013 10.5994 12.594 10.5216 12.7051 10.4623C13.1053 10.2511 13.5017 10.0288 13.9019 9.8139C13.9871 9.76943 14.0279 9.72126 14.0279 9.61752C14.0279 9.43226 14.0538 9.2507 14.0575 9.06544C14.0686 8.72457 14.1057 8.3948 14.2798 8.09098C14.3688 7.93165 14.4355 7.75751 14.5096 7.59077C14.6281 7.32771 14.8393 7.06464 14.8356 6.80527C14.8319 6.54591 14.6022 6.29025 14.4836 6.03089C14.4095 5.86415 14.2984 5.71594 14.2724 5.52698C14.2094 5.02678 14.1242 4.53028 14.0723 4.03008C14.0575 3.89669 13.9982 3.83741 13.8945 3.78183C13.2424 3.42984 12.5754 3.10007 12.0493 2.5517C11.8492 2.34421 11.6158 2.16636 11.412 1.96258C11.3046 1.85513 11.1971 1.82178 11.0526 1.85142C10.8674 1.89218 10.6784 1.92552 10.4894 1.94776C10.1745 1.98481 9.86695 2.08114 9.54089 2.03298C9.08515 1.96258 8.6257 1.9107 8.17367 1.8403C8.08104 1.82548 8.02546 1.84401 7.96247 1.90329C7.59936 2.23306 7.22884 2.55911 6.86203 2.89258C6.73976 3.00374 6.60637 3.09266 6.44705 3.15195C6.06912 3.29274 5.6986 3.45207 5.31696 3.58916C5.19098 3.63733 5.15393 3.70402 5.15764 3.8337C5.16134 4.24498 5.15393 4.65996 5.15393 5.07124C5.15393 5.16016 5.13541 5.23797 5.09465 5.31949C4.87975 5.753 4.67226 6.19021 4.45736 6.62372C4.40919 6.72376 4.40919 6.79786 4.46106 6.8979C4.7056 7.34623 4.93903 7.79456 5.17616 8.24659C5.21322 8.31699 5.25027 8.38739 5.25768 8.46891C5.28361 8.76903 5.32437 9.06915 5.33178 9.36927C5.33919 9.64346 5.4133 9.85095 5.70601 9.92505C5.76529 9.93987 5.81346 9.98433 5.87274 10.0029C6.60267 10.2845 7.22514 10.7254 7.74016 11.3071C8.01435 11.622 8.30706 11.7665 8.71463 11.6072C8.74427 11.5961 8.77391 11.5924 8.80355 11.5887C9.14443 11.5553 9.46678 11.422 9.82248 11.4812C10.3412 11.5739 10.8673 11.6257 11.412 11.6924ZM1.04116 8.29847C1.04487 8.31329 1.04857 8.3244 1.05228 8.33922C1.22642 8.3207 1.40427 8.30958 1.57842 8.28365C2.21571 8.18361 2.82707 8.02058 3.34209 7.6093C3.76078 7.27583 3.98679 6.83862 4.00903 6.26802C3.62739 6.46439 3.26428 6.64595 2.90858 6.83491C2.77519 6.90531 2.66774 6.88679 2.59735 6.7571C2.52695 6.62372 2.59734 6.5385 2.71962 6.47921C2.89376 6.394 3.06791 6.30136 3.24205 6.21244C3.33468 6.16798 3.4236 6.11611 3.4236 6.00124C3.4236 5.88638 3.3458 5.8271 3.24575 5.79005C3.22723 5.78264 3.21241 5.77523 3.19759 5.76411C3.08273 5.70853 2.9938 5.62331 3.04938 5.48993C3.10866 5.34172 3.23093 5.3269 3.37173 5.38618C3.5607 5.46399 3.75337 5.53809 3.96086 5.61961C3.87193 5.16016 3.67926 4.77482 3.33468 4.48582C2.58993 3.85964 1.69328 3.78553 0.722514 3.77071C1.04116 4.03378 1.31535 4.26721 1.59694 4.48952C1.70069 4.57104 1.7081 4.61179 1.59694 4.69701C1.2857 4.93785 0.985583 5.19722 0.674346 5.45287C1.03375 5.70483 1.37092 5.94567 1.72662 6.19391C1.38574 6.44587 1.05598 6.68671 0.718809 6.93495C1.05228 7.20173 1.36722 7.45368 1.69328 7.71305C1.47096 7.91683 1.25606 8.1095 1.04116 8.29847ZM16.6512 6.95719C16.3473 6.73487 16.062 6.52368 15.7693 6.31989C15.6656 6.24949 15.6359 6.20503 15.7656 6.12352C16.0398 5.94567 16.2955 5.74558 16.5697 5.56774C16.6882 5.48993 16.6771 5.44546 16.5734 5.36395C16.314 5.15275 16.0769 4.92303 15.8101 4.72295C15.6582 4.60809 15.7063 4.55622 15.8212 4.46359C16.088 4.25239 16.351 4.03378 16.6252 3.80406C16.1028 3.72255 14.9986 3.91522 14.58 4.14494C14.5133 4.18199 14.4984 4.21534 14.5096 4.28944C14.5577 4.61179 14.6022 4.93415 14.6429 5.2565C14.6504 5.3306 14.6689 5.35283 14.7467 5.36765C14.9468 5.3973 14.9986 5.54921 14.8727 5.71594C14.8504 5.74188 14.7986 5.76041 14.8282 5.80116C14.9764 6.0383 14.9949 6.36065 15.2877 6.50145C15.4247 6.56814 15.4433 6.6793 15.3692 6.79045C15.1246 7.14615 15.0061 7.56484 14.8023 7.93906C14.7541 8.02799 14.7837 8.06504 14.8727 8.09098C15.0505 8.13914 15.2247 8.19843 15.4025 8.23918C15.71 8.30588 16.0176 8.35405 16.377 8.36516C16.151 8.16508 15.962 7.99094 15.7656 7.8242C15.6878 7.76121 15.6841 7.72787 15.7656 7.66488C16.0583 7.43516 16.3436 7.20173 16.6512 6.95719ZM10.7451 1.47349C10.3671 1.14743 10.004 0.843606 9.65204 0.532369C9.57053 0.458266 9.48902 0.436034 9.38527 0.45456C9.14443 0.499023 8.90359 0.550896 8.66276 0.584242C8.4071 0.617589 8.15514 0.72504 7.90319 0.691693C7.4845 0.636115 7.06952 0.543485 6.65454 0.461971C6.5545 0.443445 6.4841 0.45456 6.41 0.536075C6.15804 0.821375 5.89868 1.10297 5.63561 1.37715C5.5578 1.45867 5.58003 1.49943 5.64302 1.56983C5.9135 1.88106 6.18027 2.1923 6.44334 2.51095C6.52115 2.60728 6.56932 2.60358 6.65454 2.52206C7.02876 2.17748 7.4141 1.8403 7.79203 1.49943C7.86984 1.42532 7.95136 1.39568 8.0551 1.41421C8.37746 1.46237 8.70351 1.48461 9.02216 1.5513C9.59276 1.66246 10.156 1.6217 10.7451 1.47349ZM4.4166 5.73447C4.73154 5.17498 4.73154 5.17498 4.73895 4.59697C4.73895 4.53399 4.73154 4.471 4.74266 4.41171C4.83899 3.84482 4.66485 3.37055 4.25357 2.97039C4.13871 2.85923 4.05349 2.72214 3.93492 2.57393C3.84229 3.08896 3.85711 3.59657 3.54588 4.01526C3.50512 4.07084 3.53105 4.10418 3.57181 4.13753C4.0609 4.54881 4.31656 5.08606 4.4166 5.73447ZM4.14241 2.15154C4.4166 2.50724 4.67596 2.84071 4.93533 3.17418C4.97238 3.22234 5.00202 3.27792 5.08353 3.24828C5.4133 3.11489 5.74306 2.98521 6.07282 2.85553C6.13952 2.82959 6.13951 2.80366 6.09876 2.75178C5.81346 2.42202 5.53186 2.08855 5.25027 1.75509C5.20581 1.70321 5.16505 1.70692 5.10576 1.73285C4.79453 1.86995 4.47959 2.00333 4.14241 2.15154ZM4.18317 7.26842C4.09054 7.3981 4.00903 7.50926 3.92381 7.62042C3.88675 7.66858 3.86452 7.70564 3.90899 7.76492C4.22763 8.18731 4.54257 8.61341 4.86122 9.03951C4.8427 8.83572 4.89457 8.62823 4.80564 8.45409C4.61297 8.06133 4.39807 7.67599 4.18317 7.26842Z" fill="#0E0C0C"/>
<path d="M11.4123 11.6931C10.8676 11.6227 10.3414 11.5709 9.81902 11.4856C9.46332 11.4264 9.14097 11.5597 8.80009 11.5931C8.77045 11.5968 8.7371 11.6005 8.71116 11.6116C8.3073 11.7672 8.01459 11.6227 7.7367 11.3115C7.22167 10.7298 6.5992 10.2851 5.86927 10.0073C5.8137 9.98503 5.76182 9.94057 5.70254 9.92945C5.40983 9.85535 5.33573 9.65156 5.32832 9.37367C5.32091 9.07355 5.27644 8.77343 5.25421 8.47331C5.2468 8.39179 5.20975 8.32139 5.1727 8.251C4.93556 7.80267 4.69843 7.35063 4.45759 6.9023C4.40572 6.80597 4.40572 6.72816 4.45389 6.62812C4.66879 6.19461 4.87628 5.7574 5.09118 5.32389C5.13194 5.24237 5.15047 5.16456 5.15047 5.07564C5.15047 4.66436 5.15788 4.24938 5.15417 3.8381C5.15417 3.71213 5.18752 3.64173 5.31349 3.59356C5.69142 3.45647 6.06194 3.29344 6.44358 3.15635C6.6029 3.09706 6.73629 3.00814 6.85856 2.89698C7.22538 2.56722 7.59219 2.24116 7.95901 1.90769C8.022 1.84841 8.08128 1.82988 8.1702 1.84471C8.62594 1.9151 9.08539 1.96698 9.53742 2.03738C9.86348 2.08925 10.171 1.98921 10.486 1.95216C10.6749 1.92992 10.8639 1.89658 11.0491 1.85582C11.1936 1.82618 11.3011 1.85953 11.4085 1.96698C11.616 2.17076 11.8495 2.34491 12.0458 2.5561C12.5683 3.10818 13.2352 3.43424 13.891 3.78623C13.9911 3.84181 14.0541 3.89739 14.0689 4.03448C14.1245 4.53468 14.206 5.03118 14.269 5.53138C14.2949 5.72034 14.4061 5.86855 14.4802 6.03529C14.5987 6.29836 14.8284 6.55031 14.8322 6.80967C14.8359 7.06904 14.6247 7.33211 14.5061 7.59518C14.432 7.76191 14.3653 7.93605 14.2764 8.09538C14.1022 8.3992 14.0652 8.72897 14.0541 9.06984C14.0466 9.2551 14.0207 9.43666 14.0244 9.62192C14.0244 9.72566 13.9837 9.77013 13.8984 9.8183C13.4983 10.0295 13.1018 10.2555 12.7017 10.4667C12.5905 10.526 12.4979 10.6001 12.4164 10.6964C12.1496 11.004 11.8754 11.3041 11.6086 11.6079C11.5493 11.6746 11.4938 11.7302 11.4123 11.6931ZM7.5959 6.99864C7.64777 7.0394 7.64777 7.09127 7.65518 7.13944C7.69594 7.39509 7.73669 7.64705 7.77004 7.90271C7.78116 7.99163 7.80709 8.03239 7.90713 8.02868C8.08498 8.02127 8.26283 8.02498 8.44068 8.02868C8.5222 8.03239 8.54072 8.00275 8.55184 7.92494C8.63335 7.21354 8.71487 6.49844 8.80009 5.77222C8.63335 5.77222 8.47403 5.77592 8.31471 5.77222C8.23319 5.76851 8.21467 5.80186 8.20726 5.87596C8.18873 6.07234 8.1665 6.26871 8.13686 6.46138C8.10721 6.64294 8.13315 6.83561 8.04052 7.01716C8.01459 6.72075 7.99235 6.43174 7.95901 6.14644C7.94419 6.02788 8.00717 5.85744 7.91454 5.79815C7.82191 5.73887 7.66259 5.79445 7.53661 5.77222C7.34394 5.73887 7.29948 5.8315 7.28837 5.99823C7.25872 6.36134 7.21056 6.72075 7.1698 7.08386C7.12163 6.77262 7.08829 6.46138 7.06976 6.15015C7.04753 5.77592 7.05494 5.78704 6.67701 5.76851C6.48063 5.7574 6.46211 5.8278 6.48063 5.99453C6.54733 6.5429 6.60661 7.09127 6.66219 7.64334C6.69924 8.02868 6.69553 8.03239 7.08829 8.03239C7.15498 8.03239 7.22538 8.02498 7.29207 8.03239C7.43287 8.05462 7.46622 7.98422 7.47733 7.85824C7.51068 7.57294 7.55514 7.29135 7.5959 6.99864ZM12.7239 6.90971C12.7239 6.67629 12.7239 6.44286 12.7239 6.20943C12.7239 5.7574 12.7239 5.7611 12.2719 5.77222C12.1607 5.77592 12.1385 5.81297 12.1422 5.91301C12.1496 6.09827 12.1459 6.28353 12.1422 6.46509C12.1422 6.52067 12.1644 6.58736 12.0607 6.59107C11.9495 6.59477 11.968 6.52437 11.968 6.45768C11.968 6.37616 11.968 6.29836 11.968 6.21684C11.968 5.7611 11.968 5.76481 11.5012 5.76851C11.3863 5.76851 11.3604 5.80186 11.3604 5.91301C11.3678 6.46509 11.3641 7.02087 11.3641 7.57294C11.3641 8.05091 11.3641 8.04721 11.8384 8.02868C11.931 8.02498 11.9495 7.99534 11.9495 7.91012C11.9458 7.66928 11.9495 7.43215 11.9458 7.19131C11.9458 7.12461 11.9606 7.09497 12.0384 7.09497C12.1125 7.09497 12.1348 7.12091 12.1311 7.19131C12.1274 7.32099 12.1311 7.45067 12.1311 7.58035C12.1311 8.03609 12.1311 8.03239 12.5905 8.03239C12.7128 8.03239 12.7313 7.99163 12.7276 7.88418C12.7202 7.56183 12.7239 7.23577 12.7239 6.90971ZM8.89642 6.88748C8.89642 7.21354 8.90013 7.5396 8.89272 7.86565C8.88901 7.97681 8.91865 8.01757 9.03722 8.01386C9.22619 8.00645 9.41886 8.01016 9.60782 8.01016C9.92276 8.01016 9.91535 8.01016 9.91906 7.70633C9.92276 7.58406 9.88571 7.55071 9.76344 7.55442C9.49666 7.56183 9.49667 7.55442 9.49667 7.28764C9.49667 7.26912 9.50037 7.25059 9.49667 7.23207C9.47443 7.09868 9.53372 7.06163 9.65969 7.07274C9.72268 7.08015 9.82643 7.10979 9.84495 7.0468C9.8746 6.93935 9.8783 6.81338 9.85607 6.70222C9.83754 6.60589 9.72639 6.64664 9.6671 6.65776C9.45591 6.6874 9.50408 6.5429 9.49667 6.42804C9.48925 6.30577 9.48555 6.1872 9.6671 6.22425C9.84866 6.2613 9.91165 6.18349 9.8783 6.00935C9.87459 5.97971 9.87459 5.94636 9.8783 5.91672C9.89683 5.80186 9.85236 5.76851 9.7375 5.77592C9.51149 5.78704 9.28176 5.78704 9.05575 5.77592C8.92977 5.77222 8.88531 5.80186 8.88901 5.93525C8.90383 6.25019 8.89642 6.56883 8.89642 6.88748ZM10.3118 7.13203C10.3118 7.28764 10.3118 7.43956 10.3118 7.59518C10.3118 8.0398 10.3118 8.03239 10.7638 8.03609C10.8898 8.03609 10.9158 7.99534 10.9121 7.88048C10.9046 7.38027 10.9121 6.88378 10.9083 6.38357C10.9083 6.2613 10.9306 6.19461 11.0677 6.22055C11.2233 6.25019 11.2789 6.18349 11.2529 6.03529C11.2455 5.98712 11.2455 5.93525 11.2529 5.88708C11.264 5.79815 11.2307 5.77222 11.1418 5.77222C10.7861 5.77592 10.4267 5.77222 10.071 5.77592C10.0339 5.77592 9.97464 5.76481 9.97093 5.79815C9.95981 5.92413 9.94129 6.06122 9.97093 6.18349C9.98946 6.26501 10.1006 6.22425 10.1673 6.21684C10.297 6.20573 10.3192 6.2613 10.3192 6.37616C10.3081 6.62441 10.3118 6.88007 10.3118 7.13203ZM8.00347 2.90439C7.91825 2.92292 7.82562 2.94144 7.7404 2.96368C7.0994 3.14153 6.55103 3.47129 6.09529 3.96037C6.00266 4.06042 5.95449 4.17528 6.07306 4.28273C6.19163 4.39018 6.29167 4.34201 6.3843 4.23085C6.49916 4.09376 6.63996 3.98261 6.78446 3.87515C7.15868 3.58615 7.58108 3.40089 8.04052 3.29714C8.1665 3.2675 8.2369 3.20081 8.21837 3.06742C8.20355 2.94886 8.11092 2.91921 8.00347 2.90439Z" fill="#FDFDFD"/>
<path d="M1.04109 8.29875C1.25599 8.10608 1.47089 7.91711 1.69691 7.71333C1.37085 7.45396 1.05591 7.20201 0.722441 6.93524C1.05961 6.68699 1.38938 6.44615 1.73026 6.1942C1.37826 5.94595 1.03738 5.70511 0.677979 5.45316C0.989215 5.1975 1.28934 4.93813 1.60057 4.6973C1.71173 4.61208 1.70432 4.57132 1.60057 4.4898C1.31898 4.26749 1.04479 4.03407 0.726146 3.771C1.70061 3.78211 2.59727 3.85992 3.33831 4.4861C3.6829 4.77881 3.87557 5.16045 3.96449 5.61989C3.757 5.53838 3.56433 5.46427 3.37536 5.38646C3.23457 5.32718 3.11229 5.34571 3.05301 5.49021C2.99743 5.6236 3.08265 5.70882 3.20122 5.76439C3.21604 5.7718 3.23457 5.78292 3.24939 5.79033C3.34572 5.82738 3.42724 5.88666 3.42724 6.00153C3.42724 6.11639 3.33831 6.16826 3.24568 6.21272C3.07154 6.30165 2.89739 6.39057 2.72325 6.4795C2.60098 6.53878 2.53058 6.624 2.60098 6.75739C2.67138 6.88707 2.77512 6.9056 2.91221 6.8352C3.26791 6.64623 3.62732 6.46468 4.01266 6.2683C3.99043 6.8389 3.76441 7.27611 3.34572 7.60958C2.8307 8.02086 2.21564 8.18389 1.58205 8.28393C1.4079 8.30986 1.23376 8.32098 1.05591 8.33951C1.0485 8.32839 1.04479 8.31357 1.04109 8.29875Z" fill="#FDFDFD"/>
<path d="M16.6513 6.9574C16.3438 7.20195 16.0548 7.43537 15.7621 7.65769C15.6806 7.72067 15.6843 7.75402 15.7621 7.81701C15.9585 7.98374 16.1474 8.15789 16.3735 8.35797C16.0178 8.34685 15.7065 8.29868 15.399 8.23199C15.2211 8.19123 15.047 8.13195 14.8691 8.08378C14.7802 8.06155 14.7506 8.02079 14.7987 7.93187C15.0025 7.55764 15.1211 7.13896 15.3656 6.78326C15.4435 6.6721 15.4212 6.56095 15.2841 6.49425C14.9914 6.35346 14.9729 6.03111 14.8247 5.79397C14.7987 5.74951 14.8506 5.73469 14.8691 5.70875C14.9951 5.54202 14.9433 5.39011 14.7432 5.36046C14.6617 5.34935 14.6468 5.32341 14.6394 5.24931C14.6024 4.92696 14.5579 4.60461 14.506 4.28225C14.4949 4.20815 14.5097 4.1748 14.5764 4.13775C14.9951 3.90803 16.0993 3.71536 16.6217 3.79687C16.3438 4.02289 16.0845 4.2452 15.8177 4.4564C15.7028 4.54532 15.6546 4.5972 15.8066 4.71576C16.0696 4.91584 16.3105 5.14927 16.5698 5.35676C16.6699 5.43827 16.6847 5.48274 16.5661 5.56055C16.2956 5.7384 16.0363 5.93848 15.7621 6.11632C15.6324 6.20154 15.6658 6.2423 15.7658 6.3127C16.0622 6.5239 16.3475 6.73509 16.6513 6.9574Z" fill="#FDFDFD"/>
<path d="M10.7453 1.47414C10.1524 1.62605 9.59295 1.66681 9.02235 1.54824C8.7037 1.48155 8.37764 1.45932 8.05529 1.41115C7.94784 1.39633 7.87003 1.42597 7.79222 1.49637C7.41429 1.84095 7.02895 2.17442 6.65472 2.51901C6.5658 2.60052 6.52133 2.60423 6.44353 2.50789C6.18416 2.18924 5.91368 1.87801 5.6432 1.56677C5.58392 1.49637 5.56169 1.45561 5.63579 1.3741C5.89886 1.09991 6.15822 0.818318 6.41018 0.533018C6.48428 0.451503 6.55468 0.440388 6.65472 0.458914C7.06971 0.540428 7.48469 0.633058 7.90338 0.688637C8.15904 0.721983 8.41099 0.618238 8.66294 0.581186C8.90749 0.547839 9.14462 0.495966 9.38546 0.451503C9.48921 0.432977 9.57072 0.455209 9.65223 0.529313C10.0079 0.844255 10.3673 1.14808 10.7453 1.47414Z" fill="#D73C79"/>
<path d="M4.41682 5.73475C4.32049 5.08634 4.06483 4.5528 3.57575 4.13781C3.53499 4.10447 3.50905 4.06741 3.54981 4.01554C3.86104 3.60056 3.84622 3.09295 3.93885 2.57422C4.05742 2.72243 4.14264 2.85952 4.2575 2.97067C4.66507 3.37084 4.83922 3.8451 4.74659 4.412C4.73547 4.47128 4.74288 4.53427 4.74288 4.59726C4.73177 5.17527 4.73177 5.17527 4.41682 5.73475Z" fill="#D73C79"/>
<path d="M4.14258 2.15181C4.47975 2.00361 4.79469 1.87022 5.10593 1.72942C5.16521 1.70348 5.20597 1.69978 5.25043 1.75165C5.53203 2.08512 5.81362 2.41859 6.09892 2.74835C6.14339 2.80022 6.13968 2.82616 6.07299 2.8521C5.74322 2.98178 5.41346 3.11146 5.0837 3.24485C5.00218 3.27819 4.97254 3.21891 4.93549 3.17074C4.67613 2.84098 4.41676 2.50751 4.14258 2.15181Z" fill="#D73C79"/>
<path d="M4.18313 7.26904C4.39803 7.67291 4.60923 8.06196 4.8056 8.45471C4.89453 8.63256 4.84265 8.84005 4.86118 9.04013C4.54253 8.61403 4.22759 8.19164 3.90894 7.76554C3.86448 7.70626 3.88671 7.6692 3.92377 7.62104C4.00899 7.51359 4.0905 7.39872 4.18313 7.26904Z" fill="#D73C79"/>
<path d="M7.59587 6.9986C7.55511 7.2876 7.50695 7.5692 7.4773 7.8545C7.46248 7.98048 7.43284 8.05088 7.29204 8.02865C7.22535 8.01753 7.15866 8.02865 7.08826 8.02865C6.69551 8.02865 6.69921 8.02865 6.66216 7.6396C6.60658 7.09123 6.5473 6.53915 6.4806 5.99078C6.45837 5.82404 6.4806 5.75735 6.67698 5.76476C7.05491 5.78329 7.05121 5.77217 7.06973 6.1464C7.08826 6.45764 7.12161 6.76887 7.16977 7.08011C7.21053 6.717 7.2587 6.35759 7.28834 5.99448C7.30316 5.82775 7.34392 5.73512 7.53659 5.76846C7.66256 5.7907 7.82189 5.73512 7.91452 5.7944C8.01085 5.85369 7.94787 6.02412 7.95898 6.14269C7.99233 6.42799 8.01456 6.717 8.0405 7.01342C8.12942 6.83557 8.10719 6.6429 8.13683 6.45764C8.16647 6.26496 8.1887 6.06859 8.20723 5.87221C8.21464 5.79811 8.22946 5.76476 8.31468 5.76846C8.474 5.77587 8.63333 5.76846 8.80006 5.76846C8.71484 6.49469 8.62962 7.20979 8.55181 7.9212C8.5444 7.99901 8.52217 8.02865 8.44066 8.02494C8.26281 8.02124 8.08496 8.01753 7.90711 8.02494C7.81077 8.02865 7.78484 7.98789 7.77002 7.89897C7.73667 7.64331 7.69591 7.38764 7.65515 7.13569C7.64774 7.09493 7.65145 7.04306 7.59587 6.9986Z" fill="#0E0C0C"/>
<path d="M12.7239 6.90964C12.7239 7.2357 12.7202 7.56175 12.7276 7.88781C12.7313 7.99526 12.7128 8.03602 12.5905 8.03602C12.131 8.03602 12.131 8.04343 12.131 7.58399C12.131 7.4543 12.1273 7.32462 12.131 7.19494C12.1347 7.12454 12.1088 7.09861 12.0384 7.09861C11.9643 7.09861 11.9458 7.12825 11.9458 7.19494C11.9495 7.43578 11.9421 7.67291 11.9495 7.91375C11.9495 7.99897 11.931 8.02861 11.8383 8.03231C11.3641 8.05454 11.3641 8.05454 11.3641 7.57658C11.3641 7.0245 11.3678 6.46872 11.3604 5.91665C11.3604 5.8055 11.3863 5.77215 11.5012 5.77215C11.968 5.76844 11.968 5.76474 11.968 6.22048C11.968 6.30199 11.968 6.3798 11.968 6.46131C11.968 6.52801 11.9495 6.59841 12.0606 6.5947C12.1644 6.591 12.1422 6.5243 12.1422 6.46872C12.1422 6.28347 12.1459 6.09821 12.1422 5.91665C12.1384 5.81661 12.1607 5.77956 12.2718 5.77586C12.7239 5.76844 12.7239 5.76103 12.7239 6.21307C12.7239 6.43908 12.7239 6.67622 12.7239 6.90964Z" fill="#0E0C0C"/>
<path d="M8.8965 6.88686C8.8965 6.56821 8.90391 6.24585 8.89279 5.9272C8.88908 5.79381 8.93355 5.76417 9.05952 5.76788C9.28554 5.77899 9.51526 5.77899 9.74127 5.76788C9.85613 5.76417 9.90059 5.79752 9.88206 5.90867C9.87836 5.93832 9.87836 5.97166 9.88206 6.00131C9.91541 6.17545 9.85242 6.25326 9.67087 6.21621C9.48932 6.17916 9.49302 6.29772 9.50043 6.42C9.50785 6.53486 9.45597 6.67936 9.67087 6.64972C9.73386 6.64231 9.84131 6.60155 9.85983 6.69418C9.88206 6.80534 9.87836 6.93132 9.84872 7.03877C9.83019 7.10176 9.72645 7.07212 9.66346 7.06471C9.53749 7.05359 9.4782 7.09435 9.50043 7.22403C9.50414 7.24256 9.50043 7.26108 9.50043 7.27961C9.50043 7.54639 9.50043 7.5538 9.7672 7.54639C9.88947 7.54268 9.92282 7.57603 9.92282 7.6983C9.91912 8.00213 9.92282 8.00213 9.61159 8.00213C9.42263 8.00213 9.22996 7.99472 9.041 8.00583C8.92243 8.01324 8.8965 7.96878 8.8965 7.85762C8.9002 7.53897 8.8965 7.21292 8.8965 6.88686Z" fill="#0E0C0C"/>
<path d="M10.3116 7.13129C10.3116 6.87934 10.3079 6.62738 10.3153 6.37543C10.319 6.26057 10.2931 6.20499 10.1634 6.21611C10.0967 6.22352 9.98557 6.26057 9.96705 6.18276C9.94111 6.06049 9.95593 5.9271 9.96705 5.79742C9.97075 5.76037 10.03 5.77519 10.0671 5.77519C10.4228 5.77519 10.7822 5.77889 11.1379 5.77148C11.2268 5.77148 11.2602 5.79742 11.249 5.88635C11.2416 5.93451 11.2416 5.98639 11.249 6.03455C11.275 6.18647 11.2194 6.25316 11.0638 6.21981C10.9304 6.19388 10.9045 6.25686 10.9045 6.38284C10.9119 6.88304 10.9045 7.37954 10.9082 7.87974C10.9082 7.9946 10.8822 8.03536 10.76 8.03536C10.3079 8.03536 10.3079 8.03906 10.3079 7.59444C10.3116 7.43882 10.3116 7.2832 10.3116 7.13129Z" fill="#0E0C0C"/>
<path d="M8.00352 2.90381C8.11097 2.91492 8.2036 2.94827 8.22213 3.06684C8.24065 3.20022 8.17025 3.27062 8.04428 3.29656C7.58483 3.4003 7.16244 3.58927 6.78821 3.87457C6.64741 3.98202 6.50661 4.09317 6.38805 4.23026C6.29542 4.34142 6.19167 4.38959 6.07681 4.28214C5.95824 4.17469 6.00641 4.05983 6.09904 3.95979C6.55108 3.4707 7.10315 3.14094 7.74415 2.96309C7.82567 2.94086 7.9183 2.92604 8.00352 2.90381Z" fill="#0E0C0C"/>
</svg>
