<svg width="28" height="20" viewBox="0 0 28 20" fill="none" xmlns="http://www.w3.org/2000/svg">
<path fill-rule="evenodd" clip-rule="evenodd" d="M17.9678 0.894344H17.986L17.9841 0.888672L17.9678 0.894344ZM17.9057 0.9161L17.9678 0.894344H17.9281L17.9057 0.9161ZM17.895 0.926521L17.9057 0.9161L17.876 0.926483L17.895 0.926521ZM17.895 0.926521L17.5386 1.27246C21.536 2.40679 23.4702 4.17825 23.4702 4.17825C20.8939 2.91536 18.5722 2.28391 16.2504 2.02868C14.5727 1.77346 12.895 1.90769 11.4777 2.02868H11.092C10.1857 2.02868 8.25729 2.40679 5.67328 3.41825C4.77272 3.80203 4.25592 4.05348 4.25592 4.05348C4.25592 4.05348 6.18816 2.15913 10.446 1.14768L10.1857 0.892454C10.1857 0.892454 6.96144 0.771458 3.48071 3.29347C3.48071 3.29347 0 9.2374 0 16.5652C0 16.5652 1.92838 19.8548 7.2179 19.9795C7.2179 19.9795 7.98926 18.9718 8.77025 18.0852C5.80056 17.2004 4.64352 15.4309 4.64352 15.4309C4.64352 15.4309 4.90193 15.5557 5.28953 15.809H5.40523C5.45967 15.809 5.48679 15.8341 5.5155 15.8607C5.51731 15.8624 5.51911 15.864 5.52093 15.8657V15.8771C5.55179 15.9073 5.57878 15.9338 5.63663 15.9338C5.69271 15.9564 5.74877 15.9791 5.80477 16.0016C6.38425 16.2355 6.95525 16.4658 7.43003 16.69C8.32865 17.0719 9.48374 17.4519 10.9011 17.7033C12.6945 17.9586 14.7501 18.0814 17.0912 17.7033L17.166 17.6868C18.2982 17.4373 19.4301 17.1876 20.5623 16.6919C20.7692 16.5878 20.9893 16.4839 21.2207 16.3744C21.8305 16.0861 22.5196 15.7604 23.2562 15.2985C23.2562 15.2985 22.0992 17.0682 19.0041 17.953C19.6404 18.8339 20.5372 19.8434 20.5372 19.8434C24.873 19.7506 27.0362 17.525 27.7399 16.8012C27.895 16.6416 27.9792 16.5551 28 16.5803C28 9.26386 24.5 3.30859 24.5 3.30859C21.3833 1.03984 18.4646 0.928775 17.895 0.926521ZM9.54934 9.23735C10.8992 9.23735 11.9907 10.3717 11.9907 11.7613C11.9907 13.1603 10.8915 14.2946 9.54162 14.2946C8.19176 14.2946 7.09259 13.1603 7.09259 11.7726C7.09259 10.3736 8.19176 9.24303 9.54162 9.24303L9.54934 9.23735ZM18.31 9.23735C19.6656 9.23735 20.759 10.3717 20.759 11.7613C20.759 13.1603 19.6597 14.2946 18.31 14.2946C16.9601 14.2946 15.8609 13.1603 15.8609 11.7726C15.8648 10.3736 16.9658 9.24303 18.31 9.24303V9.23735Z" fill="white"/>
</svg>
