<svg width="30" height="30" viewBox="0 0 30 30" fill="none" xmlns="http://www.w3.org/2000/svg">
<path d="M14.9987 14.826L27.1947 8.17362C26.8069 6.89743 26.0201 5.77917 24.9499 4.98301C23.8798 4.18684 22.5826 3.75469 21.2487 3.75H8.74873C7.4149 3.75469 6.1177 4.18684 5.04753 4.98301C3.97737 5.77917 3.19061 6.89743 2.80273 8.17362L14.9987 14.826Z" fill="white"/>
<path d="M15.5988 17.3471C15.4151 17.4472 15.2092 17.4997 15 17.4997C14.7908 17.4997 14.5849 17.4472 14.4013 17.3471L2.5 10.8555V19.9997C2.50195 21.6567 3.16106 23.2453 4.33274 24.417C5.50442 25.5887 7.093 26.2478 8.75 26.2497H21.25C22.907 26.2478 24.4956 25.5887 25.6673 24.417C26.8389 23.2453 27.4981 21.6567 27.5 19.9997V10.8555L15.5988 17.3471Z" fill="white"/>
</svg>
