<svg width="28" height="20" viewBox="0 0 28 20" fill="none" xmlns="http://www.w3.org/2000/svg">
<path d="M27.4154 3.54835C27.2532 2.99367 26.9436 2.4883 26.5168 2.08109C26.0898 1.67388 25.56 1.3786 24.9785 1.22379C22.796 0.666032 14.0125 0.666031 14.0125 0.666031C14.0125 0.666031 5.25104 0.654899 3.04638 1.22379C2.46489 1.3786 1.9351 1.67388 1.5082 2.08109C1.08131 2.4883 0.771764 2.99367 0.609479 3.54835C0.195765 5.67977 -0.00819708 7.84341 0.000252085 10.011C-0.0065998 12.1705 0.197356 14.3259 0.609479 16.4493C0.771764 17.0039 1.08131 17.5093 1.5082 17.9165C1.9351 18.3237 2.46489 18.619 3.04638 18.7738C5.22653 19.3327 14.0125 19.3327 14.0125 19.3327C14.0125 19.3327 22.7727 19.3327 24.9785 18.7738C25.56 18.619 26.0898 18.3237 26.5168 17.9165C26.9436 17.5093 27.2532 17.0039 27.4154 16.4493C27.8189 14.3251 28.0143 12.1697 27.9991 10.011C28.0159 7.84419 27.8205 5.68055 27.4154 3.54835ZM11.2091 14.0089V6.00095L18.5198 10.011L11.2091 14.0089Z" fill="white"/>
</svg>
