<svg width="48" height="49" viewBox="0 0 48 49" fill="none" xmlns="http://www.w3.org/2000/svg">
<rect y="0.474854" width="48" height="48" rx="24" fill="url(#paint0_linear)"/>
<path fill-rule="evenodd" clip-rule="evenodd" d="M17.2929 17.7677C17.6834 17.3772 18.3166 17.3772 18.7071 17.7677L24 23.0606L29.2929 17.7677C29.6834 17.3772 30.3166 17.3772 30.7071 17.7677C31.0976 18.1583 31.0976 18.7914 30.7071 19.182L25.4142 24.4749L30.7071 29.7677C31.0976 30.1583 31.0976 30.7914 30.7071 31.182C30.3166 31.5725 29.6834 31.5725 29.2929 31.182L24 25.8891L18.7071 31.182C18.3166 31.5725 17.6834 31.5725 17.2929 31.182C16.9024 30.7914 16.9024 30.1583 17.2929 29.7677L22.5858 24.4749L17.2929 19.182C16.9024 18.7914 16.9024 18.1583 17.2929 17.7677Z" fill="white"/>
<defs>
<linearGradient id="paint0_linear" x1="0" y1="24.4749" x2="48" y2="24.4749" gradientUnits="userSpaceOnUse">
<stop stop-color="#6F45FF"/>
<stop offset="1" stop-color="#FF6365"/>
</linearGradient>
</defs>
</svg>
