<svg width="32" height="33" viewBox="0 0 32 33" fill="none" xmlns="http://www.w3.org/2000/svg">
<rect y="0.475098" width="32" height="32" rx="16" fill="#FCFCFD"/>
<path fill-rule="evenodd" clip-rule="evenodd" d="M21.3337 19.8084H10.667C10.2988 19.8084 10.0003 20.1069 10.0003 20.4751C10.0003 20.8433 10.2988 21.1418 10.667 21.1418H21.3337C21.7018 21.1418 22.0003 20.8433 22.0003 20.4751C22.0003 20.1069 21.7018 19.8084 21.3337 19.8084ZM10.667 18.4751C9.56242 18.4751 8.66699 19.3705 8.66699 20.4751C8.66699 21.5797 9.56242 22.4751 10.667 22.4751H21.3337C22.4382 22.4751 23.3337 21.5797 23.3337 20.4751C23.3337 19.3705 22.4382 18.4751 21.3337 18.4751H10.667Z" fill="#141416"/>
<path d="M16.6663 11.1418C16.6663 10.7736 16.3679 10.4751 15.9997 10.4751C15.6315 10.4751 15.333 10.7736 15.333 11.1418V14.8656L14.4711 14.0037C14.2107 13.7433 13.7886 13.7433 13.5283 14.0037C13.2679 14.264 13.2679 14.6862 13.5283 14.9465L15.5283 16.9465C15.7886 17.2069 16.2107 17.2069 16.4711 16.9465L18.4711 14.9465C18.7314 14.6862 18.7314 14.264 18.4711 14.0037C18.2107 13.7433 17.7886 13.7433 17.5283 14.0037L16.6663 14.8656V11.1418Z" fill="#141416"/>
</svg>
