<svg width="32" height="33" viewBox="0 0 32 33" fill="none" xmlns="http://www.w3.org/2000/svg">
<rect y="0.475098" width="32" height="32" rx="16" fill="#FCFCFD"/>
<g clip-path="url(#clip0)">
<path d="M10.667 9.14176C10.667 8.77357 10.9655 8.4751 11.3337 8.4751C11.7018 8.4751 12.0003 8.77357 12.0003 9.14176V23.8084C12.0003 24.1766 11.7018 24.4751 11.3337 24.4751C10.9655 24.4751 10.667 24.1766 10.667 23.8084V9.14176Z" fill="#141416"/>
<path fill-rule="evenodd" clip-rule="evenodd" d="M15.4475 17.8086H10.667V9.80859H14.667C15.5378 9.80859 16.2786 10.3651 16.5532 11.1419H19.8429C20.8341 11.1419 21.4788 12.185 21.0355 13.0715L20.0003 15.1419L21.0355 17.2123C21.4788 18.0988 20.8341 19.1419 19.8429 19.1419H17.3337C16.4628 19.1419 15.722 18.5854 15.4475 17.8086ZM12.0003 11.1419H14.667C15.0352 11.1419 15.3337 11.4404 15.3337 11.8086V16.4753H12.0003V11.1419ZM16.667 17.1419C16.667 17.5101 16.9655 17.8086 17.3337 17.8086H19.8429L18.5096 15.1419L19.8429 12.4753H16.667V17.1419Z" fill="#141416"/>
</g>
<defs>
<clipPath id="clip0">
<rect width="16" height="16" fill="white" transform="translate(8 8.4751)"/>
</clipPath>
</defs>
</svg>
