<svg width="24" height="25" viewBox="0 0 24 25" fill="none" xmlns="http://www.w3.org/2000/svg">
<path fill-rule="evenodd" clip-rule="evenodd" d="M3 5.4751C3 3.26596 4.79086 1.4751 7 1.4751H15.3431C16.404 1.4751 17.4214 1.89653 18.1716 2.64667L19.8284 4.30353C20.5786 5.05367 21 6.07109 21 7.13195V19.4751C21 21.6842 19.2091 23.4751 17 23.4751H7C4.79086 23.4751 3 21.6842 3 19.4751V5.4751ZM19 8.4751V19.4751C19 20.5797 18.1046 21.4751 17 21.4751H7C5.89543 21.4751 5 20.5797 5 19.4751V5.4751C5 4.37053 5.89543 3.4751 7 3.4751H14V5.4751C14 7.13195 15.3431 8.4751 17 8.4751H19ZM18.8891 6.4751C18.7909 6.19269 18.6296 5.93317 18.4142 5.71774L16.7574 4.06088C16.5419 3.84545 16.2824 3.68424 16 3.58604V5.4751C16 6.02738 16.4477 6.4751 17 6.4751H18.8891Z" fill="url(#paint0_linear)"/>
<path d="M11.6172 9.55098C11.4993 9.59978 11.3888 9.67211 11.2929 9.76799L8.29289 12.768C7.90237 13.1585 7.90237 13.7917 8.29289 14.1822C8.68342 14.5727 9.31658 14.5727 9.70711 14.1822L11 12.8893V17.4751C11 18.0274 11.4477 18.4751 12 18.4751C12.5523 18.4751 13 18.0274 13 17.4751V12.8893L14.2929 14.1822C14.6834 14.5727 15.3166 14.5727 15.7071 14.1822C16.0976 13.7917 16.0976 13.1585 15.7071 12.768L12.7071 9.76799C12.4125 9.47334 11.9797 9.401 11.6172 9.55098Z" fill="url(#paint1_linear)"/>
<defs>
<linearGradient id="paint0_linear" x1="3" y1="12.4751" x2="21" y2="12.4751" gradientUnits="userSpaceOnUse">
<stop stop-color="#6F45FF"/>
<stop offset="1" stop-color="#FF6365"/>
</linearGradient>
<linearGradient id="paint1_linear" x1="8" y1="13.9751" x2="16" y2="13.9751" gradientUnits="userSpaceOnUse">
<stop stop-color="#6F45FF"/>
<stop offset="1" stop-color="#FF6365"/>
</linearGradient>
</defs>
</svg>
