<svg width="32" height="33" viewBox="0 0 32 33" fill="none" xmlns="http://www.w3.org/2000/svg">
<rect y="0.475098" width="32" height="32" rx="16" fill="#FCFCFD"/>
<path d="M10.8444 18.4302C10.8422 18.4992 10.8454 18.5694 10.8542 18.6403L11.1397 20.9241C11.2505 21.8101 12.0036 22.4749 12.8965 22.4749C13.8743 22.4749 14.6669 21.6823 14.6669 20.7045V18.6634C14.2308 18.5574 13.7842 18.4955 13.3336 18.4793V20.7045C13.3336 20.9459 13.1379 21.1416 12.8965 21.1416C12.676 21.1416 12.4901 20.9775 12.4628 20.7587L12.1773 18.4749C13.8286 18.4749 12.1644 18.4749 11.3335 18.4749C11.1664 18.4749 11.003 18.4596 10.8444 18.4302Z" fill="#141416"/>
<path fill-rule="evenodd" clip-rule="evenodd" d="M13.0932 14.4748H11.3337C10.5973 14.4748 10.0003 15.0718 10.0003 15.8082C10.0003 16.5446 10.5973 17.1415 11.3337 17.1415H13.0932C14.3352 17.1415 15.5601 17.4307 16.6709 17.9861L20.3688 19.8351C20.8121 20.0567 21.3337 19.7344 21.3337 19.2388V12.3776C21.3337 11.882 20.8121 11.5597 20.3689 11.7813L16.6709 13.6303C15.5601 14.1857 14.3352 14.4748 13.0932 14.4748ZM11.3337 13.1415C9.8609 13.1415 8.66699 14.3354 8.66699 15.8082C8.66699 17.2809 9.8609 18.4748 11.3337 18.4748H13.0932C14.1282 18.4748 15.1489 18.7158 16.0746 19.1787L19.7726 21.0276C21.1024 21.6925 22.667 20.7255 22.667 19.2388V12.3776C22.667 10.8908 21.1024 9.92382 19.7726 10.5887L16.0746 12.4377C15.1489 12.9005 14.1282 13.1415 13.0932 13.1415H11.3337Z" fill="#141416"/>
<path d="M15.3333 18.8627C14.9012 18.7085 14.4544 18.5994 14 18.537V13.0797C14.4544 13.0172 14.9012 12.9081 15.3333 12.7539V18.8627Z" fill="#FCFCFD"/>
<path d="M22.667 17.0851C23.0554 16.9478 23.3337 16.5774 23.3337 16.142V15.4753C23.3337 15.0399 23.0554 14.6695 22.667 14.5322V17.0851Z" fill="#FCFCFD"/>
</svg>
