<svg width="32" height="33" viewBox="0 0 32 33" fill="none" xmlns="http://www.w3.org/2000/svg">
<rect y="0.475098" width="32" height="32" rx="16" fill="#FCFCFD"/>
<path fill-rule="evenodd" clip-rule="evenodd" d="M19.9322 15.3655L13.4063 11.0149C12.5202 10.4242 11.3333 11.0593 11.3333 12.1243V20.8255C11.3333 21.8904 12.5202 22.5256 13.4063 21.9349L19.9322 17.5843C20.7238 17.0565 20.7238 15.8933 19.9322 15.3655ZM14.1459 9.90547C12.3737 8.72404 10 9.99442 10 12.1243V20.8255C10 22.9554 12.3737 24.2257 14.1459 23.0443L20.6718 18.6937C22.2551 17.6382 22.2551 15.3116 20.6718 14.2561L14.1459 9.90547Z" fill="url(#paint0_linear)"/>
<defs>
<linearGradient id="paint0_linear" x1="10" y1="16.4749" x2="21.8593" y2="16.4749" gradientUnits="userSpaceOnUse">
<stop stop-color="#190F31"/>
<stop offset="1"/>
</linearGradient>
</defs>
</svg>
