<svg width="26" height="27" viewBox="0 0 26 27" fill="none" xmlns="http://www.w3.org/2000/svg">
<path d="M4.10769 21.4956L4.6077 20.6296L4.1077 21.4956L10.5 25.1862C12.047 26.0793 13.953 26.0793 15.5 25.1862L21.8923 21.4956C23.4393 20.6024 24.3923 18.9518 24.3923 17.1655V9.78426C24.3923 7.99793 23.4393 6.34729 21.8923 5.45413L15.5 1.76353C13.953 0.870365 12.047 0.870365 10.5 1.76353L4.1077 5.45413C2.56069 6.34729 1.6077 7.99793 1.6077 9.78425V17.1655C1.6077 18.9518 2.56069 20.6024 4.10769 21.4956Z" fill="url(#paint0_linear)" stroke="#23262F" stroke-width="2"/>
<path d="M12.1029 9.03823C12.2075 8.85526 12.0527 8.63296 11.8448 8.6676L10.8731 8.82955C10.7245 8.85431 10.6314 9.00377 10.6747 9.14799L10.9774 10.1569C11.0405 10.3673 11.3249 10.3998 11.4339 10.2091L12.1029 9.03823Z" fill="url(#paint1_linear)"/>
<path d="M9.81615 9.77061C9.76041 9.58482 9.52439 9.53135 9.3978 9.67832C9.00524 10.1341 8.63448 10.6129 8.25053 11.0736C8.22917 11.0993 8.20878 11.1255 8.18938 11.1521C8.08526 11.2953 8.20355 11.4749 8.38056 11.4749H9.99141C10.1589 11.4749 10.279 11.3134 10.2309 11.153L9.81615 9.77061Z" fill="url(#paint2_linear)"/>
<path d="M8.30721 12.4748C8.13905 12.4748 8.01965 12.6387 8.10385 12.7843C8.13087 12.831 8.16063 12.8766 8.19312 12.9209L11.7897 17.8254C11.8499 17.9074 11.9163 17.9812 11.9876 18.0467C12.143 18.1893 12.3376 18.025 12.2755 17.8235L10.6816 12.6512C10.6493 12.5463 10.5524 12.4748 10.4427 12.4748H8.30721Z" fill="url(#paint3_linear)"/>
<path d="M13.7228 17.8236C13.6607 18.0251 13.8553 18.1895 14.0106 18.0469C14.0821 17.9813 14.1485 17.9075 14.2087 17.8254L17.8053 12.9209C17.8378 12.8766 17.8676 12.831 17.8946 12.7843C17.9788 12.6387 17.8594 12.4748 17.6912 12.4748H15.5557C15.4459 12.4748 15.349 12.5463 15.3167 12.6512L13.7228 17.8236Z" fill="url(#paint4_linear)"/>
<path d="M17.6189 11.4748C17.7959 11.4748 17.9142 11.2953 17.8101 11.1521C17.7907 11.1254 17.7703 11.0993 17.7489 11.0736C17.365 10.6129 16.9942 10.134 16.6016 9.67822C16.475 9.53126 16.239 9.58473 16.1833 9.77052L15.7685 11.153C15.7204 11.3134 15.8405 11.4748 16.008 11.4748H17.6189Z" fill="url(#paint5_linear)"/>
<path d="M15.1287 8.82951C15.2772 8.85426 15.3703 9.00372 15.3271 9.14794L15.0244 10.1569C14.9613 10.3673 14.6769 10.3999 14.5679 10.2091L13.8988 9.03818C13.7942 8.8552 13.9491 8.6329 14.1569 8.66754L15.1287 8.82951Z" fill="url(#paint6_linear)"/>
<path d="M13.0009 9.48264L13.9256 11.1008C14.0209 11.2675 13.9005 11.4749 13.7086 11.4749H12.2933C12.1014 11.4749 11.981 11.2675 12.0763 11.1008L13.0009 9.48264Z" fill="url(#paint7_linear)"/>
<path d="M13.2393 15.998C13.1669 16.2334 12.8338 16.2334 12.7614 15.998L11.7769 12.7983C11.7274 12.6376 11.8476 12.4748 12.0158 12.4748H13.9849C14.1531 12.4748 14.2733 12.6376 14.2238 12.7983L13.2393 15.998Z" fill="url(#paint8_linear)"/>
<defs>
<linearGradient id="paint0_linear" x1="1" y1="13.4749" x2="25" y2="13.4749" gradientUnits="userSpaceOnUse">
<stop stop-color="#6F45FF"/>
<stop offset="1" stop-color="#FF6365"/>
</linearGradient>
<linearGradient id="paint1_linear" x1="10.6641" y1="9.49954" x2="12.1365" y2="9.49954" gradientUnits="userSpaceOnUse">
<stop stop-color="#190F31"/>
<stop offset="1"/>
</linearGradient>
<linearGradient id="paint2_linear" x1="8.15039" y1="10.5343" x2="10.2416" y2="10.5343" gradientUnits="userSpaceOnUse">
<stop stop-color="#190F31"/>
<stop offset="1"/>
</linearGradient>
<linearGradient id="paint3_linear" x1="8.07617" y1="15.2876" x2="12.2874" y2="15.2876" gradientUnits="userSpaceOnUse">
<stop stop-color="#190F31"/>
<stop offset="1"/>
</linearGradient>
<linearGradient id="paint4_linear" x1="13.7109" y1="15.2877" x2="17.9223" y2="15.2877" gradientUnits="userSpaceOnUse">
<stop stop-color="#190F31"/>
<stop offset="1"/>
</linearGradient>
<linearGradient id="paint5_linear" x1="15.7578" y1="10.5343" x2="17.8491" y2="10.5343" gradientUnits="userSpaceOnUse">
<stop stop-color="#190F31"/>
<stop offset="1"/>
</linearGradient>
<linearGradient id="paint6_linear" x1="13.8652" y1="9.49953" x2="15.3377" y2="9.49953" gradientUnits="userSpaceOnUse">
<stop stop-color="#190F31"/>
<stop offset="1"/>
</linearGradient>
<linearGradient id="paint7_linear" x1="12.043" y1="10.4787" x2="13.9589" y2="10.4787" gradientUnits="userSpaceOnUse">
<stop stop-color="#190F31"/>
<stop offset="1"/>
</linearGradient>
<linearGradient id="paint8_linear" x1="11.7656" y1="14.3247" x2="14.235" y2="14.3247" gradientUnits="userSpaceOnUse">
<stop stop-color="#190F31"/>
<stop offset="1"/>
</linearGradient>
</defs>
</svg>
