<svg width="32" height="33" viewBox="0 0 32 33" fill="none" xmlns="http://www.w3.org/2000/svg">
<rect y="0.475098" width="32" height="32" rx="16" fill="#FCFCFD"/>
<path fill-rule="evenodd" clip-rule="evenodd" d="M20.667 11.8084H11.3337C10.5973 11.8084 10.0003 12.4054 10.0003 13.1418V19.8084C10.0003 20.5448 10.5973 21.1418 11.3337 21.1418H20.667C21.4034 21.1418 22.0003 20.5448 22.0003 19.8084V13.1418C22.0003 12.4054 21.4034 11.8084 20.667 11.8084ZM11.3337 10.4751C9.8609 10.4751 8.66699 11.669 8.66699 13.1418V19.8084C8.66699 21.2812 9.8609 22.4751 11.3337 22.4751H20.667C22.1398 22.4751 23.3337 21.2812 23.3337 19.8084V13.1418C23.3337 11.669 22.1398 10.4751 20.667 10.4751H11.3337Z" fill="#141416"/>
<path fill-rule="evenodd" clip-rule="evenodd" d="M16.667 16.4749C16.667 14.634 18.1594 13.1416 20.0003 13.1416H22.667C23.0352 13.1416 23.3337 13.4401 23.3337 13.8083C23.3337 14.1765 23.0352 14.4749 22.667 14.4749H20.0003C18.8958 14.4749 18.0003 15.3704 18.0003 16.4749C18.0003 17.5795 18.8958 18.4749 20.0003 18.4749H22.667C23.0352 18.4749 23.3337 18.7734 23.3337 19.1416C23.3337 19.5098 23.0352 19.8083 22.667 19.8083H20.0003C18.1594 19.8083 16.667 18.3159 16.667 16.4749Z" fill="#141416"/>
<path d="M20.6663 16.4753C20.6663 16.8435 20.3679 17.1419 19.9997 17.1419C19.6315 17.1419 19.333 16.8435 19.333 16.4753C19.333 16.1071 19.6315 15.8086 19.9997 15.8086C20.3679 15.8086 20.6663 16.1071 20.6663 16.4753Z" fill="#777E91"/>
</svg>
