<svg width="24" height="24" viewBox="0 0 24 24" fill="none" xmlns="http://www.w3.org/2000/svg">
<path d="M10 14.0004C10.3259 14.333 10.7148 14.5972 11.1441 14.7776C11.5734 14.958 12.0344 15.0509 12.5 15.0509C12.9656 15.0509 13.4266 14.958 13.8559 14.7776C14.2852 14.5972 14.6741 14.333 15 14.0004L19 10.0004C19.663 9.33734 20.0355 8.43806 20.0355 7.50038C20.0355 6.5627 19.663 5.66342 19 5.00038C18.337 4.33734 17.4377 3.96484 16.5 3.96484C15.5623 3.96484 14.663 4.33734 14 5.00038L13.5 5.50038" stroke="#9C99AE" stroke-width="2" stroke-linecap="round" stroke-linejoin="round"/>
<path d="M14 9.99973C13.6741 9.66713 13.2852 9.4029 12.8559 9.22252C12.4266 9.04213 11.9656 8.94922 11.5 8.94922C11.0344 8.94922 10.5734 9.04213 10.1441 9.22252C9.71486 9.4029 9.32589 9.66713 9.00001 9.99973L5.00001 13.9997C4.33697 14.6628 3.96448 15.562 3.96448 16.4997C3.96448 17.4374 4.33697 18.3367 5.00001 18.9997C5.66305 19.6628 6.56233 20.0353 7.50001 20.0353C8.43769 20.0353 9.33697 19.6628 10 18.9997L10.5 18.4997" stroke="#9C99AE" stroke-width="2" stroke-linecap="round" stroke-linejoin="round"/>
</svg>
