<svg width="36" height="36" viewBox="0 0 36 36" fill="none" xmlns="http://www.w3.org/2000/svg">
<circle cx="18" cy="18" r="17" stroke="#018DF0" stroke-width="2"/>
<path d="M24.9419 12.2562C23.6473 11.6694 22.263 11.2429 20.8157 11C20.638 11.3113 20.4304 11.7301 20.2872 12.0632C18.7488 11.8391 17.2245 11.8391 15.7143 12.0632C15.5712 11.7301 15.3588 11.3113 15.1795 11C13.7307 11.2429 12.3448 11.6709 11.0502 12.2594C8.43887 16.0825 7.73099 19.8107 8.08493 23.486C9.81688 24.7391 11.4953 25.5003 13.1455 25.9985C13.5529 25.4552 13.9163 24.8777 14.2293 24.269C13.6331 24.0495 13.0621 23.7787 12.5226 23.4642C12.6657 23.3615 12.8057 23.254 12.941 23.1435C16.2318 24.6348 19.8074 24.6348 23.0589 23.1435C23.1958 23.254 23.3358 23.3615 23.4774 23.4642C22.9362 23.7802 22.3637 24.0511 21.7675 24.2706C22.0805 24.8777 22.4423 25.4567 22.8513 26C24.503 25.5019 26.1831 24.7407 27.915 23.486C28.3303 19.2254 27.2056 15.5315 24.9419 12.2562ZM14.6776 21.2257C13.6898 21.2257 12.8796 20.3322 12.8796 19.2441C12.8796 18.156 13.6725 17.2609 14.6776 17.2609C15.6829 17.2609 16.493 18.1544 16.4757 19.2441C16.4772 20.3322 15.6829 21.2257 14.6776 21.2257ZM21.3223 21.2257C20.3344 21.2257 19.5243 20.3322 19.5243 19.2441C19.5243 18.156 20.3171 17.2609 21.3223 17.2609C22.3275 17.2609 23.1376 18.1544 23.1203 19.2441C23.1203 20.3322 22.3275 21.2257 21.3223 21.2257Z" fill="#018DF0"/>
</svg>
