<svg width="24" height="24" viewBox="0 0 24 24" fill="none" xmlns="http://www.w3.org/2000/svg">
<circle cx="12" cy="12" r="12" fill="white" fill-opacity="0.1"/>
<path d="M11.9992 7.40015C9.34722 7.40015 7.19922 9.51215 7.19922 12.1169C7.19922 14.2013 8.57442 15.9689 10.4812 16.5921C10.7212 16.6365 10.8092 16.4905 10.8092 16.3653C10.8092 16.2533 10.8052 15.9565 10.8032 15.5633C9.46802 15.8477 9.18642 14.9305 9.18642 14.9305C8.96802 14.3861 8.65242 14.2405 8.65242 14.2405C8.21762 13.9481 8.68602 13.9541 8.68602 13.9541C9.16802 13.9869 9.42122 14.4401 9.42122 14.4401C9.84922 15.1613 10.5448 14.9529 10.8192 14.8325C10.8624 14.5273 10.986 14.3197 11.1232 14.2017C10.0572 14.0837 8.93682 13.6781 8.93682 11.8709C8.93682 11.3561 9.12282 10.9353 9.43082 10.6053C9.37682 10.4861 9.21482 10.0065 9.47282 9.35695C9.47282 9.35695 9.87482 9.23055 10.7928 9.84055C11.1768 9.73575 11.5848 9.68375 11.9928 9.68135C12.4008 9.68375 12.8088 9.73575 13.1928 9.84055C14.1048 9.23055 14.5068 9.35695 14.5068 9.35695C14.7648 10.0065 14.6028 10.4861 14.5548 10.6053C14.8608 10.9353 15.0468 11.3561 15.0468 11.8709C15.0468 13.6829 13.9248 14.0817 12.8568 14.1977C13.0248 14.3393 13.1808 14.6285 13.1808 15.0705C13.1808 15.7017 13.1748 16.2089 13.1748 16.3621C13.1748 16.4857 13.2588 16.6333 13.5048 16.5861C15.4252 15.9669 16.7992 14.1981 16.7992 12.1169C16.7992 9.51215 14.65 7.40015 11.9992 7.40015Z" fill="white"/>
</svg>
