<svg width="28" height="28" viewBox="0 0 28 28" fill="none" xmlns="http://www.w3.org/2000/svg">
<rect width="28" height="28" rx="14" fill="white" fill-opacity="0.16"/>
<path fill-rule="evenodd" clip-rule="evenodd" d="M14.0002 12.1673C12.9876 12.1673 12.1668 12.9881 12.1668 14.0007C12.1668 15.0132 12.9876 15.834 14.0002 15.834C15.0127 15.834 15.8335 15.0132 15.8335 14.0007C15.8335 12.9881 15.0127 12.1673 14.0002 12.1673ZM10.8335 14.0007C10.8335 12.2517 12.2513 10.834 14.0002 10.834C15.7491 10.834 17.1668 12.2517 17.1668 14.0007C17.1668 15.7496 15.7491 17.1673 14.0002 17.1673C12.2513 17.1673 10.8335 15.7496 10.8335 14.0007Z" fill="white"/>
<path fill-rule="evenodd" clip-rule="evenodd" d="M11.2502 8.91732C9.9615 8.91732 8.91683 9.96199 8.91683 11.2507V16.7507C8.91683 18.0393 9.9615 19.084 11.2502 19.084H16.7502C18.0388 19.084 19.0835 18.0393 19.0835 16.7507V11.2507C19.0835 9.96199 18.0388 8.91732 16.7502 8.91732H11.2502ZM7.5835 11.2507C7.5835 9.22561 9.22512 7.58398 11.2502 7.58398H16.7502C18.7752 7.58398 20.4168 9.22561 20.4168 11.2507V16.7507C20.4168 18.7757 18.7752 20.4173 16.7502 20.4173H11.2502C9.22512 20.4173 7.5835 18.7757 7.5835 16.7507V11.2507Z" fill="white"/>
<path d="M17.25 11.5C17.6642 11.5 18 11.1642 18 10.75C18 10.3358 17.6642 10 17.25 10C16.8358 10 16.5 10.3358 16.5 10.75C16.5 11.1642 16.8358 11.5 17.25 11.5Z" fill="white"/>
</svg>
