<svg width="16" height="16" viewBox="0 0 16 16" fill="none" xmlns="http://www.w3.org/2000/svg">
    <path fill-rule="evenodd" clip-rule="evenodd" d="M8.00016 6.16732C6.98764 6.16732 6.16683 6.98813 6.16683 8.00065C6.16683 9.01317 6.98764 9.83398 8.00016 9.83398C9.01268 9.83398 9.8335 9.01317 9.8335 8.00065C9.8335 6.98813 9.01268 6.16732 8.00016 6.16732ZM4.8335 8.00065C4.8335 6.25175 6.25126 4.83398 8.00016 4.83398C9.74906 4.83398 11.1668 6.25175 11.1668 8.00065C11.1668 9.74955 9.74906 11.1673 8.00016 11.1673C6.25126 11.1673 4.8335 9.74955 4.8335 8.00065Z" fill="#080134"/>
    <path fill-rule="evenodd" clip-rule="evenodd" d="M5.25016 2.91732C3.9615 2.91732 2.91683 3.96199 2.91683 5.25065V10.7507C2.91683 12.0393 3.9615 13.084 5.25016 13.084H10.7502C12.0388 13.084 13.0835 12.0393 13.0835 10.7507V5.25065C13.0835 3.96199 12.0388 2.91732 10.7502 2.91732H5.25016ZM1.5835 5.25065C1.5835 3.22561 3.22512 1.58398 5.25016 1.58398H10.7502C12.7752 1.58398 14.4168 3.22561 14.4168 5.25065V10.7507C14.4168 12.7757 12.7752 14.4173 10.7502 14.4173H5.25016C3.22512 14.4173 1.5835 12.7757 1.5835 10.7507V5.25065Z" fill="#080134"/>
    <path d="M11.25 5.5C11.6642 5.5 12 5.16421 12 4.75C12 4.33579 11.6642 4 11.25 4C10.8358 4 10.5 4.33579 10.5 4.75C10.5 5.16421 10.8358 5.5 11.25 5.5Z" fill="#080134"/>
    </svg>
    