<svg width="36" height="36" viewBox="0 0 36 36" fill="none" xmlns="http://www.w3.org/2000/svg">
<circle cx="18" cy="18" r="17" stroke="#018DF0" stroke-width="2"/>
<path fill-rule="evenodd" clip-rule="evenodd" d="M18.0008 9C15.5565 9 15.2498 9.01069 14.2898 9.05438C13.3316 9.09825 12.6776 9.24994 12.1054 9.4725C11.5134 9.70238 11.0113 10.0099 10.5111 10.5103C10.0104 11.0106 9.70294 11.5127 9.47231 12.1044C9.24919 12.6769 9.09731 13.3311 9.05419 14.2888C9.01125 15.2488 9 15.5558 9 18C9 20.4443 9.01088 20.7501 9.05438 21.7101C9.09844 22.6682 9.25013 23.3222 9.4725 23.8945C9.70256 24.4864 10.0101 24.9886 10.5105 25.4888C11.0106 25.9894 11.5127 26.2977 12.1043 26.5276C12.6769 26.7501 13.3311 26.9018 14.289 26.9457C15.249 26.9894 15.5556 27.0001 17.9997 27.0001C20.4441 27.0001 20.7499 26.9894 21.7099 26.9457C22.668 26.9018 23.3228 26.7501 23.8954 26.5276C24.4872 26.2977 24.9886 25.9894 25.4886 25.4888C25.9892 24.9886 26.2967 24.4864 26.5274 23.8947C26.7486 23.3222 26.9005 22.668 26.9455 21.7103C26.9886 20.7503 26.9999 20.4443 26.9999 18C26.9999 15.5558 26.9886 15.249 26.9455 14.289C26.9005 13.3309 26.7486 12.6769 26.5274 12.1046C26.2967 11.5127 25.9892 11.0106 25.4886 10.5103C24.988 10.0097 24.4874 9.70219 23.8949 9.4725C23.3211 9.24994 22.6667 9.09825 21.7086 9.05438C20.7486 9.01069 20.443 9 17.998 9H18.0008ZM17.1919 10.6214C17.4315 10.621 17.6989 10.6214 17.9992 10.6214C20.4023 10.6214 20.6871 10.63 21.636 10.6731C22.5135 10.7133 22.9898 10.8599 23.307 10.9831C23.727 11.1462 24.0265 11.3412 24.3413 11.6562C24.6563 11.9712 24.8513 12.2712 25.0148 12.6912C25.138 13.0081 25.2848 13.4843 25.3247 14.3618C25.3678 15.3106 25.3772 15.5956 25.3772 17.9975C25.3772 20.3994 25.3678 20.6844 25.3247 21.6331C25.2846 22.5106 25.138 22.9869 25.0148 23.3037C24.8516 23.7237 24.6563 24.0228 24.3413 24.3376C24.0263 24.6526 23.7272 24.8476 23.307 25.0108C22.9901 25.1345 22.5135 25.2808 21.636 25.3209C20.6873 25.364 20.4023 25.3734 17.9992 25.3734C15.596 25.3734 15.3112 25.364 14.3625 25.3209C13.485 25.2804 13.0087 25.1338 12.6913 25.0106C12.2713 24.8474 11.9713 24.6524 11.6563 24.3374C11.3413 24.0224 11.1463 23.7232 10.9828 23.303C10.8596 22.9861 10.7128 22.5099 10.6728 21.6324C10.6297 20.6836 10.6211 20.3986 10.6211 17.9952C10.6211 15.5918 10.6297 15.3083 10.6728 14.3596C10.713 13.4821 10.8596 13.0058 10.9828 12.6886C11.1459 12.2686 11.3413 11.9686 11.6563 11.6536C11.9713 11.3386 12.2713 11.1436 12.6913 10.9801C13.0085 10.8563 13.485 10.7101 14.3625 10.6698C15.1927 10.6323 15.5145 10.621 17.1919 10.6191V10.6214ZM22.8066 12.1156C22.2103 12.1156 21.7266 12.5988 21.7266 13.1952C21.7266 13.7915 22.2103 14.2752 22.8066 14.2752C23.4028 14.2752 23.8866 13.7915 23.8866 13.1952C23.8866 12.599 23.4028 12.1152 22.8066 12.1152V12.1156ZM18.0009 13.3783C15.4484 13.3783 13.379 15.4478 13.379 18.0002C13.379 20.5527 15.4484 22.6212 18.0009 22.6212C20.5533 22.6212 22.622 20.5527 22.622 18.0002C22.622 15.4478 20.5531 13.3783 18.0007 13.3783H18.0009ZM18.001 15.0001C19.6578 15.0001 21.001 16.3432 21.001 18.0001C21.001 19.6569 19.6578 21.0002 18.001 21.0002C16.3441 21.0002 15.001 19.6569 15.001 18.0001C15.001 16.3432 16.3441 15.0001 18.001 15.0001Z" fill="#018DF0"/>
</svg>
