<svg width="24" height="24" viewBox="0 0 24 24" fill="none" xmlns="http://www.w3.org/2000/svg">
<circle cx="12" cy="12" r="12" fill="white" fill-opacity="0.1"/>
<path d="M16.0342 9.09315L16.8002 8.36035V8.19995H14.1466L12.2554 12.9072L10.1038 8.19995H7.3214V8.36035L8.2162 9.43755C8.3034 9.51715 8.349 9.63355 8.3374 9.75075V13.984C8.365 14.1364 8.3154 14.2932 8.2082 14.404L7.2002 15.6256V15.784H10.0582V15.6236L9.0502 14.404C8.941 14.2928 8.8894 14.1388 8.9114 13.984V10.3224L11.4202 15.786H11.7118L13.869 10.3224V14.6748C13.869 14.7896 13.869 14.8132 13.7938 14.8884L13.0178 15.6392V15.8H16.7826V15.6396L16.0346 14.9072C15.969 14.8576 15.935 14.7744 15.949 14.6936V9.30675C15.935 9.22555 15.9686 9.14235 16.0342 9.09315Z" fill="white"/>
</svg>
