<svg width="36" height="36" viewBox="0 0 36 36" fill="none" xmlns="http://www.w3.org/2000/svg">
<circle cx="18" cy="18" r="17" stroke="#018DF0" stroke-width="2"/>
<path d="M29 17.6525C29 16.3554 27.916 15.3253 26.595 15.3253C25.9446 15.3253 25.353 15.5731 24.9194 15.9739C23.2636 14.8292 20.9964 14.0854 18.4731 13.9901L19.5769 8.99206L23.1648 9.73594C23.2045 10.6135 23.9534 11.3193 24.8801 11.3193C25.8263 11.3193 26.595 10.5755 26.595 9.65949C26.595 8.74387 25.8263 8 24.8801 8C24.2098 8 23.6182 8.38154 23.3423 8.93482L19.3407 8.1145C19.2223 8.0953 19.104 8.1145 19.025 8.17174C18.9265 8.22899 18.8674 8.32429 18.8479 8.43878L17.6254 14.0089C15.0627 14.0854 12.7562 14.8292 11.0806 15.9931C10.6293 15.576 10.029 15.3436 9.405 15.3445C8.06452 15.3445 7 16.3934 7 17.6717C7 18.6254 7.59124 19.4265 8.41948 19.7892C8.3798 20.0179 8.36032 20.2468 8.36032 20.495C8.36032 24.0811 12.6776 27 18.0002 27C23.3228 27 27.64 24.1003 27.64 20.495C27.64 20.266 27.6202 20.0179 27.5809 19.7892C28.4088 19.4265 29 18.6062 29 17.6525ZM12.4802 19.312C12.4802 18.3964 13.249 17.6525 14.1955 17.6525C15.1417 17.6525 15.9105 18.3964 15.9105 19.312C15.9105 20.2276 15.1417 20.9719 14.1955 20.9719C13.249 20.9907 12.4802 20.2276 12.4802 19.312ZM22.0808 23.7187C20.8979 24.8633 18.6506 24.9398 18.0002 24.9398C17.3299 24.9398 15.0826 24.8441 13.9192 23.7187C13.7421 23.547 13.7421 23.2799 13.9192 23.1082C14.0967 22.9368 14.3727 22.9368 14.5501 23.1082C15.2994 23.8332 16.8765 24.0811 18.0002 24.0811C19.1239 24.0811 20.7205 23.8332 21.4499 23.1082C21.6273 22.9368 21.9033 22.9368 22.0808 23.1082C22.2384 23.2799 22.2384 23.547 22.0808 23.7187ZM21.7651 20.9907C20.8189 20.9907 20.0502 20.2468 20.0502 19.3312C20.0502 18.4156 20.8189 17.6717 21.7651 17.6717C22.7117 17.6717 23.4804 18.4156 23.4804 19.3312C23.4804 20.2276 22.7117 20.9907 21.7651 20.9907Z" fill="#018DF0"/>
</svg>
