<svg width="28" height="28" viewBox="0 0 28 28" fill="none" xmlns="http://www.w3.org/2000/svg">
<rect width="28" height="28" rx="14" fill="white" fill-opacity="0.16"/>
<path fill-rule="evenodd" clip-rule="evenodd" d="M14.0002 8.66732C11.0546 8.66732 8.66683 11.0551 8.66683 14.0007C8.66683 16.9462 11.0546 19.334 14.0002 19.334C16.9457 19.334 19.3335 16.9462 19.3335 14.0007C19.3335 11.0551 16.9457 8.66732 14.0002 8.66732ZM7.3335 14.0007C7.3335 10.3188 10.3183 7.33398 14.0002 7.33398C17.6821 7.33398 20.6668 10.3188 20.6668 14.0007C20.6668 17.6825 17.6821 20.6673 14.0002 20.6673C10.3183 20.6673 7.3335 17.6825 7.3335 14.0007Z" fill="white"/>
<path fill-rule="evenodd" clip-rule="evenodd" d="M13.7363 13.7767C13.9565 13.6539 14.2106 13.6057 14.4604 13.6394L14.3781 14.2499L14.4604 13.6394L15.8866 13.8316L15.7975 14.4923L15.8866 13.8316C16.0481 13.8534 16.2032 13.9087 16.3419 13.9941C16.3419 13.9941 16.342 13.9941 16.342 13.9941L19.7348 16.0808C20.0485 16.2737 20.1463 16.6843 19.9534 16.998C19.7606 17.3116 19.3499 17.4095 19.0363 17.2166L15.6735 15.1483L14.406 14.9774L13.6454 16.6842L14.7458 17.8745C14.8701 18.0089 14.961 18.1707 15.0111 18.3468C15.0613 18.5229 15.0693 18.7083 15.0346 18.8881L14.7952 20.1253C14.7253 20.4868 14.3756 20.7232 14.0141 20.6533C13.6526 20.5833 13.4162 20.2336 13.4862 19.8721L13.7095 18.7177L12.5918 17.5087L13.0601 17.0757L12.5918 17.5087C12.4368 17.3411 12.3344 17.1318 12.2973 16.9066C12.2601 16.6814 12.2899 16.4503 12.3828 16.2418C12.3828 16.2418 12.3828 16.2418 12.3828 16.2418L13.2389 14.3207L13.8479 14.592L13.2389 14.3207C13.3416 14.0904 13.5161 13.8995 13.7363 13.7767ZM13.7668 18.7796C13.7667 18.7796 13.7666 18.7795 13.7666 18.7795L13.7668 18.7796Z" fill="white"/>
<path fill-rule="evenodd" clip-rule="evenodd" d="M10.3193 8.86142C10.6584 9.00483 10.817 9.39599 10.6736 9.7351L10.1405 10.9958L10.8034 12.765L12.0537 13.0337C12.2271 13.071 12.3897 13.1473 12.5292 13.2569C12.6687 13.3665 12.7813 13.5064 12.8586 13.666L12.8586 13.666L13.051 14.0634H13.786C14.1542 14.0634 14.4527 14.3618 14.4527 14.73C14.4527 15.0982 14.1542 15.3967 13.786 15.3967H12.9465C12.7273 15.3967 12.5125 15.3349 12.3268 15.2185C12.141 15.1021 11.9919 14.9356 11.8964 14.7383L12.4845 14.4536L11.8964 14.7383L11.694 14.3202L10.4341 14.0494C10.2429 14.0083 10.0651 13.9198 9.91703 13.792C9.76897 13.6642 9.6554 13.5013 9.58678 13.3181L8.8686 11.4014C8.76384 11.1218 8.77027 10.8126 8.88657 10.5376L9.44558 9.21576C9.589 8.87665 9.98016 8.71801 10.3193 8.86142Z" fill="white"/>
<path fill-rule="evenodd" clip-rule="evenodd" d="M15.204 7.61594C15.5255 7.43646 15.9316 7.55158 16.1111 7.87306L16.6945 8.91796C16.8231 9.14844 16.8698 9.41575 16.827 9.67622C16.7841 9.93668 16.6541 10.1749 16.4583 10.352L14.7764 11.8731L14.7764 11.8731C14.7098 11.9333 14.6365 11.9856 14.5579 12.029L14.5578 12.0291L13.7927 12.4516C13.6201 12.5469 13.426 12.597 13.2287 12.597H12.0053L11.5278 13.7305C11.3849 14.0698 10.9939 14.229 10.6546 14.0861C10.3153 13.9432 10.1561 13.5522 10.299 13.2129L10.8195 11.9774C10.9086 11.7658 11.0581 11.5853 11.2494 11.4583C11.4406 11.3313 11.6651 11.2636 11.8947 11.2636H13.1858L13.8964 10.8712L15.4656 9.45206L14.9469 8.52301C14.7674 8.20153 14.8825 7.79542 15.204 7.61594Z" fill="white"/>
</svg>
