<svg width="16" height="16" viewBox="0 0 16 16" fill="none" xmlns="http://www.w3.org/2000/svg">
    <path fill-rule="evenodd" clip-rule="evenodd" d="M8.00016 2.66732C5.05464 2.66732 2.66683 5.05513 2.66683 8.00065C2.66683 10.9462 5.05464 13.334 8.00016 13.334C10.9457 13.334 13.3335 10.9462 13.3335 8.00065C13.3335 5.05513 10.9457 2.66732 8.00016 2.66732ZM1.3335 8.00065C1.3335 4.31875 4.31826 1.33398 8.00016 1.33398C11.6821 1.33398 14.6668 4.31875 14.6668 8.00065C14.6668 11.6825 11.6821 14.6673 8.00016 14.6673C4.31826 14.6673 1.3335 11.6825 1.3335 8.00065Z" fill="#080134"/>
    <path fill-rule="evenodd" clip-rule="evenodd" d="M7.73628 7.77668C7.95648 7.65386 8.21055 7.60568 8.46044 7.63937L8.37813 8.24991L8.46044 7.63937L9.8866 7.83161L9.79754 8.4923L9.8866 7.83161C10.0481 7.85338 10.2032 7.90872 10.3419 7.99407C10.3419 7.99407 10.342 7.99407 10.342 7.99407L13.7348 10.0808C14.0485 10.2737 14.1463 10.6843 13.9534 10.998C13.7606 11.3116 13.3499 11.4095 13.0363 11.2166L9.6735 9.14828L8.40601 8.97742L7.64535 10.6842L8.74578 11.8745C8.87007 12.0089 8.96098 12.1707 9.01114 12.3468C9.06131 12.5229 9.06933 12.7083 9.03456 12.8881L8.79523 14.1253C8.7253 14.4868 8.37557 14.7232 8.01408 14.6533C7.65259 14.5833 7.41623 14.2336 7.48616 13.8721L7.70947 12.7177L6.59175 11.5087L7.06014 11.0757L6.59175 11.5087C6.43682 11.3411 6.33444 11.1318 6.29729 10.9066C6.26015 10.6814 6.28987 10.4503 6.38277 10.2418C6.38277 10.2418 6.38277 10.2418 6.38277 10.2418L7.23895 8.32067L7.84788 8.59204L7.23895 8.32067C7.34159 8.09036 7.51607 7.8995 7.73628 7.77668ZM7.76675 12.7796C7.7667 12.7796 7.76665 12.7795 7.7666 12.7795L7.76675 12.7796Z" fill="#080134"/>
    <path fill-rule="evenodd" clip-rule="evenodd" d="M4.31927 2.86142C4.65838 3.00483 4.81703 3.39599 4.67362 3.7351L4.14048 4.99577L4.80338 6.765L6.05367 7.03373C6.22708 7.071 6.38971 7.14732 6.5292 7.25689C6.66868 7.36645 6.78135 7.50638 6.85863 7.66603L6.85863 7.66603L7.05096 8.06336H7.786C8.15419 8.06336 8.45267 8.36183 8.45267 8.73002C8.45267 9.09821 8.15419 9.39669 7.786 9.39669H6.94647C6.72726 9.39669 6.51248 9.33493 6.32676 9.21849C6.14103 9.10205 5.99187 8.93565 5.89636 8.73834L6.48449 8.45365L5.89636 8.73834L5.69395 8.3202L4.43413 8.04942C4.24291 8.00832 4.0651 7.91981 3.91703 7.79203C3.76897 7.66425 3.6554 7.50129 3.58678 7.31814L2.8686 5.40138C2.76384 5.12177 2.77027 4.81263 2.88657 4.53762L3.44558 3.21576C3.589 2.87665 3.98016 2.71801 4.31927 2.86142Z" fill="#080134"/>
    <path fill-rule="evenodd" clip-rule="evenodd" d="M9.20403 1.61594C9.52551 1.43646 9.93162 1.55158 10.1111 1.87306L10.6945 2.91796C10.8231 3.14844 10.8698 3.41575 10.827 3.67622C10.7841 3.93668 10.6541 4.1749 10.4583 4.35196L8.7764 5.87306L8.7764 5.87306C8.7098 5.93329 8.63646 5.98564 8.55785 6.02905L8.55785 6.02905L7.79274 6.45157C7.62005 6.54693 7.42601 6.59695 7.22875 6.59695H6.0053L5.5278 7.73051C5.38487 8.06982 4.99393 8.22902 4.65462 8.08609C4.31531 7.94315 4.15611 7.55222 4.29904 7.2129L4.81949 5.97738C4.9086 5.76583 5.05815 5.58527 5.2494 5.4583C5.44065 5.33134 5.6651 5.26362 5.89466 5.26362H7.18578L7.89638 4.8712L9.46558 3.45206L8.94691 2.52301C8.76743 2.20153 8.88255 1.79542 9.20403 1.61594Z" fill="#080134"/>
    </svg>
    