<svg width="28" height="28" viewBox="0 0 28 28" fill="none" xmlns="http://www.w3.org/2000/svg">
<rect width="28" height="28" rx="14" fill="white" fill-opacity="0.16"/>
<path d="M8.99985 18.5C8.99985 18.5 11.4998 18 11.9998 16.5C11.9998 16.5 7.99985 15 8.99985 9.5C8.99985 9.5 10.9998 12 13.9998 12.5V11.5002C13.9999 10.9258 14.1977 10.3689 14.56 9.9232C14.9224 9.47749 15.4271 9.17012 15.9894 9.05275C16.5517 8.93539 17.1372 9.0152 17.6476 9.27876C18.1579 9.54232 18.562 9.97356 18.7918 10.5L20.9998 10.5L18.9998 12.5C18.9998 16 16.4998 19.5 11.9998 19.5C9.99985 19.5 8.99985 18.5 8.99985 18.5Z" stroke="white" stroke-width="1.5" stroke-linecap="round" stroke-linejoin="round"/>
</svg>
