<svg width="16" height="16" viewBox="0 0 16 16" fill="none" xmlns="http://www.w3.org/2000/svg">
    <path d="M2.99985 12.5C2.99985 12.5 5.49985 12 5.99985 10.5C5.99985 10.5 1.99985 9 2.99985 3.5C2.99985 3.5 4.99985 6 7.99985 6.5V5.50018C7.9999 4.92578 8.19772 4.36891 8.56004 3.9232C8.92236 3.47749 9.42709 3.17012 9.98938 3.05275C10.5517 2.93539 11.1372 3.0152 11.6476 3.27876C12.1579 3.54232 12.562 3.97356 12.7918 4.49998L14.9998 4.5L12.9998 6.5C12.9998 10 10.4998 13.5 5.99985 13.5C3.99985 13.5 2.99985 12.5 2.99985 12.5Z" stroke="#080134" stroke-width="1.5" stroke-linecap="round" stroke-linejoin="round"/>
    </svg>
    