<svg width="24" height="24" viewBox="0 0 24 24" fill="none" xmlns="http://www.w3.org/2000/svg">
<circle cx="12" cy="12" r="12" fill="white" fill-opacity="0.1"/>
<path d="M16.3996 8.40002C16.0166 8.67021 15.5925 8.87686 15.1436 9.01202C14.9027 8.73502 14.5825 8.5387 14.2264 8.44959C13.8703 8.36048 13.4954 8.3829 13.1524 8.5138C12.8095 8.6447 12.515 8.87778 12.3088 9.18151C12.1026 9.48523 11.9947 9.84495 11.9996 10.212V10.612C11.2967 10.6302 10.6001 10.4743 9.97201 10.1582C9.34391 9.84205 8.80374 9.37547 8.39961 8.80002C8.39961 8.80002 6.79961 12.4 10.3996 14C9.57582 14.5592 8.59447 14.8396 7.59961 14.8C11.1996 16.8 15.5996 14.8 15.5996 10.2C15.5992 10.0886 15.5885 9.97746 15.5676 9.86802C15.9759 9.46542 16.2639 8.9571 16.3996 8.40002Z" fill="white"/>
</svg>
