<?xml version="1.0" standalone="no"?>
<!DOCTYPE svg PUBLIC "-//W3C//DTD SVG 20010904//EN"
 "http://www.w3.org/TR/2001/REC-SVG-20010904/DTD/svg10.dtd">
<svg version="1.0" xmlns="http://www.w3.org/2000/svg"
 width="700.000000pt" height="700.000000pt" viewBox="0 0 700.000000 700.000000"
 preserveAspectRatio="xMidYMid meet">
<metadata>
Created by potrace 1.14, written by Peter Selinger 2001-2017
</metadata>
<g transform="translate(0.000000,700.000000) scale(0.100000,-0.100000)"
fill="#000000" stroke="none">
<path d="M140 3500 l0 -3360 3360 0 3360 0 0 3360 0 3360 -1428 0 -1427 0 0
-725 c0 -533 -3 -724 -11 -721 -10 4 -312 203 -339 223 -6 5 -71 48 -145 97
-74 48 -146 96 -160 106 -14 9 -81 54 -150 100 -69 45 -137 91 -153 102 -15
10 -44 30 -65 43 -20 14 -42 29 -48 34 -5 4 -21 14 -34 21 -13 7 -29 17 -34
21 -11 10 -43 31 -156 106 -36 23 -72 47 -80 53 -8 6 -76 51 -150 100 -74 49
-140 93 -145 97 -6 4 -49 33 -95 64 -145 95 -272 181 -340 228 l-65 46 -847 3
-848 2 0 -3360z"/>
</g>
</svg>
