<?xml version="1.0" standalone="no"?>
<!DOCTYPE svg PUBLIC "-//W3C//DTD SVG 20010904//EN"
 "http://www.w3.org/TR/2001/REC-SVG-20010904/DTD/svg10.dtd">
<svg version="1.0" xmlns="http://www.w3.org/2000/svg"
 width="800.000000pt" height="800.000000pt" viewBox="0 0 800.000000 800.000000"
 preserveAspectRatio="xMidYMid meet">
<metadata>
Created by potrace 1.14, written by Peter Selinger 2001-2017
</metadata>
<g transform="translate(0.000000,800.000000) scale(0.100000,-0.100000)"
fill="#000000" stroke="none">
<path d="M160 4158 c0 -2113 3 -3839 6 -3835 3 3 17 2 30 -3 13 -5 26 -6 29 0
3 5 18 5 35 0 17 -5 30 -6 30 -2 0 4 16 7 35 7 19 0 35 -3 35 -7 0 -4 13 -3
30 2 17 5 30 5 30 0 0 -5 13 -5 30 0 17 5 30 5 30 0 0 -5 13 -5 30 0 17 5 30
5 30 0 0 -5 13 -5 30 0 17 5 30 5 30 0 0 -5 13 -5 30 0 17 5 30 5 30 0 0 -5
13 -5 30 0 17 5 30 5 30 0 0 -5 13 -5 30 0 17 5 30 5 30 0 0 -5 13 -5 30 0 17
5 30 5 30 0 0 -5 13 -5 30 0 17 5 30 5 30 0 0 -5 13 -5 30 0 17 5 30 5 30 0 0
-5 13 -5 30 0 17 5 30 5 30 0 0 -5 13 -5 30 0 17 5 30 5 30 0 0 -5 13 -5 30 0
17 5 30 5 30 0 0 -5 13 -5 30 0 17 5 30 5 30 0 0 -5 13 -5 30 0 17 5 30 5 30
0 0 -5 13 -5 30 0 17 5 30 5 30 0 0 -5 13 -5 30 0 17 5 30 5 30 0 0 -5 13 -5
30 0 17 5 30 5 30 0 0 -5 13 -5 30 0 17 5 30 5 30 0 0 -5 13 -5 30 0 17 5 30
5 30 0 0 -5 13 -5 30 0 17 5 30 5 30 0 0 -5 13 -5 30 0 17 5 30 5 30 0 0 -5
13 -5 30 0 17 5 30 5 30 0 0 -5 13 -5 30 0 17 5 30 5 30 0 0 -5 13 -5 30 0 17
5 30 5 30 0 0 -5 13 -5 30 0 17 5 30 5 30 0 0 -5 13 -5 30 0 17 5 30 5 30 0 0
-5 13 -5 30 0 17 5 30 5 30 0 0 -5 13 -5 30 0 17 5 30 5 30 0 0 -5 13 -5 30 0
17 5 30 5 30 0 0 -5 13 -5 30 0 17 5 30 5 30 0 0 -5 13 -5 30 0 17 5 30 5 30
0 0 -5 13 -5 30 0 17 5 30 5 30 0 0 -5 13 -5 30 0 17 5 30 5 30 0 0 -5 13 -5
30 0 17 5 30 5 30 0 0 -5 13 -5 30 0 17 5 30 5 30 0 0 -5 13 -5 30 0 17 5 32
5 35 0 3 -5 16 -5 28 -1 12 5 34 5 49 0 16 -4 28 -4 28 1 0 5 13 5 30 0 17 -5
30 -5 30 0 0 5 13 5 30 0 17 -5 30 -5 30 0 0 5 13 5 30 0 17 -5 30 -5 30 0 0
5 13 5 30 0 17 -5 30 -5 30 0 0 5 13 5 30 0 17 -5 30 -5 30 0 0 5 13 5 30 0
17 -5 30 -5 30 0 0 5 13 5 30 0 17 -5 30 -5 30 0 0 5 13 5 30 0 17 -5 30 -5
30 0 0 5 13 5 30 0 17 -5 30 -5 30 0 0 5 13 5 30 0 17 -5 30 -5 30 0 0 5 13 5
30 0 17 -5 30 -5 30 0 0 5 13 5 30 0 17 -5 30 -5 30 0 0 5 13 5 30 0 17 -5 30
-5 30 0 0 5 13 5 30 0 17 -5 30 -5 30 0 0 5 13 5 30 0 17 -5 30 -5 30 0 0 5
13 5 30 0 17 -5 30 -5 30 0 0 5 13 5 30 0 17 -5 30 -5 30 0 0 5 13 5 30 0 17
-5 30 -5 30 0 0 5 13 5 30 0 17 -5 30 -5 30 0 0 5 13 5 30 0 17 -5 30 -5 30 0
0 5 13 5 30 0 16 -5 30 -5 30 -2 0 4 17 6 38 4 32 -2 59 -3 115 -2 6 0 31 -1
55 -3 23 -2 42 1 42 6 0 6 5 6 13 1 15 -11 67 -11 84 -1 7 5 13 4 13 0 0 -10
61 -10 78 1 7 4 12 4 12 -1 0 -4 29 -8 65 -8 36 0 65 4 65 8 0 5 5 5 12 1 16
-10 58 -12 64 -2 3 4 16 3 29 -2 14 -5 27 -5 30 0 3 5 18 5 35 0 17 -5 32 -5
35 0 3 5 16 5 30 0 15 -6 27 -6 30 0 3 6 15 6 30 0 15 -6 27 -6 30 0 3 6 15 6
30 0 15 -6 27 -6 30 0 3 5 15 6 29 0 12 -4 29 -4 36 0 8 5 21 5 30 0 8 -4 22
-4 31 0 8 5 20 5 27 1 7 -4 35 -4 62 -1 28 4 50 3 50 -1 0 -4 14 -4 30 1 17 5
30 5 30 0 0 -5 13 -5 30 0 17 5 30 5 30 0 0 -5 13 -5 30 0 17 5 30 5 30 0 0
-5 13 -5 30 0 17 5 30 5 30 0 0 -5 13 -5 30 0 17 5 30 5 30 0 0 -5 13 -5 30 0
17 5 30 5 30 0 0 -5 13 -5 30 0 17 5 30 5 30 0 0 -5 13 -5 30 0 17 5 30 5 30
0 0 -5 13 -5 30 0 17 5 30 5 30 0 0 -5 13 -5 30 0 17 5 30 5 30 0 0 -5 13 -5
30 0 17 5 30 5 30 0 0 -5 13 -5 30 0 17 5 30 5 30 0 0 -5 13 -5 30 0 17 5 30
5 30 0 0 -5 13 -5 30 0 17 5 30 5 30 0 0 -5 13 -5 30 0 17 5 30 5 30 0 0 -5
13 -5 30 0 17 5 30 5 30 0 0 -5 13 -5 30 0 17 5 30 5 30 0 0 -5 13 -5 30 0 17
5 30 5 30 0 0 -5 13 -5 30 0 17 5 30 5 30 0 0 -5 13 -5 30 0 17 5 30 5 30 0 0
-5 13 -5 30 0 17 5 30 5 30 0 0 -5 13 -5 30 0 17 5 30 5 30 0 0 -5 13 -5 30 0
17 5 30 5 30 0 0 -5 13 -5 30 0 17 5 30 5 30 0 0 -5 13 -5 30 0 17 5 30 5 30
0 0 -5 13 -5 30 0 17 5 30 5 30 0 0 -5 13 -5 30 0 17 5 30 5 30 0 0 -5 13 -5
30 0 17 5 30 5 30 0 0 -5 13 -5 30 0 17 5 30 5 30 0 0 -5 13 -5 30 0 17 5 30
5 30 0 0 -5 13 -5 30 0 17 5 30 5 30 0 0 -5 13 -5 30 0 17 5 30 5 30 0 0 -5
13 -5 30 0 17 5 30 5 30 0 0 -5 13 -5 30 0 17 5 30 5 30 0 0 -5 13 -5 30 0 17
5 30 5 30 0 0 -5 13 -5 30 0 17 5 30 5 30 0 0 -5 13 -5 30 0 17 5 30 5 30 0 0
-5 13 -5 30 0 17 5 30 5 30 0 0 -5 13 -5 30 0 17 5 30 5 30 0 0 -5 13 -5 30 0
17 5 30 5 30 0 0 -5 13 -5 30 0 16 5 30 6 30 2 0 -4 18 -7 40 -7 22 0 40 2 40
5 0 3 18 5 40 5 22 0 40 -3 40 -7 0 -3 9 -4 20 -1 20 5 20 14 20 3844 l0 3839
-1632 -2 -1632 -3 -1 -825 c0 -727 -2 -825 -15 -822 -8 2 -16 8 -18 13 -2 5
-10 9 -18 9 -8 0 -14 5 -14 10 0 6 -6 10 -13 10 -8 0 -22 9 -32 20 -10 11 -22
20 -27 20 -9 0 -62 36 -86 58 -7 6 -17 12 -22 12 -5 0 -15 6 -22 13 -13 12
-94 68 -113 77 -5 3 -30 19 -54 35 -24 17 -51 35 -60 40 -9 6 -18 12 -21 15
-10 10 -101 70 -106 70 -5 0 -64 40 -74 50 -12 12 -70 50 -76 50 -3 0 -23 14
-44 30 -21 17 -40 30 -43 30 -3 0 -27 15 -53 33 -25 17 -53 37 -63 42 -9 6
-18 12 -21 15 -3 3 -30 21 -60 41 -30 20 -122 81 -203 135 -81 55 -167 111
-190 126 -50 32 -72 48 -102 71 -13 9 -26 17 -29 17 -8 0 -63 38 -84 58 -7 6
-17 12 -22 12 -5 0 -15 6 -22 13 -7 7 -49 36 -93 65 -44 28 -87 56 -95 62 -8
5 -44 29 -80 52 -36 24 -67 45 -70 48 -3 4 -23 17 -45 30 -22 13 -46 30 -53
37 -7 7 -17 13 -22 13 -5 0 -15 6 -22 13 -7 7 -31 24 -53 37 -22 13 -42 27
-45 30 -3 3 -30 21 -60 40 -30 19 -56 38 -58 42 -2 5 -10 8 -18 8 -8 0 -14 3
-14 8 0 4 -14 15 -31 25 -29 16 -95 17 -990 17 l-959 0 0 -3842z"/>
</g>
</svg>
