<svg width="20" height="21" viewBox="0 0 20 21" fill="none" xmlns="http://www.w3.org/2000/svg">
<g clip-path="url(#clip0_3044_34786)">
<path fill-rule="evenodd" clip-rule="evenodd" d="M10 20.5C15.5228 20.5 20 16.0228 20 10.5C20 4.97715 15.5228 0.5 10 0.5C4.47715 0.5 0 4.97715 0 10.5C0 16.0228 4.47715 20.5 10 20.5ZM7.70711 6.79289C7.31658 6.40237 6.68342 6.40237 6.29289 6.79289C5.90237 7.18342 5.90237 7.81658 6.29289 8.20711L8.58579 10.5L6.29289 12.7929C5.90237 13.1834 5.90237 13.8166 6.29289 14.2071C6.68342 14.5976 7.31658 14.5976 7.70711 14.2071L10 11.9142L12.2929 14.2071C12.6834 14.5976 13.3166 14.5976 13.7071 14.2071C14.0976 13.8166 14.0976 13.1834 13.7071 12.7929L11.4142 10.5L13.7071 8.20711C14.0976 7.81658 14.0976 7.18342 13.7071 6.79289C13.3166 6.40237 12.6834 6.40237 12.2929 6.79289L10 9.08579L7.70711 6.79289Z" fill="#EF466F"/>
</g>
<defs>
<clipPath id="clip0_3044_34786">
<rect width="20" height="20" fill="white" transform="translate(0 0.5)"/>
</clipPath>
</defs>
</svg>
