<svg width="20" height="21" viewBox="0 0 20 21" fill="none" xmlns="http://www.w3.org/2000/svg">
<g clip-path="url(#clip0_3044_34762)">
<circle cx="10" cy="10.5" r="10" fill="#018DF0"/>
<path d="M9.16602 6.33333C9.16602 5.8731 9.53911 5.5 9.99935 5.5C10.4596 5.5 10.8327 5.8731 10.8327 6.33333C12.2134 6.33333 13.3327 7.45262 13.3327 8.83333C13.3327 9.29357 12.9596 9.66667 12.4993 9.66667C12.0391 9.66667 11.666 9.29357 11.666 8.83333C11.666 8.3731 11.2929 8 10.8327 8H8.9522C8.61005 8 8.33268 8.27737 8.33268 8.61951C8.33268 8.88617 8.50332 9.12291 8.75629 9.20724L11.7695 10.2116C12.703 10.5228 13.3327 11.3964 13.3327 12.3805C13.3327 13.6431 12.3091 14.6667 11.0465 14.6667H10.8327C10.8327 15.1269 10.4596 15.5 9.99935 15.5C9.53911 15.5 9.16602 15.1269 9.16602 14.6667C7.7853 14.6667 6.66602 13.5474 6.66602 12.1667C6.66602 11.7064 7.03911 11.3333 7.49935 11.3333C7.95959 11.3333 8.33268 11.7064 8.33268 12.1667C8.33268 12.6269 8.70578 13 9.16602 13H11.0465C11.3886 13 11.666 12.7226 11.666 12.3805C11.666 12.1138 11.4954 11.8771 11.2424 11.7928L8.22924 10.7884C7.2957 10.4772 6.66602 9.60356 6.66602 8.61951C6.66602 7.35689 7.68957 6.33333 8.9522 6.33333H9.16602Z" fill="white"/>
</g>
<defs>
<clipPath id="clip0_3044_34762">
<rect width="20" height="20" fill="white" transform="translate(0 0.5)"/>
</clipPath>
</defs>
</svg>
