<svg width="20" height="20" viewBox="0 0 20 20" fill="none" xmlns="http://www.w3.org/2000/svg">
<path d="M8.82407 9.9995L5.24074 6.4245C5.08382 6.26758 4.99566 6.05475 4.99566 5.83284C4.99566 5.61092 5.08382 5.39809 5.24074 5.24117C5.39766 5.08425 5.61049 4.99609 5.83241 4.99609C6.05433 4.99609 6.26715 5.08425 6.42407 5.24117L9.99907 8.8245L13.5741 5.24117C13.731 5.08425 13.9438 4.99609 14.1657 4.99609C14.3877 4.99609 14.6005 5.08425 14.7574 5.24117C14.9143 5.39809 15.0025 5.61092 15.0025 5.83284C15.0025 6.05475 14.9143 6.26758 14.7574 6.4245L11.1741 9.9995L14.7574 13.5745C14.8355 13.652 14.8975 13.7441 14.9398 13.8457C14.9821 13.9472 15.0039 14.0562 15.0039 14.1662C15.0039 14.2762 14.9821 14.3851 14.9398 14.4867C14.8975 14.5882 14.8355 14.6804 14.7574 14.7578C14.6799 14.8359 14.5878 14.8979 14.4862 14.9402C14.3847 14.9826 14.2758 15.0043 14.1657 15.0043C14.0557 15.0043 13.9468 14.9826 13.8453 14.9402C13.7437 14.8979 13.6515 14.8359 13.5741 14.7578L9.99907 11.1745L6.42407 14.7578C6.3466 14.8359 6.25444 14.8979 6.15289 14.9402C6.05134 14.9826 5.94242 15.0043 5.83241 15.0043C5.7224 15.0043 5.61348 14.9826 5.51193 14.9402C5.41038 14.8979 5.31821 14.8359 5.24074 14.7578C5.16263 14.6804 5.10064 14.5882 5.05833 14.4867C5.01602 14.3851 4.99424 14.2762 4.99424 14.1662C4.99424 14.0562 5.01602 13.9472 5.05833 13.8457C5.10064 13.7441 5.16263 13.652 5.24074 13.5745L8.82407 9.9995Z" fill="currentColor"/>
</svg>
