<svg width="20" height="21" viewBox="0 0 20 21" fill="none" xmlns="http://www.w3.org/2000/svg">
<g clip-path="url(#clip0_3696_21918)">
<circle cx="10" cy="10.9785" r="10" fill="#7F6EE9"/>
<path fill-rule="evenodd" clip-rule="evenodd" d="M10.2208 4.31055C10.286 4.31057 10.3503 4.32492 10.4093 4.35257C10.4683 4.38021 10.5205 4.42049 10.5622 4.47055L15.0066 9.80388C15.0666 9.87577 15.1022 9.96475 15.1086 10.0581C15.115 10.1515 15.0918 10.2445 15.0422 10.3239L10.5977 17.435C10.5578 17.4989 10.5022 17.5516 10.4363 17.5882C10.3704 17.6247 10.2962 17.6439 10.2208 17.6439C10.1455 17.6439 10.0713 17.6247 10.0054 17.5882C9.93947 17.5516 9.88391 17.4989 9.84396 17.435L5.39952 10.3239C5.34994 10.2445 5.32668 10.1515 5.33307 10.0581C5.33945 9.96475 5.37515 9.87577 5.43507 9.80388L9.87952 4.47055C9.92121 4.42049 9.97339 4.38021 10.0324 4.35257C10.0914 4.32492 10.1557 4.31057 10.2208 4.31055ZM6.43507 10.3034L10.2208 8.79055L14.0066 10.3043L10.2208 16.3612L6.43507 10.3034ZM13.1995 9.02344L10.2208 7.83232L7.24307 9.02344L10.2208 5.44832L13.1986 9.02166L13.1995 9.02344Z" fill="#080134"/>
<path fill-rule="evenodd" clip-rule="evenodd" d="M10.2216 4.14459C10.3111 4.14463 10.3996 4.16435 10.4807 4.20237C10.5618 4.24038 10.6335 4.29575 10.6909 4.36456M10.6909 4.36456L15.1353 9.69788C15.1353 9.69789 15.1353 9.69788 15.1353 9.69788C15.2177 9.79673 15.2668 9.91908 15.2756 10.0475C15.2843 10.1759 15.2524 10.3037 15.1842 10.4129L10.7397 17.524C10.6848 17.6119 10.6084 17.6844 10.5177 17.7347C10.4271 17.7849 10.3251 17.8113 10.2215 17.8113C10.1179 17.8113 10.0159 17.7849 9.92525 17.7347C9.8346 17.6844 9.75821 17.6119 9.70328 17.524L5.25883 10.4129C5.19066 10.3038 5.15866 10.1759 5.16744 10.0475C5.17622 9.91908 5.2253 9.79675 5.30769 9.6979C5.30769 9.69789 5.30768 9.6979 5.30769 9.6979L9.7521 4.36459C9.80943 4.29577 9.88119 4.24039 9.96229 4.20237C9.99224 4.18833 10.0232 4.17679 10.0548 4.16781V4.14453L10.2216 4.14459M10.2216 4.47793C10.1808 4.47794 10.1406 4.48691 10.1038 4.50419C10.0669 4.52147 10.0343 4.54664 10.0082 4.57793L5.56376 9.91129C5.52631 9.95622 5.50399 10.0118 5.5 10.0702C5.49601 10.1286 5.51054 10.1867 5.54153 10.2363L9.98594 17.3474C10.0109 17.3873 10.0456 17.4203 10.0868 17.4431C10.128 17.4659 10.1744 17.4779 10.2215 17.4779C10.2686 17.4779 10.315 17.4659 10.3562 17.4431C10.3974 17.4203 10.4321 17.3873 10.4571 17.3474L14.9015 10.2363C14.9325 10.1867 14.947 10.1286 14.943 10.0702C14.939 10.0118 14.9167 9.95624 14.8792 9.9113L10.4348 4.57796C10.4087 4.54667 10.3761 4.52147 10.3392 4.50419C10.3024 4.48691 10.2623 4.47794 10.2216 4.47793L10.2215 4.31126H10.3882V4.47786L10.2216 4.47793ZM10.2215 5.18866L13.3397 8.93055L13.5451 9.34159L10.2215 8.01254L7.30562 9.17889L7.11566 8.91748L10.2215 5.18866ZM10.2215 5.70942L12.6513 8.62519L10.2215 7.65354L7.79322 8.62485L10.2215 5.70942ZM10.2215 8.61177L14.2543 10.2243L10.2215 16.6764L6.18871 10.2234L10.2215 8.61177ZM6.68273 10.3849L10.2215 16.0475L13.7603 10.3858L10.2215 8.97075L6.68273 10.3849Z" fill="#080134"/>
</g>
<defs>
<clipPath id="clip0_3696_21918">
<rect width="20" height="20" fill="white" transform="translate(0 0.978516)"/>
</clipPath>
</defs>
</svg>
