<svg width="20" height="20" viewBox="0 0 20 20" fill="none" xmlns="http://www.w3.org/2000/svg">
<path d="M15.8262 17.5026H14.9928V16.1134C14.9902 15.6365 14.9058 15.1636 14.7432 14.7153C14.7341 14.6909 14.7245 14.6682 14.7133 14.6449C14.5783 14.2769 14.3919 13.9299 14.1595 13.6143L12.9929 12.0583C12.6692 11.6248 12.4939 11.0986 12.4928 10.5576V9.7161C12.4947 9.05354 12.7578 8.41844 13.2249 7.94853L13.7725 7.40084C14.4089 6.76104 14.8177 5.93008 14.9361 5.03552C14.9366 5.02393 14.9428 5.01426 14.9428 5.00256L14.9405 4.99112C14.9694 4.81369 14.9869 4.63457 14.9928 4.45488V2.5026H15.8262C16.0472 2.5026 16.2592 2.41481 16.4154 2.25853C16.5717 2.10225 16.6595 1.89028 16.6595 1.66927C16.6595 1.44826 16.5717 1.2363 16.4154 1.08002C16.2592 0.923735 16.0472 0.835938 15.8262 0.835938H4.15951C3.9385 0.835938 3.72654 0.923735 3.57026 1.08002C3.41398 1.2363 3.32618 1.44826 3.32618 1.66927C3.32618 1.89028 3.41398 2.10225 3.57026 2.25853C3.72654 2.41481 3.9385 2.5026 4.15951 2.5026H4.99285V4.45488C4.99877 4.63457 5.01627 4.81369 5.04524 4.99112L5.04289 5.0026C5.04289 5.01427 5.04909 5.02397 5.04956 5.03556C5.16802 5.93012 5.5768 6.76108 6.21314 7.40088L6.76083 7.94857C7.22791 8.41847 7.49092 9.05356 7.49284 9.7161V10.5576C7.49175 11.0985 7.31655 11.6247 6.99316 12.0583L5.82576 13.6142C5.59347 13.93 5.40707 14.2771 5.27212 14.6452C5.26104 14.6683 5.25152 14.6907 5.24252 14.7149C5.0799 15.1634 4.99545 15.6364 4.99284 16.1134V17.5026H4.15951C3.93849 17.5026 3.72653 17.5904 3.57025 17.7467C3.41397 17.903 3.32617 18.1149 3.32617 18.3359C3.32617 18.557 3.41397 18.7689 3.57025 18.9252C3.72653 19.0815 3.93849 19.1693 4.15951 19.1693H15.8262C16.0472 19.1693 16.2591 19.0815 16.4154 18.9252C16.5717 18.7689 16.6595 18.557 16.6595 18.3359C16.6595 18.1149 16.5717 17.903 16.4154 17.7467C16.2591 17.5904 16.0472 17.5026 15.8262 17.5026ZM6.65951 4.16927V2.5026H13.3262V4.16927H6.65951ZM7.39152 6.2225C7.2741 6.10453 7.16888 5.97502 7.07745 5.83594H12.9082C12.8168 5.97502 12.7116 6.10453 12.5942 6.2225L12.0465 6.77019C11.3964 7.4164 10.9796 8.26033 10.8616 9.16927H9.12407C9.00604 8.2603 8.58924 7.41634 7.9392 6.7701L7.39152 6.2225ZM8.32658 13.0576C8.80876 12.4115 9.09468 11.6402 9.15015 10.8359H10.8355C10.891 11.6403 11.177 12.4116 11.6595 13.0576L12.4929 14.1693H7.49253L8.32658 13.0576ZM13.3262 17.5026H6.65951V16.1134C6.66182 16.0206 6.6694 15.9279 6.68219 15.8359H13.3035C13.3163 15.9279 13.3239 16.0206 13.3262 16.1134V17.5026Z" fill="#080134"/>
</svg>
