<svg width="16" height="16" viewBox="0 0 16 16" fill="none" xmlns="http://www.w3.org/2000/svg">
<path d="M11.3303 8.93307C11.5703 8.93307 11.8237 8.82639 11.997 8.65306C12.1703 8.47973 12.2637 8.23974 12.2637 7.99974C12.2637 7.75974 12.157 7.51974 11.997 7.33307C11.8237 7.15974 11.5837 7.06641 11.3303 7.06641C11.0903 7.06641 10.8503 7.17307 10.677 7.33307C10.5037 7.50641 10.397 7.74641 10.397 7.99974C10.397 8.23974 10.5037 8.47973 10.677 8.65306C10.837 8.83973 11.0903 8.93307 11.3303 8.93307ZM7.33034 8.65306C7.157 8.47973 7.05034 8.23974 7.05034 7.99974C7.05034 7.75974 7.157 7.51974 7.33034 7.33307C7.50367 7.15974 7.74367 7.06641 7.98368 7.06641C8.22367 7.06641 8.47701 7.17307 8.65034 7.33307C8.82367 7.50641 8.91701 7.74641 8.91701 7.99974C8.91701 8.23974 8.81034 8.47973 8.65034 8.65306C8.47701 8.82639 8.23701 8.93307 7.98368 8.93307C7.75701 8.93307 7.50367 8.83973 7.33034 8.65306ZM3.997 8.65306C3.82367 8.47973 3.71701 8.23974 3.71701 7.99974C3.71701 7.75974 3.82367 7.51974 3.997 7.33307C4.17034 7.15974 4.41034 7.06641 4.65034 7.06641C4.89034 7.06641 5.14367 7.17307 5.31701 7.33307C5.49034 7.50641 5.58367 7.74641 5.58367 7.99974C5.58367 8.23974 5.47701 8.47973 5.31701 8.65306C5.14367 8.82639 4.90367 8.93307 4.65034 8.93307C4.42367 8.93307 4.17034 8.83973 3.997 8.65306Z" fill="currentColor"/>
</svg>
