<svg width="20" height="21" viewBox="0 0 20 21" fill="none" xmlns="http://www.w3.org/2000/svg">
<g clip-path="url(#clip0_3044_34778)">
<circle cx="10" cy="10.5" r="10" fill="#018DF0"/>
<path fill-rule="evenodd" clip-rule="evenodd" d="M6.91009 7.41009C7.23553 7.08466 7.76317 7.08466 8.0886 7.41009L9.99935 9.32084L11.9101 7.41009C12.2355 7.08466 12.7632 7.08466 13.0886 7.41009C13.414 7.73553 13.414 8.26317 13.0886 8.5886L11.1779 10.4993L13.0886 12.4101C13.414 12.7355 13.414 13.2632 13.0886 13.5886C12.7632 13.914 12.2355 13.914 11.9101 13.5886L9.99935 11.6779L8.0886 13.5886C7.76317 13.914 7.23553 13.914 6.91009 13.5886C6.58466 13.2632 6.58466 12.7355 6.91009 12.4101L8.82084 10.4993L6.91009 8.5886C6.58466 8.26317 6.58466 7.73553 6.91009 7.41009Z" fill="white"/>
</g>
<defs>
<clipPath id="clip0_3044_34778">
<rect width="20" height="20" fill="white" transform="translate(0 0.5)"/>
</clipPath>
</defs>
</svg>
