<svg width="20" height="21" viewBox="0 0 20 21" fill="none" xmlns="http://www.w3.org/2000/svg">
<g clip-path="url(#clip0_3044_34793)">
<circle cx="10" cy="10.5" r="10" fill="#018DF0"/>
<path fill-rule="evenodd" clip-rule="evenodd" d="M9.99935 6.33398C9.53911 6.33398 9.16602 6.70708 9.16602 7.16732C9.16602 7.62756 9.53911 8.00065 9.99935 8.00065C10.4596 8.00065 10.8327 7.62756 10.8327 7.16732C10.8327 6.70708 10.4596 6.33398 9.99935 6.33398ZM9.99935 9.66732C9.53911 9.66732 9.16602 10.0404 9.16602 10.5007V13.834C9.16602 14.2942 9.53911 14.6673 9.99935 14.6673C10.4596 14.6673 10.8327 14.2942 10.8327 13.834V10.5007C10.8327 10.0404 10.4596 9.66732 9.99935 9.66732Z" fill="white"/>
</g>
<defs>
<clipPath id="clip0_3044_34793">
<rect width="20" height="20" fill="white" transform="translate(0 0.5)"/>
</clipPath>
</defs>
</svg>
