<svg width="16" height="16" viewBox="0 0 16 16" fill="none" xmlns="http://www.w3.org/2000/svg">
<path d="M4.00088 9.33406C4.39476 9.33667 4.78318 9.4265 5.13821 9.5971C5.49324 9.76769 5.80607 10.0148 6.05421 10.3207L9.45421 8.75406C9.29435 8.26456 9.29435 7.7369 9.45421 7.24739L6.05421 5.68073C5.65313 6.1647 5.09398 6.49145 4.47544 6.60329C3.8569 6.71513 3.21874 6.60488 2.67358 6.292C2.12841 5.97911 1.7113 5.48371 1.49584 4.89322C1.28039 4.30273 1.28045 3.65512 1.49601 3.06467C1.71157 2.47422 2.12878 1.97889 2.674 1.66611C3.21922 1.35332 3.8574 1.24319 4.47592 1.35514C5.09444 1.4671 5.65353 1.79394 6.05452 2.27799C6.45551 2.76204 6.67262 3.37218 6.66754 4.00073C6.66554 4.15955 6.64993 4.31791 6.62088 4.47406L10.1409 6.09406C10.5162 5.72711 10.9914 5.47907 11.507 5.38101C12.0226 5.28295 12.5557 5.33924 13.0395 5.54282C13.5233 5.74639 13.9362 6.08821 14.2266 6.52544C14.517 6.96266 14.6719 7.47586 14.6719 8.00073C14.6719 8.5256 14.517 9.03879 14.2266 9.47602C13.9362 9.91325 13.5233 10.2551 13.0395 10.4586C12.5557 10.6622 12.0226 10.7185 11.507 10.6204C10.9914 10.5224 10.5162 10.2743 10.1409 9.90739L6.62088 11.5274C6.64993 11.6835 6.66554 11.8419 6.66754 12.0007C6.66754 12.5281 6.51114 13.0437 6.21813 13.4822C5.92511 13.9208 5.50863 14.2626 5.02136 14.4644C4.53409 14.6662 3.99792 14.719 3.48063 14.6162C2.96335 14.5133 2.4882 14.2593 2.11526 13.8863C1.74232 13.5134 1.48834 13.0383 1.38545 12.521C1.28255 12.0037 1.33536 11.4675 1.5372 10.9802C1.73903 10.493 2.08082 10.0765 2.51936 9.78348C2.95789 9.49046 3.47346 9.33406 4.00088 9.33406ZM4.00088 2.66739C3.73717 2.66739 3.47938 2.74559 3.26011 2.8921C3.04085 3.03861 2.86995 3.24685 2.76904 3.49048C2.66812 3.73412 2.64172 4.00221 2.69316 4.26085C2.74461 4.51949 2.8716 4.75707 3.05807 4.94354C3.24454 5.13001 3.48211 5.25699 3.74076 5.30844C3.9994 5.35989 4.26749 5.33348 4.51112 5.23257C4.75476 5.13165 4.96299 4.96075 5.1095 4.74149C5.25601 4.52222 5.33421 4.26444 5.33421 4.00073C5.33421 3.64711 5.19373 3.30797 4.94368 3.05792C4.69364 2.80787 4.3545 2.66739 4.00088 2.66739ZM12.0009 9.33406C12.2646 9.33406 12.5224 9.25586 12.7416 9.10935C12.9609 8.96284 13.1318 8.75461 13.2327 8.51097C13.3336 8.26734 13.36 7.99925 13.3086 7.74061C13.2571 7.48197 13.1302 7.24439 12.9437 7.05792C12.7572 6.87145 12.5196 6.74446 12.261 6.69301C12.0024 6.64157 11.7343 6.66797 11.4906 6.76889C11.247 6.8698 11.0388 7.0407 10.8923 7.25997C10.7457 7.47923 10.6675 7.73702 10.6675 8.00073C10.6675 8.35435 10.808 8.69349 11.0581 8.94354C11.3081 9.19358 11.6473 9.33406 12.0009 9.33406ZM4.00088 13.3341C4.26458 13.3341 4.52237 13.2559 4.74164 13.1094C4.9609 12.9628 5.1318 12.7546 5.23272 12.511C5.33363 12.2673 5.36004 11.9992 5.30859 11.7406C5.25714 11.482 5.13015 11.2444 4.94368 11.0579C4.75721 10.8714 4.51964 10.7445 4.261 10.693C4.00235 10.6416 3.73427 10.668 3.49063 10.7689C3.247 10.8698 3.03876 11.0407 2.89225 11.26C2.74574 11.4792 2.66754 11.737 2.66754 12.0007C2.66754 12.3544 2.80802 12.6935 3.05807 12.9435C3.30812 13.1936 3.64725 13.3341 4.00088 13.3341Z" fill="currentColor"/>
</svg>
