<svg width="20" height="20" viewBox="0 0 20 20" fill="none" xmlns="http://www.w3.org/2000/svg">
<path d="M11.7681 8.23459C11.8847 8.35114 12.0332 8.43051 12.1948 8.46266C12.3565 8.49481 12.524 8.47831 12.6763 8.41524C12.8286 8.35217 12.9587 8.24536 13.0503 8.10831C13.1418 7.97127 13.1907 7.81016 13.1907 7.64534C13.1907 7.48052 13.1418 7.31941 13.0503 7.18236C12.9587 7.04532 12.8286 6.93851 12.6763 6.87544C12.524 6.81237 12.3565 6.79586 12.1948 6.82802C12.0332 6.86017 11.8847 6.93954 11.7681 7.05608C11.6119 7.21236 11.5241 7.42433 11.5241 7.64534C11.5241 7.86635 11.6119 8.07831 11.7681 8.23459ZM15.3037 3.86232L9.41111 3.86232C9.30144 3.86277 9.19293 3.88486 9.09181 3.92733C8.9907 3.9698 8.89896 4.03181 8.82185 4.10981L2.34004 10.5916C1.8712 11.0605 1.60781 11.6963 1.60781 12.3594C1.60781 13.0224 1.8712 13.6583 2.34004 14.1272L5.87558 17.6627C6.34442 18.1315 6.9803 18.3949 7.64334 18.3949C8.30638 18.3949 8.94227 18.1315 9.41111 17.6627L15.8929 11.1809C15.9709 11.1038 16.0329 11.012 16.0754 10.9109C16.1179 10.8098 16.14 10.7013 16.1404 10.5916V4.69906C16.1409 4.58905 16.1195 4.48004 16.0776 4.37832C16.0357 4.2766 15.9741 4.18418 15.8963 4.10639C15.8186 4.0286 15.7261 3.96698 15.6244 3.92509C15.5227 3.8832 15.4137 3.86187 15.3037 3.86232ZM14.4728 10.244L8.2326 16.4842C8.07632 16.6405 7.86436 16.7283 7.64334 16.7283C7.42233 16.7283 7.21037 16.6405 7.05409 16.4842L3.51855 12.9486C3.36227 12.7924 3.27448 12.5804 3.27448 12.3594C3.27448 12.1384 3.36227 11.9264 3.51855 11.7701L9.75877 5.52991L14.4728 5.52991L14.4728 10.244Z" fill="#080134"/>
</svg>
