<svg width="420" height="397" viewBox="0 0 420 397" fill="none" xmlns="http://www.w3.org/2000/svg">
<g clip-path="url(#clip0_4037_46907)">
<path d="M420 224.531C420 347.404 364.051 346.867 227.957 386.169C61.4951 434.244 0 313.743 0 190.869C0 67.9957 73.6599 26.7245 213.645 5.14894C426.798 -27.6173 420 101.657 420 224.531Z" fill="#E6E6EB"/>
<path d="M233.726 248.299H185.648V282.945H233.726V248.299Z" fill="#758586"/>
<path d="M233.682 285.183H185.648C184.396 285.183 183.412 284.198 183.412 282.945V248.299C183.412 247.045 184.396 246.061 185.648 246.061H233.726C234.978 246.061 235.962 247.045 235.962 248.299V282.945C235.918 284.198 234.934 285.183 233.682 285.183ZM187.884 280.707H231.49V250.537H187.884V280.707Z" fill="#354546"/>
<path d="M224.423 179.543H196.561V204.923H224.423V179.543Z" fill="#758586"/>
<path d="M224.424 207.116H196.561C195.309 207.116 194.325 206.132 194.325 204.878V179.498C194.325 178.245 195.309 177.26 196.561 177.26H224.424C225.676 177.26 226.66 178.245 226.66 179.498V204.878C226.66 206.132 225.632 207.116 224.424 207.116ZM198.798 202.64H222.188V181.736H198.798V202.64Z" fill="#354546"/>
<path d="M224.423 195.926C224.379 195.926 224.334 195.926 224.289 195.926L196.426 194.449C195.174 194.404 194.235 193.33 194.324 192.077C194.369 190.823 195.442 189.883 196.695 189.973L224.557 191.45C225.81 191.495 226.749 192.569 226.659 193.822C226.57 195.031 225.586 195.926 224.423 195.926Z" fill="#354546"/>
<path d="M244.459 269.695C241.821 269.695 239.227 268.441 237.304 266.203C235.694 264.368 225.452 250.044 229.611 244.359C230.237 243.508 231.49 242.434 233.815 242.345C239.003 242.076 247.322 246.955 250.184 250.223C254.075 254.654 254.567 261.637 251.302 266.114C249.692 268.307 247.411 269.605 244.862 269.739C244.728 269.695 244.594 269.695 244.459 269.695ZM233.189 246.955C232.921 247.313 232.742 249.372 235.023 254.207C236.767 257.877 239.227 261.593 240.658 263.249C241.821 264.547 243.252 265.308 244.638 265.218C245.846 265.174 246.875 264.547 247.68 263.428C249.692 260.653 249.29 255.952 246.785 253.132C244.638 250.67 237.483 246.642 233.949 246.776C233.457 246.776 233.234 246.91 233.189 246.955Z" fill="#018DF0"/>
<path d="M253.27 261.502C252.375 261.502 251.481 261.412 250.631 261.188C245.354 259.89 229.343 252.281 230.595 244.134C230.908 242.075 232.25 240.239 234.575 238.718C239.897 235.181 250.363 233.57 255.148 234.734C261.633 236.345 265.971 243.507 264.853 250.714C264.272 254.474 262.259 257.742 259.352 259.666C257.519 260.875 255.417 261.502 253.27 261.502ZM251.347 238.807C247.143 238.807 240.613 240.06 237.08 242.433C236.23 243.015 235.201 243.865 235.023 244.85C234.799 246.148 236.23 248.61 240.837 251.699C244.638 254.25 249.289 256.265 251.66 256.846C253.449 257.294 255.282 256.981 256.848 255.951C258.726 254.698 260.023 252.549 260.426 250.042C261.186 245.074 258.368 240.15 254.075 239.12C253.404 238.897 252.465 238.807 251.347 238.807Z" fill="#C72C1C"/>
<path d="M220.308 200.805C215.389 200.357 207.383 200.223 202.463 200.491L175.406 201.924C170.486 202.192 166.416 206.4 166.327 211.324L165.879 237.062C165.79 241.986 169.592 247.089 174.332 248.387L201.748 255.863C206.489 257.161 214.315 257.295 219.101 256.176L246.74 249.641C251.525 248.522 255.506 243.553 255.595 238.629L256.042 212.891C256.132 207.967 252.196 203.58 247.277 203.177L220.308 200.805Z" fill="#A5B5B6"/>
<path d="M246.829 242.479L219.19 249.014C214.404 250.133 206.623 249.999 201.837 248.701L174.422 241.225C169.681 239.927 165.879 234.824 165.969 229.9L165.835 237.062C165.745 241.986 169.547 247.089 174.287 248.387L201.703 255.863C206.444 257.161 214.27 257.295 219.056 256.176L246.695 249.641C251.48 248.522 255.461 243.553 255.55 238.629L255.684 231.467C255.595 236.391 251.615 241.315 246.829 242.479Z" fill="#859596"/>
<path d="M211.23 259.175C207.607 259.175 203.94 258.772 201.167 258.011L173.751 250.536C167.982 248.969 163.509 243.016 163.644 237.018L164.091 211.279C164.18 205.191 169.234 199.999 175.316 199.685L202.374 198.253C207.383 197.984 215.523 198.119 220.532 198.566L247.5 200.939C253.538 201.476 258.413 206.847 258.279 212.935L257.832 238.674C257.742 244.672 253.091 250.446 247.232 251.834L219.593 258.325C217.223 258.862 214.226 259.175 211.23 259.175ZM208.323 202.595C206.221 202.595 204.208 202.64 202.598 202.729L175.54 204.162C171.828 204.341 168.653 207.653 168.563 211.369L168.116 237.107C168.026 241.001 171.157 245.209 174.959 246.239L202.374 253.714C206.757 254.923 214.181 255.057 218.609 253.983L246.248 247.447C250.05 246.552 253.315 242.479 253.404 238.584L253.851 212.846C253.896 209.13 250.855 205.728 247.143 205.37L220.174 202.998C216.909 202.729 212.392 202.595 208.323 202.595Z" fill="#354546"/>
<path d="M220.444 212.372L181.453 211.691L180.975 239.125L219.966 239.806L220.444 212.372Z" fill="#556566"/>
<path d="M206.802 234.017C206.042 234.017 205.326 233.614 204.924 232.943L201.838 227.974L197.008 227.885C196.247 227.885 195.576 227.482 195.174 226.855L194.995 226.542L193.653 229.63C193.385 230.302 192.759 230.794 192.043 230.928C191.328 231.063 190.567 230.839 190.031 230.347L187.392 227.795L181.175 227.706C179.923 227.706 178.939 226.676 178.984 225.423C178.984 224.169 180.057 223.185 181.265 223.229L188.376 223.364C188.957 223.364 189.494 223.587 189.896 223.99L190.836 224.93L192.535 220.991C192.848 220.23 193.564 219.693 194.414 219.648C195.219 219.604 196.024 219.962 196.471 220.678L198.305 223.543L203.135 223.632C203.895 223.632 204.611 224.035 205.013 224.706L206.176 226.586L208.591 218.977C208.904 218.037 209.709 217.41 210.693 217.41C211.677 217.41 212.527 217.992 212.84 218.932L214.539 223.856L220.264 223.945C221.516 223.945 222.5 224.975 222.455 226.228C222.455 227.437 221.427 228.422 220.219 228.422H220.174L212.884 228.287C211.945 228.287 211.095 227.661 210.827 226.766V226.721L208.993 232.54C208.725 233.39 208.01 233.972 207.16 234.062C206.981 234.017 206.891 234.017 206.802 234.017Z" fill="#D5E5E6"/>
<path d="M219.995 242.075C219.951 242.075 219.951 242.075 219.995 242.075L180.952 241.404C179.699 241.404 178.716 240.374 178.76 239.121L179.252 211.681C179.252 210.428 180.281 209.443 181.533 209.488L220.532 210.159C221.114 210.159 221.695 210.428 222.098 210.831C222.5 211.278 222.724 211.815 222.724 212.442L222.232 239.882C222.232 240.464 221.963 241.045 221.561 241.448C221.114 241.851 220.532 242.075 219.995 242.075ZM183.277 236.927L217.804 237.509L218.207 214.546L183.68 213.964L183.277 236.927Z" fill="#354546"/>
<path d="M240.793 218.038C240.748 220.948 238.333 223.275 235.426 223.231C232.519 223.186 230.193 220.769 230.238 217.859C230.283 214.95 232.698 212.622 235.605 212.667C238.512 212.667 240.837 215.084 240.793 218.038Z" fill="#F75C4C"/>
<path d="M235.515 225.468C235.471 225.468 235.426 225.468 235.381 225.468C233.369 225.423 231.49 224.617 230.104 223.185C228.717 221.753 227.957 219.828 228.002 217.813C228.091 213.65 231.49 210.338 235.65 210.428C239.809 210.517 243.119 213.919 243.029 218.082C242.984 220.096 242.179 221.976 240.748 223.364C239.317 224.707 237.439 225.468 235.515 225.468ZM235.471 214.859C233.816 214.859 232.43 216.202 232.43 217.858C232.43 218.664 232.698 219.47 233.279 220.052C233.861 220.633 234.621 220.992 235.426 220.992C236.231 220.992 237.036 220.723 237.617 220.141C238.199 219.559 238.557 218.798 238.557 217.992C238.601 216.291 237.26 214.904 235.56 214.859C235.515 214.859 235.515 214.859 235.471 214.859Z" fill="#C72C1C"/>
<path d="M240.479 234.868C240.435 237.778 238.019 240.105 235.112 240.061C232.205 240.016 229.88 237.599 229.924 234.689C229.969 231.78 232.384 229.452 235.291 229.497C238.198 229.541 240.524 231.959 240.479 234.868Z" fill="#B9D96D"/>
<path d="M235.202 242.343C235.157 242.343 235.113 242.343 235.068 242.343C233.055 242.298 231.177 241.492 229.79 240.06C228.404 238.628 227.644 236.703 227.688 234.689C227.778 230.57 231.132 227.303 235.202 227.303C235.247 227.303 235.291 227.303 235.336 227.303C237.349 227.347 239.227 228.153 240.614 229.586C242 231.018 242.76 232.943 242.716 234.957C242.671 236.971 241.866 238.851 240.435 240.239C239.003 241.582 237.17 242.343 235.202 242.343ZM235.202 231.734C233.547 231.734 232.161 233.077 232.161 234.733C232.161 235.539 232.429 236.345 233.011 236.927C233.592 237.509 234.352 237.867 235.157 237.867C235.962 237.911 236.767 237.598 237.349 237.016C237.93 236.434 238.288 235.673 238.288 234.868C238.288 234.062 238.02 233.256 237.438 232.674C236.857 232.092 236.096 231.734 235.291 231.734C235.247 231.734 235.202 231.734 235.202 231.734Z" fill="#719911"/>
<path d="M180.415 208.325C179.342 208.325 178.403 207.564 178.224 206.445L177.016 199.104C176.837 197.895 177.642 196.731 178.85 196.552C180.057 196.373 181.22 197.179 181.399 198.387L182.607 205.729C182.785 206.937 181.98 208.101 180.773 208.28C180.683 208.325 180.549 208.325 180.415 208.325Z" fill="#354546"/>
<path d="M189.271 206.891C188.197 206.891 187.258 206.13 187.079 205.011L185.872 197.67C185.693 196.462 186.498 195.298 187.705 195.119C188.913 194.94 190.076 195.745 190.254 196.954L191.462 204.295C191.641 205.504 190.836 206.667 189.628 206.846C189.494 206.846 189.36 206.891 189.271 206.891Z" fill="#354546"/>
<path d="M240.97 208.326C240.836 208.326 240.747 208.326 240.613 208.281C239.405 208.102 238.555 206.938 238.779 205.73L239.986 198.389C240.165 197.18 241.328 196.33 242.536 196.553C243.743 196.732 244.593 197.896 244.369 199.105L243.162 206.446C242.983 207.565 242.044 208.326 240.97 208.326Z" fill="#354546"/>
<path d="M232.16 206.892C232.026 206.892 231.936 206.892 231.802 206.848C230.595 206.669 229.745 205.505 229.968 204.296L231.176 196.955C231.355 195.746 232.518 194.896 233.725 195.12C234.933 195.299 235.783 196.463 235.559 197.671L234.351 205.012C234.172 206.087 233.233 206.892 232.16 206.892Z" fill="#354546"/>
<path d="M185.603 316.695H171.649V343.553H185.603V316.695Z" fill="#A5B5B6"/>
<path d="M185.603 316.695H171.649V327.349H185.603V316.695Z" fill="#C5D5D6"/>
<path d="M185.648 345.791H171.694C170.442 345.791 169.458 344.806 169.458 343.553V316.695C169.458 315.442 170.442 314.457 171.694 314.457H185.648C186.9 314.457 187.884 315.442 187.884 316.695V343.553C187.884 344.806 186.856 345.791 185.648 345.791ZM173.886 341.315H183.367V318.933H173.886V341.315Z" fill="#354546"/>
<path d="M171.649 290.822H162.168V338.271H171.649V290.822Z" fill="#A5B5B6"/>
<path d="M171.694 340.509H162.213C160.96 340.509 159.977 339.524 159.977 338.271V290.822C159.977 289.569 160.96 288.584 162.213 288.584H171.694C172.946 288.584 173.93 289.569 173.93 290.822V338.271C173.93 339.524 172.902 340.509 171.694 340.509ZM164.404 336.032H169.413V293.06H164.404V336.032Z" fill="#354546"/>
<path d="M167.132 274.395H166.73C161.81 274.395 157.785 278.423 157.785 283.347V304.609H176.077V283.347C176.077 278.423 172.052 274.395 167.132 274.395Z" fill="#A5B5B6"/>
<path d="M167.132 274.395H166.73C161.81 274.395 157.785 278.423 157.785 283.347V291.494C157.785 286.57 161.81 282.541 166.73 282.541H167.132C172.052 282.541 176.077 286.57 176.077 291.494V283.347C176.077 278.423 172.052 274.395 167.132 274.395Z" fill="#C5D5D6"/>
<path d="M176.077 306.847H157.785C156.533 306.847 155.549 305.863 155.549 304.609V283.347C155.549 277.17 160.558 272.156 166.73 272.156H167.132C173.304 272.156 178.313 277.17 178.313 283.347V304.609C178.313 305.863 177.285 306.847 176.077 306.847ZM160.021 302.371H173.841V283.347C173.841 279.632 170.844 276.633 167.132 276.633H166.73C163.018 276.633 160.021 279.632 160.021 283.347V302.371Z" fill="#354546"/>
<path d="M234.645 343.547H248.599V316.689H234.645V343.547Z" fill="#A5B5B6"/>
<path d="M234.645 327.359H248.599V316.706H234.645V327.359Z" fill="#C5D5D6"/>
<path d="M248.619 345.791H234.665C233.413 345.791 232.429 344.806 232.429 343.553V316.695C232.429 315.442 233.413 314.457 234.665 314.457H248.619C249.871 314.457 250.855 315.442 250.855 316.695V343.553C250.855 344.806 249.871 345.791 248.619 345.791ZM236.901 341.315H246.383V318.933H236.901V341.315Z" fill="#354546"/>
<path d="M248.599 338.309H258.08V290.86H248.599V338.309Z" fill="#A5B5B6"/>
<path d="M258.1 340.509H248.619C247.367 340.509 246.383 339.524 246.383 338.271V290.822C246.383 289.569 247.367 288.584 248.619 288.584H258.1C259.353 288.584 260.337 289.569 260.337 290.822V338.271C260.337 339.524 259.353 340.509 258.1 340.509ZM250.855 336.032H255.864V293.06H250.855V336.032Z" fill="#354546"/>
<path d="M253.136 274.395H253.539C258.458 274.395 262.483 278.423 262.483 283.347V304.609H244.191V283.347C244.191 278.423 248.217 274.395 253.136 274.395Z" fill="#A5B5B6"/>
<path d="M253.136 274.395H253.539C258.458 274.395 262.483 278.423 262.483 283.347V291.494C262.483 286.57 258.458 282.541 253.539 282.541H253.136C248.217 282.541 244.191 286.57 244.191 291.494V283.347C244.191 278.423 248.217 274.395 253.136 274.395Z" fill="#C5D5D6"/>
<path d="M262.483 306.847H244.191C242.939 306.847 241.955 305.863 241.955 304.609V283.347C241.955 277.17 246.964 272.156 253.136 272.156H253.539C259.71 272.156 264.719 277.17 264.719 283.347V304.609C264.719 305.863 263.736 306.847 262.483 306.847ZM246.427 302.371H260.247V283.347C260.247 279.632 257.251 276.633 253.539 276.633H253.136C249.424 276.633 246.427 279.632 246.427 283.347V302.371Z" fill="#354546"/>
<path d="M234.218 365.934C234.218 370.858 230.193 374.887 225.273 374.887H194.548C189.629 374.887 185.604 370.858 185.604 365.934V294.314C185.604 289.39 189.629 285.361 194.548 285.361H225.273C230.193 285.361 234.218 289.39 234.218 294.314V365.934Z" fill="#6D6D6D"/>
<path d="M225.273 361.233H194.548C190.568 361.233 186.856 358.592 185.604 354.922V365.933C185.604 370.857 189.629 374.886 194.548 374.886H225.273C230.193 374.886 234.218 370.857 234.218 365.933V354.922C232.966 358.592 229.299 361.233 225.273 361.233Z" fill="#5B5B5B"/>
<path d="M233.95 324.304L185.648 320.275L185.917 308.189H233.95V324.304Z" fill="#929292"/>
<path d="M233.949 333.706L185.916 337.018V328.961H233.949V333.706Z" fill="#929292"/>
<path d="M225.273 377.125H194.548C188.376 377.125 183.367 372.111 183.367 365.934V294.314C183.367 288.136 188.376 283.123 194.548 283.123H225.273C231.445 283.123 236.454 288.136 236.454 294.314V365.934C236.454 372.111 231.445 377.125 225.273 377.125ZM194.593 287.599C190.881 287.599 187.884 290.598 187.884 294.314V365.934C187.884 369.649 190.881 372.648 194.593 372.648H225.318C229.03 372.648 232.027 369.649 232.027 365.934V294.314C232.027 290.598 229.03 287.599 225.318 287.599H194.593Z" fill="#121212"/>
<path d="M234.352 274.395H185.514C180.192 274.395 175.854 278.423 175.854 283.347V296.328H244.012V283.347C244.012 278.423 239.674 274.395 234.352 274.395Z" fill="#A5B5B6"/>
<path d="M234.352 274.395H185.514C180.192 274.395 175.854 278.423 175.854 283.347H244.012C244.012 278.423 239.674 274.395 234.352 274.395Z" fill="#C5D5D6"/>
<path d="M244.012 298.566H175.853C174.601 298.566 173.617 297.581 173.617 296.328V283.347C173.617 277.17 178.939 272.156 185.514 272.156H234.352C240.926 272.156 246.248 277.17 246.248 283.347V296.328C246.248 297.581 245.22 298.566 244.012 298.566ZM178.09 294.09H241.776V283.347C241.776 279.632 238.467 276.633 234.352 276.633H185.514C181.399 276.633 178.09 279.632 178.09 283.347V294.09Z" fill="#354546"/>
<path d="M196.515 280.885C195.263 280.885 194.279 279.901 194.279 278.647V271.262C194.279 270.008 195.263 269.023 196.515 269.023C197.768 269.023 198.752 270.008 198.752 271.262V278.692C198.752 279.901 197.768 280.885 196.515 280.885Z" fill="#354546"/>
<path d="M205.461 280.885C204.209 280.885 203.225 279.901 203.225 278.647V271.262C203.225 270.008 204.209 269.023 205.461 269.023C206.713 269.023 207.697 270.008 207.697 271.262V278.692C207.697 279.901 206.713 280.885 205.461 280.885Z" fill="#354546"/>
<path d="M214.405 280.885C213.153 280.885 212.169 279.901 212.169 278.647V271.262C212.169 270.008 213.153 269.023 214.405 269.023C215.657 269.023 216.641 270.008 216.641 271.262V278.692C216.641 279.901 215.657 280.885 214.405 280.885Z" fill="#354546"/>
<path d="M223.349 280.885C222.097 280.885 221.113 279.901 221.113 278.647V271.262C221.113 270.008 222.097 269.023 223.349 269.023C224.602 269.023 225.586 270.008 225.586 271.262V278.692C225.586 279.901 224.602 280.885 223.349 280.885Z" fill="#354546"/>
<path d="M276.571 82.8999C276.526 82.8999 276.526 82.8999 276.482 82.8999C275.229 82.8551 274.29 81.8256 274.335 80.5722L275.632 50.3574C275.811 45.0307 273.932 39.883 270.265 35.9438C266.598 32.0047 261.633 29.7218 256.266 29.498H256.222L178.492 24.3951C167.401 23.9922 158.098 32.6762 157.651 43.7773L156.354 76.2302C156.309 77.4836 155.28 78.4236 154.028 78.3788C152.776 78.3341 151.837 77.3045 151.881 76.0512L153.178 43.5983C153.67 30.0352 165.12 19.4264 178.671 19.9188H178.716L256.401 25.0218C262.93 25.2903 268.968 28.0656 273.485 32.9C277.957 37.7344 280.283 44.0011 280.059 50.5365L278.762 80.7513C278.762 81.9598 277.779 82.8999 276.571 82.8999Z" fill="#354546"/>
<path d="M141.372 78.8725C137.525 78.7382 134.216 82.6326 134.037 87.5565L132.919 117.816C132.74 122.74 135.736 126.858 139.583 127.037C143.429 127.171 146.604 127.306 146.604 127.306L148.393 79.1858C148.393 79.1411 145.218 79.0068 141.372 78.8725Z" fill="#A5B5B6"/>
<path d="M134.037 87.5565L133.5 102.373L147.543 102.91L148.438 79.1411C148.438 79.1411 145.262 79.0068 141.416 78.8725C137.525 78.7382 134.216 82.6326 134.037 87.5565Z" fill="#C5D5D6"/>
<path d="M146.514 129.498L139.492 129.23C136.943 129.14 134.572 127.797 132.918 125.515C131.352 123.366 130.547 120.591 130.681 117.726L131.8 87.4663C132.023 81.289 136.361 76.4547 141.46 76.6337L148.481 76.9023L148.303 81.3786L141.281 81.11C141.236 81.11 141.191 81.11 141.147 81.11C138.598 81.11 136.361 84.0643 136.227 87.6453L135.109 117.905C135.02 119.74 135.556 121.575 136.496 122.918C137.345 124.082 138.463 124.754 139.626 124.798L146.648 125.067L146.514 129.498Z" fill="#354546"/>
<path d="M161.629 76.4019L148.489 75.916L146.33 134.425L159.469 134.91L161.629 76.4019Z" fill="#859596"/>
<path d="M161.659 76.3941L148.52 75.9082L147.284 109.367L160.424 109.853L161.659 76.3941Z" fill="#A5B5B6"/>
<path d="M159.484 137.153C159.439 137.153 159.439 137.153 159.395 137.153L146.246 136.66C144.994 136.616 144.054 135.586 144.099 134.333L146.246 75.8279C146.291 74.5745 147.319 73.6345 148.572 73.6793L161.72 74.1717C162.302 74.1717 162.883 74.4402 163.286 74.8879C163.688 75.3355 163.912 75.9174 163.867 76.4993L161.72 135.004C161.72 135.586 161.452 136.168 161.005 136.571C160.602 136.929 160.066 137.153 159.484 137.153ZM148.661 132.274L157.337 132.587L159.35 78.5584L150.674 78.2451L148.661 132.274Z" fill="#354546"/>
<path d="M133.499 104.611H128.133C126.88 104.611 125.896 103.626 125.896 102.373C125.896 101.12 126.88 100.135 128.133 100.135H133.499C134.752 100.135 135.736 101.12 135.736 102.373C135.736 103.581 134.707 104.611 133.499 104.611Z" fill="#354546"/>
<path d="M297.68 51.3866C297.412 51.3866 297.144 51.3418 296.92 51.2971C295.265 50.8494 294.237 49.1485 294.639 47.4922L296.965 38.4054C297.412 36.7492 299.111 35.7197 300.766 36.1225C302.421 36.5701 303.45 38.2711 303.047 39.9273L300.721 49.0142C300.364 50.4466 299.111 51.3866 297.68 51.3866Z" fill="#354546"/>
<path d="M288.511 86.5253C288.332 86.5253 288.153 86.5253 287.975 86.4358C286.767 86.1224 286.051 84.9139 286.364 83.7053L295.533 47.6713C295.846 46.4627 297.053 45.7465 298.261 46.0599C299.469 46.3732 300.184 47.5818 299.871 48.7904L290.703 84.8691C290.434 85.8539 289.495 86.5253 288.511 86.5253Z" fill="#354546"/>
<path d="M288.512 84.2883C292.358 84.4226 295.354 88.5855 295.176 93.5094L294.057 123.769C293.879 128.693 290.569 132.587 286.723 132.453C282.877 132.319 279.701 132.184 279.701 132.184L281.49 84.0645C281.49 84.0645 284.665 84.154 288.512 84.2883Z" fill="#A5B5B6"/>
<path d="M295.221 93.5092L294.684 108.326L280.641 107.789L281.535 84.0195C281.535 84.0195 284.71 84.1538 288.557 84.2881C292.358 84.4672 295.399 88.5853 295.221 93.5092Z" fill="#C5D5D6"/>
<path d="M286.946 134.69C286.857 134.69 286.767 134.69 286.678 134.69L279.656 134.422L279.835 129.945L286.857 130.214C288.02 130.259 289.182 129.677 290.122 128.558C291.195 127.304 291.821 125.514 291.866 123.679L292.984 93.4191C293.073 91.5839 292.537 89.7486 291.597 88.4057C290.748 87.2419 289.63 86.5704 288.467 86.5257L281.445 86.2571C280.193 86.2123 279.254 85.1828 279.298 83.9294C279.343 82.6761 280.372 81.7361 281.624 81.7808L288.646 82.0494C291.195 82.1389 293.565 83.4818 295.22 85.7647C296.785 87.9133 297.59 90.6886 297.456 93.5534L296.338 123.813C296.249 126.678 295.22 129.408 293.521 131.423C291.732 133.526 289.361 134.69 286.946 134.69Z" fill="#354546"/>
<path d="M266.332 138.846L279.472 139.332L281.631 80.8235L268.492 80.3376L266.332 138.846Z" fill="#859596"/>
<path d="M267.27 113.829L280.409 114.314L281.644 80.8554L268.505 80.3695L267.27 113.829Z" fill="#A5B5B6"/>
<path d="M279.478 141.583C279.433 141.583 279.433 141.583 279.388 141.583L266.239 141.09C265.658 141.09 265.076 140.822 264.674 140.374C264.271 139.926 264.048 139.344 264.093 138.763L266.239 80.2578C266.239 79.6759 266.508 79.0939 266.955 78.6911C267.402 78.2882 267.984 78.0644 268.565 78.1092L281.714 78.6016C282.966 78.6463 283.905 79.6759 283.86 80.9292L281.714 139.434C281.669 140.598 280.64 141.583 279.478 141.583ZM268.654 136.703L277.331 137.017L279.343 82.9883L270.667 82.675L268.654 136.703Z" fill="#354546"/>
<path d="M300.006 110.921C299.961 110.921 299.916 110.921 299.827 110.921L294.46 110.518C293.208 110.428 292.313 109.354 292.403 108.145C292.492 106.892 293.565 105.997 294.773 106.086L300.14 106.489C301.392 106.579 302.287 107.653 302.197 108.862C302.152 110.025 301.168 110.921 300.006 110.921Z" fill="#354546"/>
<path d="M147.901 178.469C147.766 178.469 147.632 178.469 147.498 178.469C144.77 178.334 142.265 176.947 140.566 174.574C137.033 169.74 137.569 162.175 141.818 157.341C144.949 153.76 154.028 148.478 159.708 148.746C162.167 148.836 163.464 149.955 164.135 150.895C165.969 153.402 165.432 157.564 162.57 163.652C160.468 168.128 157.471 172.605 155.638 174.709C153.491 177.081 150.718 178.469 147.901 178.469ZM159.26 153.222C156.219 153.222 148.437 156.535 145.128 160.295C142.31 163.473 141.863 168.8 144.144 171.933C145.083 173.187 146.291 173.903 147.677 173.992C149.242 174.037 150.942 173.231 152.239 171.754C153.849 169.964 156.532 165.846 158.455 161.772C160.96 156.535 160.826 154.073 160.423 153.536C160.289 153.357 159.931 153.267 159.395 153.222C159.395 153.222 159.35 153.222 159.26 153.222Z" fill="#018DF0"/>
<path d="M268.924 165.979C266.911 165.979 264.899 165.486 263.244 164.502C259.755 162.443 255.015 155.952 254.344 151.028C253.941 148.208 254.925 146.507 255.82 145.567C260.65 140.464 274.648 145.925 277.779 147.76C280.06 149.103 281.491 151.207 281.849 153.669C282.251 156.444 281.178 159.354 278.986 161.682C276.258 164.502 272.502 165.979 268.924 165.979ZM261.947 147.895C260.605 147.895 259.532 148.119 259.04 148.656C258.682 149.059 258.682 149.82 258.771 150.401C259.263 154.117 263.288 159.309 265.525 160.652C268.387 162.353 273.038 161.413 275.677 158.638C276.929 157.295 277.555 155.728 277.376 154.341C277.242 153.221 276.571 152.281 275.453 151.655C272.278 149.73 265.838 147.895 261.947 147.895Z" fill="#018DF0"/>
<path d="M138.196 169.471C135.87 169.471 133.634 168.8 131.622 167.457C128.491 165.353 126.299 161.817 125.673 157.743C124.421 149.91 129.162 142.121 136.183 140.375C141.416 139.077 152.821 140.823 158.679 144.717C161.184 146.374 162.615 148.343 162.973 150.537C164.359 159.4 146.828 167.636 141.103 169.068C140.119 169.337 139.135 169.471 138.196 169.471ZM140.298 144.449C139.09 144.449 138.017 144.538 137.257 144.717C132.427 145.926 129.207 151.432 130.101 157.027C130.548 159.847 132.024 162.309 134.126 163.697C135.87 164.861 137.972 165.219 140.03 164.726C142.713 164.055 147.812 161.862 152.06 158.997C156.443 156.042 158.903 153.133 158.59 151.208C158.411 150.044 157.204 149.059 156.22 148.388C152.239 145.837 144.994 144.449 140.298 144.449Z" fill="#719911"/>
<path d="M265.301 161.056C264.853 173.366 254.433 183.393 242.134 183.348L177.642 183.079C165.343 183.035 156.085 172.963 157.025 160.653L164.136 59.6688C165.075 47.4038 175.898 38.1827 188.152 39.257L247.098 44.2257C259.352 45.2552 269.013 56.1773 268.565 68.487L265.301 161.056Z" fill="#A5B5B6"/>
<path d="M255.059 142.302C254.746 151.344 246.383 158.685 236.499 158.64L184.709 158.237C174.825 158.148 167.356 150.717 168.072 141.72L173.528 70.4128C174.244 61.3707 182.92 54.6563 192.759 55.4621L240.122 59.2669C249.961 60.0726 257.743 68.1299 257.43 77.1719L255.059 142.302Z" fill="#C5D5D6"/>
<path d="M246.785 173.366L176.748 172.874C168.071 172.829 160.737 168.532 156.98 162.131C156.846 173.724 165.88 182.99 177.642 183.035L242.089 183.304C252.42 183.348 261.41 176.321 264.317 166.786C259.755 170.904 253.538 173.411 246.785 173.366Z" fill="#859596"/>
<path d="M246.964 175.605C246.919 175.605 246.83 175.605 246.785 175.605L176.748 175.113C167.535 175.068 159.395 170.636 155.057 163.295C154.431 162.221 154.788 160.878 155.817 160.207C156.891 159.58 158.232 159.938 158.903 160.967C162.436 166.966 169.145 170.547 176.793 170.591L246.83 171.084C252.823 171.129 258.503 168.98 262.841 165.086C263.78 164.28 265.166 164.325 266.016 165.265C266.821 166.205 266.777 167.592 265.837 168.443C260.649 173.098 253.986 175.605 246.964 175.605Z" fill="#354546"/>
<path d="M242.179 185.586C242.134 185.586 242.089 185.586 242.089 185.586L177.642 185.317C171.068 185.273 165.075 182.676 160.737 177.976C156.399 173.276 154.297 167.054 154.833 160.519L161.9 59.4895C162.392 52.9541 165.433 47.0007 170.442 42.7483C175.451 38.4958 181.802 36.4367 188.331 37.0186L247.277 41.9873C260.739 43.1064 271.294 55.058 270.802 68.5316L267.537 161.145C267 174.619 255.685 185.586 242.179 185.586ZM186.274 41.4054C181.533 41.4054 177.016 43.0616 173.349 46.195C169.234 49.6865 166.774 54.5208 166.372 59.8476L159.261 160.832C158.858 166.159 160.513 171.172 164.002 174.932C167.49 178.692 172.32 180.796 177.642 180.841L242.089 181.11C242.134 181.11 242.134 181.11 242.179 181.11C253.27 181.11 262.617 172.112 263.02 161.011L266.285 68.3973C266.687 57.2514 258.011 47.4036 246.875 46.4636L187.974 41.4501C187.392 41.4054 186.811 41.4054 186.274 41.4054Z" fill="#354546"/>
<path d="M216.015 68.5322C203.761 68.5322 189.181 64.7722 189.181 46.8223C189.181 44.0023 189.538 42.1223 190.254 39.4813C190.567 38.2727 191.819 37.6012 192.982 37.9146C194.19 38.2279 194.861 39.4813 194.548 40.6451C193.921 43.0175 193.608 44.4947 193.608 46.8223C193.608 51.0748 193.608 64.056 215.97 64.056C238.421 64.056 238.421 51.0748 238.421 46.8223C238.421 45.8823 238.377 44.8975 238.287 44.0023C238.153 42.7937 239.048 41.6746 240.3 41.5403C241.552 41.4061 242.625 42.3013 242.76 43.5547C242.894 44.629 242.939 45.748 242.939 46.8671C242.939 56.7149 238.287 68.5322 216.015 68.5322Z" fill="#354546"/>
<path d="M201.4 100.622C203.719 87.4753 194.952 74.9357 181.816 72.6142C168.681 70.2927 156.152 79.0683 153.833 92.2151C151.513 105.362 160.281 117.901 173.416 120.223C186.552 122.545 199.081 113.769 201.4 100.622Z" fill="#C5D5D6"/>
<path d="M177.642 122.83C177.329 122.83 176.971 122.83 176.658 122.83C169.636 122.561 163.107 119.562 158.276 114.415C153.491 109.267 150.987 102.508 151.255 95.4799C151.523 88.4522 154.52 81.9168 159.663 77.0824C164.806 72.2928 171.559 69.7861 178.581 70.0547C185.603 70.3233 192.132 73.3224 196.962 78.4701C201.748 83.6178 204.252 90.377 203.984 97.4047L201.748 97.3152L203.984 97.4047C203.716 104.432 200.719 110.968 195.576 115.802C190.656 120.323 184.306 122.83 177.642 122.83ZM177.597 74.4862C172.051 74.4862 166.774 76.5453 162.704 80.3501C158.411 84.334 155.951 89.7503 155.727 95.6142C155.504 101.478 157.606 107.073 161.586 111.371C165.566 115.668 170.978 118.13 176.837 118.354C182.696 118.577 188.286 116.474 192.58 112.49C196.873 108.506 199.333 103.09 199.556 97.2256C199.78 91.3617 197.678 85.7664 193.698 81.4692C189.717 77.172 184.306 74.71 178.447 74.4862C178.134 74.4862 177.865 74.4862 177.597 74.4862Z" fill="#354546"/>
<path d="M192.196 101.887C195.203 93.8276 191.113 84.8546 183.06 81.8452C175.008 78.8358 166.043 82.9297 163.036 90.9891C160.029 99.0486 164.12 108.022 172.172 111.031C180.224 114.04 189.19 109.947 192.196 101.887Z" fill="#9ABD45"/>
<path d="M187.451 91.9233C187.491 86.5834 183.198 82.2222 177.863 82.1822C172.527 82.1422 168.17 86.4386 168.13 91.7785C168.09 97.1184 172.383 101.48 177.718 101.52C183.053 101.56 187.411 97.2632 187.451 91.9233Z" fill="#CEEB87"/>
<path d="M177.642 114.234C177.418 114.234 177.195 114.234 176.971 114.234C172.23 114.055 167.803 112.04 164.583 108.549C161.363 105.057 159.663 100.536 159.842 95.7468C160.021 91.0019 162.033 86.5704 165.522 83.3475C169.01 80.1246 173.527 78.4236 178.313 78.6027C183.054 78.7817 187.481 80.796 190.701 84.2875C193.921 87.779 195.621 92.3 195.442 97.0896C195.039 106.669 187.123 114.234 177.642 114.234ZM177.597 83.0789C174.243 83.0789 171.023 84.3323 168.518 86.66C165.924 89.0771 164.404 92.3896 164.27 95.9258C164.135 99.5068 165.388 102.909 167.803 105.505C170.218 108.101 173.527 109.623 177.061 109.757C180.638 109.892 184.037 108.638 186.631 106.221C189.225 103.804 190.746 100.492 190.88 96.9554C191.014 93.3744 189.762 89.9724 187.347 87.3762C184.932 84.7799 181.622 83.258 178.089 83.1237C177.955 83.0789 177.776 83.0789 177.597 83.0789Z" fill="#354546"/>
<path d="M181.622 86.0347C182.606 88.228 179.52 90.1528 175.45 91.9433C171.38 93.7786 167.937 94.8081 166.953 92.57C165.969 90.3319 168.429 87.109 172.499 85.2737C176.568 83.4832 180.638 83.8413 181.622 86.0347Z" fill="white"/>
<path d="M182.07 105.506C181.578 104.835 182.428 103.985 183.635 103.089C184.843 102.194 185.871 101.567 186.408 102.239C186.9 102.91 186.319 104.164 185.156 105.059C183.948 105.954 182.562 106.178 182.07 105.506Z" fill="white"/>
<path d="M180.366 108.233C181.207 106.389 180.396 104.212 178.553 103.37C176.711 102.528 174.535 103.34 173.694 105.184C172.853 107.028 173.665 109.206 175.507 110.048C177.35 110.89 179.525 110.077 180.366 108.233Z" fill="#354546"/>
<path d="M269.862 101.341C269.46 112.666 259.934 116.561 248.663 116.113C237.348 115.71 228.538 111.099 228.985 99.8193C229.388 88.4944 238.914 79.6761 250.184 80.1237C261.454 80.5266 270.265 90.0163 269.862 101.341Z" fill="#C5D5D6"/>
<path d="M250.273 118.396C249.692 118.396 249.155 118.396 248.529 118.351C242 118.127 236.812 116.605 233.055 113.875C228.672 110.652 226.48 105.773 226.704 99.7744C226.928 93.7315 229.477 88.0914 233.949 83.9732C238.377 79.8551 244.191 77.6617 250.229 77.9303C256.266 78.1541 261.902 80.7055 266.016 85.1818C270.131 89.6133 272.277 95.4325 272.054 101.475C271.696 112.263 263.78 118.396 250.273 118.396ZM249.379 82.317C244.772 82.317 240.389 84.018 236.99 87.1961C233.413 90.5086 231.355 95.0296 231.176 99.9087C230.998 104.519 232.473 107.876 235.738 110.249C238.69 112.442 243.207 113.696 248.753 113.875C263.959 114.457 267.403 107.295 267.626 101.252C267.805 96.3725 266.061 91.7172 262.751 88.1809C259.442 84.5999 254.925 82.5408 250.05 82.3618C249.826 82.317 249.603 82.317 249.379 82.317Z" fill="#354546"/>
<path d="M262.573 101.072C262.304 108.368 256.177 109.129 248.887 108.86C241.597 108.592 235.918 107.383 236.186 100.087C236.454 92.7907 242.581 87.1058 249.871 87.3744C257.161 87.6429 262.841 93.7754 262.573 101.072Z" fill="#018DF0"/>
<path d="M257.608 96.4616C257.429 100.983 253.941 102.684 249.424 102.505C244.907 102.325 241.061 100.401 241.239 95.8349C241.418 91.3139 245.22 87.7776 249.737 87.9119C254.209 88.1357 257.742 91.9405 257.608 96.4616Z" fill="#018DF0"/>
<path d="M251.391 111.145C250.452 111.145 249.558 111.1 248.797 111.1C243.833 110.921 233.546 110.518 233.949 99.9988C234.262 91.4939 241.418 84.8242 249.96 85.1376C258.458 85.4509 265.121 92.6129 264.808 101.163C264.495 110.07 256.803 111.145 251.391 111.145ZM249.379 89.6138C243.52 89.6138 238.645 94.2691 238.421 100.178C238.287 103.356 239.539 104.475 240.747 105.146C242.804 106.266 246.024 106.534 248.931 106.624C258.279 106.982 260.157 104.923 260.291 100.984C260.515 94.9406 255.774 89.8376 249.736 89.6138C249.647 89.6138 249.513 89.6138 249.379 89.6138Z" fill="#354546"/>
<path d="M245.399 94.717C247.277 95.5227 247.009 97.2237 246.204 99.1037C245.399 100.984 244.37 102.371 242.492 101.566C240.613 100.76 239.719 98.5666 240.524 96.6866C241.329 94.7618 243.52 93.9113 245.399 94.717Z" fill="white"/>
<path d="M253.717 105.19C253.494 104.698 254.164 104.295 255.059 103.892C255.953 103.489 256.714 103.266 256.937 103.758C257.161 104.25 256.624 104.967 255.73 105.37C254.835 105.772 253.941 105.683 253.717 105.19Z" fill="white"/>
<path d="M250.221 94.8681C251.886 94.4024 252.859 92.6738 252.393 91.0072C251.928 89.3405 250.201 88.3669 248.536 88.8326C246.87 89.2983 245.898 91.0269 246.363 92.6935C246.828 94.3602 248.555 95.3338 250.221 94.8681Z" fill="#354546"/>
<path d="M242 139.435C235.962 132.99 224.423 126.589 210.649 126.812C196.874 126.589 185.335 133.034 179.297 139.435C173.036 145.971 172.186 152.506 174.646 154.789C180.281 159.265 194.995 152.238 210.649 152.954C226.302 152.282 241.016 159.265 246.651 154.789C249.111 152.506 248.261 145.971 242 139.435Z" fill="white"/>
<path d="M180.281 158.549C177.463 158.549 175.093 158.012 173.259 156.58C173.215 156.535 173.17 156.49 173.125 156.49C171.873 155.326 171.202 153.625 171.113 151.566C170.979 147.359 173.394 142.39 177.687 137.958C183.77 131.468 195.442 124.619 209.978 124.619C210.201 124.619 210.425 124.619 210.648 124.619C210.872 124.619 211.096 124.619 211.319 124.619C225.855 124.619 237.483 131.468 243.61 137.958C247.903 142.435 250.274 147.359 250.139 151.566C250.095 153.625 249.379 155.371 248.127 156.49C248.082 156.535 248.037 156.58 247.993 156.58C244.057 159.668 237.751 158.549 229.79 157.117C223.976 156.087 217.402 154.923 210.693 155.192C210.648 155.192 210.559 155.192 210.514 155.192C203.806 154.879 197.231 156.087 191.417 157.117C187.213 157.878 183.456 158.549 180.281 158.549ZM176.122 153.088C178.492 154.879 184.172 153.849 190.702 152.685C196.695 151.611 203.537 150.402 210.693 150.716C217.849 150.402 224.647 151.611 230.685 152.685C237.214 153.849 242.85 154.879 245.265 153.088C245.578 152.775 245.757 152.148 245.801 151.342C245.846 149.06 244.504 145.12 240.479 140.958C235.157 135.317 224.2 128.827 210.783 129.006C210.738 129.006 210.738 129.006 210.693 129.006C197.276 128.782 186.319 135.317 180.997 140.958C176.972 145.165 175.63 149.06 175.675 151.342C175.63 152.148 175.809 152.775 176.122 153.088Z" fill="#354546"/>
<path d="M190.254 156.936C189.136 156.936 188.152 156.086 188.018 154.922L185.827 132.854C185.693 131.646 186.587 130.527 187.839 130.392C189.092 130.258 190.165 131.153 190.299 132.407L192.491 154.475C192.625 155.683 191.73 156.802 190.478 156.936C190.389 156.936 190.344 156.936 190.254 156.936Z" fill="#354546"/>
<path d="M210.648 155.192C209.396 155.192 208.412 154.207 208.412 152.954V126.767C208.412 125.514 209.396 124.529 210.648 124.529C211.901 124.529 212.884 125.514 212.884 126.767V152.954C212.884 154.207 211.856 155.192 210.648 155.192Z" fill="#354546"/>
<path d="M229.12 156.937C228.986 156.937 228.896 156.937 228.762 156.892C227.555 156.713 226.705 155.549 226.928 154.34L230.551 132.004C230.73 130.795 231.893 129.945 233.1 130.169C234.308 130.348 235.158 131.512 234.934 132.72L231.311 155.057C231.132 156.176 230.193 156.937 229.12 156.937Z" fill="#354546"/>
<path d="M128.446 223.142C130.592 224.351 131.353 227.126 130.145 229.23L129.072 231.155C127.864 233.303 125.091 234.064 122.989 232.856L103.445 221.755C101.298 220.546 100.538 217.771 101.746 215.667L102.819 213.742C104.027 211.593 106.799 210.833 108.901 212.041L128.446 223.142Z" fill="#A5B5B6"/>
<path d="M125.136 235.676C123.974 235.676 122.856 235.363 121.827 234.781L102.283 223.68C99.0626 221.844 97.9445 217.726 99.7782 214.503L100.852 212.579C101.746 211.012 103.177 209.893 104.921 209.445C106.666 208.953 108.455 209.177 110.02 210.072L129.564 221.173C132.784 223.008 133.902 227.126 132.069 230.349L130.995 232.274C130.101 233.841 128.67 234.96 126.925 235.408C126.344 235.587 125.763 235.676 125.136 235.676ZM106.71 213.698C106.487 213.698 106.308 213.742 106.084 213.787C105.503 213.966 105.011 214.324 104.742 214.817L103.669 216.742C103.043 217.816 103.445 219.203 104.519 219.785L124.063 230.887C124.6 231.2 125.181 231.245 125.763 231.11C126.344 230.931 126.836 230.573 127.104 230.081L128.178 228.156C128.804 227.082 128.401 225.694 127.328 225.112L107.828 213.966C107.471 213.787 107.113 213.698 106.71 213.698Z" fill="#354546"/>
<path d="M132.113 225.336L127.551 222.74C123.258 220.323 117.801 221.8 115.341 226.097L112.747 230.663C110.332 234.96 111.808 240.421 116.102 242.883L120.664 245.479C124.957 247.896 130.413 246.419 132.873 242.122L135.467 237.556C137.882 233.259 136.406 227.753 132.113 225.336Z" fill="#A5B5B6"/>
<path d="M125.092 248.88C123.213 248.88 121.335 248.433 119.591 247.403L115.029 244.807C112.435 243.33 110.556 240.913 109.796 238.048C108.991 235.138 109.394 232.139 110.825 229.543L113.419 224.977C114.895 222.381 117.31 220.501 120.172 219.74C123.079 218.934 126.076 219.337 128.67 220.769L133.231 223.366C138.598 226.409 140.477 233.258 137.435 238.63L134.841 243.195C132.739 246.866 128.983 248.88 125.092 248.88ZM123.168 223.813C122.587 223.813 121.961 223.903 121.38 224.037C119.635 224.529 118.204 225.649 117.31 227.17L114.716 231.736C112.882 234.959 114 239.077 117.22 240.913L121.782 243.509C125.002 245.344 129.117 244.225 130.95 241.002L133.544 236.436C135.378 233.213 134.26 229.095 131.04 227.26L126.478 224.664C125.405 224.082 124.287 223.813 123.168 223.813Z" fill="#354546"/>
<path d="M290.391 216.919C288.334 218.307 287.797 221.082 289.184 223.141L290.436 224.976C291.822 227.035 294.595 227.572 296.653 226.185L315.302 213.607C317.36 212.219 317.896 209.444 316.51 207.384L315.258 205.549C313.871 203.49 311.098 202.953 309.041 204.341L290.391 216.919Z" fill="#A5B5B6"/>
<path d="M294.148 229.185C292.001 229.185 289.854 228.155 288.557 226.23L287.305 224.395C286.321 222.918 285.963 221.127 286.276 219.382C286.634 217.636 287.618 216.114 289.094 215.084L307.744 202.506C310.829 200.447 314.989 201.253 317.046 204.297L318.298 206.132C319.282 207.609 319.64 209.4 319.327 211.145C318.969 212.891 317.985 214.413 316.509 215.443L297.86 228.021C296.742 228.782 295.445 229.185 294.148 229.185ZM291.643 218.755C291.151 219.068 290.838 219.605 290.704 220.187C290.57 220.769 290.704 221.351 291.062 221.844L292.314 223.679C292.985 224.708 294.416 224.977 295.4 224.261L314.05 211.682C315.078 211.011 315.347 209.579 314.631 208.594L313.379 206.759C312.708 205.729 311.277 205.46 310.293 206.177L291.643 218.755Z" fill="#354546"/>
<path d="M306.625 223.186L303.673 218.844C300.9 214.771 295.354 213.697 291.24 216.427L286.901 219.381C282.832 222.157 281.758 227.707 284.486 231.826L287.438 236.167C290.211 240.241 295.757 241.315 299.871 238.585L304.21 235.63C308.324 232.855 309.397 227.304 306.625 223.186Z" fill="#A5B5B6"/>
<path d="M294.908 242.344C294.192 242.344 293.476 242.255 292.761 242.121C289.809 241.539 287.304 239.882 285.605 237.42L282.653 233.078C280.998 230.616 280.372 227.617 280.954 224.708C281.535 221.753 283.19 219.247 285.65 217.546L289.988 214.591C292.448 212.935 295.444 212.309 298.351 212.89C301.303 213.472 303.808 215.129 305.507 217.591L308.459 221.932C310.114 224.394 310.74 227.394 310.158 230.303C309.577 233.257 307.922 235.764 305.462 237.465L301.124 240.419C299.246 241.673 297.099 242.344 294.908 242.344ZM296.249 217.143C294.908 217.143 293.655 217.546 292.537 218.307L288.199 221.261C286.723 222.246 285.739 223.768 285.381 225.558C285.024 227.304 285.381 229.095 286.41 230.572L289.362 234.914C290.346 236.391 291.866 237.376 293.655 237.734C295.399 238.092 297.188 237.734 298.664 236.704L303.003 233.75C304.478 232.765 305.462 231.243 305.82 229.453C306.178 227.707 305.82 225.916 304.791 224.439L301.84 220.097C300.856 218.62 299.335 217.635 297.546 217.277C297.144 217.188 296.696 217.143 296.249 217.143Z" fill="#354546"/>
<path d="M312.26 272.291C312.439 277.215 308.593 281.378 303.673 281.602L120.217 288.675C115.297 288.854 111.138 285.004 110.914 280.08L108.007 204.745C107.828 199.821 111.674 195.658 116.594 195.434L300.095 188.361C305.015 188.182 309.174 192.032 309.398 196.956L312.26 272.291Z" fill="#018DF0"/>
<path d="M180.862 286.302L197.723 285.675L226.928 191.137L190.746 192.569L180.862 286.302Z" fill="#299EF0"/>
<path d="M147.99 287.6L155.817 287.287L183.277 192.838L170.173 193.375L147.99 287.6Z" fill="#299EF0"/>
<path d="M284.844 188.943L230.192 191.047L210.469 285.183L255.461 283.437L284.844 188.943Z" fill="#299EF0"/>
<path d="M119.859 290.912C117.042 290.912 114.358 289.883 112.256 287.913C110.065 285.899 108.768 283.123 108.678 280.124L105.771 204.789C105.548 198.612 110.333 193.419 116.505 193.195L299.961 186.123C306.133 185.899 311.321 190.689 311.545 196.866L314.452 272.201C314.675 278.379 309.89 283.571 303.718 283.795L120.262 290.867C120.127 290.912 119.993 290.912 119.859 290.912ZM300.409 190.599C300.319 190.599 300.23 190.599 300.14 190.599L116.684 197.672C114.895 197.761 113.24 198.522 112.033 199.82C110.825 201.163 110.154 202.864 110.244 204.655L113.151 279.99C113.24 281.781 114 283.437 115.297 284.645C116.639 285.854 118.339 286.525 120.127 286.436L303.584 279.363C307.296 279.229 310.158 276.096 310.024 272.38L307.117 197.045C306.983 193.419 304.031 190.599 300.409 190.599Z" fill="#0077C0"/>
<path d="M154.698 215.623C153.58 216.832 152.239 217.906 150.673 218.846C149.108 219.786 147.408 220.592 145.62 221.218C143.831 221.845 142.176 222.293 140.655 222.517L139.94 230.887C139.984 231.111 140.029 231.29 140.029 231.469C140.029 231.961 139.85 232.499 139.448 232.991C139.09 233.483 138.508 233.752 137.703 233.797H137.525C136.898 233.797 136.496 233.618 136.317 233.215C136.093 232.857 136.004 232.409 136.004 231.917C136.004 231.469 136.049 231.021 136.138 230.619L137.301 216.921C137.301 216.563 137.301 216.115 137.346 215.623C137.39 215.131 137.435 214.594 137.525 214.056C137.569 213.519 137.659 212.937 137.703 212.4C137.748 211.818 137.793 211.281 137.882 210.789C137.927 210.162 138.151 209.535 138.508 208.998C138.866 208.461 139.403 208.103 140.118 207.969C141.281 207.745 142.757 207.521 144.636 207.252C146.469 206.984 148.84 206.85 151.657 206.85C152.283 206.85 152.909 206.894 153.491 207.029C154.072 207.163 154.609 207.387 155.101 207.7C155.548 208.013 155.951 208.461 156.219 208.998C156.487 209.535 156.622 210.207 156.622 211.057C156.622 211.147 156.622 211.281 156.622 211.371C156.622 211.46 156.622 211.594 156.622 211.684C156.443 213.116 155.817 214.415 154.698 215.623ZM152.731 211.594C152.731 211.326 152.641 211.102 152.507 210.968C152.373 210.789 152.194 210.699 151.97 210.61C151.747 210.565 151.523 210.52 151.255 210.475C150.986 210.475 150.718 210.475 150.494 210.475C149.779 210.475 149.018 210.475 148.169 210.52C147.364 210.565 146.559 210.61 145.754 210.699C144.949 210.789 144.188 210.878 143.428 211.013C142.668 211.147 142.042 211.281 141.46 211.415L141.013 218.98C142.176 218.756 143.428 218.354 144.77 217.861C146.111 217.369 147.364 216.787 148.527 216.115C149.689 215.444 150.673 214.773 151.478 214.012C152.283 213.251 152.731 212.49 152.82 211.774V211.594H152.731Z" fill="white"/>
<path d="M170.396 230.931C170.441 231.154 170.441 231.378 170.441 231.602C170.441 232.229 170.307 232.766 169.994 233.169C169.681 233.572 169.189 233.751 168.428 233.751H168.16C168.071 233.751 167.892 233.571 167.668 233.258C167.444 232.945 167.221 232.542 166.997 232.094C166.774 231.647 166.505 231.154 166.326 230.662C166.103 230.17 165.924 229.722 165.79 229.364C165.7 229.05 165.655 228.827 165.566 228.603C165.477 228.379 165.432 228.2 165.342 227.976C165.253 227.752 165.164 227.573 165.074 227.305C164.985 227.081 164.85 226.768 164.672 226.365C164.627 226.23 164.537 226.096 164.493 225.962C164.403 225.828 164.358 225.649 164.269 225.469C163.956 225.469 163.643 225.469 163.375 225.469C163.106 225.469 162.748 225.514 162.301 225.514C161.854 225.559 161.273 225.604 160.557 225.649C159.841 225.693 158.857 225.783 157.56 225.872L155.145 230.751C154.788 231.602 154.385 232.273 154.027 232.855C153.67 233.437 153.222 233.706 152.686 233.706H152.551C151.836 233.661 151.389 233.482 151.12 233.169C150.852 232.855 150.718 232.497 150.718 232.05C150.718 231.602 150.807 231.199 150.986 230.841C151.165 230.483 151.299 230.17 151.389 229.946L160.11 213.07V213.115C160.468 212.309 160.825 211.727 161.228 211.369C161.63 211.011 162.033 210.832 162.435 210.832C162.972 210.832 163.419 211.101 163.822 211.593C164.224 212.085 164.448 212.757 164.493 213.473V213.428C164.85 214.861 165.342 216.517 166.013 218.397C166.684 220.277 167.355 222.112 168.026 223.903V223.858C168.473 225.111 168.92 226.275 169.323 227.349C169.725 228.424 170.083 229.364 170.307 230.17C170.351 230.483 170.396 230.707 170.396 230.931ZM162.435 219.65C162.212 218.8 161.988 217.994 161.809 217.278L159.439 222.157L163.151 221.933C162.927 221.307 162.659 220.546 162.435 219.65Z" fill="white"/>
<path d="M192.266 225.872C191.506 227.439 190.477 228.871 189.225 230.125C187.928 231.378 186.452 232.363 184.797 233.169C183.098 233.93 181.264 234.332 179.296 234.332C177.865 234.332 176.613 234.109 175.629 233.661C174.645 233.213 173.84 232.631 173.214 231.871C172.588 231.154 172.141 230.259 171.872 229.319C171.604 228.334 171.47 227.349 171.47 226.275C171.47 226.051 171.47 225.828 171.47 225.604C171.47 225.38 171.514 225.156 171.514 224.977C171.604 223.545 171.917 222.202 172.454 220.948C172.946 219.695 173.616 218.531 174.421 217.502C175.227 216.472 176.121 215.532 177.15 214.682C178.134 213.876 179.207 213.16 180.325 212.578C181.443 211.996 182.561 211.548 183.724 211.28C184.842 210.966 185.96 210.832 186.989 210.832C188.554 210.832 189.851 211.145 190.835 211.727C191.819 212.309 192.49 213.07 192.848 213.921C192.937 214.1 192.982 214.279 193.027 214.458C193.071 214.637 193.071 214.816 193.071 214.95C193.071 215.398 192.937 215.801 192.713 216.114C192.49 216.427 192.132 216.606 191.685 216.606C191.551 216.651 191.416 216.651 191.282 216.651C191.193 216.651 191.059 216.651 190.969 216.651C190.433 216.651 190.075 216.562 189.896 216.383C189.717 216.204 189.538 215.98 189.404 215.711C189.359 215.622 189.27 215.487 189.225 215.353C189.136 215.219 189.001 215.129 188.823 214.995C188.644 214.861 188.375 214.771 188.062 214.682C187.749 214.592 187.302 214.547 186.72 214.458H186.318C185.11 214.458 183.903 214.771 182.651 215.398C181.398 216.025 180.28 216.83 179.252 217.86C178.223 218.845 177.373 220.008 176.658 221.307C175.987 222.605 175.584 223.858 175.45 225.111C175.405 225.246 175.405 225.38 175.405 225.469C175.405 225.559 175.405 225.648 175.405 225.738C175.405 226.365 175.495 226.991 175.629 227.573C175.808 228.155 176.032 228.692 176.389 229.14C176.747 229.588 177.15 229.946 177.686 230.259C178.178 230.528 178.804 230.662 179.52 230.662C180.817 230.662 181.98 230.438 183.008 230.035C184.037 229.588 184.976 229.05 185.781 228.379C186.586 227.708 187.257 226.947 187.839 226.096C188.42 225.246 188.912 224.44 189.27 223.634C188.733 223.768 188.241 223.903 187.749 224.082C187.257 224.261 186.765 224.395 186.318 224.529C185.245 224.888 184.082 225.201 182.83 225.514H182.874C182.785 225.559 182.695 225.559 182.651 225.559C182.606 225.559 182.561 225.559 182.472 225.559C182.025 225.559 181.711 225.425 181.533 225.111C181.354 224.798 181.219 224.485 181.219 224.127C181.219 223.589 181.443 223.052 181.846 222.515C182.248 221.978 182.919 221.665 183.858 221.53C184.082 221.486 184.44 221.441 184.842 221.307C185.289 221.172 185.737 221.038 186.273 220.904C186.81 220.769 187.347 220.59 187.883 220.411C188.42 220.232 188.867 220.098 189.27 219.964L190.477 219.561C190.925 219.382 191.282 219.337 191.595 219.337C192.177 219.337 192.669 219.471 193.071 219.74C193.474 220.008 193.653 220.411 193.653 220.948V221.172C193.474 222.694 193.027 224.306 192.266 225.872Z" fill="white"/>
<path d="M210.156 232.318C209.843 232.676 209.127 232.9 208.009 232.944L197.857 233.705C197.767 233.705 197.633 233.705 197.588 233.705C197.499 233.705 197.41 233.705 197.365 233.705C196.426 233.705 195.8 233.526 195.531 233.123C195.218 232.765 195.084 232.228 195.084 231.601C195.084 231.109 195.129 230.617 195.218 230.08C195.263 229.945 195.263 229.811 195.263 229.721C195.263 229.632 195.263 229.498 195.308 229.363L195.71 223.902C195.844 222.201 195.934 220.724 195.978 219.426C196.023 218.128 196.068 217.054 196.157 216.203C196.202 215.89 196.202 215.621 196.202 215.397C196.202 215.129 196.202 214.905 196.247 214.726C196.247 214.681 196.247 214.681 196.247 214.636C196.247 214.592 196.247 214.547 196.247 214.502C196.247 214.01 196.426 213.517 196.783 212.98C197.141 212.443 197.723 212.175 198.572 212.175H200.764C201.39 212.175 202.24 212.13 203.313 212.085C204.386 212.04 205.862 211.951 207.785 211.816C207.875 211.816 207.964 211.816 208.054 211.816C208.143 211.816 208.233 211.816 208.367 211.816C208.546 211.816 208.68 211.816 208.859 211.816C209.038 211.816 209.217 211.816 209.351 211.816C209.977 211.816 210.558 211.906 210.961 212.13C211.408 212.309 211.632 212.756 211.632 213.428V213.652C211.587 214.099 211.498 214.457 211.363 214.681C211.229 214.905 211.05 215.084 210.827 215.218C210.603 215.353 210.335 215.397 209.977 215.442C209.619 215.487 209.217 215.487 208.769 215.487C208.635 215.487 208.501 215.487 208.412 215.487C208.322 215.487 208.188 215.487 208.099 215.487L200.406 216.024L200.004 220.679L206.399 219.874C206.578 219.829 206.712 219.829 206.846 219.829C206.98 219.829 207.115 219.829 207.249 219.829C208.143 219.829 208.769 220.008 209.082 220.321C209.396 220.679 209.53 220.993 209.53 221.396V221.619C209.485 222.38 209.217 222.918 208.769 223.141C208.322 223.365 207.83 223.499 207.338 223.499C207.204 223.499 207.07 223.499 206.936 223.499C206.802 223.499 206.667 223.544 206.533 223.544L199.601 224.305L199.154 229.99L208.054 229.229H208.546C209.306 229.229 209.843 229.363 210.201 229.587C210.558 229.811 210.737 230.259 210.737 230.885V231.109C210.603 231.557 210.469 231.96 210.156 232.318Z" fill="white"/>
<path d="M244.548 232.095C244.459 232.363 244.37 232.632 244.235 232.9C244.101 233.169 243.922 233.348 243.699 233.527C243.52 233.706 243.251 233.796 242.894 233.796C242.402 233.796 241.999 233.751 241.731 233.661C241.418 233.572 241.194 233.482 241.06 233.348C240.881 233.214 240.792 233.079 240.702 232.945C240.613 232.811 240.523 232.677 240.479 232.542C240.121 232.05 239.674 231.423 239.182 230.707C238.645 229.946 238.108 229.185 237.572 228.379C237.035 227.574 236.498 226.768 236.006 226.007C235.514 225.246 235.112 224.575 234.843 224.037C234.53 223.455 234.128 222.784 233.636 222.023C233.144 221.262 232.607 220.501 232.026 219.74C231.444 218.979 230.908 218.173 230.326 217.368C229.745 216.562 229.253 215.846 228.761 215.13L227.375 231.199C227.419 231.468 227.464 231.692 227.464 231.826C227.464 232.318 227.33 232.766 227.017 233.169C226.704 233.572 226.256 233.796 225.675 233.84H225.407C224.154 233.84 223.528 233.214 223.528 231.96C223.528 231.826 223.528 231.692 223.528 231.557C223.528 231.378 223.573 231.244 223.618 231.02L225.451 209.803C225.541 209.176 225.63 208.684 225.765 208.326C225.899 207.968 226.033 207.654 226.212 207.43C226.391 207.207 226.57 207.072 226.838 207.028C227.062 206.983 227.33 206.938 227.643 206.938C227.911 206.938 228.18 207.028 228.448 207.207C228.716 207.386 228.94 207.609 229.164 207.878C229.387 208.147 229.566 208.415 229.79 208.729C229.969 209.042 230.147 209.31 230.282 209.534C230.55 210.116 230.774 210.564 230.908 210.832C231.042 211.101 231.176 211.325 231.266 211.414C231.355 211.549 231.4 211.638 231.489 211.728C231.534 211.817 231.668 211.951 231.802 212.175C232.697 213.608 233.502 214.816 234.128 215.891C234.754 216.92 235.38 217.905 235.917 218.755C236.453 219.606 236.99 220.456 237.527 221.217C238.064 221.978 238.645 222.829 239.271 223.679C239.361 223.814 239.495 224.037 239.674 224.261C239.852 224.53 240.076 224.798 240.3 225.112C240.523 225.425 240.747 225.694 240.971 226.007C241.194 226.275 241.328 226.499 241.418 226.589L242.849 209.042C242.894 208.773 242.894 208.505 242.938 208.191C242.983 207.878 243.073 207.609 243.207 207.386C243.341 207.117 243.52 206.938 243.788 206.759C244.012 206.58 244.37 206.535 244.817 206.535C245.532 206.535 245.98 206.669 246.248 206.938C246.516 207.207 246.65 207.699 246.65 208.415C246.65 208.549 246.65 208.684 246.65 208.863C246.65 208.997 246.65 209.131 246.606 209.31L244.727 231.289C244.638 231.557 244.593 231.826 244.548 232.095Z" fill="white"/>
<path d="M266.686 226.366C265.971 227.933 265.031 229.32 263.913 230.484C262.795 231.648 261.498 232.588 260.112 233.259C258.725 233.931 257.249 234.289 255.729 234.289C253.448 234.289 251.659 233.528 250.407 232.051C249.154 230.574 248.528 228.514 248.528 225.873C248.528 225.65 248.528 225.381 248.528 225.112C248.528 224.844 248.573 224.575 248.573 224.307C248.618 223.456 248.797 222.561 249.154 221.576C249.468 220.591 249.915 219.562 250.451 218.532C250.988 217.503 251.659 216.518 252.375 215.578C253.09 214.638 253.94 213.788 254.834 213.071C255.729 212.355 256.713 211.728 257.697 211.281C258.725 210.833 259.799 210.609 260.917 210.609C262.303 210.609 263.421 210.833 264.36 211.326C265.3 211.818 266.015 212.445 266.552 213.295C267.089 214.101 267.491 215.041 267.715 216.115C267.938 217.189 268.073 218.264 268.073 219.428C268.073 219.741 268.073 220.01 268.073 220.323C268.073 220.636 268.028 220.905 268.028 221.218C267.849 223.098 267.402 224.754 266.686 226.366ZM264.271 220.457C264.271 220.189 264.271 219.92 264.271 219.651C264.271 218.98 264.226 218.309 264.092 217.682C264.003 217.055 263.779 216.473 263.511 215.981C263.242 215.488 262.84 215.086 262.393 214.772C261.945 214.459 261.364 214.325 260.648 214.325C259.62 214.325 258.591 214.683 257.607 215.399C256.623 216.115 255.774 216.966 255.013 217.995C254.253 219.025 253.627 220.144 253.18 221.308C252.688 222.471 252.419 223.501 252.33 224.441C252.285 224.665 252.285 224.889 252.285 225.068C252.285 225.292 252.285 225.471 252.285 225.65C252.285 227.172 252.598 228.335 253.18 229.231C253.761 230.126 254.7 230.573 255.908 230.573C256.936 230.573 257.965 230.305 258.904 229.813C259.843 229.32 260.693 228.604 261.453 227.753C262.214 226.903 262.84 225.918 263.287 224.754C263.779 223.635 264.047 222.427 264.182 221.173C264.271 220.994 264.271 220.726 264.271 220.457Z" fill="white"/>
<path d="M286.276 213.249C286.186 213.428 286.052 213.607 285.873 213.741C285.694 213.876 285.381 214.01 285.023 214.144C284.666 214.278 284.218 214.413 283.637 214.547L279.388 215.353L278.002 231.243C277.957 231.691 277.868 232.094 277.823 232.407C277.733 232.721 277.644 232.989 277.51 233.213C277.376 233.437 277.152 233.571 276.884 233.616C276.615 233.705 276.258 233.75 275.855 233.75C275.139 233.75 274.692 233.616 274.469 233.303C274.245 232.989 274.156 232.631 274.156 232.228C274.156 232.139 274.156 232.004 274.156 231.96C274.156 231.87 274.156 231.781 274.156 231.691C274.156 231.602 274.156 231.512 274.156 231.423C274.156 231.333 274.156 231.244 274.156 231.154L275.453 216.069L272.232 216.74C272.054 216.785 271.875 216.785 271.696 216.785C271.517 216.785 271.383 216.785 271.249 216.785C270.488 216.785 269.952 216.651 269.638 216.382C269.325 216.114 269.146 215.711 269.146 215.263V215.039C269.191 214.413 269.504 214.01 269.996 213.741C270.533 213.517 271.07 213.294 271.651 213.159L271.606 213.204C271.651 213.159 271.74 213.159 271.785 213.159C271.83 213.159 271.919 213.115 271.964 213.115C272.814 212.936 273.574 212.801 274.245 212.667C274.916 212.533 275.542 212.398 276.123 212.264C276.973 212.085 277.689 211.951 278.36 211.861C278.986 211.727 279.612 211.637 280.193 211.503C280.775 211.369 281.356 211.279 281.982 211.145C282.564 211.056 283.234 210.921 283.95 210.787C284.084 210.742 284.263 210.742 284.531 210.742C285.068 210.742 285.471 210.876 285.784 211.145C286.097 211.414 286.231 211.861 286.231 212.398V212.622C286.41 212.846 286.365 213.07 286.276 213.249Z" fill="white"/>
<path d="M174.913 245.791C174.555 246.105 173.84 246.284 172.767 246.373L162.256 247.089L161.675 253.938L168.562 252.909C168.876 252.864 169.323 252.774 169.815 252.729C170.351 252.685 170.888 252.64 171.425 252.64C172.051 252.64 172.632 252.729 173.124 252.909C173.616 253.088 173.84 253.446 173.84 253.983C173.84 254.117 173.84 254.207 173.795 254.296C173.75 254.654 173.706 254.923 173.616 255.191C173.572 255.415 173.437 255.639 173.258 255.818C173.08 255.997 172.767 256.131 172.364 256.221C171.961 256.31 171.38 256.4 170.62 256.445L161.451 257.877L160.557 266.472C160.468 267.009 160.378 267.456 160.333 267.859C160.244 268.217 160.154 268.531 159.976 268.799C159.797 269.023 159.618 269.202 159.349 269.336C159.081 269.471 158.723 269.56 158.321 269.605C158.187 269.65 158.097 269.65 158.008 269.65C157.918 269.65 157.829 269.65 157.739 269.65C156.89 269.65 156.442 269.068 156.442 267.859C156.442 267.635 156.442 267.412 156.442 267.233C156.442 267.009 156.487 266.785 156.487 266.516L157.516 257.43C157.605 256.534 157.65 255.773 157.695 255.147C157.739 254.52 157.829 253.893 157.874 253.222C157.918 252.55 158.008 251.7 158.097 250.76C158.187 249.82 158.276 248.522 158.41 246.91C158.231 246.418 158.187 245.926 158.187 245.523C158.187 244.896 158.455 244.448 158.947 244.225C159.439 243.956 160.333 243.777 161.586 243.643C161.899 243.598 162.167 243.598 162.391 243.553C162.659 243.508 163.106 243.464 163.777 243.374C164.448 243.285 165.432 243.195 166.729 243.061C168.026 242.926 169.859 242.792 172.275 242.568C172.409 242.568 172.543 242.568 172.677 242.568C172.811 242.568 172.945 242.568 173.08 242.568C173.84 242.568 174.466 242.703 174.869 242.971C175.271 243.24 175.495 243.732 175.584 244.448C175.539 245.03 175.271 245.523 174.913 245.791Z" fill="white"/>
<path d="M192.982 262.174C192.266 263.741 191.327 265.129 190.209 266.293C189.091 267.456 187.794 268.396 186.408 269.068C185.021 269.739 183.545 270.097 182.025 270.097C179.744 270.097 177.955 269.336 176.703 267.859C175.45 266.382 174.824 264.323 174.824 261.682C174.824 261.458 174.824 261.19 174.824 260.921C174.824 260.652 174.869 260.384 174.869 260.115C174.914 259.265 175.093 258.37 175.45 257.385C175.763 256.4 176.211 255.37 176.747 254.341C177.284 253.311 177.955 252.327 178.67 251.387C179.386 250.447 180.236 249.596 181.13 248.88C182.025 248.164 183.009 247.537 183.993 247.089C185.021 246.642 186.095 246.418 187.213 246.418C188.599 246.418 189.717 246.642 190.656 247.134C191.596 247.627 192.311 248.253 192.848 249.104C193.385 249.909 193.787 250.849 194.011 251.924C194.234 252.998 194.368 254.072 194.368 255.236C194.368 255.55 194.368 255.818 194.368 256.131C194.368 256.445 194.324 256.713 194.324 257.027C194.145 258.907 193.698 260.563 192.982 262.174ZM190.612 256.266C190.612 255.997 190.612 255.729 190.612 255.46C190.612 254.789 190.567 254.117 190.433 253.49C190.343 252.864 190.12 252.282 189.851 251.789C189.583 251.297 189.181 250.894 188.733 250.581C188.286 250.268 187.705 250.133 186.989 250.133C185.96 250.133 184.932 250.491 183.948 251.208C182.964 251.924 182.114 252.774 181.354 253.804C180.594 254.833 179.967 255.952 179.52 257.116C179.028 258.28 178.76 259.31 178.67 260.25C178.626 260.473 178.626 260.697 178.626 260.876C178.626 261.1 178.626 261.279 178.626 261.458C178.626 262.98 178.939 264.144 179.52 265.039C180.102 265.934 181.041 266.382 182.248 266.382C183.277 266.382 184.306 266.114 185.245 265.621C186.184 265.129 187.034 264.413 187.794 263.562C188.554 262.712 189.181 261.727 189.628 260.563C190.12 259.444 190.388 258.235 190.522 256.982C190.567 256.803 190.567 256.534 190.612 256.266Z" fill="white"/>
<path d="M211.587 265.756C211.05 266.562 210.29 267.323 209.395 267.95C208.501 268.576 207.427 269.114 206.175 269.516C204.968 269.919 203.626 270.098 202.239 270.098C200.003 270.098 198.393 269.651 197.409 268.8C196.425 267.95 195.889 266.875 195.889 265.533C195.889 265.443 195.889 265.354 195.889 265.264C195.889 265.174 195.889 265.085 195.889 264.995L197.275 249.373C197.275 249.328 197.275 249.328 197.275 249.284C197.275 249.239 197.275 249.194 197.275 249.194C197.32 248.97 197.365 248.702 197.454 248.478C197.499 248.254 197.588 248.03 197.767 247.851C197.901 247.672 198.125 247.493 198.348 247.404C198.572 247.314 198.93 247.225 199.332 247.225C199.735 247.225 200.048 247.314 200.316 247.448C200.585 247.583 200.764 247.762 200.898 247.986C201.032 248.209 201.121 248.433 201.121 248.657C201.166 248.881 201.166 249.105 201.166 249.239L199.735 265.04V265.13C199.735 265.533 199.959 265.846 200.361 266.07C200.808 266.294 201.3 266.383 201.837 266.383C202.731 266.383 203.581 266.294 204.386 266.07C205.146 265.846 205.862 265.622 206.399 265.309C206.98 264.995 207.427 264.682 207.785 264.324C208.098 263.966 208.322 263.563 208.367 263.205L209.798 249.91C209.798 249.552 209.798 249.239 209.842 248.926C209.887 248.612 209.977 248.299 210.111 248.075C210.245 247.807 210.469 247.627 210.737 247.448C211.05 247.314 211.408 247.225 211.9 247.225C212.615 247.225 213.107 247.404 213.331 247.807C213.555 248.165 213.689 248.567 213.689 249.015C213.689 249.373 213.644 249.687 213.51 249.955L212.347 263.205C212.436 264.1 212.168 264.906 211.587 265.756Z" fill="white"/>
<path d="M233.099 267.189C233.055 267.413 232.965 267.637 232.921 267.905C232.831 268.174 232.742 268.442 232.607 268.666C232.473 268.89 232.294 269.069 232.071 269.248C231.892 269.427 231.624 269.472 231.266 269.472C230.416 269.472 229.879 269.382 229.611 269.159C229.343 268.935 229.164 268.711 229.03 268.532L228.94 268.353C228.627 267.95 228.269 267.458 227.867 266.831C227.42 266.249 227.017 265.578 226.57 264.951C226.123 264.279 225.72 263.653 225.318 263.071C224.915 262.489 224.647 261.952 224.423 261.549C224.021 260.833 223.529 260.027 222.947 259.176C222.366 258.326 221.74 257.475 221.158 256.58C220.979 256.356 220.845 256.177 220.711 255.954C220.577 255.73 220.398 255.551 220.264 255.327L219.28 267.01C219.325 267.234 219.369 267.413 219.369 267.547C219.369 268.039 219.235 268.532 218.922 268.935C218.609 269.338 218.162 269.561 217.58 269.606H217.357C216.06 269.606 215.434 268.979 215.434 267.726C215.434 267.592 215.434 267.458 215.434 267.323C215.434 267.189 215.478 267.055 215.478 266.92L216.954 249.911C217.088 248.747 217.312 248.031 217.67 247.717C217.983 247.404 218.475 247.27 219.101 247.27C219.414 247.27 219.682 247.359 219.906 247.493C220.13 247.628 220.353 247.807 220.577 248.031C220.8 248.254 220.935 248.478 221.113 248.702C221.248 248.926 221.382 249.15 221.516 249.329C221.65 249.642 221.784 249.911 221.874 250.134C221.963 250.358 222.142 250.627 222.276 250.94C222.455 251.253 222.679 251.612 222.947 252.014C223.216 252.462 223.618 253.044 224.11 253.805C224.602 254.566 225.228 255.506 225.944 256.625C226.704 257.744 227.643 259.176 228.761 260.833C228.851 261.012 228.985 261.191 229.164 261.415C229.343 261.638 229.477 261.862 229.656 262.041C229.7 262.086 229.7 262.131 229.7 262.131C229.7 262.131 229.745 262.176 229.745 262.22L230.819 249.194C230.819 249.15 230.819 249.15 230.819 249.105C230.819 249.06 230.819 249.06 230.819 248.971C230.863 248.747 230.863 248.478 230.953 248.21C230.997 247.941 231.087 247.717 231.221 247.493C231.355 247.27 231.534 247.091 231.802 246.956C232.026 246.822 232.384 246.732 232.786 246.732C233.547 246.732 234.039 246.867 234.307 247.135C234.575 247.404 234.709 247.896 234.709 248.568C234.709 248.657 234.709 248.792 234.709 248.971C234.709 249.105 234.709 249.239 234.709 249.373L233.099 267.189Z" fill="white"/>
<path d="M253.448 259.668C252.733 261.101 251.883 262.354 250.855 263.473C249.826 264.592 248.708 265.532 247.5 266.293C246.293 267.054 245.085 267.681 243.922 268.173C242.76 268.666 241.686 269.024 240.658 269.248C239.674 269.471 238.869 269.606 238.242 269.606C237.527 269.606 237.08 269.382 236.856 268.934C236.632 268.487 236.543 267.949 236.543 267.278C236.543 267.054 236.543 266.83 236.543 266.651C236.543 266.428 236.588 266.204 236.588 266.025C236.588 265.89 236.588 265.756 236.588 265.622C236.588 265.488 236.588 265.353 236.588 265.219L237.795 251.745C237.751 251.656 237.75 251.432 237.75 251.163C237.75 250.537 237.929 249.955 238.242 249.418C238.556 248.881 239.092 248.478 239.852 248.209C240.076 248.164 240.255 248.12 240.434 248.03C240.613 247.985 240.792 247.941 240.971 247.851C241.82 247.538 242.76 247.269 243.743 247.001C244.727 246.732 245.98 246.598 247.5 246.598C248.708 246.598 249.781 246.821 250.676 247.18C251.57 247.582 252.33 248.12 252.912 248.791C253.493 249.462 253.94 250.223 254.254 251.119C254.567 252.014 254.701 252.909 254.701 253.849C254.701 254.028 254.701 254.163 254.701 254.297C254.701 254.431 254.701 254.565 254.656 254.7C254.611 256.58 254.164 258.236 253.448 259.668ZM250.586 252.775C250.452 252.283 250.228 251.88 249.915 251.477C249.602 251.119 249.2 250.805 248.708 250.582C248.216 250.358 247.634 250.223 246.964 250.223C245.935 250.223 244.951 250.358 244.012 250.671C243.073 250.984 242.312 251.298 241.641 251.656L240.479 265.308C241.463 265.085 242.491 264.682 243.609 264.145C244.727 263.607 245.801 262.891 246.829 262.041C247.813 261.19 248.708 260.116 249.423 258.907C250.139 257.654 250.586 256.266 250.765 254.655V254.252C250.81 253.76 250.72 253.267 250.586 252.775Z" fill="white"/>
<path d="M260.112 269.157C259.575 269.605 258.815 269.784 257.831 269.784C257.16 269.784 256.668 269.56 256.4 269.157C256.131 268.754 255.997 268.307 255.997 267.859V267.591C256.087 266.651 256.4 265.845 257.026 265.218C257.652 264.592 258.323 264.233 259.128 264.233C259.843 264.233 260.38 264.412 260.693 264.771C261.006 265.129 261.14 265.576 261.14 266.158V266.516C261.006 267.859 260.648 268.754 260.112 269.157ZM260.693 261.771C260.291 262.398 259.664 262.711 258.815 262.711C258.278 262.711 257.92 262.577 257.697 262.264C257.473 261.951 257.383 261.548 257.383 261.055C257.383 260.518 257.473 259.936 257.607 259.265L258.859 244.985C258.859 244.896 258.859 244.762 258.859 244.672C258.859 244.583 258.859 244.448 258.859 244.314C258.859 244.001 258.904 243.643 258.949 243.329C258.994 242.971 259.128 242.703 259.307 242.389C259.486 242.121 259.709 241.897 260.022 241.718C260.335 241.539 260.693 241.449 261.185 241.449C261.901 241.449 262.348 241.718 262.571 242.255C262.795 242.792 262.929 243.419 262.929 244.09C262.929 244.314 262.929 244.538 262.929 244.717C262.929 244.941 262.885 245.165 262.885 245.344L261.453 259.31C261.319 260.339 261.096 261.145 260.693 261.771Z" fill="white"/>
<path d="M103.938 239.168C101.478 239.257 99.3762 237.333 99.2868 234.871L99.1973 232.677C99.1079 230.215 101.031 228.111 103.491 228.022L114.314 227.306C116.774 227.216 118.876 229.141 118.965 231.603L119.055 233.796C119.144 236.258 117.221 238.362 114.761 238.452L103.938 239.168Z" fill="#A5B5B6"/>
<path d="M103.759 241.405C102.059 241.405 100.494 240.779 99.2417 239.615C97.9 238.406 97.1397 236.75 97.095 234.96L97.0055 232.766C96.8713 229.096 99.7337 225.962 103.401 225.783L114.224 225.067H114.269C116.058 224.977 117.757 225.604 119.099 226.813C120.441 228.021 121.201 229.678 121.246 231.468L121.335 233.661C121.469 237.332 118.607 240.465 114.94 240.644L104.117 241.361H104.072C103.938 241.405 103.848 241.405 103.759 241.405ZM114.403 229.543L103.58 230.26H103.535C102.954 230.304 102.372 230.528 101.97 230.976C101.567 231.423 101.344 232.005 101.388 232.587L101.478 234.781C101.523 235.362 101.746 235.944 102.193 236.347C102.641 236.75 103.177 236.974 103.759 236.929L114.582 236.213H114.627C115.879 236.168 116.818 235.094 116.773 233.885L116.684 231.692C116.639 231.11 116.416 230.528 115.968 230.125C115.566 229.722 114.984 229.543 114.403 229.543Z" fill="#354546"/>
<path d="M104.922 251.881C102.463 251.97 100.361 250.045 100.271 247.584L100.182 245.39C100.092 242.928 102.015 240.824 104.475 240.735L115.298 240.019C117.758 239.929 119.86 241.854 119.95 244.316L120.039 246.509C120.128 248.971 118.205 251.075 115.746 251.165L104.922 251.881Z" fill="#A5B5B6"/>
<path d="M104.743 254.118C103.044 254.118 101.478 253.492 100.226 252.328C98.8843 251.119 98.124 249.463 98.0793 247.672L97.9899 245.479C97.9004 243.689 98.5265 241.988 99.7788 240.645C100.986 239.347 102.641 238.541 104.385 238.496L115.208 237.78H115.253C117.042 237.69 118.742 238.317 120.083 239.526C121.425 240.734 122.185 242.39 122.23 244.181L122.32 246.374C122.409 248.165 121.783 249.866 120.531 251.209C119.323 252.507 117.668 253.313 115.924 253.357L105.101 254.073H105.056C104.922 254.118 104.833 254.118 104.743 254.118ZM115.387 242.256L104.564 242.972H104.52C103.938 243.017 103.357 243.241 102.954 243.689C102.552 244.136 102.328 244.718 102.373 245.3L102.462 247.493C102.507 248.075 102.731 248.657 103.178 249.06C103.625 249.463 104.162 249.687 104.743 249.642L115.566 248.926H115.611C116.192 248.881 116.774 248.657 117.176 248.21C117.579 247.762 117.802 247.18 117.758 246.598L117.668 244.405C117.624 243.823 117.4 243.241 116.953 242.838C116.55 242.435 115.969 242.211 115.387 242.256Z" fill="#354546"/>
<path d="M105.369 263.385C102.909 263.474 100.807 261.549 100.717 259.087L100.628 256.894C100.539 254.432 102.462 252.328 104.921 252.239L115.745 251.523C118.204 251.433 120.306 253.358 120.396 255.82L120.485 258.013C120.575 260.475 118.652 262.579 116.192 262.668L105.369 263.385Z" fill="#A5B5B6"/>
<path d="M105.189 265.622C103.49 265.622 101.925 264.996 100.672 263.832C99.3306 262.623 98.5703 260.967 98.5256 259.176L98.4362 256.983C98.302 253.312 101.164 250.179 104.832 250L115.655 249.284H115.7C117.488 249.194 119.188 249.821 120.53 251.03C121.871 252.238 122.632 253.894 122.676 255.685L122.766 257.878C122.9 261.549 120.038 264.682 116.37 264.861L105.547 265.577H105.503C105.368 265.622 105.279 265.622 105.189 265.622ZM115.834 253.76L105.011 254.476H104.966C104.384 254.521 103.803 254.745 103.4 255.192C102.998 255.64 102.774 256.222 102.819 256.804L102.909 258.997C102.953 259.579 103.177 260.161 103.624 260.564C104.071 260.967 104.608 261.191 105.189 261.146L116.013 260.43H116.057C116.639 260.385 117.22 260.161 117.623 259.714C118.025 259.266 118.249 258.684 118.204 258.102L118.115 255.909C118.115 254.655 117.086 253.715 115.834 253.76Z" fill="#354546"/>
<path d="M316.063 231.02C318.523 230.931 320.446 228.872 320.356 226.41L320.267 224.216C320.178 221.754 318.12 219.829 315.66 219.919L304.793 220.053C302.333 220.143 300.41 222.202 300.499 224.664L300.589 226.857C300.678 229.319 302.735 231.244 305.195 231.154L316.063 231.02Z" fill="#A5B5B6"/>
<path d="M305.061 233.392C303.361 233.392 301.751 232.765 300.499 231.601C299.202 230.393 298.442 228.736 298.352 226.946L298.263 224.752C298.218 222.962 298.844 221.261 300.052 219.963C301.259 218.665 302.914 217.904 304.703 217.814H304.748L315.571 217.68C317.36 217.635 319.059 218.262 320.356 219.47C321.653 220.679 322.414 222.335 322.503 224.126L322.593 226.319C322.727 230.034 319.82 233.123 316.108 233.257H316.063L305.24 233.392C305.195 233.392 305.15 233.392 305.061 233.392ZM304.882 222.201C304.301 222.246 303.764 222.47 303.361 222.917C302.959 223.365 302.735 223.947 302.78 224.529L302.87 226.722C302.87 227.304 303.138 227.886 303.585 228.289C304.032 228.692 304.569 228.915 305.195 228.871H305.24L316.063 228.736C317.271 228.692 318.254 227.662 318.21 226.409L318.12 224.215C318.12 223.633 317.852 223.052 317.405 222.649C316.957 222.246 316.421 222.022 315.795 222.067H315.75L304.882 222.201Z" fill="#354546"/>
<path d="M316.062 243.733C318.522 243.644 320.445 241.584 320.355 239.123L320.266 236.929C320.177 234.467 318.119 232.542 315.659 232.632L304.792 232.766C302.332 232.856 300.409 234.915 300.498 237.377L300.588 239.57C300.677 242.032 302.734 243.957 305.194 243.867L316.062 243.733Z" fill="#A5B5B6"/>
<path d="M305.06 246.105C303.361 246.105 301.751 245.478 300.498 244.314C299.201 243.105 298.441 241.449 298.352 239.659L298.262 237.465C298.128 233.75 301.035 230.661 304.747 230.527H304.792L315.615 230.393C317.404 230.348 319.104 230.975 320.4 232.183C321.697 233.392 322.458 235.048 322.547 236.839L322.637 239.032C322.771 242.747 319.864 245.836 316.152 245.97H316.107L305.284 246.105C305.194 246.105 305.105 246.105 305.06 246.105ZM304.881 234.959C303.674 235.003 302.69 236.033 302.735 237.286L302.824 239.48C302.824 240.062 303.092 240.643 303.54 241.046C303.987 241.449 304.568 241.673 305.15 241.628H305.194L316.018 241.494C317.225 241.449 318.209 240.42 318.164 239.166L318.075 236.973C318.075 236.391 317.806 235.809 317.359 235.406C316.912 235.003 316.331 234.78 315.749 234.824H315.705L304.881 234.959Z" fill="#354546"/>
<path d="M316.509 255.237C318.969 255.147 320.892 253.088 320.803 250.626L320.713 248.433C320.624 245.971 318.566 244.046 316.107 244.136L305.239 244.27C302.779 244.36 300.856 246.419 300.945 248.881L301.035 251.074C301.124 253.536 303.182 255.461 305.641 255.371L316.509 255.237Z" fill="#A5B5B6"/>
<path d="M305.508 257.608C301.93 257.608 298.933 254.744 298.799 251.118L298.71 248.924C298.575 245.209 301.482 242.12 305.194 241.986H305.239L316.062 241.852C317.851 241.807 319.551 242.434 320.848 243.642C322.145 244.851 322.905 246.507 322.994 248.298L323.084 250.491C323.129 252.282 322.503 253.983 321.295 255.281C320.087 256.579 318.433 257.34 316.644 257.429H316.599L305.776 257.564C305.642 257.608 305.552 257.608 305.508 257.608ZM305.329 246.462C304.121 246.507 303.137 247.537 303.182 248.79L303.271 250.983C303.316 252.237 304.345 253.177 305.597 253.132H305.642L316.465 252.998C317.046 252.953 317.583 252.729 317.985 252.282C318.388 251.834 318.612 251.252 318.612 250.67L318.522 248.477C318.522 247.895 318.254 247.313 317.807 246.91C317.359 246.507 316.778 246.283 316.196 246.328H316.152L305.329 246.462Z" fill="#354546"/>
</g>
<defs>
<clipPath id="clip0_4037_46907">
<rect width="420" height="397" fill="white"/>
</clipPath>
</defs>
</svg>
