<svg width="420" height="397" viewBox="0 0 420 397" fill="none" xmlns="http://www.w3.org/2000/svg">
<path d="M419.976 224.332C419.976 347.091 364.03 346.555 227.943 385.82C61.4915 433.85 0 313.461 0 190.702C0 67.9423 73.6556 26.7095 213.633 5.15391C426.773 -27.5819 419.976 101.573 419.976 224.332Z" fill="#E6E6EB"/>
<path d="M233.712 248.08H185.637V282.694H233.712V248.08Z" fill="#758586"/>
<path d="M233.668 284.93H185.637C184.385 284.93 183.401 283.946 183.401 282.694V248.08C183.401 246.828 184.385 245.844 185.637 245.844H233.713C234.965 245.844 235.949 246.828 235.949 248.08V282.694C235.904 283.946 234.92 284.93 233.668 284.93ZM187.873 280.458H231.477V250.316H187.873V280.458Z" fill="#354546"/>
<path d="M224.411 179.389H196.55V204.746H224.411V179.389Z" fill="#758586"/>
<path d="M224.411 206.936H196.55C195.297 206.936 194.313 205.953 194.313 204.7V179.343C194.313 178.091 195.297 177.107 196.55 177.107H224.411C225.663 177.107 226.647 178.091 226.647 179.343V204.7C226.647 205.953 225.618 206.936 224.411 206.936ZM198.786 202.464H222.175V181.58H198.786V202.464Z" fill="#354546"/>
<path d="M224.411 195.757C224.366 195.757 224.321 195.757 224.277 195.757L196.415 194.281C195.163 194.236 194.224 193.163 194.314 191.911C194.358 190.658 195.432 189.719 196.684 189.809L224.545 191.284C225.797 191.329 226.736 192.402 226.647 193.655C226.557 194.862 225.574 195.757 224.411 195.757Z" fill="#354546"/>
<path d="M244.446 269.459C241.807 269.459 239.213 268.207 237.29 265.971C235.68 264.137 225.439 249.826 229.598 244.147C230.225 243.297 231.477 242.224 233.802 242.134C238.99 241.911 247.308 246.741 250.17 250.005C254.061 254.433 254.553 261.409 251.288 265.881C249.678 268.073 247.397 269.37 244.848 269.504C244.714 269.459 244.58 269.459 244.446 269.459ZM233.176 246.741C232.908 247.098 232.729 249.156 235.01 253.986C236.754 257.653 239.213 261.364 240.645 263.019C241.807 264.316 243.238 265.032 244.625 264.987C245.832 264.942 246.861 264.316 247.666 263.198C249.678 260.425 249.276 255.73 246.771 252.912C244.625 250.453 237.469 246.383 233.936 246.562C233.444 246.562 233.221 246.696 233.176 246.741Z" fill="#19B5FE"/>
<path d="M253.256 261.275C252.361 261.275 251.467 261.186 250.617 260.962C245.34 259.665 229.33 252.063 230.582 243.924C230.895 241.866 232.237 240.033 234.562 238.512C239.884 234.979 250.349 233.369 255.134 234.532C261.619 236.142 265.957 243.297 264.839 250.498C264.257 254.254 262.245 257.519 259.338 259.442C257.504 260.649 255.402 261.275 253.256 261.275ZM251.333 238.602C247.129 238.602 240.6 239.854 237.067 242.224C236.217 242.806 235.188 243.655 235.01 244.639C234.786 245.936 236.217 248.396 240.823 251.481C244.625 254.031 249.276 256.043 251.646 256.624C253.435 257.072 255.268 256.758 256.833 255.73C258.712 254.478 260.009 252.331 260.411 249.827C261.171 244.863 258.354 239.943 254.061 238.915C253.39 238.691 252.451 238.602 251.333 238.602Z" fill="#C72C1C"/>
<path d="M220.296 200.632C215.377 200.185 207.372 200.051 202.453 200.319L175.396 201.75C170.477 202.019 166.407 206.223 166.318 211.142L165.871 236.856C165.781 241.776 169.583 246.874 174.323 248.171L201.737 255.639C206.477 256.936 214.304 257.07 219.089 255.952L246.726 249.423C251.512 248.305 255.492 243.341 255.581 238.422L256.028 212.707C256.118 207.788 252.182 203.405 247.263 203.003L220.296 200.632Z" fill="#A5B5B6"/>
<path d="M246.816 242.268L219.178 248.797C214.393 249.915 206.611 249.781 201.826 248.484L174.412 241.016C169.672 239.719 165.87 234.62 165.96 229.701L165.826 236.857C165.736 241.776 169.538 246.874 174.278 248.171L201.692 255.639C206.433 256.936 214.259 257.07 219.044 255.952L246.681 249.423C251.467 248.305 255.447 243.341 255.536 238.422L255.67 231.266C255.581 236.186 251.601 241.105 246.816 242.268Z" fill="#859596"/>
<path d="M211.218 258.948C207.596 258.948 203.928 258.546 201.156 257.786L173.742 250.317C167.973 248.752 163.501 242.804 163.635 236.811L164.082 211.097C164.171 205.015 169.225 199.827 175.307 199.514L202.363 198.083C207.372 197.815 215.511 197.949 220.52 198.396L247.487 200.766C253.524 201.303 258.399 206.669 258.265 212.752L257.817 238.466C257.728 244.459 253.077 250.228 247.218 251.614L219.581 258.099C217.211 258.635 214.214 258.948 211.218 258.948ZM208.311 202.421C206.209 202.421 204.197 202.466 202.587 202.555L175.531 203.986C171.819 204.165 168.644 207.474 168.554 211.186L168.107 236.901C168.017 240.792 171.148 244.995 174.949 246.024L202.363 253.492C206.746 254.7 214.17 254.834 218.597 253.761L246.235 247.231C250.036 246.337 253.301 242.267 253.39 238.377L253.837 212.662C253.882 208.95 250.841 205.551 247.129 205.194L220.162 202.823C216.898 202.555 212.381 202.421 208.311 202.421Z" fill="#354546"/>
<path d="M220.432 212.192L181.443 211.512L180.965 238.92L219.954 239.601L220.432 212.192Z" fill="#556566"/>
<path d="M206.791 233.818C206.03 233.818 205.315 233.416 204.912 232.745L201.827 227.781L196.997 227.691C196.236 227.691 195.566 227.289 195.163 226.663L194.984 226.35L193.643 229.435C193.374 230.106 192.748 230.598 192.033 230.732C191.317 230.866 190.557 230.643 190.02 230.151L187.382 227.602L181.165 227.512C179.913 227.512 178.929 226.484 178.974 225.232C178.974 223.979 180.003 222.996 181.255 223.04L188.366 223.174C188.947 223.174 189.484 223.398 189.886 223.801L190.825 224.74L192.525 220.804C192.838 220.044 193.553 219.507 194.403 219.463C195.208 219.373 196.013 219.776 196.46 220.491L198.294 223.353L203.124 223.443C203.884 223.443 204.599 223.845 205.002 224.516L206.165 226.394L208.579 218.792C208.893 217.853 209.697 217.227 210.681 217.227C211.621 217.227 212.515 217.808 212.828 218.747L214.527 223.666L220.252 223.756C221.504 223.756 222.488 224.784 222.443 226.037C222.443 227.244 221.414 228.228 220.207 228.228H220.162L212.873 228.094C211.934 228.094 211.084 227.468 210.816 226.573V226.529L208.982 232.342C208.714 233.192 207.998 233.773 207.148 233.863C206.97 233.818 206.88 233.818 206.791 233.818Z" fill="#D5E5E6"/>
<path d="M219.983 241.867C219.939 241.867 219.939 241.867 219.983 241.867L180.942 241.196C179.69 241.196 178.706 240.168 178.75 238.915L179.242 211.501C179.242 210.249 180.271 209.265 181.523 209.31L220.52 209.981C221.101 209.981 221.683 210.249 222.085 210.652C222.488 211.099 222.711 211.636 222.711 212.262L222.219 239.676C222.219 240.257 221.951 240.838 221.549 241.241C221.101 241.643 220.52 241.867 219.983 241.867ZM183.267 236.724L217.792 237.305L218.194 214.364L183.67 213.782L183.267 236.724Z" fill="#354546"/>
<path d="M239.128 221.573C241.233 219.558 241.306 216.217 239.291 214.112C237.276 212.006 233.935 211.933 231.83 213.949C229.724 215.964 229.651 219.304 231.667 221.41C233.682 223.515 237.023 223.588 239.128 221.573Z" fill="#F75C4C"/>
<path d="M235.501 225.276C235.457 225.276 235.412 225.276 235.367 225.276C233.355 225.231 231.476 224.426 230.09 222.995C228.704 221.564 227.943 219.641 227.988 217.629C228.078 213.47 231.521 210.16 235.636 210.25C239.795 210.339 243.104 213.738 243.014 217.897C242.97 219.91 242.165 221.788 240.734 223.174C239.303 224.516 237.424 225.276 235.501 225.276ZM235.457 214.677C233.802 214.677 232.416 216.019 232.416 217.674C232.416 218.478 232.684 219.283 233.265 219.865C233.847 220.446 234.607 220.804 235.412 220.804C236.217 220.804 237.022 220.536 237.603 219.954C238.185 219.373 238.542 218.613 238.542 217.808C238.587 216.108 237.245 214.722 235.546 214.677C235.501 214.677 235.501 214.677 235.457 214.677Z" fill="#C72C1C"/>
<path d="M238.833 238.395C240.938 236.38 241.01 233.039 238.995 230.934C236.979 228.829 233.638 228.757 231.533 230.772C229.428 232.788 229.356 236.128 231.371 238.234C233.387 240.339 236.727 240.411 238.833 238.395Z" fill="#B9D96D"/>
<path d="M235.188 242.136C235.143 242.136 235.098 242.136 235.054 242.136C233.041 242.091 231.163 241.286 229.777 239.855C228.39 238.424 227.63 236.501 227.675 234.488C227.719 232.476 228.524 230.598 229.955 229.211C231.387 227.825 233.31 227.065 235.322 227.109C239.481 227.199 242.79 230.598 242.701 234.757C242.656 236.769 241.851 238.647 240.42 240.034C238.989 241.375 237.156 242.136 235.188 242.136ZM235.188 231.537C234.383 231.537 233.623 231.85 233.086 232.386C232.505 232.968 232.147 233.728 232.147 234.533C232.147 235.338 232.415 236.143 232.997 236.724C233.578 237.306 234.338 237.663 235.143 237.663C235.948 237.663 236.753 237.395 237.334 236.814C237.916 236.232 238.274 235.472 238.274 234.667C238.318 232.968 236.977 231.581 235.277 231.537C235.233 231.537 235.188 231.537 235.188 231.537Z" fill="#719911"/>
<path d="M180.405 208.146C179.332 208.146 178.393 207.386 178.214 206.268L177.006 198.933C176.827 197.726 177.632 196.563 178.84 196.384C180.047 196.205 181.21 197.01 181.389 198.218L182.596 205.552C182.775 206.76 181.97 207.922 180.763 208.101C180.673 208.146 180.539 208.146 180.405 208.146Z" fill="#354546"/>
<path d="M189.261 206.716C188.187 206.716 187.248 205.956 187.069 204.838L185.862 197.504C185.683 196.296 186.488 195.133 187.695 194.955C188.903 194.776 190.066 195.581 190.244 196.788L191.452 204.122C191.631 205.33 190.826 206.493 189.618 206.671C189.484 206.671 189.35 206.716 189.261 206.716Z" fill="#354546"/>
<path d="M240.958 208.147C240.823 208.147 240.734 208.147 240.6 208.102C239.392 207.923 238.543 206.761 238.766 205.553L239.974 198.219C240.153 197.011 241.315 196.162 242.523 196.385C243.73 196.564 244.58 197.727 244.356 198.934L243.149 206.269C242.97 207.387 242.031 208.147 240.958 208.147Z" fill="#354546"/>
<path d="M232.147 206.715C232.013 206.715 231.923 206.715 231.789 206.671C230.582 206.492 229.732 205.329 229.956 204.122L231.163 196.787C231.342 195.58 232.505 194.73 233.712 194.954C234.92 195.133 235.769 196.295 235.546 197.503L234.338 204.837C234.159 205.91 233.22 206.715 232.147 206.715Z" fill="#354546"/>
<path d="M185.593 316.414H171.64V343.247H185.593V316.414Z" fill="#A5B5B6"/>
<path d="M185.593 316.414H171.64V327.058H185.593V316.414Z" fill="#C5D5D6"/>
<path d="M185.637 345.484H171.684C170.432 345.484 169.448 344.501 169.448 343.248V316.416C169.448 315.164 170.432 314.18 171.684 314.18H185.637C186.889 314.18 187.873 315.164 187.873 316.416V343.248C187.873 344.501 186.845 345.484 185.637 345.484ZM173.876 341.012H183.356V318.652H173.876V341.012Z" fill="#354546"/>
<path d="M171.639 290.566H162.158V337.971H171.639V290.566Z" fill="#A5B5B6"/>
<path d="M171.685 340.207H162.204C160.952 340.207 159.968 339.223 159.968 337.97V290.566C159.968 289.314 160.952 288.33 162.204 288.33H171.685C172.937 288.33 173.921 289.314 173.921 290.566V337.97C173.921 339.223 172.892 340.207 171.685 340.207ZM164.395 335.734H169.404V292.802H164.395V335.734Z" fill="#354546"/>
<path d="M167.122 274.154H166.72C161.8 274.154 157.775 278.179 157.775 283.099V304.341H176.066V283.099C176.066 278.179 172.041 274.154 167.122 274.154Z" fill="#A5B5B6"/>
<path d="M167.122 274.154H166.72C161.8 274.154 157.775 278.179 157.775 283.099V291.238C157.775 286.318 161.8 282.294 166.72 282.294H167.122C172.041 282.294 176.066 286.318 176.066 291.238V283.099C176.066 278.179 172.041 274.154 167.122 274.154Z" fill="#C5D5D6"/>
<path d="M176.067 306.577H157.776C156.524 306.577 155.54 305.593 155.54 304.341V283.098C155.54 276.927 160.549 271.918 166.72 271.918H167.123C173.294 271.918 178.303 276.927 178.303 283.098V304.341C178.303 305.593 177.274 306.577 176.067 306.577ZM160.012 302.105H173.831V283.098C173.831 279.386 170.835 276.39 167.123 276.39H166.72C163.008 276.39 160.012 279.386 160.012 283.098V302.105Z" fill="#354546"/>
<path d="M234.633 343.24H248.586V316.408H234.633V343.24Z" fill="#A5B5B6"/>
<path d="M234.633 327.068H248.586V316.425H234.633V327.068Z" fill="#C5D5D6"/>
<path d="M248.605 345.484H234.652C233.4 345.484 232.416 344.501 232.416 343.248V316.416C232.416 315.164 233.4 314.18 234.652 314.18H248.605C249.857 314.18 250.841 315.164 250.841 316.416V343.248C250.841 344.501 249.857 345.484 248.605 345.484ZM236.888 341.012H246.369V318.652H236.888V341.012Z" fill="#354546"/>
<path d="M248.585 338.008H258.065V290.603H248.585V338.008Z" fill="#A5B5B6"/>
<path d="M258.085 340.207H248.604C247.352 340.207 246.368 339.223 246.368 337.97V290.566C246.368 289.314 247.352 288.33 248.604 288.33H258.085C259.337 288.33 260.321 289.314 260.321 290.566V337.97C260.321 339.223 259.337 340.207 258.085 340.207ZM250.84 335.734H255.849V292.802H250.84V335.734Z" fill="#354546"/>
<path d="M253.121 274.154H253.523C258.443 274.154 262.468 278.179 262.468 283.099V304.341H244.177V283.099C244.177 278.179 248.202 274.154 253.121 274.154Z" fill="#A5B5B6"/>
<path d="M253.121 274.154H253.523C258.443 274.154 262.468 278.179 262.468 283.099V291.238C262.468 286.318 258.443 282.294 253.523 282.294H253.121C248.202 282.294 244.177 286.318 244.177 291.238V283.099C244.177 278.179 248.202 274.154 253.121 274.154Z" fill="#C5D5D6"/>
<path d="M262.468 306.577H244.177C242.925 306.577 241.941 305.593 241.941 304.341V283.098C241.941 276.927 246.95 271.918 253.122 271.918H253.524C259.696 271.918 264.704 276.927 264.704 283.098V304.341C264.704 305.593 263.721 306.577 262.468 306.577ZM246.414 302.105H260.232V283.098C260.232 279.386 257.236 276.39 253.524 276.39H253.122C249.41 276.39 246.414 279.386 246.414 283.098V302.105Z" fill="#354546"/>
<path d="M234.205 365.607C234.205 370.527 230.18 374.552 225.26 374.552H194.537C189.618 374.552 185.593 370.527 185.593 365.607V294.054C185.593 289.134 189.618 285.109 194.537 285.109H225.26C230.18 285.109 234.205 289.134 234.205 294.054V365.607Z" fill="#6D6D6D"/>
<path d="M225.26 360.913H194.537C190.557 360.913 186.845 358.275 185.593 354.607V365.609C185.593 370.528 189.618 374.553 194.537 374.553H225.26C230.18 374.553 234.205 370.528 234.205 365.609V354.607C232.952 358.275 229.285 360.913 225.26 360.913Z" fill="#5B5B5B"/>
<path d="M233.935 324.018L185.637 319.993L185.905 307.918H233.935V324.018Z" fill="#929292"/>
<path d="M233.936 333.408L185.905 336.718V328.668H233.936V333.408Z" fill="#929292"/>
<path d="M225.26 376.789H194.537C188.365 376.789 183.356 371.78 183.356 365.609V294.055C183.356 287.884 188.365 282.875 194.537 282.875H225.26C231.432 282.875 236.44 287.884 236.44 294.055V365.609C236.44 371.78 231.432 376.789 225.26 376.789ZM194.581 287.347C190.87 287.347 187.873 290.343 187.873 294.055V365.609C187.873 369.321 190.87 372.317 194.581 372.317H225.305C229.017 372.317 232.013 369.321 232.013 365.609V294.055C232.013 290.343 229.017 287.347 225.305 287.347H194.581Z" fill="#121212"/>
<path d="M234.339 274.154H185.503C180.182 274.154 175.844 278.179 175.844 283.099V296.068H243.999V283.099C243.999 278.179 239.661 274.154 234.339 274.154Z" fill="#A5B5B6"/>
<path d="M234.339 274.154H185.503C180.182 274.154 175.844 278.179 175.844 283.099H243.999C243.999 278.179 239.661 274.154 234.339 274.154Z" fill="#C5D5D6"/>
<path d="M243.998 298.303H175.843C174.591 298.303 173.607 297.32 173.607 296.067V283.098C173.607 276.927 178.929 271.918 185.503 271.918H234.339C240.913 271.918 246.234 276.927 246.234 283.098V296.067C246.234 297.32 245.206 298.303 243.998 298.303ZM178.08 293.831H241.762V283.098C241.762 279.386 238.453 276.39 234.339 276.39H185.503C181.389 276.39 178.08 279.386 178.08 283.098V293.831Z" fill="#354546"/>
<path d="M196.505 280.638C195.252 280.638 194.269 279.654 194.269 278.402V271.023C194.269 269.771 195.252 268.787 196.505 268.787C197.757 268.787 198.741 269.771 198.741 271.023V278.447C198.741 279.654 197.757 280.638 196.505 280.638Z" fill="#354546"/>
<path d="M205.449 280.638C204.197 280.638 203.213 279.654 203.213 278.402V271.023C203.213 269.771 204.197 268.787 205.449 268.787C206.701 268.787 207.685 269.771 207.685 271.023V278.447C207.685 279.654 206.701 280.638 205.449 280.638Z" fill="#354546"/>
<path d="M214.393 280.638C213.141 280.638 212.157 279.654 212.157 278.402V271.023C212.157 269.771 213.141 268.787 214.393 268.787C215.645 268.787 216.629 269.771 216.629 271.023V278.447C216.629 279.654 215.645 280.638 214.393 280.638Z" fill="#354546"/>
<path d="M223.338 280.638C222.085 280.638 221.102 279.654 221.102 278.402V271.023C221.102 269.771 222.085 268.787 223.338 268.787C224.59 268.787 225.574 269.771 225.574 271.023V278.447C225.574 279.654 224.59 280.638 223.338 280.638Z" fill="#354546"/>
<path d="M276.555 82.8374C276.51 82.8374 276.51 82.8374 276.466 82.8374C275.213 82.7927 274.274 81.7641 274.319 80.5119L275.616 50.3252C275.795 45.0034 273.916 39.8605 270.249 35.925C266.582 31.9896 261.618 29.7088 256.252 29.4852H256.207L178.482 24.387C167.391 23.9845 158.089 32.6604 157.642 43.7512L156.345 76.174C156.3 77.4262 155.271 78.3653 154.019 78.3206C152.767 78.2759 151.828 77.2473 151.873 75.9951L153.17 43.5723C153.661 30.0219 165.11 19.423 178.661 19.9149H178.705L256.386 25.0131C262.915 25.2814 268.952 28.0541 273.469 32.884C277.941 37.7139 280.267 43.9748 280.043 50.5041L278.746 80.6908C278.746 81.8983 277.762 82.8374 276.555 82.8374Z" fill="#354546"/>
<path d="M141.364 78.812C137.518 78.6778 134.209 82.5685 134.03 87.4879L132.912 117.719C132.733 122.639 135.729 126.753 139.575 126.932C143.421 127.066 146.597 127.2 146.597 127.2L148.385 79.125C148.385 79.0803 145.21 78.9461 141.364 78.812Z" fill="#A5B5B6"/>
<path d="M134.03 87.4879L133.493 102.291L147.536 102.827L148.43 79.0803C148.43 79.0803 145.255 78.9461 141.409 78.812C137.518 78.6778 134.209 82.5685 134.03 87.4879Z" fill="#C5D5D6"/>
<path d="M146.507 129.389L139.486 129.121C136.937 129.032 134.566 127.69 132.912 125.409C131.346 123.263 130.541 120.49 130.676 117.628L131.794 87.3963C132.017 81.2248 136.355 76.3502 141.453 76.5738L148.475 76.8421L148.296 81.3142L141.274 81.0459C141.23 81.0459 141.185 81.0459 141.14 81.0459C138.591 81.0459 136.355 83.9975 136.221 87.5752L135.103 117.807C135.014 119.64 135.55 121.474 136.489 122.815C137.339 123.978 138.457 124.649 139.62 124.694L146.641 124.962L146.507 129.389Z" fill="#354546"/>
<path d="M161.621 76.3448L148.482 75.8594L146.323 134.314L159.462 134.799L161.621 76.3448Z" fill="#859596"/>
<path d="M161.652 76.337L148.514 75.8516L147.279 109.28L160.417 109.765L161.652 76.337Z" fill="#A5B5B6"/>
<path d="M159.476 137.037C159.432 137.037 159.432 137.037 159.387 137.037L146.239 136.545C144.987 136.5 144.048 135.472 144.092 134.22L146.239 75.7692C146.284 74.517 147.312 73.5779 148.564 73.6226L161.712 74.1146C162.294 74.1146 162.875 74.3829 163.278 74.8301C163.68 75.2773 163.904 75.8587 163.859 76.44L161.712 134.89C161.712 135.472 161.444 136.053 160.997 136.456C160.594 136.813 160.058 137.037 159.476 137.037ZM148.654 132.163L157.33 132.476L159.342 78.4972L150.666 78.1842L148.654 132.163Z" fill="#354546"/>
<path d="M133.493 104.527H128.127C126.874 104.527 125.891 103.543 125.891 102.291C125.891 101.039 126.874 100.055 128.127 100.055H133.493C134.745 100.055 135.729 101.039 135.729 102.291C135.729 103.498 134.701 104.527 133.493 104.527Z" fill="#354546"/>
<path d="M297.663 51.3528C297.395 51.3528 297.127 51.3081 296.903 51.2634C295.249 50.8161 294.22 49.1167 294.622 47.4621L296.948 38.3837C297.395 36.729 299.095 35.7004 300.749 36.1029C302.404 36.5501 303.432 38.2495 303.03 39.9042L300.705 48.9826C300.347 50.4137 299.095 51.3528 297.663 51.3528Z" fill="#354546"/>
<path d="M288.495 86.4584C288.317 86.4584 288.138 86.4584 287.959 86.3689C286.751 86.0559 286.036 84.8484 286.349 83.6409L295.517 47.6405C295.83 46.433 297.037 45.7175 298.245 46.0305C299.452 46.3435 300.168 47.551 299.855 48.7585L290.687 84.8037C290.418 85.7875 289.479 86.4584 288.495 86.4584Z" fill="#354546"/>
<path d="M288.496 84.2236C292.342 84.3578 295.338 88.5168 295.159 93.4361L294.041 123.668C293.862 128.587 290.553 132.478 286.707 132.343C282.861 132.209 279.686 132.075 279.686 132.075L281.474 84C281.474 84 284.65 84.0894 288.496 84.2236Z" fill="#A5B5B6"/>
<path d="M295.204 93.4379L294.667 108.241L280.625 107.704L281.519 83.957C281.519 83.957 284.695 84.0912 288.541 84.2254C292.342 84.4042 295.383 88.5186 295.204 93.4379Z" fill="#C5D5D6"/>
<path d="M286.93 134.581C286.841 134.581 286.751 134.581 286.662 134.581L279.641 134.312L279.819 129.84L286.841 130.108C288.003 130.153 289.166 129.572 290.105 128.454C291.179 127.202 291.805 125.413 291.849 123.579L292.967 93.3478C293.057 91.5142 292.52 89.6806 291.581 88.339C290.731 87.1763 289.613 86.5054 288.451 86.4607L281.429 86.1924C280.177 86.1477 279.238 85.1191 279.283 83.8669C279.328 82.6147 280.356 81.6756 281.608 81.7203L288.629 81.9886C291.179 82.0781 293.549 83.4197 295.203 85.7005C296.769 87.8471 297.574 90.6198 297.44 93.4819L296.321 123.713C296.232 126.576 295.203 129.304 293.504 131.316C291.715 133.418 289.345 134.581 286.93 134.581Z" fill="#354546"/>
<path d="M266.317 138.731L279.456 139.217L281.616 80.7626L268.477 80.2772L266.317 138.731Z" fill="#859596"/>
<path d="M267.255 113.737L280.394 114.223L281.629 80.7947L268.49 80.3093L267.255 113.737Z" fill="#A5B5B6"/>
<path d="M279.462 141.467C279.417 141.467 279.417 141.467 279.373 141.467L266.225 140.975C265.643 140.975 265.062 140.707 264.659 140.26C264.257 139.812 264.033 139.231 264.078 138.65L266.225 80.1991C266.225 79.6178 266.493 79.0364 266.94 78.6339C267.387 78.2314 267.969 78.0078 268.55 78.0525L281.698 78.5445C282.95 78.5892 283.889 79.6178 283.845 80.8699L281.698 139.32C281.653 140.483 280.625 141.467 279.462 141.467ZM268.639 136.592L277.315 136.905L279.328 82.9271L270.652 82.6141L268.639 136.592Z" fill="#354546"/>
<path d="M299.989 110.832C299.944 110.832 299.899 110.832 299.81 110.832L294.443 110.43C293.191 110.34 292.297 109.267 292.386 108.059C292.475 106.807 293.549 105.913 294.756 106.002L300.123 106.405C301.375 106.494 302.269 107.567 302.18 108.775C302.135 109.938 301.151 110.832 299.989 110.832Z" fill="#354546"/>
<path d="M147.893 178.316C147.759 178.316 147.625 178.316 147.491 178.316C144.763 178.182 142.258 176.795 140.559 174.425C137.026 169.595 137.563 162.037 141.811 157.208C144.942 153.63 154.02 148.353 159.7 148.621C162.159 148.711 163.456 149.829 164.127 150.768C165.961 153.272 165.424 157.431 162.562 163.513C160.46 167.985 157.464 172.458 155.63 174.559C153.483 176.93 150.711 178.316 147.893 178.316ZM159.252 153.093C156.211 153.093 148.43 156.403 145.121 160.159C142.303 163.334 141.856 168.656 144.137 171.787C145.076 173.039 146.283 173.754 147.67 173.844C149.235 173.889 150.934 173.084 152.231 171.608C153.841 169.819 156.524 165.705 158.447 161.635C160.952 156.403 160.818 153.943 160.415 153.406C160.281 153.227 159.923 153.138 159.387 153.093C159.387 153.093 159.342 153.093 159.252 153.093Z" fill="#19B5FE"/>
<path d="M268.908 165.839C266.896 165.839 264.883 165.347 263.229 164.363C259.74 162.306 255 155.821 254.329 150.902C253.927 148.084 254.91 146.385 255.805 145.446C260.635 140.348 274.632 145.804 277.763 147.637C280.044 148.979 281.475 151.081 281.833 153.54C282.235 156.313 281.162 159.22 278.97 161.546C276.242 164.363 272.486 165.839 268.908 165.839ZM261.932 147.771C260.59 147.771 259.517 147.995 259.025 148.532C258.667 148.934 258.667 149.694 258.756 150.276C259.248 153.988 263.273 159.175 265.509 160.517C268.372 162.216 273.023 161.277 275.661 158.504C276.913 157.163 277.539 155.598 277.36 154.211C277.226 153.093 276.555 152.154 275.437 151.528C272.262 149.605 265.822 147.771 261.932 147.771Z" fill="#19B5FE"/>
<path d="M138.188 169.329C135.863 169.329 133.627 168.658 131.614 167.316C128.484 165.214 126.293 161.681 125.667 157.612C124.414 149.785 129.155 142.004 136.176 140.26C141.408 138.963 152.812 140.707 158.671 144.598C161.175 146.252 162.606 148.22 162.964 150.412C164.35 159.266 146.82 167.495 141.095 168.926C140.111 169.194 139.128 169.329 138.188 169.329ZM140.29 144.329C139.083 144.329 138.01 144.419 137.249 144.598C132.419 145.805 129.199 151.306 130.094 156.896C130.541 159.714 132.017 162.173 134.119 163.56C135.863 164.722 137.965 165.08 140.022 164.588C142.705 163.917 147.803 161.726 152.052 158.864C156.435 155.912 158.894 153.005 158.581 151.082C158.402 149.92 157.195 148.936 156.211 148.265C152.231 145.716 144.986 144.329 140.29 144.329Z" fill="#719911"/>
<path d="M265.286 160.923C264.838 173.222 254.418 183.239 242.12 183.195L177.632 182.926C165.334 182.881 156.077 172.819 157.016 160.521L164.126 59.6302C165.066 47.3766 175.888 38.1641 188.142 39.2374L247.084 44.2014C259.338 45.23 268.997 56.142 268.55 68.4403L265.286 160.923Z" fill="#A5B5B6"/>
<path d="M255.045 142.184C254.731 151.217 246.369 158.552 236.485 158.507L184.698 158.104C174.815 158.015 167.347 150.591 168.062 141.602L173.518 70.3617C174.234 61.3281 182.909 54.6199 192.748 55.4249L240.108 59.2262C249.946 60.0311 257.728 68.0809 257.415 77.1146L255.045 142.184Z" fill="#C5D5D6"/>
<path d="M246.771 173.219L176.738 172.727C168.062 172.682 160.728 168.389 156.971 161.994C156.837 173.577 165.871 182.834 177.632 182.879L242.075 183.147C252.406 183.192 261.395 176.171 264.302 166.645C259.74 170.759 253.524 173.264 246.771 173.219Z" fill="#859596"/>
<path d="M246.95 175.456C246.905 175.456 246.816 175.456 246.771 175.456L176.738 174.964C167.525 174.919 159.386 170.491 155.048 163.157C154.422 162.084 154.78 160.742 155.808 160.071C156.882 159.445 158.223 159.803 158.894 160.832C162.427 166.824 169.135 170.402 176.782 170.447L246.816 170.939C252.764 170.983 258.488 168.837 262.826 164.946C263.765 164.141 265.151 164.186 266.001 165.125C266.806 166.064 266.761 167.45 265.822 168.3C260.634 172.951 253.971 175.456 246.95 175.456Z" fill="#354546"/>
<path d="M242.165 185.428C242.12 185.428 242.075 185.428 242.075 185.428L177.632 185.16C171.058 185.115 165.066 182.521 160.728 177.826C156.39 173.13 154.288 166.914 154.824 160.384L161.89 59.449C162.382 52.9197 165.423 46.9718 170.432 42.7233C175.441 38.4748 181.791 36.4177 188.321 36.999L247.263 41.9631C260.724 43.0811 271.278 55.0216 270.786 68.4827L267.522 161.011C266.985 174.472 255.67 185.428 242.165 185.428ZM186.263 41.3817C181.523 41.3817 177.006 43.0364 173.339 46.1668C169.225 49.6551 166.765 54.485 166.363 59.8068L159.252 160.698C158.849 166.019 160.504 171.028 163.992 174.785C167.481 178.541 172.31 180.643 177.632 180.688L242.075 180.956C242.12 180.956 242.12 180.956 242.165 180.956C253.256 180.956 262.602 171.967 263.005 160.876L266.269 68.3485C266.672 57.213 257.996 47.3743 246.86 46.4352L187.963 41.4264C187.381 41.3817 186.8 41.3817 186.263 41.3817Z" fill="#354546"/>
<path d="M216.003 68.4822C203.749 68.4822 189.17 64.7257 189.17 46.7925C189.17 43.9751 189.528 42.0968 190.243 39.4583C190.556 38.2508 191.808 37.58 192.971 37.893C194.179 38.2061 194.849 39.4583 194.536 40.621C193.91 42.9912 193.597 44.467 193.597 46.7925C193.597 51.041 193.597 64.0101 215.958 64.0101C238.408 64.0101 238.408 51.041 238.408 46.7925C238.408 45.8534 238.363 44.8695 238.274 43.9751C238.139 42.7676 239.034 41.6496 240.286 41.5154C241.494 41.3813 242.612 42.2757 242.746 43.5279C242.88 44.6012 242.925 45.7192 242.925 46.8372C242.925 56.6759 238.274 68.4822 216.003 68.4822Z" fill="#354546"/>
<path d="M194.672 113.431C204.103 104.001 204.103 88.7103 194.672 79.2794C185.242 69.8486 169.951 69.8486 160.52 79.2794C151.09 88.7103 151.09 104.001 160.52 113.431C169.951 122.862 185.242 122.862 194.672 113.431Z" fill="#C5D5D6"/>
<path d="M177.633 122.73C177.319 122.73 176.962 122.73 176.649 122.73C169.627 122.462 163.098 119.465 158.268 114.322C153.483 109.18 150.979 102.427 151.247 95.4055C151.515 88.3843 154.512 81.855 159.655 77.0251C164.798 72.24 171.55 69.7356 178.572 70.0039C185.593 70.2722 192.122 73.2685 196.952 78.4115C201.737 83.5544 204.242 90.3073 203.973 97.3285C203.705 104.35 200.709 110.879 195.566 115.709C190.646 120.226 184.296 122.73 177.633 122.73ZM177.588 74.4313C172.042 74.4313 166.765 76.4885 162.696 80.2898C158.402 84.2699 155.943 89.6812 155.719 95.5396C155.496 101.398 157.597 106.988 161.578 111.281C165.558 115.575 170.969 118.034 176.828 118.258C182.686 118.482 188.276 116.38 192.569 112.399C196.863 108.419 199.322 103.008 199.546 97.1496C199.769 91.2911 197.668 85.701 193.687 81.4078C189.707 77.1146 184.296 74.6549 178.437 74.4313C178.124 74.4313 177.856 74.4313 177.588 74.4313Z" fill="#354546"/>
<path d="M188.601 107.36C194.678 101.282 194.678 91.4286 188.601 85.3509C182.523 79.2733 172.669 79.2733 166.591 85.3509C160.514 91.4286 160.514 101.282 166.591 107.36C172.669 113.438 182.523 113.438 188.601 107.36Z" fill="#9ABD45"/>
<path d="M177.766 101.441C183.101 101.441 187.426 97.1158 187.426 91.7808C187.426 86.4459 183.101 82.1211 177.766 82.1211C172.431 82.1211 168.106 86.4459 168.106 91.7808C168.106 97.1158 172.431 101.441 177.766 101.441Z" fill="#CEEB87"/>
<path d="M177.632 114.142C177.409 114.142 177.185 114.142 176.961 114.142C172.221 113.963 167.793 111.951 164.574 108.462C161.354 104.974 159.654 100.457 159.833 95.6722C160.012 90.9318 162.024 86.5044 165.513 83.2845C169.001 80.0646 173.518 78.3652 178.303 78.5441C183.043 78.723 187.471 80.7354 190.691 84.2236C193.911 87.7119 195.61 92.2287 195.431 97.0139C195.252 101.754 193.24 106.182 189.752 109.402C186.397 112.487 182.149 114.142 177.632 114.142ZM177.587 83.0162C174.233 83.0162 171.013 84.2684 168.509 86.5939C165.915 89.0088 164.395 92.3182 164.261 95.8511C164.126 99.4288 165.379 102.828 167.793 105.421C170.208 108.015 173.518 109.536 177.051 109.67C180.628 109.804 184.027 108.552 186.621 106.137C189.215 103.722 190.735 100.413 190.87 96.8797C191.004 93.302 189.752 89.9032 187.337 87.3094C184.922 84.7156 181.612 83.1951 178.079 83.0609C177.945 83.0162 177.766 83.0162 177.587 83.0162Z" fill="#354546"/>
<path d="M181.613 85.9684C182.596 88.1598 179.511 90.0828 175.441 91.8716C171.371 93.7052 167.928 94.7338 166.944 92.4977C165.96 90.3064 168.42 87.0417 172.489 85.2082C176.559 83.4193 180.629 83.7771 181.613 85.9684Z" fill="white"/>
<path d="M178.839 107.393C178.571 106.811 179.376 106.319 180.449 105.872C181.478 105.38 182.417 105.112 182.64 105.693C182.909 106.275 182.238 107.124 181.209 107.571C180.136 108.063 179.063 107.974 178.839 107.393Z" fill="white"/>
<path d="M191.646 97.978C192.387 96.0933 191.459 93.9646 189.575 93.2236C187.69 92.4825 185.561 93.4097 184.82 95.2944C184.079 97.1792 185.006 99.3078 186.891 100.049C188.776 100.79 190.905 99.8628 191.646 97.978Z" fill="#354546"/>
<path d="M269.847 101.265C269.445 112.579 259.919 116.47 248.65 116.023C237.335 115.62 228.525 111.014 228.972 99.7444C229.375 88.4299 238.9 79.6199 250.17 80.0671C261.44 80.4696 270.25 89.9504 269.847 101.265Z" fill="#C5D5D6"/>
<path d="M250.259 118.303C249.678 118.303 249.141 118.303 248.515 118.258C241.986 118.035 236.798 116.514 233.042 113.786C228.659 110.566 226.468 105.692 226.691 99.6991C226.915 93.6618 229.464 88.0269 233.936 83.9126C238.364 79.7982 244.177 77.6516 250.215 77.8752C256.252 78.0988 261.887 80.6479 266.001 85.1201C270.115 89.5474 272.262 95.3612 272.038 101.399C271.681 112.176 263.765 118.303 250.259 118.303ZM249.365 82.2579C244.759 82.2579 240.376 83.9573 236.977 87.1325C233.4 90.4419 231.342 94.9587 231.163 99.8333C230.985 104.44 232.46 107.794 235.725 110.164C238.677 112.355 243.193 113.607 248.739 113.786C263.944 114.368 267.388 107.212 267.611 101.175C267.79 96.3003 266.046 91.6493 262.737 88.1164C259.427 84.5387 254.91 82.4815 250.036 82.3026C249.812 82.2579 249.589 82.2579 249.365 82.2579Z" fill="#354546"/>
<path d="M262.558 100.995C262.289 108.284 256.163 109.044 248.873 108.776C241.583 108.508 235.904 107.3 236.172 100.011C236.441 92.7212 242.567 87.0416 249.857 87.3099C257.146 87.5782 262.826 93.705 262.558 100.995Z" fill="#19B5FE"/>
<path d="M257.594 96.3892C257.415 100.906 253.927 102.605 249.41 102.427C244.893 102.248 241.047 100.325 241.226 95.7631C241.405 91.2463 245.206 87.7133 249.723 87.8474C254.195 88.0711 257.728 91.8723 257.594 96.3892Z" fill="#39D5FF"/>
<path d="M251.377 111.058C250.438 111.058 249.544 111.013 248.784 111.013C243.82 110.834 233.534 110.432 233.936 99.9224C234.07 95.8081 235.815 92.0068 238.856 89.1894C241.897 86.372 245.787 84.9409 249.946 85.075C258.443 85.3881 265.107 92.5435 264.794 101.085C264.481 109.985 256.789 111.058 251.377 111.058ZM249.365 89.5472C246.592 89.5472 243.954 90.5757 241.897 92.454C239.75 94.4665 238.498 97.1497 238.408 100.101C238.23 104.708 240.689 106.228 248.963 106.541C258.309 106.899 260.188 104.842 260.322 100.906C260.545 94.869 255.805 89.7708 249.768 89.5472C249.633 89.5472 249.499 89.5472 249.365 89.5472Z" fill="#354546"/>
<path d="M252.764 91.693C253.613 93.5713 250.975 95.1813 247.531 96.7018C244.088 98.2223 241.181 99.1167 240.331 97.2384C239.481 95.3602 241.583 92.5875 245.027 91.0669C248.47 89.5464 251.959 89.8595 252.764 91.693Z" fill="white"/>
<path d="M253.703 105.111C253.479 104.619 254.15 104.216 255.044 103.814C255.939 103.411 256.699 103.188 256.922 103.68C257.146 104.172 256.609 104.887 255.715 105.29C254.821 105.692 253.926 105.603 253.703 105.111Z" fill="white"/>
<path d="M243.685 100.412C243.64 102.112 242.165 103.453 240.465 103.409C238.766 103.364 237.424 101.888 237.469 100.189C237.514 98.4894 238.989 97.1478 240.689 97.1925C242.388 97.2372 243.73 98.6683 243.685 100.412Z" fill="#354546"/>
<path d="M177.99 141.02L245.787 125.859C245.787 125.859 249.589 146.744 233.087 152.826C204.107 163.604 177.99 141.02 177.99 141.02Z" fill="white"/>
<path d="M216.897 157.97C209.384 157.97 201.603 156.315 193.821 153.051C183.446 148.668 176.827 142.988 176.559 142.72C175.933 142.184 175.665 141.289 175.843 140.484C176.067 139.679 176.693 139.053 177.543 138.829L245.34 123.669C245.921 123.535 246.547 123.669 247.084 123.982C247.576 124.34 247.934 124.832 248.068 125.458C248.113 125.681 249.097 131.137 247.934 137.488C246.324 146.119 241.494 152.156 233.981 154.974C228.48 156.986 222.756 157.97 216.897 157.97ZM183.222 142.184C186.085 144.151 190.378 146.745 195.655 148.981C208.535 154.392 220.878 155.018 232.326 150.77C238.319 148.534 242.075 143.838 243.417 136.817C244.043 133.597 243.998 130.601 243.864 128.633L183.222 142.184Z" fill="#354546"/>
<path d="M197.175 154.214C196.057 154.214 195.073 153.365 194.939 152.247L193.195 137.399C193.06 136.192 193.91 135.074 195.162 134.94C196.37 134.806 197.488 135.655 197.622 136.907L199.366 151.755C199.5 152.962 198.651 154.08 197.398 154.214C197.354 154.214 197.264 154.214 197.175 154.214Z" fill="#354546"/>
<path d="M213.409 157.21C212.201 157.21 211.218 156.271 211.173 155.064L210.413 133.374C210.368 132.122 211.352 131.093 212.559 131.048C213.811 131.004 214.84 131.987 214.885 133.195L215.645 154.885C215.69 156.137 214.706 157.165 213.498 157.21C213.454 157.21 213.454 157.21 213.409 157.21Z" fill="#354546"/>
<path d="M230 155.107C228.793 155.107 227.764 154.123 227.764 152.916L227.496 129.527C227.496 128.275 228.48 127.291 229.687 127.246C229.687 127.246 229.687 127.246 229.732 127.246C230.94 127.246 231.968 128.23 231.968 129.437L232.237 152.827C232.281 154.079 231.253 155.107 230 155.107C230.045 155.107 230 155.107 230 155.107Z" fill="#354546"/>
<path d="M128.439 222.948C130.586 224.155 131.346 226.928 130.139 229.03L129.065 230.953C127.858 233.099 125.085 233.86 122.983 232.652L103.44 221.561C101.294 220.354 100.533 217.581 101.741 215.479L102.814 213.556C104.022 211.41 106.794 210.649 108.896 211.857L128.439 222.948Z" fill="#A5B5B6"/>
<path d="M125.13 235.47C123.967 235.47 122.849 235.157 121.821 234.575L102.278 223.485C99.0577 221.651 97.9397 217.537 99.7732 214.317L100.847 212.394C101.741 210.829 103.172 209.711 104.916 209.263C106.66 208.771 108.449 208.995 110.014 209.889L129.557 220.98C131.123 221.875 132.241 223.306 132.688 225.05C133.18 226.794 132.956 228.583 132.062 230.148L130.989 232.071C130.094 233.636 128.663 234.754 126.919 235.202C126.338 235.38 125.756 235.47 125.13 235.47ZM106.705 213.512C106.481 213.512 106.302 213.557 106.079 213.601C105.498 213.78 105.006 214.138 104.737 214.63L103.664 216.553C103.038 217.626 103.44 219.013 104.514 219.594L124.057 230.685C124.593 230.998 125.175 231.042 125.756 230.908C126.338 230.729 126.829 230.372 127.098 229.88L128.171 227.957C128.484 227.42 128.529 226.839 128.395 226.257C128.216 225.676 127.858 225.184 127.366 224.916L107.823 213.78C107.465 213.601 107.107 213.512 106.705 213.512Z" fill="#354546"/>
<path d="M132.106 225.139L127.544 222.545C123.251 220.13 117.795 221.606 115.335 225.899L112.742 230.461C110.327 234.754 111.802 240.21 116.096 242.67L120.657 245.264C124.95 247.679 130.406 246.203 132.866 241.909L135.46 237.348C137.875 233.055 136.399 227.554 132.106 225.139Z" fill="#A5B5B6"/>
<path d="M125.085 248.661C123.207 248.661 121.328 248.214 119.584 247.186L115.023 244.592C112.429 243.116 110.55 240.701 109.79 237.839C108.985 234.932 109.388 231.936 110.819 229.342L113.413 224.78C114.888 222.187 117.303 220.308 120.166 219.548C123.072 218.743 126.069 219.146 128.663 220.577L133.224 223.17C138.591 226.211 140.469 233.054 137.428 238.42L134.834 242.982C132.732 246.604 128.976 248.661 125.085 248.661ZM123.162 223.618C122.58 223.618 121.954 223.707 121.373 223.841C119.629 224.333 118.198 225.451 117.303 226.972L114.71 231.533C113.815 233.099 113.592 234.887 114.083 236.631C114.575 238.376 115.693 239.807 117.214 240.701L121.775 243.295C124.995 245.128 129.11 244.01 130.943 240.791L133.537 236.229C135.371 233.009 134.253 228.895 131.033 227.061L126.471 224.467C125.398 223.886 124.28 223.618 123.162 223.618Z" fill="#354546"/>
<path d="M290.374 216.731C288.316 218.117 287.78 220.89 289.166 222.947L290.418 224.781C291.805 226.838 294.577 227.374 296.635 225.988L315.283 213.421C317.34 212.035 317.877 209.262 316.491 207.205L315.238 205.372C313.852 203.314 311.079 202.778 309.022 204.164L290.374 216.731Z" fill="#A5B5B6"/>
<path d="M294.131 228.986C291.984 228.986 289.837 227.957 288.54 226.034L287.288 224.201C285.231 221.115 286.036 216.956 289.077 214.899L307.726 202.332C309.202 201.348 310.99 200.99 312.735 201.304C314.479 201.661 315.999 202.645 317.028 204.121L318.28 205.954C319.264 207.43 319.622 209.219 319.309 210.963C318.951 212.707 317.967 214.228 316.491 215.256L297.842 227.823C296.724 228.583 295.428 228.986 294.131 228.986ZM291.626 218.566C290.598 219.237 290.329 220.668 291.045 221.652L292.297 223.485C292.968 224.514 294.399 224.782 295.383 224.067L314.031 211.5C314.523 211.187 314.836 210.65 314.971 210.069C315.105 209.487 314.971 208.906 314.613 208.414L313.361 206.581C313.048 206.089 312.511 205.776 311.93 205.641C311.348 205.507 310.767 205.641 310.275 205.999L291.626 218.566Z" fill="#354546"/>
<path d="M306.609 222.993L303.657 218.655C300.884 214.586 295.339 213.512 291.225 216.24L286.887 219.192C282.817 221.965 281.744 227.51 284.472 231.624L287.423 235.962C290.196 240.032 295.741 241.105 299.856 238.377L304.194 235.426C308.308 232.653 309.381 227.107 306.609 222.993Z" fill="#A5B5B6"/>
<path d="M294.891 242.133C294.176 242.133 293.46 242.044 292.744 241.91C289.793 241.328 287.288 239.673 285.589 237.214L282.637 232.876C280.983 230.416 280.357 227.42 280.938 224.513C281.519 221.561 283.174 219.057 285.634 217.358L289.972 214.406C292.431 212.751 295.428 212.125 298.335 212.707C301.286 213.288 303.791 214.943 305.49 217.402L308.442 221.74C310.096 224.2 310.722 227.196 310.141 230.103C309.56 233.055 307.905 235.559 305.445 237.259L301.107 240.21C299.229 241.462 297.082 242.133 294.891 242.133ZM296.233 216.955C294.891 216.955 293.639 217.358 292.521 218.118L288.183 221.069C286.707 222.053 285.723 223.574 285.365 225.363C285.008 227.107 285.365 228.896 286.394 230.371L289.346 234.709C290.33 236.185 291.85 237.169 293.639 237.527C295.383 237.885 297.172 237.527 298.648 236.498L302.986 233.547C304.461 232.563 305.445 231.042 305.803 229.253C306.161 227.509 305.803 225.72 304.774 224.245L301.823 219.907C300.839 218.431 299.318 217.447 297.53 217.089C297.127 217 296.68 216.955 296.233 216.955Z" fill="#354546"/>
<path d="M312.243 272.053C312.422 276.973 308.576 281.132 303.657 281.355L120.211 288.421C115.292 288.6 111.133 284.754 110.909 279.835L108.002 204.569C107.823 199.65 111.669 195.491 116.589 195.267L300.079 188.201C304.998 188.022 309.157 191.868 309.381 196.788L312.243 272.053Z" fill="#9ABD45"/>
<path d="M180.854 286.052L197.713 285.381L226.916 190.975L190.737 192.406L180.854 286.052Z" fill="#A4C94A"/>
<path d="M147.983 287.348L155.81 287.035L183.268 192.674L170.165 193.21L147.983 287.348Z" fill="#A4C94A"/>
<path d="M284.83 188.783L230.181 190.885L210.459 284.933L255.448 283.189L284.83 188.783Z" fill="#A4C94A"/>
<path d="M119.853 290.657C117.036 290.657 114.353 289.628 112.251 287.66C110.059 285.648 108.762 282.875 108.673 279.879L105.766 204.613C105.632 201.617 106.705 198.8 108.762 196.608C110.775 194.417 113.548 193.12 116.544 193.03L299.99 185.965C306.161 185.741 311.349 190.526 311.572 196.698L314.479 271.963C314.703 278.135 309.918 283.322 303.746 283.546L120.3 290.612C120.122 290.657 119.987 290.657 119.853 290.657ZM300.392 190.437C300.303 190.437 300.213 190.437 300.124 190.437L116.678 197.503C114.889 197.592 113.235 198.352 112.027 199.649C110.82 200.991 110.149 202.69 110.238 204.479L113.145 279.745C113.235 281.533 113.995 283.188 115.292 284.396C116.633 285.603 118.333 286.274 120.122 286.184L303.567 279.119C307.279 278.984 310.141 275.854 310.007 272.142L307.1 196.877C306.966 193.254 304.015 190.437 300.392 190.437Z" fill="#719911"/>
<path d="M103.933 238.958C101.473 239.047 99.3713 237.124 99.2819 234.664L99.1925 232.473C99.103 230.013 101.026 227.911 103.486 227.822L114.308 227.107C116.768 227.017 118.87 228.94 118.959 231.4L119.049 233.591C119.138 236.051 117.215 238.153 114.755 238.242L103.933 238.958Z" fill="#A5B5B6"/>
<path d="M103.754 241.195C102.054 241.195 100.489 240.569 99.2367 239.406C97.895 238.199 97.1348 236.544 97.0901 234.755L97.0006 232.564C96.8665 228.897 99.7286 225.766 103.396 225.587L114.218 224.872H114.263C116.052 224.782 117.751 225.408 119.093 226.616C120.434 227.823 121.195 229.478 121.239 231.267L121.329 233.458C121.418 235.247 120.792 236.946 119.585 238.288C118.377 239.585 116.723 240.39 114.979 240.435L104.156 241.15H104.111C103.932 241.195 103.843 241.195 103.754 241.195ZM114.397 229.344L103.575 230.059H103.53C102.278 230.104 101.339 231.177 101.383 232.385L101.473 234.576C101.517 235.158 101.741 235.739 102.188 236.141C102.635 236.544 103.172 236.768 103.754 236.723L114.576 236.007H114.621C115.202 235.963 115.783 235.739 116.186 235.292C116.588 234.844 116.812 234.263 116.767 233.682L116.678 231.49C116.633 230.909 116.41 230.328 115.962 229.925C115.56 229.523 114.978 229.344 114.397 229.344Z" fill="#354546"/>
<path d="M104.916 251.659C102.457 251.748 100.355 249.825 100.265 247.366L100.176 245.174C100.086 242.715 102.009 240.613 104.469 240.523L115.292 239.808C117.751 239.718 119.853 241.641 119.943 244.101L120.032 246.292C120.121 248.752 118.198 250.854 115.739 250.943L104.916 251.659Z" fill="#A5B5B6"/>
<path d="M104.738 253.894C103.038 253.894 101.473 253.268 100.221 252.105C98.8794 250.898 98.1192 249.243 98.0744 247.454L97.985 245.263C97.8508 241.596 100.713 238.465 104.38 238.286L115.203 237.571H115.247C117.036 237.481 118.736 238.108 120.077 239.315C121.419 240.522 122.179 242.177 122.224 243.966L122.313 246.157C122.403 247.946 121.777 249.646 120.524 250.987C119.317 252.284 117.662 253.089 115.918 253.134L105.096 253.849H105.051C104.917 253.894 104.827 253.894 104.738 253.894ZM115.381 242.043L104.559 242.759H104.514C103.262 242.803 102.323 243.877 102.368 245.084L102.457 247.275C102.502 247.857 102.725 248.438 103.173 248.841C103.62 249.243 104.157 249.467 104.738 249.422L115.56 248.706H115.605C116.186 248.662 116.768 248.438 117.17 247.991C117.573 247.544 117.796 246.962 117.752 246.381L117.662 244.19C117.618 243.608 117.394 243.027 116.947 242.624C116.544 242.222 116.008 241.998 115.381 242.043Z" fill="#354546"/>
<path d="M105.364 263.151C102.904 263.24 100.802 261.317 100.713 258.858L100.623 256.666C100.534 254.207 102.457 252.105 104.916 252.015L115.739 251.3C118.198 251.21 120.3 253.133 120.39 255.593L120.479 257.784C120.569 260.244 118.646 262.346 116.186 262.435L105.364 263.151Z" fill="#A5B5B6"/>
<path d="M105.185 265.388C103.486 265.388 101.92 264.762 100.668 263.599C99.3267 262.392 98.5664 260.737 98.5217 258.948L98.4322 256.757C98.3428 254.968 98.9689 253.269 100.221 251.927C101.429 250.63 103.083 249.825 104.827 249.781L115.65 249.065H115.695C117.483 248.976 119.183 249.602 120.524 250.809C121.866 252.017 122.626 253.671 122.671 255.46L122.76 257.651C122.895 261.319 120.033 264.449 116.365 264.628L105.543 265.344H105.498C105.364 265.388 105.275 265.388 105.185 265.388ZM115.829 253.537L105.006 254.253H104.962C104.38 254.297 103.799 254.521 103.396 254.968C102.994 255.415 102.77 255.997 102.815 256.578L102.904 258.77C102.949 259.351 103.173 259.932 103.62 260.335C104.067 260.737 104.604 260.961 105.185 260.916L116.008 260.201H116.052C116.634 260.156 117.215 259.932 117.618 259.485C118.02 259.038 118.244 258.456 118.199 257.875L118.11 255.684C118.065 255.102 117.841 254.521 117.394 254.119C116.991 253.716 116.41 253.492 115.829 253.537Z" fill="#354546"/>
<path d="M316.044 230.818C318.504 230.729 320.427 228.672 320.338 226.212L320.248 224.021C320.159 221.561 318.102 219.638 315.642 219.728L304.775 219.862C302.315 219.951 300.392 222.008 300.482 224.468L300.571 226.659C300.66 229.119 302.718 231.042 305.177 230.953L316.044 230.818Z" fill="#A5B5B6"/>
<path d="M305.043 233.189C301.466 233.189 298.469 230.327 298.335 226.705L298.246 224.513C298.112 220.802 301.018 217.716 304.73 217.582H304.775L315.597 217.448C317.386 217.403 319.086 218.029 320.383 219.236C321.68 220.444 322.44 222.099 322.529 223.887L322.619 226.079C322.753 229.791 319.846 232.876 316.134 233.01H316.089L305.267 233.145C305.177 233.189 305.133 233.189 305.043 233.189ZM304.864 222.009C303.657 222.054 302.673 223.082 302.718 224.335L302.807 226.526C302.852 227.778 303.881 228.717 305.133 228.673H305.177L316 228.538C316.581 228.494 317.118 228.27 317.52 227.823C317.923 227.376 318.147 226.794 318.147 226.213L318.057 224.022C318.057 223.44 317.789 222.859 317.342 222.456C316.894 222.054 316.358 221.83 315.732 221.875H315.687L304.864 222.009Z" fill="#354546"/>
<path d="M316.044 243.52C318.504 243.43 320.427 241.373 320.338 238.913L320.248 236.722C320.159 234.262 318.102 232.339 315.642 232.429L304.775 232.563C302.315 232.652 300.392 234.71 300.482 237.169L300.571 239.361C300.66 241.82 302.718 243.743 305.177 243.654L316.044 243.52Z" fill="#A5B5B6"/>
<path d="M305.043 245.891C303.344 245.891 301.734 245.265 300.482 244.102C299.185 242.894 298.425 241.24 298.335 239.451L298.246 237.26C298.112 233.548 301.018 230.462 304.73 230.328H304.775L315.597 230.194C317.386 230.149 319.086 230.775 320.383 231.982C321.68 233.19 322.44 234.845 322.529 236.633L322.619 238.825C322.753 242.537 319.846 245.622 316.134 245.757H316.089L305.267 245.891C305.177 245.891 305.088 245.891 305.043 245.891ZM304.864 234.755C303.657 234.8 302.673 235.828 302.718 237.081L302.807 239.272C302.807 239.853 303.076 240.435 303.523 240.837C303.97 241.24 304.551 241.463 305.133 241.419H305.177L316 241.284C317.207 241.24 318.191 240.211 318.147 238.959L318.057 236.768C318.057 236.186 317.789 235.605 317.342 235.202C316.894 234.8 316.313 234.576 315.732 234.621H315.687L304.864 234.755Z" fill="#354546"/>
<path d="M316.492 255.012C318.951 254.922 320.874 252.865 320.785 250.406L320.695 248.214C320.606 245.755 318.549 243.832 316.089 243.921L305.222 244.055C302.762 244.145 300.839 246.202 300.929 248.661L301.018 250.853C301.108 253.312 303.165 255.235 305.624 255.146L316.492 255.012Z" fill="#A5B5B6"/>
<path d="M305.491 257.383C301.913 257.383 298.917 254.521 298.782 250.898L298.693 248.707C298.559 244.995 301.466 241.909 305.177 241.775H305.222L316.045 241.641C317.834 241.596 319.533 242.222 320.83 243.43C322.127 244.637 322.887 246.292 322.976 248.081L323.066 250.272C323.111 252.061 322.485 253.76 321.277 255.057C320.07 256.354 318.415 257.114 316.626 257.204H316.581L305.759 257.338C305.625 257.383 305.535 257.383 305.491 257.383ZM305.312 246.247C304.104 246.292 303.12 247.32 303.165 248.573L303.254 250.764C303.299 252.016 304.328 252.955 305.58 252.911H305.625L316.447 252.776C317.029 252.732 317.565 252.508 317.968 252.061C318.37 251.614 318.594 251.032 318.594 250.451L318.504 248.26C318.504 247.678 318.236 247.097 317.789 246.694C317.342 246.292 316.76 246.068 316.179 246.113H316.134L305.312 246.247Z" fill="#354546"/>
<path d="M171.371 234.037C170.655 234.931 169.761 235.915 168.732 236.988C167.704 238.017 166.541 239.001 165.244 239.895C163.947 240.79 162.471 241.55 160.817 242.176C159.162 242.802 157.373 243.16 155.45 243.205C153.348 243.294 151.604 242.847 150.173 241.952C148.742 241.058 147.624 239.895 146.73 238.464C145.88 237.033 145.254 235.423 144.896 233.679C144.538 231.935 144.359 230.235 144.359 228.581C144.404 227.373 144.628 226.032 144.985 224.556C145.343 223.08 145.835 221.56 146.417 220.039C146.998 218.519 147.713 216.998 148.563 215.522C149.368 214.046 150.307 212.705 151.336 211.542C152.364 210.335 153.482 209.351 154.69 208.546C155.897 207.741 157.194 207.249 158.536 207.07C160.101 206.891 161.398 206.98 162.382 207.338C163.366 207.696 164.171 208.233 164.797 208.993C165.423 209.753 165.915 210.648 166.228 211.721C166.586 212.794 166.854 213.957 167.122 215.164C167.122 215.388 167.078 215.656 166.988 216.014C166.899 216.372 166.675 216.73 166.407 217.043C166.139 217.4 165.736 217.669 165.244 217.892C164.752 218.116 164.126 218.205 163.366 218.116C162.784 218.027 162.337 217.758 162.114 217.4C161.89 217.043 161.711 216.417 161.577 215.612C161.532 214.27 161.309 213.197 160.861 212.436C160.459 211.676 159.922 211.363 159.251 211.453C158.223 211.587 157.284 211.989 156.434 212.749C155.54 213.465 154.779 214.359 154.019 215.433C153.304 216.506 152.633 217.669 152.096 218.921C151.515 220.173 151.068 221.47 150.665 222.722C150.263 224.019 149.994 225.227 149.815 226.345C149.636 227.463 149.547 228.447 149.547 229.207C149.592 230.235 149.681 231.309 149.905 232.382C150.084 233.455 150.441 234.439 150.889 235.289C151.336 236.139 151.962 236.854 152.767 237.391C153.572 237.927 154.601 238.196 155.853 238.151C156.971 238.106 158.089 237.883 159.162 237.436C160.235 236.988 161.264 236.407 162.293 235.647C163.321 234.886 164.305 233.992 165.289 232.963C166.273 231.935 167.212 230.817 168.106 229.565L168.151 229.475C168.285 229.341 168.509 229.162 168.732 228.983C168.956 228.804 169.135 228.67 169.314 228.581C169.94 228.312 170.745 228.536 171.818 229.207C171.997 229.386 172.176 229.609 172.31 229.922C172.444 230.235 172.534 230.548 172.534 230.996C172.534 231.443 172.489 231.845 172.31 232.337C172.086 232.963 171.773 233.5 171.371 234.037Z" fill="white"/>
<path d="M181.88 239.984C180.673 240.028 179.644 239.76 178.75 239.223C177.855 238.687 177.14 237.971 176.514 237.077C175.932 236.182 175.441 235.199 175.127 234.08C174.814 232.962 174.636 231.844 174.591 230.726C174.591 230.369 174.591 230.1 174.591 229.832C174.591 229.564 174.591 229.34 174.636 229.072C174.77 227.73 175.083 226.478 175.664 225.27C176.201 224.063 176.961 223.124 177.945 222.453C178.526 222.095 179.152 221.827 179.734 221.693C180.36 221.559 180.852 221.469 181.21 221.469C182.149 220.888 183.043 220.441 183.893 220.128C184.698 219.814 185.458 219.636 186.174 219.636C187.202 219.591 188.097 219.77 188.812 220.217C189.528 220.619 190.109 221.201 190.601 221.872C191.048 222.542 191.406 223.303 191.585 224.197C191.764 225.092 191.853 225.897 191.808 226.701C191.719 228.043 191.406 229.474 190.869 230.995C190.333 232.515 189.617 233.946 188.723 235.243C187.828 236.54 186.8 237.658 185.637 238.553C184.474 239.536 183.222 239.984 181.88 239.984ZM185.458 224.644C185.1 224.644 184.743 224.734 184.385 224.823C184.027 224.957 183.669 225.092 183.311 225.27C182.954 225.449 182.641 225.673 182.328 225.852C182.015 226.075 181.746 226.254 181.523 226.433C181.388 226.701 181.299 226.88 181.254 227.015C181.21 227.149 181.165 227.283 181.12 227.372C181.075 227.462 181.031 227.506 180.986 227.551C180.941 227.596 180.896 227.596 180.852 227.641C180.718 227.775 180.583 227.909 180.36 228.043C180.181 228.177 179.913 228.267 179.644 228.356L179.465 229.832C179.421 230.548 179.465 231.174 179.555 231.8C179.644 232.426 179.823 232.962 180.002 233.454C180.226 233.946 180.449 234.304 180.718 234.572C180.986 234.841 181.299 234.975 181.657 234.975C182.372 234.93 182.998 234.707 183.58 234.17C184.161 233.633 184.698 233.007 185.145 232.247C185.592 231.487 185.95 230.637 186.263 229.698C186.531 228.759 186.755 227.909 186.844 227.059C186.889 226.478 186.8 225.941 186.666 225.405C186.442 224.957 186.039 224.689 185.458 224.644Z" fill="white"/>
<path d="M210.323 225.406C210.815 224.556 211.396 223.841 211.933 223.214C212.514 222.588 213.051 222.231 213.542 222.231C214.616 222.186 215.555 222.588 216.405 223.393C217.254 224.198 217.97 225.137 218.551 226.255C219.177 227.329 219.625 228.447 219.982 229.565C220.34 230.683 220.564 231.488 220.698 232.069C220.877 232.874 221.056 233.679 221.19 234.484C221.324 235.289 221.458 235.96 221.592 236.541C221.726 237.257 221.592 237.838 221.19 238.241C220.787 238.643 220.295 238.956 219.669 239.046C219.088 239.18 218.507 239.09 217.925 238.822C217.344 238.554 216.986 238.062 216.852 237.391C216.718 236.72 216.539 235.96 216.36 235.065C216.181 234.171 216.002 233.321 215.734 232.427C215.51 231.533 215.242 230.683 214.929 229.878C214.616 229.073 214.303 228.402 213.9 227.821C213.408 228.581 213.006 229.341 212.693 230.101C212.38 230.862 212.111 231.622 211.888 232.382C211.664 233.142 211.441 233.947 211.217 234.752C210.993 235.557 210.77 236.362 210.546 237.257C210.367 238.017 209.965 238.509 209.428 238.777C208.892 239.001 208.31 239.09 207.773 238.956C207.192 238.822 206.7 238.554 206.253 238.151C205.806 237.749 205.582 237.257 205.582 236.675C205.537 235.781 205.537 234.797 205.537 233.634C205.537 232.516 205.537 231.354 205.448 230.146C205.403 228.983 205.269 227.821 205.135 226.747C204.956 225.674 204.688 224.735 204.33 223.975H204.285C203.927 223.975 203.525 224.288 203.212 224.914C202.854 225.54 202.541 226.345 202.228 227.284C201.915 228.223 201.647 229.296 201.423 230.415C201.155 231.533 200.976 232.651 200.797 233.679C200.618 234.708 200.484 235.602 200.35 236.407C200.26 237.212 200.171 237.749 200.171 238.062C200.171 238.33 200.126 238.598 200.081 238.822C200.037 239.046 200.037 239.269 199.947 239.493L199.679 240.03L199.366 240.879C199.008 241.461 198.606 241.818 198.114 241.908C197.622 241.997 197.219 241.953 196.817 241.729C196.414 241.505 196.057 241.192 195.788 240.79C195.52 240.343 195.386 239.94 195.386 239.493C195.52 237.257 195.609 235.334 195.654 233.769C195.744 232.203 195.788 230.728 195.833 229.386C195.878 228.044 195.922 226.747 195.967 225.406C196.012 224.109 196.057 222.588 196.057 220.844C196.057 220.129 196.325 219.592 196.772 219.19C197.264 218.832 197.756 218.653 198.337 218.653C198.919 218.653 199.411 218.832 199.858 219.234C200.305 219.592 200.529 220.129 200.529 220.844C201.021 220.218 201.557 219.637 202.183 219.145C202.809 218.653 203.57 218.429 204.464 218.385C205.403 218.34 206.208 218.563 206.879 219.011C207.55 219.458 208.087 219.994 208.534 220.71C208.981 221.426 209.294 222.186 209.562 223.036C210.054 223.841 210.233 224.645 210.323 225.406Z" fill="white"/>
<path d="M231.61 231.801C231.61 232.382 231.655 232.829 231.745 233.142C231.834 233.455 231.968 233.858 232.192 234.395C232.505 235.289 232.55 235.96 232.281 236.496C232.013 237.033 231.655 237.391 231.163 237.659C230.671 237.883 230.135 237.972 229.598 237.928C229.061 237.883 228.614 237.704 228.346 237.391C228.033 237.123 227.809 236.586 227.586 235.826C227.407 235.065 227.272 234.037 227.272 232.874C227.272 231.846 227.272 230.638 227.317 229.207C227.362 227.776 227.407 226.121 227.407 224.288C227.407 223.93 227.362 223.393 227.362 222.722C227.362 222.052 227.407 221.381 227.496 220.71C227.586 220.039 227.809 219.458 228.077 218.921C228.39 218.384 228.838 218.116 229.419 218.071C230.179 217.982 230.85 218.25 231.432 218.876C232.013 219.502 232.281 220.307 232.281 221.247C232.281 221.56 232.236 222.186 232.147 223.17C232.102 224.153 232.013 225.182 231.923 226.345C231.834 227.463 231.745 228.581 231.7 229.609C231.655 230.638 231.61 231.354 231.61 231.801ZM227.854 212.615C227.675 210.961 228.256 209.977 229.643 209.709C230.582 209.53 231.297 209.753 231.834 210.335C232.326 210.916 232.594 211.587 232.639 212.347C232.684 213.063 232.55 213.733 232.192 214.36C231.834 214.986 231.297 215.299 230.582 215.343C230 215.343 229.464 215.165 228.882 214.673C228.301 214.27 227.943 213.555 227.854 212.615Z" fill="white"/>
<path d="M244.803 221.113C245.206 220.486 245.698 219.95 246.19 219.503C246.681 219.055 247.263 218.787 247.889 218.787C248.694 218.742 249.409 218.966 249.901 219.368C250.438 219.771 250.885 220.308 251.198 220.934C251.511 221.56 251.78 222.231 251.959 222.946C252.137 223.662 252.316 224.288 252.495 224.869C252.853 226.479 253.255 228.044 253.613 229.565C254.016 231.085 254.552 232.606 255.268 234.082C255.626 234.753 255.626 235.379 255.357 235.96C255.089 236.541 254.642 236.944 254.105 237.167C253.569 237.436 252.987 237.48 252.316 237.346C251.646 237.212 251.198 236.765 250.841 236.049C249.946 234.261 249.275 232.382 248.873 230.504C248.426 228.626 247.978 226.658 247.486 224.69L247.442 224.511C247.039 225.272 246.592 226.166 246.19 227.284C245.787 228.402 245.385 229.52 245.072 230.683C244.758 231.846 244.49 232.874 244.267 233.858C244.043 234.842 243.909 235.557 243.864 235.96C243.775 236.765 243.506 237.391 243.014 237.704C242.522 238.062 241.941 238.196 241.36 238.151C240.778 238.107 240.242 237.883 239.75 237.436C239.258 236.989 239.034 236.407 239.034 235.647C239.124 233.143 239.168 230.504 239.258 227.731C239.347 224.959 239.571 222.365 239.973 219.86C240.107 219.145 240.421 218.608 240.957 218.295C241.449 217.982 242.031 217.893 242.567 217.982C243.149 218.072 243.64 218.385 244.132 218.921C244.58 219.592 244.803 220.263 244.803 221.113Z" fill="white"/>
<path d="M274.766 247.407C274.498 248.347 274.095 249.241 273.648 250.135C273.156 251.03 272.62 251.79 272.038 252.461C271.412 253.132 270.741 253.579 269.981 253.847C269.221 254.116 268.46 254.116 267.611 253.802C267.164 253.624 266.85 253.355 266.672 252.953C266.493 252.55 266.448 252.148 266.493 251.745C266.537 251.298 266.716 250.896 266.985 250.493C267.253 250.091 267.611 249.822 268.103 249.643C268.863 248.615 269.489 247.407 269.981 246.021C270.473 244.635 270.875 243.159 271.144 241.594C271.412 240.028 271.591 238.418 271.68 236.764C271.77 235.109 271.725 233.454 271.591 231.844C271.233 232.381 270.965 232.784 270.741 233.007C270.562 233.231 270.383 233.41 270.205 233.589C269.757 234.036 269.221 234.528 268.55 235.109C267.879 235.69 267.119 236.182 266.314 236.674C265.509 237.122 264.659 237.479 263.809 237.703C262.915 237.926 262.065 237.926 261.26 237.703C260.277 237.435 259.606 236.674 259.203 235.512C258.801 234.304 258.667 232.918 258.756 231.352C258.845 229.743 259.158 228.043 259.65 226.254C260.142 224.465 260.813 222.811 261.573 221.29C262.334 219.814 263.228 218.562 264.167 217.578C265.151 216.595 266.135 216.103 267.119 216.147C267.745 216.147 268.326 216.147 268.818 216.147C269.31 216.147 269.757 216.192 270.205 216.326C270.652 216.46 271.054 216.639 271.412 216.952C271.815 217.265 272.217 217.713 272.62 218.294C273.067 219.054 273.156 219.77 272.977 220.441C273.38 220.351 273.782 220.351 274.229 220.441C274.632 220.485 274.99 220.664 275.258 220.932C275.526 221.201 275.705 221.603 275.839 222.14C275.929 222.677 275.884 223.303 275.705 224.108V224.197C276.108 226.478 276.421 228.58 276.6 230.548C276.779 232.515 276.823 234.438 276.734 236.317C276.644 238.195 276.466 240.028 276.108 241.817C275.795 243.606 275.348 245.484 274.766 247.407ZM270.652 222.14C269.847 222.185 269.221 221.827 268.684 221.067C268.55 221.201 268.237 221.335 267.79 221.424C266.582 222.498 265.598 223.929 264.883 225.673C264.167 227.417 263.765 229.429 263.72 231.71C264.391 231.442 265.151 230.995 265.956 230.369C266.761 229.743 267.521 229.027 268.237 228.267C268.952 227.506 269.534 226.702 270.026 225.897C270.518 225.092 270.741 224.421 270.741 223.795C270.741 223.571 270.697 223.347 270.652 223.169C270.607 222.945 270.607 222.766 270.562 222.542C270.607 222.319 270.652 222.185 270.652 222.14Z" fill="white"/>
<path d="M178.929 274.152C178.258 274.42 177.676 274.465 177.184 274.331C176.737 274.152 176.335 273.884 176.111 273.481C175.843 273.079 175.709 272.631 175.664 272.139C175.619 271.648 175.709 271.156 175.888 270.708C176.066 270.261 176.379 269.903 176.782 269.68C177.184 269.411 177.721 269.367 178.347 269.501C178.392 269.501 178.526 269.546 178.794 269.635C179.152 269.546 179.644 269.411 180.36 269.188C181.075 268.964 181.791 268.696 182.506 268.338C183.222 268.025 183.848 267.667 184.385 267.22C184.921 266.818 185.145 266.37 185.145 265.923C185.145 265.789 185.011 265.655 184.787 265.565C184.563 265.431 184.295 265.342 184.027 265.252C183.758 265.163 183.445 265.118 183.177 265.029C182.909 264.984 182.685 264.939 182.551 264.895C181.701 264.716 180.807 264.492 179.868 264.269C178.884 264.045 177.989 263.687 177.14 263.285C176.29 262.882 175.575 262.346 174.993 261.63C174.412 260.959 174.099 260.109 174.054 259.036C174.009 257.918 174.322 256.845 174.948 255.906C175.575 254.967 176.424 254.117 177.408 253.446C178.392 252.731 179.465 252.194 180.628 251.791C181.791 251.389 182.864 251.121 183.893 251.031C184.921 250.942 185.771 251.076 186.486 251.389C187.202 251.702 187.56 252.194 187.649 252.954C187.694 253.222 187.694 253.535 187.694 253.849C187.694 254.162 187.604 254.475 187.426 254.743C187.291 254.967 187.113 255.19 186.889 255.369C186.621 255.548 186.352 255.727 186.084 255.816C185.771 255.906 185.458 255.95 185.145 255.95C184.832 255.95 184.519 255.816 184.295 255.593C183.49 255.637 182.775 255.772 182.104 255.995C181.433 256.219 180.852 256.532 180.36 256.845C179.868 257.158 179.465 257.516 179.197 257.829C178.929 258.142 178.794 258.365 178.794 258.589C178.794 258.768 178.929 258.902 179.107 259.081C179.331 259.26 179.689 259.439 180.226 259.573C180.986 259.841 181.925 260.065 183.043 260.333C184.161 260.601 185.19 260.914 186.218 261.272C187.247 261.675 188.096 262.167 188.812 262.837C189.527 263.508 189.93 264.313 189.975 265.387C190.019 266.728 189.617 267.891 188.812 268.875C188.007 269.903 187.023 270.753 185.86 271.424C184.698 272.139 183.49 272.676 182.193 273.123C180.852 273.66 179.778 273.973 178.929 274.152Z" fill="white"/>
<path d="M199.322 270.706C198.114 270.751 197.086 270.483 196.191 269.946C195.297 269.409 194.581 268.694 193.955 267.799C193.329 266.905 192.882 265.921 192.569 264.803C192.256 263.685 192.077 262.567 192.032 261.449C192.032 261.091 192.032 260.823 192.032 260.555C192.032 260.286 192.032 260.063 192.077 259.794C192.211 258.453 192.524 257.201 193.106 255.993C193.642 254.786 194.402 253.846 195.386 253.176C195.968 252.818 196.594 252.55 197.175 252.415C197.801 252.281 198.293 252.192 198.651 252.192C199.59 251.61 200.485 251.163 201.334 250.85C202.139 250.537 202.899 250.358 203.615 250.358C204.644 250.314 205.538 250.492 206.254 250.94C206.969 251.342 207.55 251.923 208.042 252.594C208.49 253.265 208.847 254.025 209.026 254.92C209.205 255.769 209.295 256.619 209.25 257.424C209.16 258.766 208.847 260.197 208.311 261.717C207.774 263.238 207.059 264.669 206.164 265.966C205.27 267.263 204.241 268.381 203.078 269.275C201.916 270.259 200.663 270.706 199.322 270.706ZM202.855 255.367C202.497 255.367 202.139 255.456 201.781 255.591C201.424 255.725 201.066 255.859 200.708 256.038C200.35 256.217 200.037 256.44 199.724 256.619C199.411 256.843 199.143 257.022 198.919 257.201C198.785 257.469 198.696 257.648 198.651 257.782C198.606 257.916 198.562 258.05 198.517 258.14C198.472 258.229 198.427 258.274 198.383 258.319C198.338 258.363 198.293 258.363 198.248 258.408C198.114 258.542 197.98 258.676 197.757 258.811C197.578 258.945 197.309 259.034 197.041 259.124L196.862 260.599C196.817 261.315 196.862 261.941 196.952 262.567C197.041 263.193 197.22 263.73 197.399 264.222C197.622 264.714 197.846 265.071 198.114 265.34C198.383 265.608 198.696 265.742 199.053 265.742C199.769 265.698 200.395 265.474 200.976 264.937C201.558 264.445 202.094 263.775 202.542 263.014C202.989 262.254 203.347 261.404 203.66 260.465C203.928 259.526 204.152 258.676 204.241 257.827C204.286 257.245 204.196 256.709 204.062 256.172C203.883 255.68 203.481 255.412 202.855 255.367Z" fill="white"/>
<path d="M218.328 270.081C217.12 270.126 216.092 269.858 215.197 269.321C214.303 268.784 213.587 268.069 212.961 267.174C212.38 266.28 211.888 265.296 211.575 264.178C211.262 263.06 211.083 261.942 211.038 260.824C211.038 260.466 211.038 260.198 211.038 259.93C211.038 259.661 211.038 259.438 211.083 259.169C211.217 257.828 211.53 256.576 212.111 255.368C212.648 254.161 213.408 253.221 214.392 252.551C214.974 252.193 215.6 251.925 216.181 251.79C216.807 251.656 217.299 251.567 217.657 251.567C218.596 250.985 219.49 250.538 220.34 250.225C221.145 249.912 221.905 249.733 222.621 249.733C223.649 249.689 224.544 249.867 225.259 250.315C225.975 250.717 226.556 251.298 227.048 251.969C227.495 252.64 227.853 253.4 228.032 254.295C228.211 255.144 228.3 255.994 228.256 256.799C228.166 258.141 227.853 259.572 227.317 261.092C226.78 262.613 226.064 264.044 225.17 265.341C224.276 266.638 223.247 267.756 222.084 268.65C220.921 269.589 219.669 270.037 218.328 270.081ZM221.905 254.742C221.548 254.742 221.19 254.831 220.832 254.966C220.474 255.1 220.116 255.234 219.759 255.413C219.401 255.592 219.088 255.815 218.775 255.994C218.462 256.218 218.193 256.397 217.97 256.576C217.836 256.844 217.746 257.023 217.702 257.157C217.657 257.291 217.612 257.425 217.567 257.515C217.523 257.604 217.478 257.649 217.433 257.694C217.388 257.738 217.344 257.738 217.299 257.783C217.165 257.917 217.031 258.051 216.807 258.185C216.583 258.32 216.36 258.409 216.092 258.499L215.913 259.974C215.868 260.69 215.913 261.316 216.002 261.942C216.092 262.568 216.27 263.105 216.449 263.597C216.673 264.089 216.897 264.446 217.165 264.715C217.433 264.983 217.746 265.117 218.104 265.117C218.775 265.073 219.446 264.849 220.027 264.312C220.608 263.82 221.145 263.15 221.592 262.389C222.039 261.629 222.397 260.779 222.71 259.84C222.979 258.901 223.202 258.051 223.292 257.202C223.336 256.62 223.247 256.084 223.113 255.547C222.889 255.01 222.487 254.742 221.905 254.742Z" fill="white"/>
<path d="M237.738 252.685C238.14 252.059 238.632 251.522 239.124 251.075C239.616 250.628 240.197 250.36 240.824 250.36C241.628 250.315 242.299 250.538 242.836 250.941C243.373 251.343 243.82 251.88 244.133 252.506C244.446 253.132 244.714 253.803 244.893 254.519C245.072 255.234 245.251 255.86 245.43 256.442C245.788 258.052 246.19 259.617 246.548 261.137C246.95 262.658 247.487 264.178 248.202 265.699C248.56 266.37 248.56 266.996 248.292 267.577C248.024 268.159 247.576 268.561 247.04 268.785C246.503 269.053 245.922 269.098 245.251 268.964C244.625 268.829 244.133 268.382 243.775 267.667C242.881 265.878 242.21 263.999 241.807 262.121C241.36 260.243 240.913 258.275 240.421 256.307L240.376 256.129C239.974 256.889 239.527 257.783 239.124 258.901C238.722 260.019 238.319 261.137 238.006 262.3C237.693 263.463 237.425 264.491 237.201 265.475C236.978 266.459 236.843 267.175 236.799 267.577C236.709 268.382 236.441 269.008 235.949 269.321C235.457 269.679 234.876 269.813 234.294 269.768C233.713 269.724 233.176 269.5 232.684 269.053C232.192 268.606 231.969 268.024 231.969 267.264C232.058 264.76 232.103 262.121 232.192 259.348C232.282 256.576 232.505 253.982 232.908 251.478C233.042 250.762 233.355 250.225 233.892 249.912C234.384 249.599 234.965 249.51 235.502 249.599C236.083 249.689 236.575 250.002 237.067 250.538C237.514 251.165 237.738 251.835 237.738 252.685Z" fill="white"/>
</svg>
