<svg width="32" height="32" viewBox="0 0 32 32" fill="none" xmlns="http://www.w3.org/2000/svg">
    <path d="M3 16C3 8.8203 8.8203 3 16 3C23.1797 3 29 8.8203 29 16C29 23.1797 23.1797 29 16 29C8.8203 29 3 23.1797 3 16Z" fill="#561857"/>
    <path d="M16 9.33325C15.1246 9.33325 14.2576 9.50569 13.4488 9.84072C12.64 10.1758 11.905 10.6668 11.286 11.2859C10.0357 12.5361 9.33337 14.2318 9.33337 15.9999C9.32754 17.5393 9.86056 19.0323 10.84 20.2199L9.5067 21.5533C9.41419 21.647 9.35153 21.766 9.32661 21.8954C9.3017 22.0247 9.31565 22.1585 9.3667 22.2799C9.42207 22.3999 9.51184 22.5007 9.6246 22.5695C9.73736 22.6384 9.86803 22.6721 10 22.6666H16C17.7681 22.6666 19.4638 21.9642 20.7141 20.714C21.9643 19.4637 22.6667 17.768 22.6667 15.9999C22.6667 14.2318 21.9643 12.5361 20.7141 11.2859C19.4638 10.0356 17.7681 9.33325 16 9.33325ZM16 21.3333H11.6067L12.2267 20.7133C12.3509 20.5883 12.4206 20.4194 12.4206 20.2433C12.4206 20.0671 12.3509 19.8982 12.2267 19.7733C11.3538 18.9013 10.8101 17.7536 10.6885 16.5258C10.5668 15.298 10.8747 14.0659 11.5595 13.0396C12.2444 12.0133 13.2639 11.2562 14.4444 10.8972C15.6249 10.5383 16.8933 10.5998 18.0335 11.0712C19.1737 11.5426 20.1153 12.3948 20.6977 13.4825C21.28 14.5703 21.4673 15.8263 21.2275 17.0366C20.9876 18.2469 20.3356 19.3366 19.3824 20.1201C18.4292 20.9035 17.2339 21.3323 16 21.3333Z" fill="#FF72D2"/>
    <path d="M16 26C10.4772 26 6 21.5228 6 16H0C0 24.8366 7.16344 32 16 32V26ZM26 16C26 21.5228 21.5228 26 16 26V32C24.8366 32 32 24.8366 32 16H26ZM16 6C21.5228 6 26 10.4772 26 16H32C32 7.16344 24.8366 0 16 0V6ZM16 0C7.16344 0 0 7.16344 0 16H6C6 10.4772 10.4772 6 16 6V0Z" fill="#080134"/>
    </svg>
    