<svg width="32" height="32" viewBox="0 0 32 32" fill="none" xmlns="http://www.w3.org/2000/svg">
    <path d="M3 16C3 8.8203 8.8203 3 16 3C23.1797 3 29 8.8203 29 16C29 23.1797 23.1797 29 16 29C8.8203 29 3 23.1797 3 16Z" fill="#2D1446"/>
    <path fill-rule="evenodd" clip-rule="evenodd" d="M10.4167 13.9166V20.5833H19.5834V15.4166H15.4167C15.1643 15.4166 14.9187 15.3347 14.7167 15.1833L13.0278 13.9166H10.4167ZM9.42508 12.925C9.64388 12.7062 9.94062 12.5833 10.25 12.5833H13.0834C13.3358 12.5833 13.5814 12.6651 13.7834 12.8166L15.4723 14.0833H19.75C20.0595 14.0833 20.3562 14.2062 20.575 14.425C20.7938 14.6438 20.9167 14.9405 20.9167 15.2499V20.8055C20.9167 21.1002 20.7996 21.3828 20.5913 21.5911C20.3829 21.7995 20.1003 21.9166 19.8056 21.9166H10.25C9.94062 21.9166 9.64388 21.7937 9.42508 21.5749C9.20629 21.3561 9.08337 21.0593 9.08337 20.7499V13.7499C9.08337 13.4405 9.20629 13.1438 9.42508 12.925Z" fill="#C379F6"/>
    <path fill-rule="evenodd" clip-rule="evenodd" d="M12.9167 11.4166V13.2499C12.9167 13.6181 12.6182 13.9166 12.25 13.9166C11.8819 13.9166 11.5834 13.6181 11.5834 13.2499V11.2499C11.5834 10.9405 11.7063 10.6438 11.9251 10.425C12.1439 10.2062 12.4406 10.0833 12.75 10.0833H15.5834C15.8358 10.0833 16.0814 10.1651 16.2834 10.3166L17.9723 11.5833H22.25C22.5595 11.5833 22.8562 11.7062 23.075 11.925C23.2938 12.1438 23.4167 12.4405 23.4167 12.7499V18.3055C23.4167 18.6002 23.2996 18.8828 23.0913 19.0911C22.8829 19.2995 22.6003 19.4166 22.3056 19.4166H20.25C19.8819 19.4166 19.5834 19.1181 19.5834 18.7499C19.5834 18.3817 19.8819 18.0833 20.25 18.0833H22.0834V12.9166H17.9167C17.6643 12.9166 17.4187 12.8347 17.2167 12.6833L15.5278 11.4166H12.9167Z" fill="#C379F6"/>
    <path d="M16 26C10.4772 26 6 21.5228 6 16H0C0 24.8366 7.16344 32 16 32V26ZM26 16C26 21.5228 21.5228 26 16 26V32C24.8366 32 32 24.8366 32 16H26ZM16 6C21.5228 6 26 10.4772 26 16H32C32 7.16344 24.8366 0 16 0V6ZM16 0C7.16344 0 0 7.16344 0 16H6C6 10.4772 10.4772 6 16 6V0Z" fill="#080134"/>
    </svg>
    