<svg width="32" height="32" viewBox="0 0 32 32" fill="none" xmlns="http://www.w3.org/2000/svg">
    <path d="M3 16C3 8.8203 8.8203 3 16 3C23.1797 3 29 8.8203 29 16C29 23.1797 23.1797 29 16 29C8.8203 29 3 23.1797 3 16Z" fill="#433340"/>
    <path fill-rule="evenodd" clip-rule="evenodd" d="M15.9245 17.6094L15.9998 17.6094L16.1682 17.61C17.4552 17.6185 20.3965 17.7485 20.3965 19.7421C20.3965 21.7226 17.5577 21.8517 16.1882 21.8602L15.6808 21.8602C14.3937 21.8517 11.4518 21.7218 11.4518 19.7307C11.4518 17.7478 14.3937 17.6184 15.6808 17.61L15.8492 17.6094C15.8753 17.6094 15.9004 17.6094 15.9245 17.6094ZM15.9245 18.6094C14.3405 18.6094 12.4518 18.8041 12.4518 19.7307C12.4518 20.6364 14.2278 20.8482 15.7797 20.8602L15.9245 20.8607C17.5085 20.8607 19.3965 20.6667 19.3965 19.7421C19.3965 18.8061 17.5085 18.6094 15.9245 18.6094ZM21.2269 17.3389C22.8422 17.5809 23.1816 18.3395 23.1816 18.9335C23.1816 19.2962 23.0389 19.9582 22.0856 20.3215C22.0269 20.3435 21.9669 20.3542 21.9075 20.3542C21.7062 20.3542 21.5162 20.2315 21.4402 20.0322C21.3415 19.7742 21.4715 19.4849 21.7295 19.3869C22.1816 19.2149 22.1816 19.0249 22.1816 18.9335C22.1816 18.6415 21.8102 18.4375 21.0782 18.3282C20.8055 18.2869 20.6169 18.0329 20.6575 17.7589C20.6982 17.4855 20.9515 17.3035 21.2269 17.3389ZM11.1907 17.7589C11.2314 18.0329 11.0427 18.2869 10.7701 18.3282C10.0381 18.4375 9.66675 18.6415 9.66675 18.9335C9.66675 19.0249 9.66675 19.2142 10.1194 19.3869C10.3774 19.4849 10.5074 19.7742 10.4087 20.0322C10.3327 20.2315 10.1427 20.3542 9.94141 20.3542C9.88208 20.3542 9.82208 20.3435 9.76341 20.3215C8.80941 19.9575 8.66675 19.2955 8.66675 18.9335C8.66675 18.3402 9.00608 17.5809 10.6221 17.3389C10.8974 17.3042 11.1494 17.4855 11.1907 17.7589ZM15.9245 10.6667C17.6045 10.6667 18.9705 12.0334 18.9705 13.7127C18.9705 15.3921 17.6045 16.7587 15.9245 16.7587H15.9065C15.0931 16.7561 14.3311 16.4374 13.7605 15.8614C13.1885 15.2861 12.8758 14.5221 12.8791 13.7107C12.8791 12.0334 14.2451 10.6667 15.9245 10.6667ZM15.9245 11.6667C14.7965 11.6667 13.8791 12.5847 13.8791 13.7127C13.8771 14.2594 14.0865 14.7707 14.4698 15.1567C14.8531 15.5427 15.3638 15.7567 15.9078 15.7587L15.9245 16.2587V15.7587C17.0525 15.7587 17.9705 14.8414 17.9705 13.7127C17.9705 12.5847 17.0525 11.6667 15.9245 11.6667ZM20.0505 11.3197C21.2225 11.5124 22.0738 12.5151 22.0738 13.7037C22.0712 14.9004 21.1771 15.9271 19.9938 16.0931C19.9705 16.0964 19.9471 16.0977 19.9245 16.0977C19.6791 16.0977 19.4651 15.9171 19.4298 15.6671C19.3918 15.3931 19.5818 15.1404 19.8558 15.1024C20.5492 15.0051 21.0725 14.4037 21.0738 13.7024C21.0738 13.0071 20.5751 12.4191 19.8878 12.3064C19.6158 12.2617 19.4311 12.0044 19.4758 11.7317C19.5211 11.4591 19.7765 11.2764 20.0505 11.3197ZM12.3731 11.7317C12.4178 12.0044 12.2331 12.2617 11.9611 12.3064C11.2738 12.4191 10.7751 13.0071 10.7751 13.7037C10.7765 14.4037 11.2998 15.0057 11.9925 15.1024C12.2665 15.1404 12.4565 15.3931 12.4185 15.6671C12.3831 15.9171 12.1691 16.0977 11.9238 16.0977C11.9011 16.0977 11.8778 16.0964 11.8545 16.0931C10.6711 15.9271 9.77781 14.9004 9.77515 13.7051C9.77515 12.5151 10.6265 11.5124 11.7985 11.3197C12.0791 11.2757 12.3278 11.4604 12.3731 11.7317Z" fill="#FFD166"/>
    <path d="M16 26C10.4772 26 6 21.5228 6 16H0C0 24.8366 7.16344 32 16 32V26ZM26 16C26 21.5228 21.5228 26 16 26V32C24.8366 32 32 24.8366 32 16H26ZM16 6C21.5228 6 26 10.4772 26 16H32C32 7.16344 24.8366 0 16 0V6ZM16 0C7.16344 0 0 7.16344 0 16H6C6 10.4772 10.4772 6 16 6V0Z" fill="#080134"/>
    </svg>
    