<svg width="32" height="32" viewBox="0 0 32 32" fill="none" xmlns="http://www.w3.org/2000/svg">
    <path d="M3 16C3 8.8203 8.8203 3 16 3C23.1797 3 29 8.8203 29 16C29 23.1797 23.1797 29 16 29C8.8203 29 3 23.1797 3 16Z" fill="#211857"/>
    <path fill-rule="evenodd" clip-rule="evenodd" d="M15.9999 21.2715C12.9338 19.5252 11.2238 17.7896 10.3969 16.2836C9.55053 14.7423 9.62438 13.4441 10.094 12.5227C11.0593 10.6289 13.8044 10.0233 15.4769 12.1386L15.9998 12.8L16.5228 12.1387C18.1956 10.0233 20.9408 10.629 21.9061 12.5227C22.3757 13.4441 22.4495 14.7423 21.6031 16.2836C20.7762 17.7895 19.066 19.5252 15.9999 21.2715ZM15.9999 10.7373C13.6471 8.50152 10.1762 9.42555 8.9061 11.9172C8.20907 13.2847 8.19955 15.0521 9.22814 16.9254C10.2476 18.782 12.2802 20.7417 15.6774 22.6194L15.9999 22.7976L16.3223 22.6194C19.7196 20.7417 21.7523 18.782 22.7719 16.9254C23.8005 15.0521 23.791 13.2847 23.094 11.9172C21.8239 9.4255 18.3529 8.50155 15.9999 10.7373Z" fill="#2D9CDB"/>
    <path d="M16 26C10.4772 26 6 21.5228 6 16H0C0 24.8366 7.16344 32 16 32V26ZM26 16C26 21.5228 21.5228 26 16 26V32C24.8366 32 32 24.8366 32 16H26ZM16 6C21.5228 6 26 10.4772 26 16H32C32 7.16344 24.8366 0 16 0V6ZM16 0C7.16344 0 0 7.16344 0 16H6C6 10.4772 10.4772 6 16 6V0Z" fill="#080134"/>
    </svg>
    