<svg width="18" height="18" viewBox="0 0 18 18" fill="none" xmlns="http://www.w3.org/2000/svg">
<path d="M16.2015 3.04151C15.4418 2.06251 14.3425 1.40408 13.1208 1.1963C11.8992 0.988527 10.644 1.24653 9.60338 1.91932C9.42563 2.03804 9.21667 2.10141 9.00292 2.10141C8.78916 2.10141 8.5802 2.03804 8.40245 1.91932C7.36155 1.2457 6.10577 0.987234 4.88346 1.19503C3.66115 1.40283 2.56132 2.06176 1.80151 3.04151C0.942243 4.16293 0.506362 5.55165 0.570676 6.96295C0.63499 8.37426 1.19537 9.71758 2.15307 10.7562L6.97651 15.9728C7.2323 16.2562 7.5447 16.4827 7.89351 16.6377C8.24233 16.7927 8.61979 16.8728 9.00151 16.8728C9.38322 16.8728 9.76069 16.7927 10.1095 16.6377C10.4583 16.4827 10.7707 16.2562 11.0265 15.9728L15.8488 10.7556C16.8065 9.71719 17.367 8.37405 17.4316 6.96287C17.4961 5.55169 17.0605 4.16301 16.2015 3.04151Z" fill="black"/>
</svg>
