<svg width="16" height="16" viewBox="0 0 16 16" fill="none" xmlns="http://www.w3.org/2000/svg">
<path d="M8.00033 1.33325C6.58584 1.33325 5.22928 1.89516 4.22909 2.89535C3.2289 3.89554 2.66699 5.2521 2.66699 6.66659C2.66699 10.2666 7.36699 14.3333 7.56699 14.5066C7.68775 14.6099 7.84142 14.6666 8.00033 14.6666C8.15923 14.6666 8.3129 14.6099 8.43366 14.5066C8.66699 14.3333 13.3337 10.2666 13.3337 6.66659C13.3337 5.2521 12.7718 3.89554 11.7716 2.89535C10.7714 1.89516 9.41481 1.33325 8.00033 1.33325ZM8.00033 13.0999C6.58033 11.7666 4.00033 8.89325 4.00033 6.66659C4.00033 5.60572 4.42175 4.5883 5.1719 3.83816C5.92204 3.08801 6.93946 2.66659 8.00033 2.66659C9.06119 2.66659 10.0786 3.08801 10.8288 3.83816C11.5789 4.5883 12.0003 5.60572 12.0003 6.66659C12.0003 8.89325 9.42033 11.7733 8.00033 13.0999ZM8.00033 3.99992C7.47291 3.99992 6.95734 4.15632 6.51881 4.44933C6.08027 4.74235 5.73848 5.15883 5.53665 5.6461C5.33481 6.13337 5.282 6.66954 5.3849 7.18683C5.48779 7.70411 5.74177 8.17926 6.11471 8.5522C6.48765 8.92514 6.9628 9.17912 7.48008 9.28201C7.99737 9.38491 8.53355 9.3321 9.02081 9.13026C9.50808 8.92843 9.92456 8.58664 10.2176 8.14811C10.5106 7.70957 10.667 7.194 10.667 6.66659C10.667 5.95934 10.386 5.28106 9.88594 4.78097C9.38585 4.28087 8.70757 3.99992 8.00033 3.99992ZM8.00033 7.99992C7.73662 7.99992 7.47883 7.92172 7.25956 7.77521C7.0403 7.6287 6.8694 7.42046 6.76849 7.17683C6.66757 6.9332 6.64116 6.66511 6.69261 6.40647C6.74406 6.14782 6.87105 5.91025 7.05752 5.72378C7.24399 5.53731 7.48156 5.41032 7.7402 5.35887C7.99885 5.30742 8.26693 5.33383 8.51057 5.43475C8.7542 5.53566 8.96244 5.70656 9.10895 5.92583C9.25546 6.14509 9.33366 6.40288 9.33366 6.66659C9.33366 7.02021 9.19318 7.35935 8.94313 7.60939C8.69309 7.85944 8.35395 7.99992 8.00033 7.99992Z" fill="white"/>
</svg>
