<svg width="16" height="16" viewBox="0 0 16 16" fill="none" xmlns="http://www.w3.org/2000/svg">
<path fill-rule="evenodd" clip-rule="evenodd" d="M10.5926 5.40669C10.853 5.66704 10.853 6.08915 10.5926 6.3495L6.34999 10.5921C6.08964 10.8525 5.66753 10.8525 5.40718 10.5921C5.14683 10.3318 5.14683 9.90968 5.40718 9.64933L9.64982 5.40669C9.91017 5.14634 10.3323 5.14634 10.5926 5.40669Z" fill="white"/>
<path fill-rule="evenodd" clip-rule="evenodd" d="M5.28904 6.46797C5.54939 6.72832 5.54939 7.15043 5.28904 7.41078L3.52135 9.17846C3.52132 9.17849 3.52138 9.17843 3.52135 9.17846C3.08394 9.61606 2.83816 10.2096 2.83822 10.8283C2.83827 11.4471 3.0841 12.0405 3.52163 12.478C3.95917 12.9155 4.55258 13.1614 5.17135 13.1614C5.79008 13.1615 6.3835 12.9158 6.8211 12.4784C6.82113 12.4783 6.82108 12.4784 6.8211 12.4784L8.58887 10.7106C8.84922 10.4503 9.27133 10.4503 9.53168 10.7106C9.79203 10.971 9.79203 11.3931 9.53168 11.6534L7.76391 13.4212C7.07624 14.1086 6.14359 14.4948 5.17124 14.4948C4.19888 14.4947 3.26638 14.1084 2.57882 13.4208C1.89127 12.7333 1.50497 11.8008 1.50488 10.8284C1.5048 9.85605 1.89094 8.92349 2.57838 8.23581L4.34623 6.46797C4.60658 6.20762 5.02869 6.20762 5.28904 6.46797Z" fill="white"/>
<path fill-rule="evenodd" clip-rule="evenodd" d="M8.23557 2.57838C8.92325 1.89094 9.85582 1.5048 10.8282 1.50488C11.8005 1.50497 12.733 1.89127 13.4206 2.57882C14.1081 3.26638 14.4944 4.19888 14.4945 5.17124C14.4946 6.14359 14.1085 7.07616 13.421 7.76383L11.6532 9.53168C11.3928 9.79203 10.9707 9.79203 10.7104 9.53168C10.45 9.27133 10.45 8.84922 10.7104 8.58887L12.4781 6.82118C12.4781 6.82116 12.478 6.82121 12.4781 6.82118C12.9155 6.38358 13.1612 5.79008 13.1612 5.17135C13.1611 4.55258 12.9153 3.95917 12.4778 3.52163C12.0402 3.0841 11.4468 2.83827 10.8281 2.83822C10.2093 2.83816 9.6159 3.08386 9.1783 3.52127C9.17827 3.5213 9.17833 3.52124 9.1783 3.52127L7.41053 5.28904C7.15018 5.54939 6.72807 5.54939 6.46772 5.28904C6.20737 5.02869 6.20737 4.60658 6.46772 4.34623L8.23557 2.57838Z" fill="white"/>
</svg>
