<svg width="18" height="18" viewBox="0 0 18 18" fill="none" xmlns="http://www.w3.org/2000/svg">
<path d="M16.4306 6.66076C16.1024 6.61308 15.7892 6.49197 15.5142 6.30645C15.2393 6.12093 15.0098 5.87578 14.8427 5.58925C14.6757 5.30271 14.5754 4.98219 14.5494 4.65154C14.5234 4.32089 14.5723 3.98863 14.6925 3.67951C14.7689 3.47742 14.7802 3.25648 14.7247 3.04767C14.6692 2.83885 14.5498 2.65264 14.3831 2.51513C13.6474 1.89732 12.81 1.41198 11.9081 1.08076C11.7028 1.00447 11.4786 0.994941 11.2675 1.05352C11.0564 1.1121 10.8692 1.2358 10.7325 1.40701C10.5268 1.67006 10.2639 1.88282 9.9637 2.02914C9.66352 2.17546 9.33396 2.2515 9.00001 2.2515C8.66607 2.2515 8.33651 2.17546 8.03633 2.02914C7.73615 1.88282 7.47323 1.67006 7.26751 1.40701C7.13084 1.2358 6.94362 1.1121 6.73253 1.05352C6.52144 0.994941 6.29724 1.00447 6.09189 1.08076C5.2592 1.38656 4.48066 1.8233 3.78564 2.37451C3.61044 2.5132 3.48425 2.70434 3.42555 2.91994C3.36684 3.13553 3.3787 3.36426 3.45939 3.57263C3.58919 3.88993 3.64282 4.23324 3.61597 4.57501C3.58913 4.91678 3.48256 5.2475 3.30481 5.54064C3.12707 5.83379 2.88309 6.08119 2.59246 6.26302C2.30183 6.44484 1.97262 6.55602 1.63126 6.58763C1.40964 6.61133 1.20148 6.70555 1.03744 6.85644C0.87339 7.00732 0.762121 7.20689 0.720012 7.42576C0.615273 7.94421 0.562512 8.47183 0.562512 9.00076C0.561742 9.44357 0.597488 9.88569 0.669387 10.3226C0.705171 10.5485 0.81437 10.7563 0.980101 10.9139C1.14583 11.0715 1.35887 11.1701 1.58626 11.1945C1.93512 11.2272 2.27106 11.3431 2.56597 11.5323C2.86088 11.7215 3.10617 11.9786 3.28132 12.2821C3.45646 12.5856 3.55637 12.9266 3.57267 13.2766C3.58897 13.6266 3.52119 13.9754 3.37501 14.2939C3.27935 14.501 3.25562 14.7342 3.30759 14.9563C3.35956 15.1785 3.48426 15.3769 3.66189 15.5201C4.3932 16.1267 5.22259 16.6042 6.11439 16.932C6.22843 16.9715 6.34808 16.9924 6.46876 16.9939C6.63423 16.9935 6.79721 16.9535 6.94401 16.8772C7.09082 16.8008 7.21719 16.6904 7.31251 16.5551C7.513 16.263 7.78174 16.0243 8.09542 15.8596C8.4091 15.6949 8.75823 15.6093 9.11251 15.6101C9.45578 15.6106 9.7942 15.6911 10.1008 15.8454C10.4075 15.9997 10.6739 16.2235 10.8788 16.4989C11.0151 16.6821 11.2081 16.8151 11.4279 16.8772C11.6476 16.9392 11.8818 16.9269 12.0938 16.842C12.9092 16.5138 13.6684 16.0602 14.3438 15.4976C14.5134 15.3574 14.6342 15.1669 14.6888 14.9536C14.7434 14.7404 14.7289 14.5153 14.6475 14.3108C14.5152 13.9975 14.4575 13.6579 14.479 13.3185C14.5005 12.9792 14.6006 12.6495 14.7713 12.3555C14.942 12.0615 15.1788 11.8112 15.4629 11.6243C15.7469 11.4375 16.0705 11.3192 16.4081 11.2789C16.6271 11.2486 16.8307 11.1494 16.9894 10.9957C17.1482 10.842 17.2539 10.6417 17.2913 10.4239C17.3816 9.95471 17.4305 9.4785 17.4375 9.00076C17.4376 8.49684 17.3905 7.99402 17.2969 7.49888C17.2589 7.28586 17.1548 7.09023 16.9993 6.93977C16.8438 6.78931 16.6448 6.69169 16.4306 6.66076ZM11.8125 9.00076C11.8125 9.55702 11.6476 10.1008 11.3385 10.5633C11.0295 11.0258 10.5902 11.3863 10.0763 11.5992C9.56239 11.812 8.99689 11.8677 8.45132 11.7592C7.90575 11.6507 7.40461 11.3828 7.01128 10.9895C6.61794 10.5962 6.35008 10.095 6.24155 9.54945C6.13303 9.00388 6.18873 8.43838 6.4016 7.92446C6.61447 7.41054 6.97496 6.97129 7.43747 6.66225C7.89999 6.35321 8.44375 6.18826 9.00001 6.18826C9.74593 6.18826 10.4613 6.48457 10.9888 7.01202C11.5162 7.53946 11.8125 8.25484 11.8125 9.00076Z" fill="black"/>
</svg>
